<svg xmlns="http://www.w3.org/2000/svg" viewBox="0 0 159.12 60.57">
  <g data-name="Layer 2">
    <g data-name="Layer 1">
      <path d="M147 28.35c0-.09.72-5.28-.29-7.11-3.21-5.84-10.08-8.42-18.77-7.21-3.57-5.57-10.37-14-19.47-14s-15 7.6-18.63 13c-12.27.57-19.69 4.16-19.69 13.25a14.24 14.24 0 0 0 7.17 12.81 21.31 21.31 0 0 0-.66 5.73c0 7.36 4.29 11.94 13.35 11.94a19.42 19.42 0 0 0 7.61-1.52c5 3.28 12.11 5.33 20 5.33 9.6 0 18.05-3 23-7.67.41 0 .83.05 1.25.05 9.47 0 18.61-6.89 17.15-15.05-.87-4.54-4.18-8.18-12.02-9.55z" fill="#fefefe"/>
      <path d="M38 52.74L55.55 36a.77.77 0 0 0 0-1.14l-18-16.76a.79.79 0 0 0-1.33.55L36 24.28a.78.78 0 0 1-.77.76L.78 24.55a.79.79 0 0 0-.78.8L.28 45.2a.79.79 0 0 0 .8.78l34.42.49a.78.78 0 0 1 .79.73l.37 5a.79.79 0 0 0 1.34.54z" fill="#5308ab"/>
    </g>
  </g>
</svg>
