<svg xmlns="http://www.w3.org/2000/svg" xmlns:xlink="http://www.w3.org/1999/xlink" viewBox="0 0 139.43 131.73">
  <defs>
    <style>
      .cls-8{font-size:16.67px;fill:#1c08a0;font-family:AvenirNext-Bold,Avenir Next;font-weight:700}.cls-11{fill:#bccbc6;stroke:#cedfd9;stroke-miterlimit:10;opacity:.6}
    </style>
    <linearGradient id="linear-gradient" x1="18.38" y1="110.27" x2="147.36" y2="110.27" gradientTransform="matrix(.95 .19 -.17 1.02 14.87 -16.78)" gradientUnits="userSpaceOnUse">
      <stop offset="0" stop-color="#bccbc6"/>
      <stop offset=".51" stop-color="#b3c6c1"/>
      <stop offset=".99" stop-color="#a5bfb9"/>
    </linearGradient>
    <linearGradient id="linear-gradient-2" x1="22.17" y1="43.04" x2="101.3" y2="43.04" gradientTransform="matrix(1.11 .16 .12 .96 -25.46 -3.08)" gradientUnits="userSpaceOnUse">
      <stop offset=".01" stop-color="#f0f0f1"/>
      <stop offset=".27" stop-color="#dfe4e3"/>
      <stop offset=".72" stop-color="#c5d2ce"/>
      <stop offset="1" stop-color="#bccbc6"/>
    </linearGradient>
    <linearGradient id="linear-gradient-3" x1="23.28" y1="45.91" x2="104.26" y2="41.66" gradientTransform="matrix(1.11 .16 .12 .96 -25.46 -3.08)" gradientUnits="userSpaceOnUse">
      <stop offset=".01" stop-color="#a5bfb9"/>
      <stop offset=".49" stop-color="#b3c6c1"/>
      <stop offset="1" stop-color="#bccbc6"/>
    </linearGradient>
    <linearGradient id="linear-gradient-4" x1="77.87" y1="100.9" x2="117.38" y2="100.9" xlink:href="#linear-gradient"/>
    <linearGradient id="linear-gradient-5" x1="19.14" y1="95.31" x2="147.32" y2="95.31" gradientTransform="matrix(.95 .19 -.17 1.02 14.87 -16.78)" xlink:href="#linear-gradient-2"/>
    <linearGradient id="linear-gradient-6" x1="28.03" y1="89.73" x2="120.12" y2="89.73" xlink:href="#linear-gradient"/>
  </defs>
  <g style="isolation:isolate">
    <g id="Layer_2" data-name="Layer 2">
      <g id="Layer_1-2" data-name="Layer 1">
        <path d="M139.43 102.2c-.63-.46-1.3.14-1.86.34-1.16.41-19.37 6.58-23.9 8.12q-13.67 4.66-27.43 9.24c-4.53 1.53-9 3.08-13.59 4.59-2.28.77-4.57 1.52-6.86 2.28l-3.11 1a3.72 3.72 0 0 1-3.21 0 18 18 0 0 1-2.62-2.08l-3.09-2.53-5.76-4.71c-3.71-3.08-7.44-6.13-11.16-9.22s-7.44-6.21-11.17-9.3l-5.5-4.51c-.89-.73-4.53-4.48-4.66-4.17a10.74 10.74 0 0 0-.81 2.59c-.14.79.37 1.25.94 1.93a6 6 0 0 0 .77.65c.41.35.73.72 1.19 1 1.82 1.34 3.54 2.88 5.31 4.33 3.87 3.17 7.7 6.39 11.56 9.57 7.38 6.09 14.58 12.16 21.93 18.26a12.65 12.65 0 0 0 2.31 1.75 4.39 4.39 0 0 0 3.23.09c2.37-.61 4.66-1.57 7-2.35q6.85-2.36 13.74-4.65 14-4.68 28-9.4l13.51-4.61c2.38-.8 4.76-1.6 7.13-2.42 2.06-.72 4.26-1.24 6.29-2.05 1.5-.54 1.88-3.69 1.82-3.74z" fill="url(#linear-gradient)"/>
        <path d="M14.73 91c-.65-4.81-6.59-54.82-7.13-56.64a.52.52 0 0 1 0-.17c.11-.76.91-1.14 1.74-1.42 3.38-1.16 6.83-2.24 10.26-3.34L39.27 23c3-1 6.15-1.9 9.19-2.89 5.53-1.8 11-3.64 16.57-5.45 2.76-.9 5.57-1.76 8.34-2.65q6.19-2 12.36-4.05c.11 0 .38-.2.44-.22.37-.12 0-.56-.27-.88l-.76-.73a1 1 0 0 0-1-.27L3.62 31.44a.4.4 0 0 0-.31.45l7.2 57.16a.9.9 0 0 0 .61.62S14.74 91 14.73 91z" fill="url(#linear-gradient-2)"/>
        <path d="M16.16 87a7.15 7.15 0 0 1-.6-1.46c-2-14.39-4.19-35.28-6.17-49.67a1.78 1.78 0 0 1 .06-.38l1.31-.49c.15-.45 54.59-17.7 75.24-24.46a2.18 2.18 0 0 1 .27.15.37.37 0 0 1 .14.14 2.48 2.48 0 0 1 .15.49c2.05 14.83 4.3 36.15 6.36 51.09-.49.23-75.23 24.59-75.92 24.7z" fill="#fff"/>
        <path d="M86.37 7.47a6.24 6.24 0 0 1 .73 1.6c2.29 16.51 5.13 39.57 7.41 56.08-.12.09-.6.12-.72.21-2.16.72-4.3 1.45-6.46 2.16s-4.28 1.32-6.38 2c-4.27 1.48-8.5 2.88-12.78 4.28-3.73 1.22-7.52 2.38-11.26 3.6-4.61 1.5-9.18 3-13.78 4.55-2.87.94-5.78 1.82-8.65 2.76q-6.82 2.24-13.61 4.51c-1.55.52-3.05 1.11-4.57 1.66-.55 0-.86.07-1.57.09-.12-.48-.06-.84-.17-1.24C12.33 73.62 9.51 51 7.28 34.86c-.44-1.3.57-1.81 1.64-2.18 3.39-1.15 6.83-2.23 10.26-3.33 2.88-.93 5.79-1.83 8.67-2.77 3.68-1.21 7.33-2.46 11-3.66 3-1 6.15-1.89 9.19-2.88 5.53-1.8 11-3.64 16.57-5.45 2.76-.9 5.57-1.76 8.34-2.66q6.19-2 12.36-4a8 8 0 0 1 1.06-.46zm3.92 55.47c-2-14.14-4.09-34.67-6-48.7a2 2 0 0 0-.14-.46s-.08-.1-.13-.14a2.21 2.21 0 0 0-.26-.14C64.17 19.9 10.59 37 10.23 37.11c0 .18 1.17 6.75 1.18 6.85q2.82 20.43 5.65 40.86c.06.45.29 1.49.29 1.49s0 .29.72.1l.65-.17c4.86-1.5 71.11-23.09 71.57-23.3z" fill="url(#linear-gradient-3)"/>
        <path d="M71.1 104.67a6.91 6.91 0 0 1 1.34-.86c2.1-.7 4.24-1.34 6.35-2l9.24-3 8-2.64a2.45 2.45 0 0 1 2.42.4c1.29 1 2.62 2 3.9 3 2 1.59 3.94 3.21 5.89 4.84.41.34.76.75 1.3 1.29a8 8 0 0 1-1.44.85c-4.33 1.44-8.68 2.83-13 4.26-3.65 1.2-7.28 2.44-10.85 3.63a4.26 4.26 0 0 1-2.82-1.26c-2.39-2-4.89-4-7.34-6-.94-.77-1.89-1.59-2.99-2.51z" fill="url(#linear-gradient-4)"/>
        <text class="cls-8" transform="matrix(1.07 -.34 .52 .96 42.12 56.58)">
          &lt;
        </text>
        <text class="cls-8" transform="matrix(1.07 -.34 .52 .96 54.02 52.82)">
          /
        </text>
        <text class="cls-8" transform="matrix(1.07 -.34 .52 .96 61.44 50.47)">
          &gt;
        </text>
        <path d="M139.42 102.19L95.3 65a.7.7 0 0 0-.64-.12L16.11 91.14c-.11 0-.24.11-.25.18a2.74 2.74 0 0 0 .18 1 .49.49 0 0 0 .14.23c.52.51 1 1 1.58 1.5 2.3 1.92 4.63 3.8 6.94 5.71s4.78 4 7.17 6c1.82 1.51 3.62 3 5.44 4.53l8.53 7 5.32 4.41 7.34 6a3.09 3.09 0 0 0 3.09.6l3.09-1 8.45-2.8c2.92-1 5.84-2 8.75-3s5.52-1.85 8.28-2.79 5.61-1.93 8.42-2.87S104.22 114 107 113c3-1 5.94-2 8.91-3l8.12-2.73c2.92-1 5.84-2 8.75-3h.05l6.56-2.11zm-31.75 4.14l-23.92 7.85a.66.66 0 0 1-.63-.13l-9.85-8.21a.6.6 0 0 1 .18-1l22.31-7.88a.67.67 0 0 1 .61.09l11.46 8.25a.6.6 0 0 1-.16 1.03zm7.17-21.46a.61.61 0 0 1-.42.47L41 108.51a.68.68 0 0 1-.62-.12L25.23 96a.65.65 0 0 1-.23-.49v-1.35a.62.62 0 0 1 .42-.58l73-23.92a.67.67 0 0 1 .64.13l15.74 13.55a.61.61 0 0 1 .21.58z" fill="url(#linear-gradient-5)"/>
        <path d="M24.88 93.23C49.48 84.93 73 77.31 97.74 69c.57.51 3.87 3.16 4.39 3.61 4.1 3.58 7.06 5.68 11.12 9.29.69.61 3.14 2.3 2.22 3.5-.59.28-57.59 18.49-60.52 19.47-3.22 1.08-6.42 2.06-9.63 3.14-1.07.37-2.15.71-3.22 1.08a2.4 2.4 0 0 1-2.53-.55l-4.72-4c-1.74-1.49-3.46-3-5.18-4.49l-4-3.4A6.56 6.56 0 0 1 24.24 95a1.18 1.18 0 0 1 .64-1.77z" fill="url(#linear-gradient-6)"/>
        <path class="cls-11" d="M41.31 104.78l69.06-22.73M35.92 100.89l68.74-22.79M30.89 96.74l68.75-22.79"/>
      </g>
    </g>
  </g>
</svg>
