<svg xmlns="http://www.w3.org/2000/svg" xmlns:xlink="http://www.w3.org/1999/xlink" viewBox="0 0 133.76 91.13">
  <defs>
    <style>
      .cls-3{fill:#fff}
    </style>
    <clipPath id="clip-path">
      <path d="M131 17.52l.27.5c3.81 7.34 2.31 17.34-5.17 27.08-12.34 16-36.19 25.19-53.41 20.63-6.75-1.86-11.39-5.48-13.91-10.23l-.27-.5c2.49 4.75 7.11 8.47 13.89 10.23 17.1 4.62 40.95-4.58 53.31-20.66 7.59-9.7 9.09-19.7 5.29-27.05z" fill="none"/>
    </clipPath>
    <linearGradient id="linear-gradient" x1="130.05" y1="597.7" x2="124.54" y2="598.7" gradientTransform="rotate(17.06 2006.208139 292.8795626)" gradientUnits="userSpaceOnUse">
      <stop offset="0" stop-color="#bccbc6"/>
      <stop offset=".26" stop-color="#b3c6c1"/>
      <stop offset=".51" stop-color="#a5bfb9"/>
      <stop offset=".73" stop-color="#96aea8"/>
      <stop offset="1" stop-color="#849994"/>
    </linearGradient>
    <linearGradient id="linear-gradient-2" x1="128.47" y1="562.04" x2="99.47" y2="629.04" xlink:href="#linear-gradient"/>
    <linearGradient id="linear-gradient-3" x1="68.62" y1="645.05" x2="77.73" y2="635.94" gradientTransform="rotate(17.06 2006.208139 292.8795626)" gradientUnits="userSpaceOnUse">
      <stop offset="0" stop-color="#bccbc6"/>
      <stop offset=".26" stop-color="#b3c6c1"/>
      <stop offset=".51" stop-color="#a5bfb9"/>
      <stop offset="1" stop-color="#849994"/>
    </linearGradient>
    <linearGradient id="linear-gradient-4" x1="121.07" y1="-155.13" x2="100.07" y2="-51.13" gradientTransform="rotate(17.06 -153.9882999 -31.2715099)" gradientUnits="userSpaceOnUse">
      <stop offset=".01" stop-color="#f0f0f1"/>
      <stop offset=".27" stop-color="#dfe4e3"/>
      <stop offset=".72" stop-color="#c5d2ce"/>
      <stop offset="1" stop-color="#bccbc6"/>
    </linearGradient>
  </defs>
  <g id="Layer_2" data-name="Layer 2">
    <g id="Layer_1-2" data-name="Layer 1">
      <g id="Layer_2-2" data-name="Layer 2">
        <g id="metodologia">
          <g opacity=".87">
            <path class="cls-3" d="M131 17.52l.27.5c3.81 7.34 2.31 17.34-5.17 27.08-12.34 16-36.19 25.19-53.41 20.63-6.75-1.86-11.39-5.48-13.91-10.23l-.27-.5c2.49 4.75 7.11 8.47 13.89 10.23 17.1 4.62 40.95-4.58 53.31-20.66 7.59-9.7 9.09-19.7 5.29-27.05z"/>
            <g clip-path="url(#clip-path)">
              <path class="cls-3" d="M131 17.52l.27.5.26.5-.26-.5-.27-.5m.27.5l.26.5c.17.47.44 1 .61 1.44l-.27-.5a11.34 11.34 0 0 0-.6-1.44M131.85 19.46l.27.5a14.2 14.2 0 0 1 .48 1.51l-.27-.5a14.2 14.2 0 0 0-.48-1.51"/>
              <path class="cls-3" d="M132.36 20.87l.26.5c.17.47.22 1 .36 1.58l-.27-.5c-.14-.57-.21-1-.35-1.58m.35 1.58l.27.5c0 .53.21 1 .26 1.54L133 24c-.14-.56-.18-1.1-.26-1.54m.17 1.51l.26.5c.05.54.09 1.08.11 1.71l-.27-.5c0-.54-.06-1.17-.1-1.71m.1 1.71l.27.5c0 .63 0 1.14-.05 1.86l-.27-.49c0-.73.07-1.24 0-1.87"/>
              <path class="cls-3" d="M133 27.44l.26.5a11.33 11.33 0 0 1-.2 2l-.26-.5a16.81 16.81 0 0 0 .2-2M132.76 29.47l.26.5a17.31 17.31 0 0 1-.48 2.26l-.27-.5a15.89 15.89 0 0 0 .49-2.26m-.49 2.26l.27.5-.82 2.67-.27-.5.82-2.67"/>
              <path class="cls-3" d="M131.48 34.31l.26.5c-.47 1.21-1 2.52-1.55 3.7l-.27-.5a24.6 24.6 0 0 0 1.56-3.7m-1.59 3.8l.27.5a39.25 39.25 0 0 1-4.08 6.49 43.46 43.46 0 0 1-3.45 4.06l-.26-.49a50 50 0 0 0 3.41-4 40.61 40.61 0 0 0 4.11-6.58m-7.59 10.45l.26.5c-1.08 1.13-2.25 2.24-3.43 3.34l-.26-.5c1.17-1.1 2.32-2.11 3.43-3.34m-3.43 3.34l.26.5c-.86.78-1.8 1.44-2.66 2.22l-.27-.5c.87-.78 1.8-1.44 2.67-2.22"/>
              <path class="cls-3" d="M116.2 54.1l.27.5-2.47 1.76-.26-.5 2.42-1.76"/>
              <path class="cls-3" d="M113.8 55.77l.27.5c-.78.49-1.46 1-2.24 1.5l-.27-.5c.66-.42 1.44-.92 2.24-1.5M111.56 57.27l.27.5c-.78.5-1.43.92-2.18 1.32l-.36-.53c.74-.39 1.49-.79 2.27-1.29"/>
              <path class="cls-3" d="M109.29 58.56l.26.5c-.75.4-1.4.83-2.12 1.13l-.3-.41a13.58 13.58 0 0 0 2.16-1.22M107.13 59.78l.27.5a13.67 13.67 0 0 1-2.1 1l-.26-.5c.72-.31 1.47-.7 2.09-1M105 60.82l.26.5-2.16.9-.26-.5 2.16-.9"/>
              <path class="cls-3" d="M103 61.75l.27.5-2.16.91-.27-.5 2.16-.91M100.81 62.66l.27.5a13.67 13.67 0 0 1-2.23.78l-.27-.5c.72-.3 1.42-.51 2.23-.78"/>
              <path class="cls-3" d="M98.58 63.44l.27.5-2.32.75-.27-.5 2.32-.75"/>
              <path class="cls-3" d="M96.26 64.19l.27.5c-.79.18-1.61.45-2.39.63l-.27-.5a19.1 19.1 0 0 0 2.39-.63m-2.26.65l.26.5-2.48.6-.36-.53a25.54 25.54 0 0 0 2.58-.57m-2.58.57l.26.5-2.68.45-.27-.5 2.65-.45"/>
              <path class="cls-3" d="M88.74 65.86l.27.5c-1 .11-2.08.3-3 .32l-.27-.5c1 0 2.05-.21 3-.32M85.71 66.18l.27.5c-1.3.13-2.56.16-3.83.19l-.26-.5c1.26 0 2.53-.06 3.82-.19"/>
              <path class="cls-3" d="M81.89 66.37l.26.5a37.25 37.25 0 0 1-9.36-1.2C66 63.81 61.4 60.18 58.88 55.44l-.26-.5c2.52 4.74 7.13 8.46 13.91 10.23a37.19 37.19 0 0 0 9.36 1.2"/>
            </g>
            <path d="M117.1 7.2c17.19 4.64 21.07 21.32 8.71 37.4S89.63 69.79 72.53 65.17s-21.07-21.32-8.74-37.31S100 2.58 117.1 7.2z" style="isolation:isolate" opacity=".39" fill="#fff"/>
          </g>
          <path d="M64.64 47.35v-1.37c0-.22.2-2 .2-2.35l.08-.61a5.43 5.43 0 0 1 .28-1.27l.09-.29.59-1.92.18-.57.33-.74.33-.74c.09-.29.27-.55.33-.74l.46-.8c.06-.19.21-.36.27-.55a5.34 5.34 0 0 1 .49-.9l.37-.52c.21-.35.39-.61.61-1 .15-.17.18-.26.34-.42.34-.42.7-.94 1-1.36s.84-1 1.2-1.52c.16-.17.28-.23.34-.42a8.93 8.93 0 0 1 1.09-1.14c.12-.07.18-.26.31-.33.43-.39.77-.81 1.21-1.2l.12-.06c.44-.4.75-.72 1.18-1.11l.28-.23c.69-.53 1.28-1.08 2-1.6l.13-.07c.53-.36 1.09-.82 1.62-1.18l.41-.3c.53-.36.93-.65 1.46-1 0 0 2.91-1.94 3.28-2.14 0 0 2.92-1.31 3.3-1.5l.38-.2c.5-.27 1.07-.41 1.57-.68l.34-.1a10.37 10.37 0 0 1 1.3-.44l.56-.14c.35-.11.82-.28 1.17-.38l.57-.14c.44-.08.91-.25 1.26-.35l.44-.07c.57-.14 1.23-.26 1.8-.4l.35-.1c.57-.14 1.1-.18 1.67-.33l.44-.07c.76-.08 1.43-.19 2.19-.27h.63l.86-.05h.63l.83.05h.63c.51.05 1 0 1.46 0h.32l1.72.22h.41c.42 0 .9.17 1.31.19h.51a10.56 10.56 0 0 1 1.66.4c5.43 1.46 9.25 4.42 11.21 8.27L120.65 15c-2.06-3.89-5.75-6.91-11.18-8.37-.58-.18-1.09-.23-1.66-.4l-.51-.06A6.37 6.37 0 0 0 106 6h-.41l-1.72-.21h-.32a6.45 6.45 0 0 0-1.46 0h-2l-.86.06-.44.07h-.22c-.76.08-1.42.19-2.18.27h-.22L96 6.16a9.66 9.66 0 0 0-1.67.33h-.22l-.13.07c-.56.14-1.23.25-1.8.39l-.18.1-.35.1c-.44.07-.91.24-1.36.32h-.22l-.34.1-1.15.43h-.44l-1.32.54-.35.1a14.5 14.5 0 0 0-1.57.68l-.35.1-1.22.57-.13.07-.37.19a5.83 5.83 0 0 0-1 .54l-.26.13-.25.13-1.12.6-.38.2-.13.07c-.53.36-1 .62-1.56 1L78 13c-.51.27-1.72 1.15-1.72 1.15l-.25.14c-.53.36-1.1.82-1.63 1.18l-.25.13c-.68.53-1.37 1-2 1.6l-.15.17-.13.06a10.49 10.49 0 0 0-1.18 1.11l-.12.07a10.57 10.57 0 0 0-1.21 1.2S68.42 21 68 21.4l-.33.42c-.37.52-.84 1-1.21 1.52s-.7.94-1 1.36c-.16.16-.22.35-.34.42-.22.35-.4.61-.61 1-.16.16-.22.35-.37.51a2.48 2.48 0 0 0-.49.9l-.27.55c-.06.19-.18.26-.24.45l-.09.29-.33.73c-.09.29-.25.45-.33.74A1.89 1.89 0 0 1 62 31c-.15.16-.08.29-.14.48l-.06.19-.68 2.21c-.15.48-.17.89-.29 1.27l-.06.2a.42.42 0 0 0 0 .31 2.86 2.86 0 0 0-.07.93v.31a.4.4 0 0 0 0 .32c.07.13-.05.51 0 .83s0 .22 0 .41-.06.19 0 .22v.73l.08.44v.23l.11.66c0 .22 0 .32.08.44v.22a2.11 2.11 0 0 0 .15.57 1.92 1.92 0 0 1 .07.44v.23l.14.56.1.35.13.25c0 .22.2.38.24.6s.13.25.2.37l.2.38L66.36 53l-.4-.75-.23-.6-.34-.65c0-.22-.1-.34-.14-.57a1.75 1.75 0 0 0-.14-.56l-.2-.7-.12-.66-.11-.66a1.57 1.57 0 0 0-.04-.5z" fill="url(#linear-gradient)"/>
          <path d="M132.58 35.17a25.22 25.22 0 0 0 .89-11.38c-.43-2.83-2.16-5.52-3.47-8l-2.26-4.36c3.19 6 2.21 13.38-.53 19.38-1.93 4.22-5 7.79-8 11.26a39 39 0 0 1-5.64 5.08 34.68 34.68 0 0 1-5.21 3.63c-1.82.91-3.77 1.61-5.63 2.41q-4.5 1.92-9 3.82c-.93.4-1.86.8-2.8 1.17a13.38 13.38 0 0 1-2.67 1.13c-1.82.3-3.66.55-5.5.77-1.11.12-2.26 0-3.38.08a28.81 28.81 0 0 1-4 0 40.79 40.79 0 0 1-4.65-.71c-5.08-1.08-10-3.51-13.35-7.6a18.28 18.28 0 0 1-1.94-2.92c2.37 4.55 4.39 9.74 8.32 13.17A24.11 24.11 0 0 0 76 67.49a41.57 41.57 0 0 0 9 .58c11.71-.84 22.76-5.68 32.07-12.66a53.51 53.51 0 0 0 9.62-9.41 33.66 33.66 0 0 0 5.89-10.83z" fill="url(#linear-gradient-2)"/>
          <path d="M55.5 67.16c2.18-1.32 2.15-5.3 0-8.89-1.87-3.09-4.7-4.79-6.87-4.52l-47 24C-.56 79-.52 83 1.62 86.6c2 3.12 4.86 5 7 4.45L55.5 67.16z" fill="#5308ab"/>
          <path d="M62.17 60.42c.64-.74.37-2.92-.76-5s-2.58-3.52-3.62-3.52l-6.94 3.52c-.58.86-.37 2.91.75 5s2.72 3.76 3.79 3.67z" fill="url(#linear-gradient-3)"/>
          <path d="M113.92 1.2c-17.19-4.65-41.07 4.65-53.4 20.64s-8.46 32.65 8.64 37.27 41.07-4.65 53.4-20.64S131 5.82 113.92 1.2zm2.5 35.49c-9.91 12.86-29.16 20.34-43 16.63s-16.8-17.19-6.89-30 29.15-20.34 43-16.62 16.89 17.16 6.89 29.99z" fill="url(#linear-gradient-4)"/>
        </g>
      </g>
    </g>
  </g>
</svg>
