<svg xmlns="http://www.w3.org/2000/svg" viewBox="0 0 77.76 96.85">
  <defs>
    <style>
      .cls-1{fill:#ffd9ce}.cls-2{opacity:.63}.cls-3{fill:#e5c4bd}
    </style>
  </defs>
  <g id="Layer_2" data-name="Layer 2">
    <g id="Layer_1-2" data-name="Layer 1">
      <path class="cls-1" d="M4.91 46.68c11.4-14.2 25.2-24 17.7-40.2-1.8-4 3.5-7.7 7.6-6.1 24.8 10 5.6 33.1 9.5 35.5-.4 5.8 31.7.7 32.6 5.3 4 21 17.6 51.8-32.8 55.4C19 98 5.31 94.18 2.21 79.48c-2.3-11.2-4.5-23.9 2.7-32.8z"/>
      <g class="cls-2">
        <path class="cls-3" d="M73.61 82.78c1.5 1.3 1.8 7.2.8 8.8-1.1 1.9-5.2 1.8-7.4 2-7.2.7-18.1 3-22.6-5a13 13 0 0 1-1.4-3.2 16.23 16.23 0 0 1 4.3-3.1c4.3-1 24.69-.9 26.3.5z"/>
      </g>
      <path class="cls-1" d="M73.91 82.68c1.4 1.1 1.7 6.1.6 7.5-1.1 1.6-5.2 1.6-7.3 1.8-7 .7-17.8 2.8-22.2-3.9-.5-.9-1-1.8-1.4-2.7a18.77 18.77 0 0 1 4.2-2.7c4.5-1 24.6-1.2 26.1 0z"/>
      <g class="cls-2">
        <path class="cls-3" d="M76.21 70.38c1.8 1.3 1.5 8.5.3 10.3-1.4 2.1-6.2 1.6-8.6 1.7-8.3.3-20.6 2.4-25.8-7.6-.6-1.2-.7-4.5-1.1-5.9a7.2 7.2 0 0 1 2.7-1.5 5.07 5.07 0 0 1 3.2.2c9.6 4.42 28.4 2.2 29.3 2.8z"/>
      </g>
      <path class="cls-1" d="M76.41 69.28c1.8 1.2 1.5 8.1.2 9.8-1.4 2-6.1 1.6-8.5 1.7-8.2.3-20.3 2.3-25.3-7.1-.6-1.2-.7-4.3-1-5.6a5.85 5.85 0 0 1 2.7-1.4 4.74 4.74 0 0 1 3.1.2c9.39 3.9 27.9 1.8 28.8 2.4z"/>
      <g class="cls-2">
        <path class="cls-3" d="M75.81 56.78c2 1.5 2.5 8.4 1.3 10.4-1.4 2.2-6.7 2.3-9.4 2.6-9.2 1.1-23.2 4.3-29.2-5.1-.8-1.2-1.7-4.5-2.2-5.8 1.4-1.4 2.6-1.4 5-1.7a6.55 6.55 0 0 1 1.4 0c8.6.82 31.2-1.9 33.1-.4z"/>
      </g>
      <path class="cls-1" d="M75.91 55.48c1.9 1.5 2.4 8.3 1.2 10.2-1.4 2.2-6.6 2.3-9.3 2.6-9 1.1-22.9 4.2-28.8-5a55.94 55.94 0 0 1-2.2-5.7c1.4-1.4 2.6-1.4 4.9-1.7h1.4c8.6.7 30.89-2 32.8-.4z"/>
      <g class="cls-2">
        <path class="cls-3" d="M69.51 38.68c2.5 1.7 6.3 10.7 5.3 13.4-1.1 3.1-5 3.7-8 4.5-10 2.7-23.3 3.7-34.8-3.7-1.8-1.2 2.9-6 6.8-7.1a23.31 23.31 0 0 1 5.9-.8c8.9-.1 22.4-7.9 24.8-6.3z"/>
      </g>
      <path class="cls-1" d="M71.31 38.88c2.3 1.4 5.7 8.8 4.6 11.2-1.2 2.7-5 3.4-8 4.2-9.9 2.7-22.8 4.1-33.6-1.7-1.7-.9 3-5.2 6.9-6.3a22.57 22.57 0 0 1 5.7-.9c8.7-.5 22.09-7.8 24.4-6.5z"/>
    </g>
  </g>
</svg>
