<svg xmlns="http://www.w3.org/2000/svg" xmlns:xlink="http://www.w3.org/1999/xlink" viewBox="0 0 968.35 522.1"><defs><style>.cls-1{fill:#fff;}.cls-2{fill:none;}.cls-3{fill:#1c08a0;}.cls-4{fill:#058401;}.cls-5{opacity:0.84;}.cls-6{isolation:isolate;}.cls-7{clip-path:url(#clip-path);}.cls-8{opacity:0.39;}.cls-9{clip-path:url(#clip-path-2);}.cls-10{fill:#858585;}.cls-11{fill:#8a8a8a;}.cls-12{fill:#8f8f8f;}.cls-13{fill:#949494;}.cls-14{fill:#999;}.cls-15{fill:#9e9e9e;}.cls-16{fill:#a3a3a3;}.cls-17{fill:#a8a8a8;}.cls-18{fill:#adadad;}.cls-19{fill:#b3b3b3;}.cls-20{fill:#b8b8b8;}.cls-21{fill:#bdbdbd;}.cls-22{fill:#c2c2c2;}.cls-23{fill:#c7c7c7;}.cls-24{fill:#ccc;}.cls-25{fill:#d1d1d1;}.cls-26{fill:#d6d6d6;}.cls-27{fill:#dbdbdb;}.cls-28{clip-path:url(#clip-path-3);}.cls-29{fill:#b7b7b7;}.cls-30{fill:#7e7e7e;}.cls-31{clip-path:url(#clip-path-4);}.cls-32{fill:#747474;}.cls-33{fill:#797979;}.cls-34{fill:#7d7d7d;}.cls-35{fill:#828282;}.cls-36{fill:#868686;}.cls-37{fill:#8b8b8b;}.cls-38{fill:#989898;}.cls-39{fill:#9d9d9d;}.cls-40{fill:#a1a1a1;}.cls-41{fill:#a6a6a6;}.cls-42{fill:#aaa;}.cls-43{fill:#afafaf;}.cls-44{fill:#bcbcbc;}.cls-45{fill:#c1c1c1;}.cls-46{fill:#c5c5c5;}.cls-47{fill:#cacaca;}.cls-48{fill:#cecece;}.cls-49{fill:#d3d3d3;}.cls-50{fill:#d7d7d7;}.cls-51{fill:#dcdcdc;}.cls-52{fill:#e0e0e0;}.cls-53{fill:#e4e4e4;}.cls-54{clip-path:url(#clip-path-5);}</style><clipPath id="clip-path"><path class="cls-1" d="M772.43,325.31l-.75.77C761,337,758.25,355.39,766.19,376.56c13.07,34.84,50.13,64,82.77,65.14,12.82.44,23-3.5,30-10.56l.76-.78c-6.91,7.07-17.14,11-30,10.56-32.65-1.13-69.7-30.29-82.77-65.14C759,354.62,761.75,336.23,772.43,325.31Z"/></clipPath><clipPath id="clip-path-2"><path class="cls-2" d="M792.07,326.41,780.71,338c5.56-5.68,13.79-8.85,24.11-8.49,26.27.91,56.09,24.38,66.61,52.42,6.39,17,4.19,31.83-4.41,40.62L878.37,411c8.6-8.79,10.81-23.58,4.42-40.62-10.52-28-40.34-51.5-66.62-52.42C805.86,317.55,797.63,320.73,792.07,326.41Z"/></clipPath><clipPath id="clip-path-3"><path class="cls-2" d="M781.43,316.45l-11.36,11.6c-10.68,10.92-13.42,29.31-5.49,50.48,13.07,34.83,50.14,64,82.78,65.14,12.82.44,23-3.5,30-10.56l11.35-11.61c-6.91,7.07-17.14,11-29.95,10.56-32.65-1.13-69.71-30.3-82.78-65.14C768,345.76,770.74,327.37,781.43,316.45Z"/></clipPath><clipPath id="clip-path-4"><path class="cls-2" d="M904.58,445.55l-19.34-18.93c-1.4-1.37-3.77-1.72-6.49-.7-4.48,1.68-8.23,6.44-8.37,10.64a5,5,0,0,0,1.35,3.85l19.35,18.93a5,5,0,0,1-1.36-3.85c.14-4.2,3.9-9,8.37-10.64C900.82,443.82,903.18,444.18,904.58,445.55Z"/></clipPath><clipPath id="clip-path-5"><path class="cls-3" d="M966.43,500.87l-67.69-66.24c-2-1.94-5.3-2.43-9.13-1-6.31,2.36-11.59,9.07-11.79,15a7,7,0,0,0,1.91,5.42l67.69,66.24a7,7,0,0,1-1.91-5.42c.21-5.9,5.48-12.61,11.79-15C961.13,498.44,964.46,498.93,966.43,500.87Z"/></clipPath></defs><title>analyze</title><g id="Layer_2" data-name="Layer 2"><g id="Layer_1-2" data-name="Layer 1"><path class="cls-4" d="M592.91,27.33a5,5,0,0,0-4.82-4.6c-11.14,0-22.54,0-33.15,0-6.47,0-12.94-.26-19.41-.45-8.17-.23-15.44-2.1-21.48-9.27-7-8.34-16.43-12-26.83-12q-72.81.07-145.63.29c-9.31,0-13.46,4.5-13.69,14.78-.1,4.65-.1,9.31-.07,14-.09,6.74-.13,13.48,0,20.22.22,10.28,4.37,14.74,13.69,14.78q72.81.33,145.63.29c10.4,0,19.8-3.62,26.83-12,6-7.17,13.3-9,21.48-9.27,6.47-.19,12.94-.41,19.41-.45,10.58-.07,22,0,33.07,0a5,5,0,0,0,4.8-4.45A46.43,46.43,0,0,0,592.91,27.33Z"/><path class="cls-4" d="M265.16,6c-.33-2.64-2.39-5.7-4.82-5.7-11.14,0-22.54,0-33.15,0-6.47,0-4.33.11-18.38-.17S195.2.58,186.3.4c-16.55-.34-16.43.11-26.83.13Q86.66.61,13.84.81C4.53.86.38,5.32.15,15.6c-.1,4.65-.1,9.3-.07,14C0,36.3,0,43,.1,49.77.32,60.06,4.47,65.61,13.79,65.66Q86.6,66,159.42,66c10.4,0,9.32,0,26.83.12,8.89,0,13.39.17,21.56-.07,6.47-.18,12.86.34,19.33.25,16.73-.25,22,.41,33.07,0,5.69-.22,4.44-24.95,4.8-27.52C265.57,34.7,265.62,9.58,265.16,6Z"/><path class="cls-4" d="M914.91,6c-.33-2.64-2.39-5.7-4.82-5.7-11.14,0-22.54,0-33.15,0-6.47,0-4.33.11-18.38-.17S845,.58,836.05.4C819.5.06,819.62.51,809.22.53Q736.41.61,663.59.81c-9.31,0-13.46,4.51-13.69,14.79-.1,4.65-.1,9.3-.07,14-.09,6.74-.13,13.48,0,20.21.22,10.29,4.37,15.84,13.69,15.89q72.81.33,145.63.29c10.4,0,9.32,0,26.83.12,8.89,0,13.39.17,21.56-.07,6.47-.18,12.86.34,19.33.25,16.73-.25,22,.41,33.07,0,5.69-.22,4.44-24.95,4.8-27.52C915.32,34.7,915.37,9.58,914.91,6Z"/><path class="cls-4" d="M265.16,140.33a5,5,0,0,0-4.82-4.6c-11.14,0-22.54,0-33.15,0-6.47,0-12.94-.26-19.41-.45-8.17-.23-15.44-2.1-21.48-9.27-7-8.34-16.43-12-26.83-12q-72.81.07-145.63.29c-9.31,0-13.46,4.5-13.69,14.78-.1,4.65-.1,9.31-.07,14C0,149.8,0,156.54.1,163.28.32,173.56,4.47,178,13.79,178.06q72.81.33,145.63.29c10.4,0,19.8-3.62,26.83-12,6-7.17,13.3-9,21.48-9.27,6.47-.19,12.94-.41,19.41-.45,10.58-.07,22,0,33.07,0a5,5,0,0,0,4.8-4.45A46.43,46.43,0,0,0,265.16,140.33Z"/><path class="cls-4" d="M592.91,119c-.33-2.64-2.39-5.7-4.82-5.7-11.14,0-22.54,0-33.15,0-6.47,0-4.33.11-18.38-.17s-13.61.52-22.51.34c-16.55-.34-16.43.11-26.83.13q-72.81.07-145.63.28c-9.31,0-13.46,4.51-13.69,14.79-.1,4.65-.1,9.3-.07,14-.09,6.74-.13,13.48,0,20.21.22,10.29,4.37,15.84,13.69,15.89q72.81.33,145.63.29c10.4,0,9.32.05,26.83.12,8.89,0,13.39.17,21.56-.07,6.47-.18,12.86.34,19.33.25,16.73-.25,22,.41,33.07,0,5.69-.22,4.44-24.95,4.8-27.52C593.32,147.7,593.37,122.58,592.91,119Z"/><path class="cls-4" d="M914.91,119c-.33-2.64-2.39-5.7-4.82-5.7-11.14,0-22.54,0-33.15,0-6.47,0-4.33.11-18.38-.17s-13.61.52-22.51.34c-16.55-.34-16.43.11-26.83.13q-72.81.07-145.63.28c-9.31,0-13.46,4.51-13.69,14.79-.1,4.65-.1,9.3-.07,14-.09,6.74-.13,13.48,0,20.21.22,10.29,4.37,15.84,13.69,15.89q72.81.33,145.63.29c10.4,0,9.32.05,26.83.12,8.89,0,13.39.17,21.56-.07,6.47-.18,12.86.34,19.33.25,16.73-.25,22,.41,33.07,0,5.69-.22,4.44-24.95,4.8-27.52C915.32,147.7,915.37,122.58,914.91,119Z"/><path class="cls-4" d="M265.16,358c-.33-2.64-2.39-5.7-4.82-5.7-11.14,0-22.54,0-33.15,0-6.47,0-4.33.11-18.38-.17s-13.61.52-22.51.34c-16.55-.34-16.43.11-26.83.13q-72.81.08-145.63.28C4.53,352.86.38,357.32.15,367.6c-.1,4.65-.1,9.3-.07,14C0,388.3,0,395,.1,401.77c.22,10.29,4.37,15.84,13.69,15.89q72.81.33,145.63.29c10.4,0,9.32.05,26.83.12,8.89,0,13.39.17,21.56-.07,6.47-.18,12.86.34,19.33.25,16.73-.25,22,.41,33.07,0,5.69-.22,4.44-25,4.8-27.52C265.57,386.7,265.62,361.58,265.16,358Z"/><path class="cls-4" d="M592.91,358c-.33-2.64-2.39-5.7-4.82-5.7-11.14,0-22.54,0-33.15,0-6.47,0-4.33.11-18.38-.17s-13.61.52-22.51.34c-16.55-.34-16.43.11-26.83.13q-72.81.08-145.63.28c-9.31.05-13.46,4.51-13.69,14.79-.1,4.65-.1,9.3-.07,14-.09,6.74-.13,13.48,0,20.21.22,10.29,4.37,15.84,13.69,15.89q72.81.33,145.63.29c10.4,0,9.32.05,26.83.12,8.89,0,13.39.17,21.56-.07,6.47-.18,12.86.34,19.33.25,16.73-.25,22,.41,33.07,0,5.69-.22,4.44-25,4.8-27.52C593.32,386.7,593.37,361.58,592.91,358Z"/><path class="cls-4" d="M914.91,379.33a5,5,0,0,0-4.82-4.6c-11.14,0-22.54,0-33.15,0-6.47,0-12.94-.26-19.41-.45-8.17-.23-15.44-2.1-21.48-9.27-7-8.34-16.43-12-26.83-12q-72.81.08-145.63.29c-9.31,0-13.46,4.5-13.69,14.78-.1,4.65-.1,9.31-.07,14-.09,6.74-.13,13.48,0,20.22.22,10.28,4.37,14.74,13.69,14.78q72.81.33,145.63.29c10.4,0,19.8-3.62,26.83-12,6-7.17,13.3-9,21.48-9.27,6.47-.19,12.94-.41,19.41-.45,10.58-.07,22,0,33.07,0a5,5,0,0,0,4.8-4.45A46.43,46.43,0,0,0,914.91,379.33Z"/><path class="cls-4" d="M592.91,259.66a5,5,0,0,0-4.82-4.6c-11.14,0-22.54.05-33.15,0-6.47,0-12.94-.26-19.41-.45-8.17-.23-15.44-2.1-21.48-9.27-7-8.33-16.43-12-26.83-12q-72.81.07-145.63.29c-9.31,0-13.46,4.5-13.69,14.78-.1,4.66-.1,9.31-.07,14-.09,6.75-.13,13.48,0,20.22.22,10.28,4.37,14.74,13.69,14.78q72.81.33,145.63.29c10.4,0,19.8-3.62,26.83-12,6-7.17,13.3-9,21.48-9.27,6.47-.19,12.94-.41,19.41-.45,10.58-.06,22,0,33.07,0a5,5,0,0,0,4.8-4.45A46.43,46.43,0,0,0,592.91,259.66Z"/><path class="cls-4" d="M265.16,238.28c-.33-2.64-2.39-5.7-4.82-5.7-11.14,0-22.54,0-33.15,0-6.47,0-4.33.12-18.38-.17s-13.61.52-22.51.34c-16.55-.34-16.43.12-26.83.13q-72.81.07-145.63.29c-9.31,0-13.46,4.5-13.69,14.78-.1,4.65-.1,9.31-.07,14C0,268.63,0,275.37.1,282.11.32,292.39,4.47,298,13.79,298q72.81.33,145.63.29c10.4,0,9.32.06,26.83.13,8.89,0,13.39.16,21.56-.07,6.47-.19,12.86.33,19.33.24,16.73-.24,22,.41,33.07,0,5.69-.22,4.44-24.95,4.8-27.53C265.57,267,265.62,241.91,265.16,238.28Z"/><path class="cls-4" d="M914.91,238.28c-.33-2.64-2.39-5.7-4.82-5.7-11.14,0-22.54,0-33.15,0-6.47,0-4.33.12-18.38-.17s-13.61.52-22.51.34c-16.55-.34-16.43.12-26.83.13q-72.81.07-145.63.29c-9.31,0-13.46,4.5-13.69,14.78-.1,4.65-.1,9.31-.07,14-.09,6.74-.13,13.48,0,20.22.22,10.28,4.37,15.84,13.69,15.88q72.81.33,145.63.29c10.4,0,9.32.06,26.83.13,8.89,0,13.39.16,21.56-.07,6.47-.19,12.86.33,19.33.24,16.73-.24,22,.41,33.07,0,5.69-.22,4.44-24.95,4.8-27.53C915.32,267,915.37,241.91,914.91,238.28Z"/><g class="cls-5"><g class="cls-6"><g class="cls-6"><path class="cls-1" d="M772.43,325.31l-.75.77C761,337,758.25,355.39,766.19,376.56c13.07,34.84,50.13,64,82.77,65.14,12.82.44,23-3.5,30-10.56l.76-.78c-6.91,7.07-17.14,11-30,10.56-32.65-1.13-69.7-30.29-82.77-65.14C759,354.62,761.75,336.23,772.43,325.31Z"/><g class="cls-7"><g class="cls-6"><path class="cls-1" d="M772.43,325.31l-.75.77-.74.78.76-.77.73-.78"/><path class="cls-1" d="M771.7,326.09l-.76.77c-.64.7-1.25,1.43-1.83,2.18l.76-.77c.58-.76,1.19-1.48,1.83-2.18"/><path class="cls-1" d="M769.87,328.27l-.76.77c-.57.75-1.11,1.53-1.62,2.33l.76-.78c.51-.8,1-1.57,1.62-2.32"/><path class="cls-1" d="M768.25,330.59l-.76.78q-.76,1.2-1.44,2.49l.75-.78c.45-.85.93-1.68,1.45-2.49"/><path class="cls-1" d="M766.8,333.08l-.75.78c-.46.86-.88,1.76-1.26,2.67l.75-.77c.39-.92.81-1.81,1.26-2.68"/><path class="cls-1" d="M765.54,335.76l-.75.77c-.4.94-.76,1.91-1.09,2.9l.76-.77c.32-1,.69-2,1.08-2.9"/><path class="cls-1" d="M764.46,338.66l-.76.77c-.34,1.05-.64,2.12-.9,3.22l.76-.78c.26-1.09.56-2.17.9-3.21"/><path class="cls-1" d="M763.56,341.87l-.76.78q-.42,1.75-.69,3.6l.76-.77c.18-1.23.41-2.43.69-3.61"/><path class="cls-1" d="M762.87,345.48l-.76.77q-.3,2-.42,4.17l.76-.77q.12-2.13.42-4.17"/><path class="cls-1" d="M762.45,349.65l-.76.77c-.09,1.66-.1,3.37,0,5.11l.76-.77a48.24,48.24,0,0,1,0-5.11"/><path class="cls-1" d="M762.42,354.76l-.76.77a59.29,59.29,0,0,0,.8,7.43l.75-.77a59.63,59.63,0,0,1-.79-7.43"/><path class="cls-1" d="M763.21,362.19l-.75.77a74,74,0,0,0,3.73,13.6,89.86,89.86,0,0,0,3.95,9l.75-.78a91.09,91.09,0,0,1-3.94-9,73.8,73.8,0,0,1-3.74-13.59"/><path class="cls-1" d="M770.89,384.75l-.75.78c1.31,2.59,2.75,5.14,4.3,7.63l.76-.77c-1.56-2.5-3-5-4.31-7.64"/><path class="cls-1" d="M775.2,392.39l-.76.77c1.13,1.81,2.31,3.59,3.56,5.33l.75-.77c-1.24-1.75-2.43-3.53-3.55-5.33"/><path class="cls-1" d="M778.75,397.72l-.75.77q1.59,2.24,3.3,4.4l.76-.77q-1.71-2.16-3.31-4.4"/><path class="cls-1" d="M782.06,402.12l-.76.77q1.56,2,3.19,3.86l.76-.77c-1.09-1.27-2.16-2.55-3.19-3.86"/><path class="cls-1" d="M785.25,406l-.76.77q1.54,1.78,3.16,3.49l.75-.77c-1.07-1.14-2.12-2.31-3.15-3.49"/><path class="cls-1" d="M788.4,409.47l-.75.77c1,1.09,2.06,2.15,3.13,3.2l.75-.78c-1.06-1-2.1-2.11-3.13-3.19"/><path class="cls-1" d="M791.53,412.66l-.75.78q1.54,1.53,3.17,3l.75-.77q-1.61-1.47-3.17-3"/><path class="cls-1" d="M794.7,415.67l-.75.77q1.59,1.46,3.24,2.84l.75-.77q-1.63-1.39-3.24-2.84"/><path class="cls-1" d="M797.94,418.51l-.75.77c1.09.92,2.2,1.83,3.32,2.7l.76-.77c-1.13-.88-2.23-1.78-3.33-2.7"/><path class="cls-1" d="M801.27,421.21l-.76.77q1.69,1.33,3.44,2.59l.76-.77q-1.74-1.26-3.44-2.59"/><path class="cls-1" d="M804.71,423.8l-.76.77c1.19.86,2.4,1.69,3.61,2.5l.76-.78c-1.22-.8-2.42-1.64-3.61-2.49"/><path class="cls-1" d="M808.32,426.29l-.76.78q1.89,1.24,3.81,2.41l.76-.78q-1.92-1.15-3.81-2.41"/><path class="cls-1" d="M812.13,428.7l-.76.78q2,1.22,4.09,2.33l.76-.77c-1.37-.74-2.74-1.52-4.09-2.34"/><path class="cls-1" d="M816.22,431l-.76.77c1.49.81,3,1.57,4.51,2.29l.76-.77q-2.28-1.08-4.51-2.29"/><path class="cls-1" d="M820.73,433.33l-.76.77c1.73.82,3.46,1.58,5.21,2.28l.76-.77q-2.62-1-5.21-2.28"/><path class="cls-1" d="M825.94,435.61l-.76.77q3.3,1.32,6.62,2.33l.75-.77q-3.31-1-6.61-2.33"/><path class="cls-1" d="M832.55,437.94l-.75.77a66.89,66.89,0,0,0,17.16,3c12.82.44,23-3.5,30-10.56l.76-.78c-6.91,7.07-17.14,11-30,10.56a67,67,0,0,1-17.17-3"/></g></g></g><g class="cls-8"><path class="cls-1" d="M802.39,314.75c-32.64-1.13-48.51,26.19-35.44,61s50.12,64,82.77,65.14,48.51-26.19,35.44-61S835,315.89,802.39,314.75Z"/></g></g></g><g class="cls-6"><g class="cls-6"><g class="cls-9"><g class="cls-6"><path class="cls-10" d="M792.07,326.41,780.71,338c5.56-5.68,13.79-8.85,24.11-8.49a54.14,54.14,0,0,1,13.81,2.4L830,320.31a54.22,54.22,0,0,0-13.82-2.4c-10.31-.36-18.54,2.82-24.1,8.5"/><path class="cls-11" d="M830,320.31l-11.36,11.61c1.78.54,3.56,1.17,5.33,1.87l11.35-11.6c-1.77-.71-3.55-1.34-5.32-1.88"/><path class="cls-12" d="M835.31,322.19,824,333.79q2.1.85,4.19,1.84L839.51,324q-2.09-1-4.2-1.83"/><path class="cls-13" d="M839.51,324l-11.36,11.61c1.22.58,2.43,1.19,3.63,1.84l11.35-11.6c-1.2-.65-2.41-1.27-3.62-1.85"/><path class="cls-14" d="M843.13,325.87l-11.35,11.6c1.1.6,2.2,1.23,3.29,1.88l11.35-11.6c-1.09-.66-2.18-1.29-3.29-1.88"/><path class="cls-15" d="M846.42,327.75l-11.35,11.6c1,.62,2,1.27,3.07,1.94l11.35-11.6c-1-.67-2-1.32-3.07-1.94"/><path class="cls-16" d="M849.49,329.69l-11.35,11.6c1,.65,1.94,1.32,2.9,2l11.36-11.6q-1.44-1-2.91-2"/><path class="cls-17" d="M852.4,331.7,841,343.3c.94.68,1.86,1.37,2.77,2.08l11.36-11.6c-.92-.71-1.84-1.41-2.77-2.08"/><path class="cls-18" d="M855.17,333.78l-11.36,11.6c.9.71,1.8,1.43,2.68,2.18L857.84,336c-.88-.74-1.77-1.47-2.67-2.17"/><path class="cls-19" d="M857.84,336l-11.35,11.61c.88.74,1.75,1.5,2.6,2.28l11.36-11.6c-.86-.78-1.73-1.54-2.61-2.29"/><path class="cls-20" d="M860.45,338.24l-11.36,11.6c.87.79,1.72,1.6,2.56,2.42L863,340.66c-.84-.83-1.69-1.63-2.55-2.42"/><path class="cls-21" d="M863,340.66l-11.35,11.6c.85.84,1.69,1.7,2.51,2.57l11.36-11.6c-.82-.88-1.66-1.73-2.52-2.57"/><path class="cls-22" d="M865.52,343.23l-11.36,11.6c.87.92,1.71,1.86,2.54,2.81L868.06,346c-.83-1-1.68-1.89-2.54-2.81"/><path class="cls-23" d="M868.06,346l-11.36,11.6c.88,1,1.74,2.05,2.57,3.11l11.36-11.61c-.84-1.05-1.69-2.09-2.57-3.1"/><path class="cls-24" d="M870.63,349.14l-11.36,11.61q1.38,1.74,2.66,3.54l11.36-11.61q-1.29-1.8-2.66-3.54"/><path class="cls-25" d="M873.29,352.68l-11.36,11.61q1.5,2.1,2.86,4.29L876.15,357c-.91-1.45-1.87-2.88-2.86-4.29"/><path class="cls-26" d="M876.15,357l-11.36,11.61c1.25,2,2.41,4.06,3.47,6.14l11.35-11.6Q878,360,876.15,357"/><path class="cls-27" d="M879.61,363.12l-11.35,11.6a74.24,74.24,0,0,1,3.17,7.22,58.7,58.7,0,0,1,3,10.94l11.36-11.6a60.6,60.6,0,0,0-3-10.95,71.81,71.81,0,0,0-3.18-7.21"/><path class="cls-26" d="M885.79,381.28l-11.36,11.6a49.16,49.16,0,0,1,.65,6l11.35-11.6a46.8,46.8,0,0,0-.64-6"/><path class="cls-25" d="M886.43,387.26l-11.35,11.6a40.07,40.07,0,0,1,0,4.11l11.36-11.6c.07-1.34.08-2.71,0-4.11"/><path class="cls-24" d="M886.41,391.37,875.05,403c-.06,1.15-.18,2.27-.34,3.36l11.36-11.6c.16-1.1.27-2.22.34-3.36"/><path class="cls-23" d="M886.07,394.73l-11.36,11.6c-.14,1-.33,2-.55,2.9l11.35-11.6c.23-.95.41-1.91.56-2.9"/><path class="cls-22" d="M885.51,397.63l-11.35,11.6c-.21.88-.45,1.75-.73,2.59l11.36-11.61c.27-.84.52-1.7.72-2.58"/><path class="cls-21" d="M884.79,400.21l-11.36,11.61c-.26.8-.55,1.57-.87,2.33l11.36-11.6q.48-1.14.87-2.34"/><path class="cls-20" d="M883.92,402.55l-11.36,11.6c-.31.74-.65,1.46-1,2.15l11.35-11.6c.37-.7.71-1.42,1-2.15"/><path class="cls-19" d="M882.9,404.7l-11.35,11.6c-.36.69-.75,1.36-1.16,2l11.35-11.61c.41-.64.8-1.31,1.16-2"/><path class="cls-18" d="M881.74,406.7l-11.35,11.61c-.42.64-.85,1.27-1.31,1.87l11.35-11.61c.46-.6.9-1.22,1.31-1.87"/><path class="cls-17" d="M880.43,408.57l-11.35,11.61c-.47.61-1,1.19-1.47,1.75L879,410.33a22.46,22.46,0,0,0,1.47-1.76"/><path class="cls-16" d="M879,410.33l-11.35,11.6-.59.63L878.37,411c.2-.2.4-.41.59-.62"/></g></g></g><g class="cls-6"><g class="cls-28"><g class="cls-6"><path class="cls-16" d="M781.43,316.45l-11.36,11.6-.73.78,11.35-11.6c.24-.27.49-.53.74-.78"/><path class="cls-17" d="M780.69,317.23l-11.35,11.6c-.64.7-1.25,1.43-1.83,2.18l11.36-11.61c.57-.75,1.18-1.48,1.82-2.17"/><path class="cls-18" d="M778.87,319.4,767.51,331c-.57.75-1.11,1.52-1.62,2.32l11.35-11.6c.51-.8,1-1.58,1.63-2.33"/><path class="cls-19" d="M777.24,321.73l-11.35,11.6c-.52.81-1,1.64-1.45,2.5l11.36-11.61c.45-.85.93-1.69,1.44-2.49"/><path class="cls-20" d="M775.8,324.22l-11.36,11.61q-.68,1.29-1.26,2.67l11.36-11.6c.38-.92.81-1.81,1.26-2.68"/><path class="cls-21" d="M774.54,326.9l-11.36,11.6c-.39.94-.76,1.91-1.08,2.9l11.35-11.6c.33-1,.69-2,1.09-2.9"/><path class="cls-22" d="M773.45,329.8,762.1,341.4c-.34,1.05-.64,2.12-.9,3.22L772.55,333q.39-1.65.9-3.21"/><path class="cls-23" d="M772.55,333,761.2,344.62q-.42,1.75-.69,3.6l11.35-11.6c.18-1.23.41-2.43.69-3.61"/><path class="cls-24" d="M771.86,336.62l-11.35,11.6q-.3,2-.42,4.17l11.35-11.6q.12-2.13.42-4.17"/><path class="cls-25" d="M771.44,340.79l-11.35,11.6a51.07,51.07,0,0,0,0,5.11l11.36-11.6c-.07-1.74-.06-3.45,0-5.11"/><path class="cls-26" d="M771.41,345.9l-11.36,11.6a61.22,61.22,0,0,0,.8,7.43l11.36-11.6a59.29,59.29,0,0,1-.8-7.43"/><path class="cls-27" d="M772.21,353.33l-11.36,11.6a74.63,74.63,0,0,0,3.73,13.6,88.7,88.7,0,0,0,3.95,9l11.35-11.6a91.09,91.09,0,0,1-3.94-9,73.74,73.74,0,0,1-3.73-13.59"/><path class="cls-26" d="M779.88,375.89l-11.35,11.6c1.31,2.59,2.75,5.14,4.3,7.63l11.36-11.6c-1.55-2.49-3-5-4.31-7.63"/><path class="cls-25" d="M784.19,383.52l-11.36,11.6q1.7,2.72,3.56,5.33l11.35-11.6q-1.86-2.61-3.55-5.33"/><path class="cls-24" d="M787.74,388.85l-11.35,11.6q1.59,2.25,3.3,4.41l11.36-11.61q-1.71-2.16-3.31-4.4"/><path class="cls-23" d="M791.05,393.25l-11.36,11.61c1,1.31,2.1,2.59,3.2,3.85l11.35-11.6c-1.09-1.26-2.16-2.55-3.19-3.86"/><path class="cls-22" d="M794.24,397.11l-11.35,11.6c1,1.19,2.08,2.35,3.15,3.5L797.4,400.6q-1.62-1.71-3.16-3.49"/><path class="cls-21" d="M797.4,400.6,786,412.21c1,1.08,2.07,2.15,3.13,3.19l11.35-11.6c-1.06-1.05-2.1-2.11-3.12-3.2"/><path class="cls-20" d="M800.52,403.8l-11.35,11.6c1,1,2.1,2,3.17,3l11.36-11.6q-1.62-1.47-3.18-3"/><path class="cls-19" d="M803.7,406.8l-11.36,11.6c1.06,1,2.15,1.92,3.24,2.85l11.36-11.61q-1.65-1.38-3.24-2.84"/><path class="cls-18" d="M806.94,409.64l-11.36,11.61q1.63,1.38,3.32,2.7l11.36-11.61q-1.68-1.3-3.32-2.7"/><path class="cls-17" d="M810.26,412.34,798.9,424q1.71,1.33,3.45,2.59l11.35-11.61q-1.74-1.26-3.44-2.59"/><path class="cls-16" d="M813.7,414.93l-11.35,11.61q1.78,1.29,3.61,2.49l11.35-11.6c-1.21-.81-2.42-1.64-3.61-2.5"/><path class="cls-15" d="M817.31,417.43,806,429q1.89,1.26,3.81,2.41l11.36-11.6c-1.29-.77-2.56-1.58-3.82-2.41"/><path class="cls-14" d="M821.13,419.84l-11.36,11.6c1.35.82,2.72,1.6,4.09,2.34l11.36-11.6q-2.07-1.11-4.09-2.34"/><path class="cls-13" d="M825.22,422.18l-11.36,11.6c1.49.81,3,1.57,4.51,2.29l11.35-11.6q-2.26-1.08-4.5-2.29"/><path class="cls-12" d="M829.72,424.47l-11.35,11.6q2.6,1.23,5.21,2.28l11.36-11.6q-2.62-1-5.22-2.28"/><path class="cls-11" d="M834.94,426.75l-11.36,11.6q3.3,1.32,6.62,2.34l11.35-11.61c-2.21-.67-4.42-1.45-6.61-2.33"/><path class="cls-10" d="M841.55,429.08,830.2,440.69a67.3,67.3,0,0,0,17.16,3c12.82.44,23-3.5,30-10.56l11.35-11.61c-6.91,7.07-17.14,11-29.95,10.56a67,67,0,0,1-17.17-3"/></g></g></g><path class="cls-29" d="M894.16,371c13.07,34.84-2.8,62.17-35.44,61s-69.71-30.3-82.78-65.14,2.8-62.17,35.45-61S881.09,336.19,894.16,371Zm-39.9,48.42c26.28.91,39-21.07,28.53-49.12s-40.34-51.5-66.62-52.42S777.13,339,787.65,367s40.34,51.51,66.61,52.42"/></g><g class="cls-6"><ellipse class="cls-30" cx="897.83" cy="452.45" rx="9.65" ry="6.3" transform="translate(-53.49 777.72) rotate(-45.62)"/><g class="cls-6"><g class="cls-31"><g class="cls-6"><path class="cls-32" d="M904.58,445.55l-19.34-18.93a4.35,4.35,0,0,0-1.16-.8l19.34,18.93a3.94,3.94,0,0,1,1.16.8"/><path class="cls-33" d="M903.42,444.75l-19.34-18.93c-.17-.08-.35-.15-.54-.22l19.34,18.93a3.21,3.21,0,0,1,.54.22"/><path class="cls-34" d="M902.88,444.53,883.54,425.6c-.14,0-.29-.09-.44-.12l19.34,18.92.44.13"/><path class="cls-35" d="M902.44,444.4,883.1,425.48l-.4-.08L902,444.33l.4.07"/><path class="cls-36" d="M902,444.33,882.7,425.4l-.38,0,19.34,18.92.38.05"/><path class="cls-37" d="M901.66,444.28l-19.34-18.92-.36,0,19.35,18.93.35,0"/><path class="cls-12" d="M901.31,444.26,882,425.33h-.34L901,444.26h.34"/><path class="cls-13" d="M901,444.26l-19.35-18.93-.34,0,19.35,18.92H901"/><path class="cls-38" d="M900.63,444.27l-19.35-18.92-.32,0L900.3,444.3l.33,0"/><path class="cls-39" d="M900.3,444.3,881,425.38l-.33,0L900,444.34l.33,0"/><path class="cls-40" d="M900,444.34l-19.34-18.92c-.11,0-.22,0-.33.06l19.35,18.92.32-.06"/><path class="cls-41" d="M899.65,444.4,880.3,425.48l-.32.07,19.34,18.92.33-.07"/><path class="cls-42" d="M899.32,444.47,880,425.55l-.34.08L899,444.56l.33-.09"/><path class="cls-43" d="M899,444.56l-19.35-18.93-.33.1,19.34,18.92.34-.09"/><path class="cls-19" d="M898.65,444.65l-19.34-18.92-.35.11,19.34,18.93.35-.12"/><path class="cls-20" d="M898.3,444.77,879,425.84l-.21.08-.14.06L898,444.9l.14,0,.21-.08"/><path class="cls-44" d="M898,444.9,878.61,426l-.36.14,19.34,18.93.36-.15"/><path class="cls-45" d="M897.59,445.05l-19.34-18.93-.37.17,19.34,18.93.37-.17"/><path class="cls-46" d="M897.22,445.22l-19.34-18.93-.38.19,19.34,18.92.38-.18"/><path class="cls-47" d="M896.84,445.4,877.5,426.48l-.39.21,19.34,18.93.39-.22"/><path class="cls-48" d="M896.45,445.62l-19.34-18.93-.4.23,19.34,18.93c.13-.08.26-.16.4-.23"/><path class="cls-49" d="M896.05,445.85l-19.34-18.93-.42.27,19.34,18.93c.14-.1.28-.18.42-.27"/><path class="cls-50" d="M895.63,446.12l-19.34-18.93-.44.3,19.34,18.93c.15-.1.29-.21.44-.3"/><path class="cls-51" d="M895.19,446.42l-19.34-18.93-.47.36,19.34,18.93.47-.36"/><path class="cls-52" d="M894.72,446.78l-19.34-18.93-.56.47,19.34,18.93c.18-.17.37-.32.56-.47"/><path class="cls-53" d="M894.16,447.25l-19.34-18.93a14.68,14.68,0,0,0-1.81,1.89l19.34,18.92a14.6,14.6,0,0,1,1.81-1.88"/><path class="cls-52" d="M892.35,449.13,873,430.21l-.45.59,19.34,18.93c.15-.21.3-.4.45-.6"/><path class="cls-51" d="M891.9,449.73,872.56,430.8c-.12.16-.23.33-.34.5l19.34,18.92c.11-.17.22-.33.34-.49"/><path class="cls-50" d="M891.56,450.22,872.22,431.3c-.1.15-.2.3-.29.46l19.34,18.92.29-.46"/><path class="cls-49" d="M891.27,450.68l-19.34-18.92c-.09.14-.17.29-.25.44L891,451.12l.25-.44"/><path class="cls-48" d="M891,451.12,871.68,432.2l-.22.41,19.34,18.93c.07-.14.14-.28.22-.42"/><path class="cls-47" d="M890.8,451.54l-19.34-18.93-.19.4,19.34,18.93c.06-.14.13-.27.19-.4"/><path class="cls-46" d="M890.61,451.94,871.27,433l-.17.39,19.34,18.93.17-.39"/><path class="cls-45" d="M890.44,452.33,871.1,433.4c-.05.12-.1.24-.14.37l19.34,18.92.14-.36"/><path class="cls-44" d="M890.3,452.69,871,433.77c0,.11-.09.23-.13.35l19.34,18.93.13-.36"/><path class="cls-20" d="M890.17,453.05l-19.34-18.93c0,.12-.07.23-.1.35l19.34,18.92.1-.34"/><path class="cls-19" d="M890.07,453.39l-19.34-18.92c0,.11-.07.23-.1.34L890,453.73c0-.11.06-.22.1-.34"/><path class="cls-43" d="M890,453.73l-19.34-18.92c0,.11,0,.22-.07.33l19.34,18.93c0-.11.05-.23.07-.34"/><path class="cls-42" d="M889.9,454.07l-19.34-18.93c0,.11,0,.22-.07.33l19.34,18.93c0-.11,0-.22.07-.33"/><path class="cls-41" d="M889.83,454.4l-19.34-18.93c0,.11,0,.22,0,.33l19.34,18.92c0-.11,0-.21.05-.32"/><path class="cls-40" d="M889.78,454.72,870.44,435.8c0,.11,0,.22,0,.33l19.35,18.92,0-.33"/><path class="cls-39" d="M889.75,455.05,870.4,436.13c0,.11,0,.22,0,.33l19.34,18.92,0-.33"/><path class="cls-38" d="M889.72,455.38l-19.34-18.92v.1a1.85,1.85,0,0,0,0,.23l19.34,18.93c0-.08,0-.15,0-.23v-.11"/><path class="cls-13" d="M889.71,455.72l-19.34-18.93c0,.11,0,.23,0,.33l19.34,18.93c0-.11,0-.22,0-.33"/><path class="cls-12" d="M889.72,456.05l-19.34-18.93c0,.12,0,.24,0,.35l19.35,18.93c0-.12,0-.23,0-.35"/><path class="cls-37" d="M889.75,456.4,870.4,437.47c0,.12,0,.23.05.34l19.34,18.93c0-.11,0-.23,0-.34"/><path class="cls-36" d="M889.79,456.74l-19.34-18.93c0,.13,0,.25.07.37l19.34,18.92c0-.11-.05-.24-.07-.36"/><path class="cls-35" d="M889.86,457.1l-19.34-18.92c0,.13.07.26.11.39L890,457.49a3.64,3.64,0,0,1-.11-.39"/><path class="cls-34" d="M890,457.49l-19.34-18.92a3.12,3.12,0,0,0,.15.43l19.34,18.92a3.12,3.12,0,0,1-.15-.43"/><path class="cls-33" d="M890.12,457.92,870.78,439c.08.17.16.34.25.51l19.34,18.92c-.09-.16-.17-.33-.25-.51"/><path class="cls-32" d="M890.37,458.43,871,439.51a4.43,4.43,0,0,0,.7.9l19.35,18.93a4.2,4.2,0,0,1-.71-.91"/></g></g></g></g><g class="cls-6"><ellipse class="cls-3" cx="956.93" cy="510.57" rx="13.58" ry="8.87" transform="translate(-77.26 837.44) rotate(-45.62)"/><g class="cls-6"><path class="cls-3" d="M966.43,500.87l-67.69-66.24c-2-1.94-5.3-2.43-9.13-1-6.31,2.36-11.59,9.07-11.79,15a7,7,0,0,0,1.91,5.42l67.69,66.24a7,7,0,0,1-1.91-5.42c.21-5.9,5.48-12.61,11.79-15C961.13,498.44,964.46,498.93,966.43,500.87Z"/><g class="cls-54"><g class="cls-6"><path class="cls-3" d="M966.43,500.87l-67.69-66.24a6,6,0,0,0-1.63-1.13l67.69,66.24a6,6,0,0,1,1.63,1.13"/><path class="cls-3" d="M964.8,499.74,897.11,433.5a7.28,7.28,0,0,0-.77-.31L964,499.43a6.51,6.51,0,0,1,.77.31"/><path class="cls-3" d="M964,499.43l-67.69-66.24a6.29,6.29,0,0,0-.62-.17l67.69,66.24a6.29,6.29,0,0,1,.62.17"/><path class="cls-3" d="M963.41,499.26,895.72,433a5.54,5.54,0,0,0-.56-.11l67.69,66.24a5,5,0,0,1,.56.11"/><path class="cls-3" d="M962.85,499.15l-67.69-66.24-.53-.07,67.69,66.24.53.07"/><path class="cls-3" d="M962.32,499.08l-67.69-66.24-.51,0,67.7,66.24.5,0"/><path class="cls-3" d="M961.82,499.05l-67.7-66.24h-.48l67.7,66.24h.48"/><path class="cls-3" d="M961.34,499.05l-67.7-66.24-.47,0,67.69,66.24.48,0"/><path class="cls-3" d="M960.86,499.07l-67.69-66.24-.46,0,67.69,66.24.46,0"/><path class="cls-3" d="M960.4,499.11l-67.69-66.24-.47.06,67.7,66.24.46-.06"/><path class="cls-3" d="M959.94,499.17l-67.7-66.24-.45.08,67.69,66.24.46-.08"/><path class="cls-3" d="M959.48,499.25,891.79,433l-.47.1L959,499.35l.46-.1"/><path class="cls-3" d="M959,499.35l-67.7-66.24-.46.12,67.69,66.24.47-.12"/><path class="cls-3" d="M958.55,499.47l-67.69-66.24-.47.14,67.69,66.24.47-.14"/><path class="cls-3" d="M958.08,499.61l-67.69-66.24-.49.16,67.69,66.24.49-.16"/><path class="cls-3" d="M957.59,499.77,889.9,433.53l-.29.11-.21.07L957.1,500l.2-.07.29-.11"/><path class="cls-3" d="M957.1,500l-67.7-66.24-.51.21,67.7,66.24.51-.21"/><path class="cls-3" d="M956.59,500.16l-67.7-66.24-.52.24,67.7,66.24.52-.24"/><path class="cls-3" d="M956.07,500.4l-67.7-66.24-.53.26,67.7,66.24.53-.26"/><path class="cls-3" d="M955.54,500.66l-67.7-66.24-.55.3L955,501l.56-.3"/><path class="cls-3" d="M955,501l-67.69-66.24-.56.33,67.69,66.24L955,501"/><path class="cls-3" d="M954.42,501.29l-67.69-66.24-.59.37,67.7,66.24.58-.37"/><path class="cls-3" d="M953.84,501.66l-67.7-66.24-.61.43,67.69,66.24c.2-.15.41-.29.62-.43"/><path class="cls-3" d="M953.22,502.09l-67.69-66.24c-.23.16-.45.33-.67.5l67.7,66.24c.21-.17.43-.34.66-.5"/><path class="cls-3" d="M952.56,502.59l-67.7-66.24-.79.66,67.69,66.24.8-.66"/><path class="cls-3" d="M951.76,503.25,884.07,437a21.16,21.16,0,0,0-2.54,2.65l67.69,66.24a21.9,21.9,0,0,1,2.54-2.65"/><path class="cls-3" d="M949.22,505.9l-67.69-66.24-.64.84,67.7,66.24q.3-.42.63-.84"/><path class="cls-3" d="M948.59,506.74l-67.7-66.24-.48.7,67.7,66.24c.15-.23.31-.47.48-.7"/><path class="cls-3" d="M948.11,507.44l-67.7-66.24-.4.65,67.69,66.24c.13-.22.27-.44.41-.65"/><path class="cls-3" d="M947.7,508.09,880,441.85l-.36.62,67.7,66.24c.11-.21.23-.42.35-.62"/><path class="cls-3" d="M947.35,508.71l-67.7-66.24-.31.59L947,509.3c.1-.2.2-.4.31-.59"/><path class="cls-3" d="M947,509.3l-67.7-66.24c-.09.18-.18.37-.26.56l67.69,66.24.27-.56"/><path class="cls-3" d="M946.77,509.86l-67.69-66.24c-.09.18-.16.36-.24.54l67.69,66.24.24-.54"/><path class="cls-3" d="M946.53,510.4l-67.69-66.24c-.07.17-.14.35-.2.52l67.69,66.24c.07-.17.13-.35.2-.52"/><path class="cls-3" d="M946.33,510.92l-67.69-66.24-.18.5,67.7,66.24c.05-.17.11-.34.17-.5"/><path class="cls-3" d="M946.16,511.42l-67.7-66.24-.15.49L946,511.91c0-.16.1-.33.16-.49"/><path class="cls-3" d="M946,511.91l-67.69-66.24c0,.16-.09.32-.13.48l67.69,66.23c0-.15.09-.31.13-.47"/><path class="cls-3" d="M945.87,512.38l-67.69-66.23c0,.15-.07.31-.11.46l67.7,66.24c0-.15.06-.31.1-.47"/><path class="cls-3" d="M945.77,512.85l-67.7-66.24-.09.47,67.7,66.24a3.89,3.89,0,0,1,.09-.47"/><path class="cls-3" d="M945.68,513.32,878,447.08c0,.15-.05.3-.07.46l67.69,66.24c0-.16,0-.31.08-.46"/><path class="cls-3" d="M945.6,513.78l-67.69-66.24c0,.15,0,.31,0,.46l67.69,66.24c0-.15,0-.31.05-.46"/><path class="cls-3" d="M945.55,514.24,877.86,448a3.67,3.67,0,0,0,0,.46l67.69,66.24,0-.46"/><path class="cls-3" d="M945.52,514.7l-67.69-66.24a.76.76,0,0,0,0,.15c0,.11,0,.22,0,.33l67.7,66.24v-.33c0-.05,0-.1,0-.15"/><path class="cls-3" d="M945.51,515.18l-67.7-66.24c0,.16,0,.31,0,.47l67.7,66.24c0-.16,0-.31,0-.47"/><path class="cls-3" d="M945.52,515.65l-67.7-66.24c0,.16,0,.32,0,.48l67.69,66.24c0-.16,0-.32,0-.48"/><path class="cls-3" d="M945.55,516.13l-67.69-66.24.06.49,67.69,66.24-.06-.49"/><path class="cls-3" d="M945.61,516.62l-67.69-66.24c0,.17.06.34.1.51l67.69,66.24c0-.17-.07-.34-.1-.51"/><path class="cls-3" d="M945.71,517.13,878,450.89a4.94,4.94,0,0,0,.15.55l67.69,66.24-.15-.55"/><path class="cls-3" d="M945.86,517.68l-67.69-66.24a5.31,5.31,0,0,0,.22.6l67.69,66.24c-.08-.19-.15-.39-.22-.6"/><path class="cls-3" d="M946.08,518.28,878.39,452a6,6,0,0,0,.35.72L946.44,519q-.2-.35-.36-.72"/><path class="cls-3" d="M946.44,519l-67.7-66.24a5.93,5.93,0,0,0,1,1.27l67.69,66.24a5.82,5.82,0,0,1-1-1.27"/></g></g></g></g></g></g></svg>