<svg id="Layer_1" xmlns="http://www.w3.org/2000/svg" viewBox="0 0 817.2 623">
  <style>
    .st0{fill:#faedd6}.st6,.st8{fill:none;stroke:#606060;stroke-width:2;stroke-miterlimit:10}.st8{stroke-width:4}.st9{fill:#606060}.st10{fill:#ffd9ce}.st11{fill:#14076e}.st12{fill:#301ea8}.st15{fill:#2f243a}.st19{fill:#f5dbad}.st20{fill:#1b737c}.st21{fill:#1b7f89}.st23{fill:#171718}.st26{fill:#4534b1}.st62{fill:#4c4c4c}
    .arm-down{ -webkit-animation: armove 5s; animation: armove 5s; animation-direction: alternate; animation-delay: 3s; animation-iteration-count: 2;}@keyframes armove {from {rotate(10deg); transform-origin: -15% -10%;} to {transform: rotate(0deg); transform-origin: 10% 15%;}}@-webkit-keyframes armove {from {rotate(10deg); transform-origin: -15% -10%;} to {transform: rotate(0deg); transform-origin: 10% 15%;}}
    .lightup{animation: pulse 5s; -webkit-animation: pulse 5s; animation-direction: alternate; animation-timing-function: ease-out; animation-iteration-count:2;}@keyframes pulse{to {opacity:1;}}@-webkit-keyframes pulse{to {opacity:1;}}
    .arm{transform-origin: -15% -10%; transform: rotate(10deg)}
  </style>
  <g id="arm" class="arm arm-down">
    <path class="st0" d="M142 249.1c8-6.9 11.9-12.1 8.9-22.4 13.8-5.4 11.8.3 9.7 12.1 16.2 6 19 24.1-1.7 25.1-10.2.6-11.1-5.9-16.9-14.8z"/>
    <path class="st0" d="M156.2 237.6c10.5-.6 11.9-1.9 17.9 2.8 7.5 19.1-10.2 23.7-14.7 19.4-6.7-6.7-5.2-11.8-3.2-22.2z"/>
    <path d="M75.9 280.6c-6.5.6-12.6-3.5-14.7-10-9.8-30.9 5.3-90.7 20.7-106 6.6-6.6 13.3-5.5 16.8.4 3.3 5.6 1.4 5.6 2.1 15.2 1.8 24.2-7.2 55.1.7 62.7 5.3 5.1 16.5 1.4 35.6 1.6 7.7.1 5.1 3 6.6 6.5 2.7 6.1 15.4 13 14.1 13.3-13.9 2.9-63.1 14.6-81.9 16.3z" fill="#978ed3"/>
    <path class="st0" d="M142 249.1c8-6.9 11.9-12.1 8.9-22.4 13.8-5.4 11.8.3 9.7 12.1 16.2 6 19 24.1-1.7 25.1-10.2.6-11.1-5.9-16.9-14.8z"/>
    <path d="M153.3 245.4c.6-3.6 3.6-6.3 7.3-6.6 5.3-.4 7.2-.3 11.9 3.3 7.5 19.1-10.2 23.7-14.7 19.4-5.4-5.3-5.6-9.6-4.5-16.1z" fill="#ead8bb"/>
    <path class="st0" d="M156.2 239.3c10.5-.6 11.9-1.9 17.9 2.8 7.5 19.1-10.2 23.7-14.7 19.4-6.8-6.7-5.2-11.8-3.2-22.2z"/>
  </g>
  <circle cx="257.4" cy="25.1" r="3.4" fill="#fefeff"/>
  <path d="M110.5 23.9h304.1c1.4 0 2.5 1.1 2.5 2.5v187.3c0 1.4-1.1 2.5-2.5 2.5H110.5c-1.4 0-2.5-1.1-2.5-2.5V26.4c0-1.4 1.1-2.5 2.5-2.5z" fill="#efffff"/>
  <path fill="#e2e2e2" d="M146 81.6h99.5v86H146z"/>
  <path class="st6" d="M146 81.6l99.5 86M245.5 81.6l-99.5 86"/>
  <path fill="none" stroke="#606060" stroke-width="12" stroke-miterlimit="10" d="M274.2 98.4h106.3"/>
  <path class="st8" d="M274.2 130.5h89.5M274.2 152.4h89.5"/>
  <path class="st9" d="M107.1 22.5h308.8v25.3H107.1z"/>
  <path class="st10" d="M97.5 552c-3 11.2.7 20.5 9.1 28.5-10.9-2.8-20.2-4.4-31.1-7.2l6.2-20.3 15.8-1z"/>
  <path class="st11" d="M75.8 572.8c-2.4 4.9-2.6 9.8 3.7 11.5 15.5 4.2 31.3 7.8 47.6 10.7-4.2-7.3-11.1-12-17.9-16.7l-33.4-5.5"/>
  <path class="st10" d="M34.9 552.6c.3 9.6-.2 19.2-1.6 28.7 3 .3 8-.5 10.9 0 7.7 1.2 15.6.8 23.3 2-9.8-8.4-12.9-18.9-10.9-31"/>
  <path class="st11" d="M65.7 580.9c-7.7-.3-15.5-.7-23.2-1-3-.1-6 .1-9 .1l-.3.2c-.5 1.3-1.7 2.5-1.6 3.8.3 3.9 1.8 5.5 4.8 8 7 5.9 34.9 5.2 53.5 5.3l.5-1.4-24.7-15z"/>
  <path class="st12" d="M97.3 341.5l1.9 113.8 7.4 46.7 2.2 59.6-.6-.1H75.4L52.6 422.9l-20.4-79z"/>
  <path d="M28.6 347.3c15.1 71.3 12.7 70.5 24 118.2 10.2 42.8-5.8 47.5-12.9 90 19.1 3.8 26.4 9.6 31-9.4 18.7-76.5 15.5-158.8 7.8-202.9l-49.9 4.1z" fill="#1c08a0"/>
  <linearGradient id="SVGID_1_" gradientUnits="userSpaceOnUse" x1="349.6445" y1="-71.4986" x2="242.3245" y2="276.4014" gradientTransform="matrix(1 0 0 -1 0 624)">
    <stop offset="0" stop-color="#bccbc6"/>
    <stop offset=".26" stop-color="#b3c6c1"/>
    <stop offset=".51" stop-color="#a5bfb9"/>
    <stop offset=".68" stop-color="#9db6b0"/>
    <stop offset=".95" stop-color="#899e99"/>
    <stop offset="1" stop-color="#849994"/>
  </linearGradient>
  <ellipse cx="304.9" cy="550.5" rx="74.6" ry="52.5" fill="url(#SVGID_1_)"/>
  <path class="st15" d="M347.6 544l3.6-23c-24.7 4.4-12.2.5-30.9 15.8-5.6 4.6 3.2 3.6-3.2 6.8-14 17.5 42.8 22.7 30.5.4zM281.1 547.6c1.2-7.7-1.2-15.3 0-23-24.7 4.4-23.1.5-41.7 15.8-5.6 4.6-10.8 5.8-17.2 9-13.9 17.6 71.3 20.6 58.9-1.8z"/>
  <linearGradient id="SVGID_2_" gradientUnits="userSpaceOnUse" x1="498.6495" y1="638.2402" x2="356.6995" y2="290.0102" gradientTransform="matrix(1 0 0 -1 0 624)">
    <stop offset=".01" stop-color="#f0f0f1"/>
    <stop offset=".27" stop-color="#dfe4e3"/>
    <stop offset=".72" stop-color="#c5d2ce"/>
    <stop offset="1" stop-color="#bccbc6"/>
  </linearGradient>
  <path fill="url(#SVGID_2_)" d="M628.2 293.3l-507.3-.5-23 50.6 502.2 1.4z"/>
  <linearGradient id="SVGID_3_" gradientUnits="userSpaceOnUse" x1="388.5282" y1="386.865" x2="555.68" y2="386.865" gradientTransform="matrix(1 0 0 -1 0 624)">
    <stop offset=".01" stop-color="#f0f0f1"/>
    <stop offset=".27" stop-color="#dfe4e3"/>
    <stop offset=".72" stop-color="#c5d2ce"/>
    <stop offset="1" stop-color="#bccbc6"/>
  </linearGradient>
  <path d="M555.7 293.4l-137.8.6-29.2-108c-.6-2.2.7-4.4 2.9-5 .3-.1.7-.1 1-.1l127.7-.6c2.8 0 5.3 1.9 6 4.6l29.4 108.5z" fill="url(#SVGID_3_)"/>
  <linearGradient id="SVGID_4_" gradientUnits="userSpaceOnUse" x1="414.74" y1="320.57" x2="585.34" y2="320.57" gradientTransform="matrix(1 0 0 -1 0 624)">
    <stop offset="0" stop-color="#849994"/>
    <stop offset=".49" stop-color="#a5bfb9"/>
    <stop offset=".74" stop-color="#b3c6c1"/>
    <stop offset="1" stop-color="#bccbc6"/>
  </linearGradient>
  <path d="M417.9 293.3h164.2c1.8 0 3.2 1.4 3.2 3.2v13.9c0 1.8-1.4 3.2-3.2 3.2H417.9c-1.8 0-3.2-1.4-3.2-3.2v-13.9c0-1.8 1.5-3.2 3.2-3.2z" fill="url(#SVGID_4_)"/>
  <path class="st9" d="M544.1 284.5l-117.1.6-26-94.8 117.1-.6z"/>
  <path class="st19" d="M424.5 343.7c-14.3.1-46.7.3-61 .4l-3.8-21.9h30.6l.4-1.8-6.9-5c5.7-8.8 11.4-17.6 17.2-26.3l4 4.8 5.6 7.2 11.7 15.3c1 1.5 1.9 3 2.9 4.4 6.8 12 8 15.4-.7 22.9z"/>
  <path class="st20" d="M60.4 389.7l-1.2-.2 1.2-1v1.2z"/>
  <path class="st19" d="M265.3 321.7l-4.9 22.2c-12.8-.1-43.6-.7-56.3-.4-9.1.2-10.6-.4-11.6-5.1-1.1-5.5-2.9-3.7 3.4-17.9.6-1.2 1.4-2.4 2.1-3.5.2-.4.5-.8.8-1.2l11.5-15 9.5-12h.2l17.4 26.5-7 4.8.5 1.6h34.4z"/>
  <path class="st21" d="M238 360.5v1.2h-1.4c-.2-.3-.3-.7-.5-1l1.9-.2z"/>
  <path class="st19" d="M350.5 188.4c0-4.3-.8-13.8-2.3-17.5-2.4-6-1-9.3-6.1-12.9-5.4-3.9-19.2-7.9-26.4-7.9-18.2 0-31.2 20.2-31.2 38.4 0 7.2 7.2 13.4 11.4 18.8 2.8 3.6 2.3 6.8 4.7 9.5-.5 5.3-2 21.6-2 23.9 11 3.9 33.6 3.8 44.6.7 1.9-.7 5.5-.7-.6-2.1-5.9-1.4-4.3-16.9-4.7-19.6 3.9-2 5.5-3 8.3-6.3.6-.7 1.1-5 1.6-5.7 1.4-2 .9-6 1.8-8.4.5-1.2.9-.6 1.2-1.8 1-3-.3-6-.3-9.1z"/>
  <path class="st21" d="M301.5 140.4l-1 .2c.1-.3.2-.5.3-.8.3.2.5.4.7.6z"/>
  <path class="st20" d="M236.6 361.7h1.4c-.1.4-.1.8-.2 1.2l-1.2-1.2z"/>
  <path d="M291.7 231.9c-.1-.4-.1-.9-.2-1.3 0 .4.1.8.2 1.3z" fill="#accbcd"/>
  <path class="st23" d="M317.9 141.9c4.3 1.6 8.6 0 11.2.3 7 .8 7.6 5.3 11.4 11.4.6 2.5 10.1 11 9 12.7.9 3.6-9.8 2-8.1 7.2-.1 2.4-.8 4.8-.9 7.2 1 3.8-.8 2 1 5.6 0 1.8-3.6 5.4-3.6 0 0 3.2-.4-10.6-3.4-10-5.6 1 1.6-.2-.2 2.8-1.9 2.9-1.3 2.2-2.1 9.3-.5 4.2 2.9 10.4 2.8 14.4-.2 4.1-.1 8.2.1 12.2-7.4 5.8-17.1 3.8-25.2 5.2-2.4.4-7.3-1.7-9.9-3.2-.6-.6-7-11.6-11.6-15.9-1.9-1.8-1 1.4-1.9 1-.2-5-4.3-11.1-4.6-16-.4-2 1.3-3.4.9-5.4-.5-2.4-1.2-4.2-1.8-6.6-.2-2.1 1.4-4.1 1.2-6.2.4-4.2 4.4-4.9 4.8-9.1.9-2.3 5.4-6.5 6.3-8.8 2.5-1.7 1.8-3.4 5.5-3.4 6.7 0 12.3-3.7 12.1-3.1-.2.2 3.8-.2 7-1.6z"/>
  <path d="M337.1 189.7c-2 0-1.5 6.5-6.4 3.1-.1-6.1-2.8-11.2-.1-14 1.8-1.8 1.8-1.8 4.8-2.2.8-.1 1.6 0 1.6.8 0 5 .1 9.9.1 12.3z" fill="#decbb7"/>
  <path class="st0" d="M114 120.1c-.4 1.6-.9 3.1-1.5 4.6-.4 1-.8 1.9-1.3 2.8-1.3 2.4-.9 4.6-2.7 6.6s-1.5 1.8-4.2 1.7c-2.8 0-5.6-.4-8.3-1-6.9-2.3-11.6 4.6-19.8 2.5-18.2-4.6-19.9-15.7-15.3-34S74.8 74 93 78.6c6.6 1.7 12.3 3.3 16.6 8 2.8 3 3.1 8.3 4.7 12.1.9 2.2-.3 4.5.2 6.8s2.6 8.5 2.5 10.9-2.4 1.2-3 3.7z"/>
  <path class="st0" d="M94.4 133.8c-.9 3.5-.6 17.3-1.4 20.9-11.8.3-27.3-3.5-37.3-10.2.6-2.7 6.8-17.8 7.5-20.5 8.9 8.8 16.1 9.9 31.2 9.8z"/>
  <linearGradient id="SVGID_5_" gradientUnits="userSpaceOnUse" x1="97.28" y1="181.915" x2="621.16" y2="181.915" gradientTransform="matrix(1 0 0 -1 0 624)">
    <stop offset="0" stop-color="#849994"/>
    <stop offset=".19" stop-color="#bccbc6"/>
    <stop offset=".57" stop-color="#b3c6c1"/>
    <stop offset=".94" stop-color="#a5bfb9"/>
  </linearGradient>
  <path d="M621.2 549.5l-.2-256.2-27.3 48.6c-.2 0-495.9.5-495.9.5s-.1 15.5-.2 23c-.1 7.7-.2 15.4-.3 23l-.1 1.2.5.3v201h14.4s1.7-232.1 2.5-232.1h7.3v190.6h14.4V358.8l452.5-.1v.3c5.5-3.6 10.6-7.6 14.4-12.8v-.5l4.4-10.6v214.5h13.6z" fill="url(#SVGID_5_)"/>
  <path class="st26" d="M21 327.5c-25.3 48 3.9 77.7 14.5 121.4 9.5 38.9-2.7 72.7-9.8 111.2 19.1 3.5 24.2 3.9 43.7 3.1 16.6-79.3 10.7-146.8 2.9-226.6L21 327.5zM303.3 416.8l66.1 4.7c0 12.1-15.7 25-17.5 38-.4 3.1 1.1 50.6-.1 72.8-1.2 21.2-16.6 23.6-46.9 14l-7.2-80.1h-2.4c-11.8-.2-23.3-3.7-33.3-10l-8.8-5.5 31.4 81.6c1.6 6.3-2.2 12.7-8.5 14.2-.3.1-.7.2-1 .2l-21.2 3.4c-8.3 1.3-16.3-3.4-19.1-11.3-11-30.5-42.6-129.5-35.7-143.8 12.5-25.9 83.2 15.5 104.2 21.8z"/>
  <linearGradient id="SVGID_6_" gradientUnits="userSpaceOnUse" x1="289" y1="118.475" x2="320" y2="118.475" gradientTransform="matrix(1 0 0 -1 0 624)">
    <stop offset=".01" stop-color="#f0f0f1"/>
    <stop offset=".27" stop-color="#dfe4e3"/>
    <stop offset=".72" stop-color="#c5d2ce"/>
    <stop offset="1" stop-color="#bccbc6"/>
  </linearGradient>
  <path d="M320 470.2l-3.1 55.8s-2.1 23-2.6 23.6-6.3 2-9.5 2c0 0-10.9-1.8-14-3.4-2-1-1.6-.3-1.6-3.1l-.1-74.9c0-5.9 4.8-10.8 10.8-10.8h9.5c5.8 0 10.6 4.8 10.6 10.8z" fill="url(#SVGID_6_)"/>
  <linearGradient id="SVGID_7_" gradientUnits="userSpaceOnUse" x1="7.11" y1="377.2966" x2="114.542" y2="377.2966" gradientTransform="matrix(1 0 0 -1 0 624)">
    <stop offset=".01" stop-color="#978ed3"/>
    <stop offset=".49" stop-color="#a39cd8"/>
    <stop offset="1" stop-color="#aca5dc"/>
  </linearGradient>
  <path d="M63 141.5l-11.7 8.9-11.6 21.5-5.5 21.3-5.8 42.9-6.4 40-.3 2.2c-2.5 20.1-2.1 38.3-9.6 57.2-1.5 3.8-5 15.6-5 15.6l6.5.5c12 .7 24.1.4 36.1-1l14-1.6 33.5-5.7-1.9-63.6 2.3-29.6 14.8-26.7c2.2-4 2.7-8.8 1.3-13.2l-7.7-17.1-11.5-44.6-31.5-7z" fill="url(#SVGID_7_)"/>
  <path d="M84.9 167.5l6 2.2c7.2 36.7 1.3 74.8-4.3 111.4 17.7 19.3 27.8 43.1 43.2 64.2l-18.5-3.7c-16.5-19.8-38.7-26.2-58.4-42-2.1-1.7-3.2-4.2-3.1-6.8 2-38.1 3.8-47.2 10-87l11-36.4c4.1-2.9 9.4-3.6 14.1-1.9z" opacity=".8" fill="#8378cb"/>
  <path class="st0" d="M119.1 322.9c10.1 7.5 12.5 9.4 18.2 15.2-2 22.1-14.5 26.8-33.4 15.6.4-13.1 6.2-20.6 15.2-30.8z"/>
  <linearGradient id="SVGID_8_" gradientUnits="userSpaceOnUse" x1="-50.5527" y1="326.209" x2="128.5273" y2="380.4691" gradientTransform="matrix(1 0 0 -1 0 624)">
    <stop offset="0" stop-color="#aca5dc"/>
    <stop offset=".41" stop-color="#a8a1da"/>
    <stop offset=".84" stop-color="#9d94d5"/>
    <stop offset=".99" stop-color="#978ed3"/>
  </linearGradient>
  <path d="M92.7 159.7l6 2.2c7.3 36.7 1.4 74.8-4.3 111.4 17.7 19.3 27.8 43.1 43.2 64.2l-25.8 8.9C94.4 325.5 78 307 57.5 289.2c2.1-41.6 8.3-81.6 14.7-122.8l6.4-4.7c4.1-3 9.4-3.7 14.1-2z" fill="url(#SVGID_8_)"/>
  <path d="M110.9 84.2c-2.1-.9-11.7-8.2-13.7-8.1-13.2.7-15.6-5.3-36.5 11-3.2 2.5-3.6 7.3-4 11.1-1.1 11.1-4.6 19.4-6.9 33.4-.1 4.7-8.2 31.1-19.7 55.8-8.5 18.3-12.5 29.7-2.4 35.2 3.3 1.8 7.4-2.3 10.9-3.4 7.1-2.3 14.8-4.2 15.4-4.7 2.5-2 6.9-18.3 11-35 4.4-17.6 6.6-35.7 7.8-38.3 3.4-7.6 9.2-13.7 15-19.7 3.3-3.4 6.6-6.8 9.5-10.4-2.6-4.9-6.7-9.8 2.5-13.6.8-.3 1.2-1.9 1.3-2.9 1-5.5 9.1-5.1 9.8-10.4z" fill="#ab58d5"/>
  <path d="M399.6 278.7c-4.5-6.1-23.2-29.1-23.2-29.1s-4.1-3.6-18.5-7.4c-8.6-2.3-17.6-5.8-22.5-4.4-15.6 4.6-19.3 5.4-39.4-1.8-15.6 2.2-26 2.9-38.4 13.4-13.1 11.1-32.1 30.4-44.3 42.5 1.6 7.7 24.6 23 31.3 26.3 7.3-6.5 10.3-8.5 15.5-15.9v42.9c0 1.9-.1 3.7-.2 5.6l-5.2 76.2 115.8-1.8 3.7-31.5c2.4-20 2.6-40.2.8-60.2l-3.7-31.6c4.6 5.7 8.2 14.8 14.6 19.1 3.6-5.5 28-24.2 24.5-28.1-3.8-4.2-5.5-7.1-10.8-14.2z" fill="#effffa"/>
  <linearGradient id="SVGID_9_" gradientUnits="userSpaceOnUse" x1="356.4382" y1="212.1399" x2="211.7382" y2="441.2599" gradientTransform="matrix(1 0 0 -1 0 624)">
    <stop offset="0" stop-color="#849994"/>
    <stop offset=".49" stop-color="#a5bfb9"/>
    <stop offset=".74" stop-color="#b3c6c1"/>
    <stop offset="1" stop-color="#bccbc6"/>
  </linearGradient>
  <path d="M365.2 288.6c-32.7 11.7-94.2.8-106.3-1.5-6.3-1.2-16.1-3.6-17.3 2.7-5 26.8.2 55.4 2.2 70.2.5 4 3.7 17.3 7.8 38.1.3 1.3 5.5 15.3 5 16.5 42.3 8.3 79.9 14.8 123.6 6.9-.6-2.8 3-18.4 3.6-21.4 2.6-12.6 3.9-23.6 4.2-26 3.6-23.9 3.7-67.3-8.6-86.5-3-4.9-8.7-.9-14.2 1z" opacity=".68" fill="url(#SVGID_9_)"/>
  <linearGradient id="SVGID_10_" gradientUnits="userSpaceOnUse" x1="301.5342" y1="161.8995" x2="311.4442" y2="247.8195" gradientTransform="matrix(1 0 0 -1 0 624)">
    <stop offset=".01" stop-color="#5e6663"/>
    <stop offset=".26" stop-color="#6a7673"/>
    <stop offset=".72" stop-color="#7d908b"/>
    <stop offset="1" stop-color="#849994"/>
  </linearGradient>
  <path d="M391.8 416.1c.9-3.3 2.9-14 3.6-17.4 3.1-14.7 2.8-20.4 3.2-23.2 4.2-28 5.1-75.4-9.3-97.9-3.6-5.7-9.7-6.3-17.4-4.3-39.3 10.6-106.2 5.1-124.3-1.8-7-2.7-15.5 1.5-16.3 8.9-7.2 70.4 4.2 94.9 9.1 119.2.3 1.6 1.1 6.2 1.8 9 1.8 7.2 3.9 10 1.8 10.9-9.9 4.2-21.8 4.6-22.2 11.5v1.2h174.6c-.6-1.9-1.4-3.7-2.3-5.4-2-3.7-3.7-5.3-2.3-10.7zm-3.7-42c-.4 2.4-1.6 13.4-4.2 26-.6 2.9-4.2 18.5-3.6 21.4-43.7 8-81.2 1.5-123.6-6.9.5-1.2-4.8-15.2-5-16.5-4.2-20.8-7.3-34.1-7.8-38.1-2-14.8-7.2-43.4-2.2-70.2 1.2-6.3 11-3.9 17.3-2.7 12 2.3 73.5 13.2 106.3 1.5 5.4-1.9 11.2-5.9 14.3-1 12.2 19.2 12.1 62.6 8.5 86.5z" opacity=".7" fill="url(#SVGID_10_)"/>
  <linearGradient id="SVGID_11_" gradientUnits="userSpaceOnUse" x1="293.4264" y1="83.4993" x2="306.4164" y2="196.1093" gradientTransform="matrix(1 0 0 -1 0 624)">
    <stop offset="0" stop-color="#bccbc6"/>
    <stop offset=".26" stop-color="#b3c6c1"/>
    <stop offset=".51" stop-color="#a5bfb9"/>
    <stop offset=".66" stop-color="#9fb9b3"/>
    <stop offset=".87" stop-color="#90a7a1"/>
    <stop offset="1" stop-color="#849994"/>
  </linearGradient>
  <path d="M395.4 398.7c3.1-14.7 2.8-20.4 3.2-23.2 4.2-28 5.1-75.4-9.3-97.9-3.6-5.7-9.7-6.3-17.4-4.3-39.3 10.6-106.2 5.1-124.3-1.8-7-2.7-15.5 1.5-16.3 8.9-7.2 70.4 4.2 94.9 9.1 119.2.3 1.6 1.1 6.2 1.8 9 1.8 7.2 3.9 10 1.8 10.9-9.9 4.2-21.8 4.6-22.2 11.5v1.2c.1 19.4 30.8 44.3 95.8 42.8 54.9-1.2 77.9-9.7 79-29.3.2-4.2 2-6.9-.1-13.5-.6-1.9-1.4-3.7-2.3-5.4-1.9-3.8-3.6-5.4-2.2-10.7.6-3.2 2.6-14 3.4-17.4zM243.9 360c-2-14.8-7.2-43.4-2.2-70.2 1.2-6.3 11-3.9 17.3-2.7 12 2.3 73.5 13.2 106.3 1.5 5.4-1.9 11.2-5.9 14.3-1 12.3 19.2 12.2 62.6 8.6 86.5-.4 2.4-1.6 13.4-4.2 26-.6 2.9-4.2 18.5-3.6 21.4-43.7 8-81.2 1.5-123.6-6.9.5-1.2-4.8-15.2-5-16.5-4.3-20.8-7.4-34.1-7.9-38.1z" fill="url(#SVGID_11_)"/>
  <g id="lightbulb" class="lightup" opacity="0">
    <linearGradient id="SVGID_12_" gradientUnits="userSpaceOnUse" x1="621.08" y1="522.815" x2="656.2792" y2="522.815" gradientTransform="matrix(1 0 0 -1 0 624)">
      <stop offset="0" stop-color="#bccbc6"/>
      <stop offset=".51" stop-color="#b3c6c1"/>
      <stop offset=".99" stop-color="#a5bfb9"/>
    </linearGradient>
    <path d="M649.6 108.9h-21.8c-1.1 0-2-.9-2-2v-3.7c0-.5-.2-.9-.4-1.3l-3.9-5.1c-.7-.9-.6-2.2.3-2.9.3-.3.8-.4 1.2-.4h31.2c1.1 0 2 1 2 2.2 0 .4-.2.9-.4 1.2L652 102c-.3.4-.4.8-.4 1.3v3.6c0 1-.9 1.9-2 2z" fill="url(#SVGID_12_)"/>
    <linearGradient id="SVGID_13_" gradientUnits="userSpaceOnUse" x1="620.75" y1="528.2" x2="656.59" y2="528.2" gradientTransform="matrix(1 0 0 -1 0 624)">
      <stop offset="0" stop-color="#bccbc6"/>
      <stop offset=".51" stop-color="#b3c6c1"/>
      <stop offset=".99" stop-color="#a5bfb9"/>
    </linearGradient>
    <ellipse cx="638.7" cy="95.8" rx="17.9" ry="5.5" fill="url(#SVGID_13_)"/>
    <linearGradient id="SVGID_14_" gradientUnits="userSpaceOnUse" x1="619.04" y1="531.86" x2="658.3" y2="531.86" gradientTransform="matrix(1 0 0 -1 0 624)">
      <stop offset=".01" stop-color="#f0f0f1"/>
      <stop offset=".27" stop-color="#dfe4e3"/>
      <stop offset=".72" stop-color="#c5d2ce"/>
      <stop offset="1" stop-color="#bccbc6"/>
    </linearGradient>
    <ellipse cx="638.7" cy="92.1" rx="19.6" ry="6" fill="url(#SVGID_14_)"/>
    <linearGradient id="SVGID_15_" gradientUnits="userSpaceOnUse" x1="619.04" y1="535.27" x2="658.3" y2="535.27" gradientTransform="matrix(1 0 0 -1 0 624)">
      <stop offset="0" stop-color="#bccbc6"/>
      <stop offset=".51" stop-color="#b3c6c1"/>
      <stop offset=".99" stop-color="#a5bfb9"/>
    </linearGradient>
    <ellipse cx="638.7" cy="88.7" rx="19.6" ry="6" fill="url(#SVGID_15_)"/>
    <linearGradient id="SVGID_16_" gradientUnits="userSpaceOnUse" x1="619.04" y1="538.42" x2="658.3" y2="538.42" gradientTransform="matrix(1 0 0 -1 0 624)">
      <stop offset=".01" stop-color="#f0f0f1"/>
      <stop offset=".27" stop-color="#dfe4e3"/>
      <stop offset=".72" stop-color="#c5d2ce"/>
      <stop offset="1" stop-color="#bccbc6"/>
    </linearGradient>
    <ellipse cx="638.7" cy="85.6" rx="19.6" ry="6" fill="url(#SVGID_16_)"/>
    <linearGradient id="SVGID_17_" gradientUnits="userSpaceOnUse" x1="619.04" y1="541.83" x2="658.3" y2="541.83" gradientTransform="matrix(1 0 0 -1 0 624)">
      <stop offset="0" stop-color="#bccbc6"/>
      <stop offset=".51" stop-color="#b3c6c1"/>
      <stop offset=".99" stop-color="#a5bfb9"/>
    </linearGradient>
    <ellipse cx="638.7" cy="82.2" rx="19.6" ry="6" fill="url(#SVGID_17_)"/>
    <linearGradient id="SVGID_18_" gradientUnits="userSpaceOnUse" x1="619.04" y1="545.24" x2="658.3" y2="545.24" gradientTransform="matrix(1 0 0 -1 0 624)">
      <stop offset=".01" stop-color="#f0f0f1"/>
      <stop offset=".27" stop-color="#dfe4e3"/>
      <stop offset=".72" stop-color="#c5d2ce"/>
      <stop offset="1" stop-color="#bccbc6"/>
    </linearGradient>
    <ellipse cx="638.7" cy="78.8" rx="19.6" ry="6" fill="url(#SVGID_18_)"/>
    <linearGradient id="SVGID_19_" gradientUnits="userSpaceOnUse" x1="619.04" y1="548.9" x2="658.3" y2="548.9" gradientTransform="matrix(1 0 0 -1 0 624)">
      <stop offset="0" stop-color="#bccbc6"/>
      <stop offset=".51" stop-color="#b3c6c1"/>
      <stop offset=".99" stop-color="#a5bfb9"/>
    </linearGradient>
    <ellipse cx="638.7" cy="75.1" rx="19.6" ry="6" fill="url(#SVGID_19_)"/>
    <linearGradient id="SVGID_20_" gradientUnits="userSpaceOnUse" x1="619.04" y1="552.04" x2="658.3" y2="552.04" gradientTransform="matrix(1 0 0 -1 0 624)">
      <stop offset=".01" stop-color="#f0f0f1"/>
      <stop offset=".27" stop-color="#dfe4e3"/>
      <stop offset=".72" stop-color="#c5d2ce"/>
      <stop offset="1" stop-color="#bccbc6"/>
    </linearGradient>
    <ellipse cx="638.7" cy="72" rx="19.6" ry="6" fill="url(#SVGID_20_)"/>
    <linearGradient id="SVGID_21_" gradientUnits="userSpaceOnUse" x1="625.5986" y1="575.045" x2="639.5414" y2="575.045" gradientTransform="matrix(1 0 0 -1 0 624)">
      <stop offset="0" stop-color="#bccbc6"/>
      <stop offset=".51" stop-color="#b3c6c1"/>
      <stop offset=".99" stop-color="#a5bfb9"/>
    </linearGradient>
    <path fill="none" stroke="url(#SVGID_21_)" stroke-width="2" stroke-miterlimit="10" d="M626.5 30.4l12.1 37.1"/>
    <linearGradient id="SVGID_22_" gradientUnits="userSpaceOnUse" x1="637.6387" y1="575.045" x2="651.5814" y2="575.045" gradientTransform="matrix(1 0 0 -1 0 624)">
      <stop offset="0" stop-color="#bccbc6"/>
      <stop offset=".51" stop-color="#b3c6c1"/>
      <stop offset=".99" stop-color="#a5bfb9"/>
    </linearGradient>
    <path fill="none" stroke="url(#SVGID_22_)" stroke-width="2" stroke-miterlimit="10" d="M638.6 67.5l12-37.1"/>
    <linearGradient id="SVGID_23_" gradientUnits="userSpaceOnUse" x1="758.74" y1="586.6766" x2="822.6201" y2="586.6766" gradientTransform="matrix(1 0 0 -1 0 624)">
      <stop offset=".01" stop-color="#f0f0f1"/>
      <stop offset=".27" stop-color="#dfe4e3"/>
      <stop offset=".72" stop-color="#c5d2ce"/>
      <stop offset="1" stop-color="#bccbc6"/>
    </linearGradient>
    <path d="M670 31.9c.3-17.6-13.7-32.2-31.4-32.5s-32.2 13.7-32.5 31.4v1.1c0 8.9 5.1 15.6 9.9 22.4 1 1.5 1.8 3.2 2.4 5 .3 1.1 2.3 12.1 2.3 12.1 0 .2.1.4.2.4l2.3 1.1c1.4.6 2.8 1.1 4.3 1.3 7.3 1.2 14.8 1.2 22.1 0 1.6-.3 3.1-.7 4.6-1.4l2.1-1c.1 0 .2-.2.2-.5 0 0 1.6-11.5 1.9-12.8l.7-2.7c4.7-7.6 10.9-14.4 10.9-23.9z" opacity=".5" fill="url(#SVGID_23_)"/>
    <circle cx="638.3" cy="34" r="21.2" opacity=".5" fill="#e9f27e"/>
    <path d="M626.5 30.4l5.3 1.9c4.5 1.6 9.5 1.6 14-.1l4.8-1.8" opacity=".5" fill="none" stroke="#fff" stroke-width="4" stroke-miterlimit="10"/>
    <path d="M626.5 31.1l5.3 1.9c4.5 1.6 9.5 1.6 14-.1l4.8-1.8" opacity=".5" fill="none" stroke="#e59d1f" stroke-width="3" stroke-miterlimit="10"/>
  </g>
  <linearGradient id="SVGID_24_" gradientUnits="userSpaceOnUse" x1="624.8409" y1="71.9472" x2="774.697" y2="71.9472" gradientTransform="matrix(1 0 0 -1 -.0729364 624.0005)">
    <stop offset=".12" stop-color="#849994"/>
    <stop offset=".49" stop-color="#a5bfb9"/>
    <stop offset=".74" stop-color="#b3c6c1"/>
    <stop offset="1" stop-color="#bccbc6"/>
  </linearGradient>
  <path d="M625 543.9c3-27 38.8-45.2 80.1-40.7s72.3 30.1 69.4 57.1c-3 27-38.8 45.2-80.1 40.7-41.3-4.6-72.4-30.1-69.4-57.1z" fill="url(#SVGID_24_)"/>
  <path class="st23" d="M610.9 566l3.5-22c-23.6 4.2-23.8 4-41.6 18.6-5.3 4.3-10.3 3.8-16.4 6.9-13.4 16.8 66.3 17.9 54.5-3.5z"/>
  <path class="st23" d="M661.9 533.5l-1.5-22.2c-22.1 9.3-22.3 9.1-36.5 27.3-4.2 5.4-9.2 6-14.5 10.3-9.2 19.4 68.8 2.9 52.5-15.4z"/>
  <linearGradient id="SVGID_25_" gradientUnits="userSpaceOnUse" x1="684.66" y1="107.961" x2="714.82" y2="107.961" gradientTransform="matrix(1 0 0 -1 0 624)">
    <stop offset=".01" stop-color="#f0f0f1"/>
    <stop offset=".27" stop-color="#dfe4e3"/>
    <stop offset=".72" stop-color="#c5d2ce"/>
    <stop offset="1" stop-color="#bccbc6"/>
  </linearGradient>
  <path d="M714.8 486.5v59c0 6.7-5.4 12.1-12.1 12.1h-6c-6.7 0-12.1-5.4-12.1-12.1v-59c0-6.7 5.4-12.1 12.1-12.1h6c6.7.1 11.9-.4 12.1 12.1z" fill="url(#SVGID_25_)"/>
  <path class="st12" d="M648.3 405.3c3.5 28.1 6 56.4 10.4 84.3 6.7 42.5-.8 33.6-26.2 39.6-11.2-47.6-18-62.5-25-111.1-11-76.5 70.6-.7 40.8-12.8z"/>
  <path class="st0" d="M596.4 292.2c-9-8.7-22.2-11.5-34-7.1-2.1.8-4.1 1.7-6 2.8-1.1.6-2.2 1.4-3.2 2.1-.6.5-.7 1.4-.2 2 .3.4.8.6 1.3.6l5.9-.7c2.3-.3 4.6-.5 6.9-.5 1.9 0 3.9 1.7 2.7 4-.5 1-2.4 3-2.3 4.6.1 1.4 0 0 3.5 1.1 12.4 3.3 17.5-1.5 25.4-8.9z"/>
  <path d="M582.4 284.7c20.5-9.2 27.5-14.9 47.4-25 21-10.6 42.2-7.1 63.8-3.8 5.3.8 7.3 0 12.6.3 9.5 16 15.1 41.2 19.4 58.5 1.4 5.5 1.7-4.8 3.4.7-14-5.6-14-4.6-27.7-10.9-28.6-13.2-55.5-20-86-12.6-12.8 3.1-12.3 2-25.4 7.5-3-7.8-5.9-10.8-7.5-14.7z" fill="#89d171"/>
  <path class="st0" d="M639.2 196.6c.5 10.4 6.1 20-1.4 29.4-4.1 5.1-3.8 15.2 5.7 10.3s20.4-6.8 30.6-12.2c1.9-1 7.5-2.1 6.1-3.8-7.5-8.9-10.4-17.9-14.9-26.9-4.4-8.8-13.1-4.7-22.4-2.2-2.3.8-3.8 3-3.7 5.4z"/>
  <linearGradient id="SVGID_26_" gradientUnits="userSpaceOnUse" x1="621.9" y1="318.7689" x2="761.3417" y2="318.7689" gradientTransform="matrix(1 0 0 -1 0 624)">
    <stop offset=".01" stop-color="#b2ec9f"/>
    <stop offset=".2" stop-color="#a8e594"/>
    <stop offset=".7" stop-color="#91d77a"/>
    <stop offset="1" stop-color="#89d171"/>
  </linearGradient>
  <path d="M637.5 226.7c17.1-.3 35.1 6.6 40.6-9.9 18.5 3.1 38.1 25.7 52.3 67 11 31.9 6 12.1 23.8 76.3 8.7 31.1 20.8 32.9-42 33.4-29.8.3-60.5-4-90.4-2.2 42.5-20.7-8-139.9 15.7-164.6z" fill="url(#SVGID_26_)"/>
  <path class="st0" d="M556.3 296c-3.9-3.8-3.5-9.2-8.1-9.2h-4.6c-1.1 0-5.5-.2-10.5.2-4.3.2-8.6 1-12.7 2.3-1.1.4-2.2 1-3.2 1.7-1.1.8-.4 2.3.9 2.3 15.9.6 10.2 2.6 18.4 8.5 12.6 3.2 11.9 1.7 19.8-5.8z"/>
  <path d="M640.7 347.3l-.6 5.5c5.3 2 26.6-72.7 18.3-89.7-2.9-6-9.1-10.8-14.4-8.1-5 2.6-3.4 3.5-7.8 10.5-5.5 8.6 4.8 79.1 4.5 81.8z" opacity=".77" fill="#89d171"/>
  <path class="st0" d="M671.2 171.2c5.2 14.4-2.4 30.3-16.8 35.4h-.1c-4.8 1.7-11.5 3.8-16.2 2.9-2.6-.5-5.2-1.4-7.6-2.6-2.4-1.2-2.5-2.4-4.9-6.5-1-1.6-2.5-4.4-3.6-5.9-1.3-1.9-4.2-2.4-5-4.7-.5-1.3.6-2.6.6-4 .1-7.2-1.1-7.9-1.7-10.7-.3-4.2-.3-8.3 0-12.5 2-9.1 10.1-13.9 19.6-16.9 21.9-6.9 30.5 11.1 35.7 25.5z"/>
  <path class="st23" d="M624.6 175.1c1.7 0 1.7 0-.3-4.5-1.2-2.6 2.2-4.3 4.2-3.2.3 0-1.5-.6 3 1.4.6.2 1 1.4 1.5 3.1.5 2 .9 4.8 1.3 7.4.2 1.3.4 2.6.5 3.8.5 3.4 1 6 1.5 6.1 11.4 1.7 15.2-.4 19.4-.8.8-.1 16.3-3.3 17.2-2.9 2.1-3.4 3.1-19 5.3-22.3 3.5-5.3-1.3-8.1-3.8-11.6-1.4-1.7-3.8-3.4-4-5.2-.8-5.7-5.1-7.4-9.5-9.3-8.3-1-16.2-6.4-23.2-.6-1.8 1.5-6.4 1.6-9.7 1.3-7.7-.5-8.7 4.4-13.1 9.9 0 .6-2.9 3.8-2 5.8s1.2 5.6.9 9.2c-.2 2.8.8 1.6 2 .4 1.7-1.7 2.5-4.4 3.5-3.5.4.4 1.3 15.3 1.7 15.6 2.2 1.6 1.8-.1 3.6-.1z"/>
  <path class="st26" d="M759.5 444.9c6.7-26.7-3.9-37-1.7-55.3-17.5-1.2-72.6 1.7-104.9-6.8-23.8-6.3-50.5-12.3-64.6-7-15.2 5.7-16.8 24.4-16 64.5 1 49 4.2 68.8 9.5 117.4 37.3 0 32.5.6 32.5-40.2v-85c28 15.5 55.8 22 86.3 26.3 17.3 1.7 20.8 3.5 17.3 1.7-4.1-2.1 29.5-3.5 41.6-15.6z"/>
  <linearGradient id="SVGID_27_" gradientUnits="userSpaceOnUse" x1="755.3986" y1="206.7699" x2="751.9485" y2="313.4399" gradientTransform="matrix(1 0 0 -1 0 624)">
    <stop offset="0" stop-color="#849994"/>
    <stop offset=".49" stop-color="#a5bfb9"/>
    <stop offset=".74" stop-color="#b3c6c1"/>
    <stop offset="1" stop-color="#bccbc6"/>
  </linearGradient>
  <path d="M789 306.7c-.8-1.6-3.6-2-5-1-22.8 16.4-38 8.4-68.6 5.3-4.2-.4-7.4 1.8-6.1 5.8 9.3 29.4 8 48.8 5.3 71-1.7 14.5-6.9 42.5-12 63.2 30.9 1 50.8-6.8 80.7-15.6 10.7-12.9 11.2-12.7 15.2-23.5 11.1-29.2 16.3-56.9-9.5-105.2z" opacity=".68" fill="url(#SVGID_27_)"/>
  <linearGradient id="SVGID_28_" gradientUnits="userSpaceOnUse" x1="752.7365" y1="206.6905" x2="749.2965" y2="313.3505" gradientTransform="matrix(1 0 0 -1 0 624)">
    <stop offset="0" stop-color="#fff"/>
    <stop offset=".28" stop-color="#f6f6f6"/>
    <stop offset=".74" stop-color="#dcdcdc"/>
    <stop offset=".99" stop-color="#ccc"/>
  </linearGradient>
  <path d="M804.4 425.9c16.8-33.7 20.8-88.2-12.1-131.4-5-6.6-8.5.3-20.8 5.2-8.7 3.5-12.1 3.5-19 3.5-22.5 0-29.5-2.1-48.9-4-4.4-.5-8.4 2.8-8.9 7.2-.1 1.1 0 2.1.3 3.2 10.1 33.2 9.2 50.9 6.2 76.8-1.9 16.1-12.2 58.5-13.5 64.7h98.8c1.3-1.4 2.1-2.3 2.3-2.6 10.4-14 13.9-19.1 15.6-22.6zm-101.8 25c5.1-20.7 10.3-48.7 12-63.2 2.6-22.2 4-41.6-5.3-71-1.3-4 2-6.2 6.1-5.8 30.5 3.2 45.8 11.2 68.6-5.2 1.4-1 4.2-.6 5 1 25.8 48.3 20.6 76 9.5 105.1-4.1 10.8-4.5 10.6-15.2 23.5-29.9 8.8-49.8 16.6-80.7 15.6z" fill="url(#SVGID_28_)"/>
  <linearGradient id="SVGID_29_" gradientUnits="userSpaceOnUse" x1="654.8986" y1="172.3116" x2="834.7686" y2="327.9616" gradientTransform="matrix(1 0 0 -1 0 624)">
    <stop offset="0" stop-color="#849994"/>
    <stop offset=".18" stop-color="#879c97"/>
    <stop offset=".32" stop-color="#8fa6a1"/>
    <stop offset=".44" stop-color="#9eb7b1"/>
    <stop offset=".49" stop-color="#a5bfb9"/>
    <stop offset=".74" stop-color="#b3c6c1"/>
    <stop offset="1" stop-color="#bccbc6"/>
  </linearGradient>
  <path d="M792.3 294.5c-5-6.6-8.5.3-20.8 5.2-8.7 3.5-12.1 3.5-19 3.5-22.5 0-29.5-2.1-48.9-4-4.4-.5-8.4 2.8-8.9 7.2-.1 1.1 0 2.1.3 3.2 10.1 33.2 9.2 50.9 6.2 76.8-1.9 16.1-12.2 58.5-13.5 64.7-.1.3-.1.5-.1.8v.1c-20.3 4.9-37.8-8.6-56.1-18.2-7.9-4.2-17.7-1.1-21.9 6.8-.9 1.6-1.4 3.4-1.7 5.2-.6 4-.8 8-.8 12 0 1.3 0 2.6.1 4 .8 11.2 10.1 19.9 21.3 19.8 21.1-.1 42 4 62.6 2.5 13.8-1 29.2-2.2 42.7-4.4 26.9-4.3 46.2-21.8 52.6-28.6 1.3-1.4 2.1-2.3 2.3-2.6 10.4-13.8 13.8-19 15.6-22.5 17-33.8 20.9-88.3-12-131.5zm6.3 117.3c-4.1 10.8-4.5 10.6-15.2 23.5-30 8.8-49.8 16.5-80.7 15.6 5.1-20.7 10.3-48.7 12-63.2 2.6-22.2 4-41.6-5.3-71-1.3-4 2-6.2 6.1-5.8 30.5 3.2 45.8 11.2 68.6-5.2 1.4-1 4.2-.6 5 1 25.7 48.3 20.5 76 9.5 105.1z" fill="url(#SVGID_29_)"/>
  <path d="M588.8 359v231.9h14.4V346.1c-3.8 5.3-8.9 9.3-14.4 12.9z" fill="#a5bfb9"/>
  <path d="M610.5 355.8c6.4 3.4 14.2 2 19-3.5 22.3-26.1 30.5-91.2 20.8-112.9-4.2-9.4-9.7-14.7-15.7-10.4-5.6 4-5.3 8.3-9.9 17.4-11.4 23-14.5 57.1-25.5 61.1-7.4 2.7-17.4-5.8-37.1-13.9-8-3.2-6.4.8-9.3 3.5-5.2 4.8-21 6.1-19.7 6.9 13.1 9.1 58.8 42 77.4 51.8z" fill="#b2ec9f"/>
  <path fill="#fff" d="M515.4 263.8l-57.8.3-12.8-46.8 57.8-.3z"/>
  <path class="st62" d="M448.3 284.5l-21.3.6-26-94.8 22.9-.4z"/>
  <path class="st62" d="M522.4 203.1l-117.1.6-4.3-13.2 117.1-.6z"/>
</svg>
