<svg xmlns="http://www.w3.org/2000/svg" viewBox="0 0 915.22 418.38"><defs><style>.cls-1{fill:#058401;}</style></defs><title>implement</title><g id="Layer_2" data-name="Layer 2"><g id="Layer_1-2" data-name="Layer 1"><path class="cls-1" d="M592.91,27.33a5,5,0,0,0-4.82-4.6c-11.14,0-22.54,0-33.15,0-6.47,0-12.94-.26-19.41-.45-8.17-.23-15.44-2.1-21.48-9.27-7-8.34-16.43-12-26.83-12q-72.81.07-145.63.29c-9.31,0-13.46,4.5-13.69,14.78-.1,4.65-.1,9.31-.07,14-.09,6.74-.13,13.48,0,20.22.22,10.28,4.37,14.74,13.69,14.78q72.81.33,145.63.29c10.4,0,19.8-3.62,26.83-12,6-7.17,13.3-9,21.48-9.27,6.47-.19,12.94-.41,19.41-.45,10.58-.07,22,0,33.07,0a5,5,0,0,0,4.8-4.45A46.43,46.43,0,0,0,592.91,27.33Z"/><path class="cls-1" d="M265.16,6c-.33-2.64-2.39-5.7-4.82-5.7-11.14,0-22.54,0-33.15,0-6.47,0-4.33.11-18.38-.17S195.2.58,186.3.4c-16.55-.34-16.43.11-26.83.13Q86.66.61,13.84.81C4.53.86.38,5.32.15,15.6c-.1,4.65-.1,9.3-.07,14C0,36.3,0,43,.1,49.77.32,60.06,4.47,65.61,13.79,65.66Q86.6,66,159.42,66c10.4,0,9.32,0,26.83.12,8.89,0,13.39.17,21.56-.07,6.47-.18,12.86.34,19.33.25,16.73-.25,22,.41,33.07,0,5.69-.22,4.44-24.95,4.8-27.52C265.57,34.7,265.62,9.58,265.16,6Z"/><path class="cls-1" d="M914.91,6c-.33-2.64-2.39-5.7-4.82-5.7-11.14,0-22.54,0-33.15,0-6.47,0-4.33.11-18.38-.17S845,.58,836.05.4C819.5.06,819.62.51,809.22.53Q736.41.61,663.59.81c-9.31,0-13.46,4.51-13.69,14.79-.1,4.65-.1,9.3-.07,14-.09,6.74-.13,13.48,0,20.21.22,10.29,4.37,15.84,13.69,15.89q72.81.33,145.63.29c10.4,0,9.32,0,26.83.12,8.89,0,13.39.17,21.56-.07,6.47-.18,12.86.34,19.33.25,16.73-.25,22,.41,33.07,0,5.69-.22,4.44-24.95,4.8-27.52C915.32,34.7,915.37,9.58,914.91,6Z"/><path class="cls-1" d="M265.16,140.33a5,5,0,0,0-4.82-4.6c-11.14,0-22.54,0-33.15,0-6.47,0-12.94-.26-19.41-.45-8.17-.23-15.44-2.1-21.48-9.27-7-8.34-16.43-12-26.83-12q-72.81.07-145.63.29c-9.31,0-13.46,4.5-13.69,14.78-.1,4.65-.1,9.31-.07,14C0,149.8,0,156.54.1,163.28.32,173.56,4.47,178,13.79,178.06q72.81.33,145.63.29c10.4,0,19.8-3.62,26.83-12,6-7.17,13.3-9,21.48-9.27,6.47-.19,12.94-.41,19.41-.45,10.58-.07,22,0,33.07,0a5,5,0,0,0,4.8-4.45A46.43,46.43,0,0,0,265.16,140.33Z"/><path class="cls-1" d="M592.91,119c-.33-2.64-2.39-5.7-4.82-5.7-11.14,0-22.54,0-33.15,0-6.47,0-4.33.11-18.38-.17s-13.61.52-22.51.34c-16.55-.34-16.43.11-26.83.13q-72.81.07-145.63.28c-9.31,0-13.46,4.51-13.69,14.79-.1,4.65-.1,9.3-.07,14-.09,6.74-.13,13.48,0,20.21.22,10.29,4.37,15.84,13.69,15.89q72.81.33,145.63.29c10.4,0,9.32.05,26.83.12,8.89,0,13.39.17,21.56-.07,6.47-.18,12.86.34,19.33.25,16.73-.25,22,.41,33.07,0,5.69-.22,4.44-24.95,4.8-27.52C593.32,147.7,593.37,122.58,592.91,119Z"/><path class="cls-1" d="M914.91,119c-.33-2.64-2.39-5.7-4.82-5.7-11.14,0-22.54,0-33.15,0-6.47,0-4.33.11-18.38-.17s-13.61.52-22.51.34c-16.55-.34-16.43.11-26.83.13q-72.81.07-145.63.28c-9.31,0-13.46,4.51-13.69,14.79-.1,4.65-.1,9.3-.07,14-.09,6.74-.13,13.48,0,20.21.22,10.29,4.37,15.84,13.69,15.89q72.81.33,145.63.29c10.4,0,9.32.05,26.83.12,8.89,0,13.39.17,21.56-.07,6.47-.18,12.86.34,19.33.25,16.73-.25,22,.41,33.07,0,5.69-.22,4.44-24.95,4.8-27.52C915.32,147.7,915.37,122.58,914.91,119Z"/><path class="cls-1" d="M265.16,358c-.33-2.64-2.39-5.7-4.82-5.7-11.14,0-22.54,0-33.15,0-6.47,0-4.33.11-18.38-.17s-13.61.52-22.51.34c-16.55-.34-16.43.11-26.83.13q-72.81.08-145.63.28C4.53,352.86.38,357.32.15,367.6c-.1,4.65-.1,9.3-.07,14C0,388.3,0,395,.1,401.77c.22,10.29,4.37,15.84,13.69,15.89q72.81.33,145.63.29c10.4,0,9.32.05,26.83.12,8.89,0,13.39.17,21.56-.07,6.47-.18,12.86.34,19.33.25,16.73-.25,22,.41,33.07,0,5.69-.22,4.44-25,4.8-27.52C265.57,386.7,265.62,361.58,265.16,358Z"/><path class="cls-1" d="M592.91,358c-.33-2.64-2.39-5.7-4.82-5.7-11.14,0-22.54,0-33.15,0-6.47,0-4.33.11-18.38-.17s-13.61.52-22.51.34c-16.55-.34-16.43.11-26.83.13q-72.81.08-145.63.28c-9.31.05-13.46,4.51-13.69,14.79-.1,4.65-.1,9.3-.07,14-.09,6.74-.13,13.48,0,20.21.22,10.29,4.37,15.84,13.69,15.89q72.81.33,145.63.29c10.4,0,9.32.05,26.83.12,8.89,0,13.39.17,21.56-.07,6.47-.18,12.86.34,19.33.25,16.73-.25,22,.41,33.07,0,5.69-.22,4.44-25,4.8-27.52C593.32,386.7,593.37,361.58,592.91,358Z"/><path class="cls-1" d="M914.91,379.33a5,5,0,0,0-4.82-4.6c-11.14,0-22.54,0-33.15,0-6.47,0-12.94-.26-19.41-.45-8.17-.23-15.44-2.1-21.48-9.27-7-8.34-16.43-12-26.83-12q-72.81.08-145.63.29c-9.31,0-13.46,4.5-13.69,14.78-.1,4.65-.1,9.31-.07,14-.09,6.74-.13,13.48,0,20.22.22,10.28,4.37,14.74,13.69,14.78q72.81.33,145.63.29c10.4,0,19.8-3.62,26.83-12,6-7.17,13.3-9,21.48-9.27,6.47-.19,12.94-.41,19.41-.45,10.58-.07,22,0,33.07,0a5,5,0,0,0,4.8-4.45A46.43,46.43,0,0,0,914.91,379.33Z"/><path class="cls-1" d="M592.91,259.66a5,5,0,0,0-4.82-4.6c-11.14,0-22.54.05-33.15,0-6.47,0-12.94-.26-19.41-.45-8.17-.23-15.44-2.1-21.48-9.27-7-8.33-16.43-12-26.83-12q-72.81.07-145.63.29c-9.31,0-13.46,4.5-13.69,14.78-.1,4.66-.1,9.31-.07,14-.09,6.75-.13,13.48,0,20.22.22,10.28,4.37,14.74,13.69,14.78q72.81.33,145.63.29c10.4,0,19.8-3.62,26.83-12,6-7.17,13.3-9,21.48-9.27,6.47-.19,12.94-.41,19.41-.45,10.58-.06,22,0,33.07,0a5,5,0,0,0,4.8-4.45A46.43,46.43,0,0,0,592.91,259.66Z"/><path class="cls-1" d="M265.16,238.28c-.33-2.64-2.39-5.7-4.82-5.7-11.14,0-22.54,0-33.15,0-6.47,0-4.33.12-18.38-.17s-13.61.52-22.51.34c-16.55-.34-16.43.12-26.83.13q-72.81.07-145.63.29c-9.31,0-13.46,4.5-13.69,14.78-.1,4.65-.1,9.31-.07,14C0,268.63,0,275.37.1,282.11.32,292.39,4.47,298,13.79,298q72.81.33,145.63.29c10.4,0,9.32.06,26.83.13,8.89,0,13.39.16,21.56-.07,6.47-.19,12.86.33,19.33.24,16.73-.24,22,.41,33.07,0,5.69-.22,4.44-24.95,4.8-27.53C265.57,267,265.62,241.91,265.16,238.28Z"/><path class="cls-1" d="M914.91,238.28c-.33-2.64-2.39-5.7-4.82-5.7-11.14,0-22.54,0-33.15,0-6.47,0-4.33.12-18.38-.17s-13.61.52-22.51.34c-16.55-.34-16.43.12-26.83.13q-72.81.07-145.63.29c-9.31,0-13.46,4.5-13.69,14.78-.1,4.65-.1,9.31-.07,14-.09,6.74-.13,13.48,0,20.22.22,10.28,4.37,15.84,13.69,15.88q72.81.33,145.63.29c10.4,0,9.32.06,26.83.13,8.89,0,13.39.16,21.56-.07,6.47-.19,12.86.33,19.33.24,16.73-.24,22,.41,33.07,0,5.69-.22,4.44-24.95,4.8-27.53C915.32,267,915.37,241.91,914.91,238.28Z"/></g></g></svg>