<svg xmlns="http://www.w3.org/2000/svg" xmlns:xlink="http://www.w3.org/1999/xlink" viewBox="0 0 1050 549.46">
  <defs>
    <style>
      .cls-2{fill:#058401}.cls-4{fill:#fff}
    </style>
    <clipPath id="clip-path">
      <path d="M849.61 404.63c13 34.72 49.69 63.58 82 64.68 12.79.55 22.84-3.47 29.78-10.41l-.73.73c-7 6.94-17 10.78-29.79 10.41-32.52-1.28-69.24-30.15-82.22-64.68-7.85-21-5.11-39.28 5.48-50.06l.73-.74c-10.55 10.79-13.29 29.06-5.25 50.07z" fill="none"/>
    </clipPath>
    <linearGradient id="linear-gradient" x1="904.83" y1="1035.33" x2="894.75" y2="1037.16" gradientTransform="matrix(-1 0 0 1 1764.66 -648)" gradientUnits="userSpaceOnUse">
      <stop offset="0" stop-color="#bccbc6"/>
      <stop offset=".26" stop-color="#b3c6c1"/>
      <stop offset=".51" stop-color="#a5bfb9"/>
      <stop offset=".73" stop-color="#96aea8"/>
      <stop offset="1" stop-color="#849994"/>
    </linearGradient>
    <linearGradient id="linear-gradient-2" x1="901.93" y1="970.17" x2="848.94" y2="1092.59" xlink:href="#linear-gradient"/>
    <linearGradient id="linear-gradient-3" x1="792.57" y1="1121.85" x2="809.22" y2="1105.21" gradientTransform="matrix(-1 0 0 1 1764.66 -648)" gradientUnits="userSpaceOnUse">
      <stop offset="0" stop-color="#bccbc6"/>
      <stop offset=".26" stop-color="#b3c6c1"/>
      <stop offset=".51" stop-color="#a5bfb9"/>
      <stop offset="1" stop-color="#849994"/>
    </linearGradient>
    <linearGradient id="linear-gradient-4" x1="888.42" y1="843.78" x2="850.05" y2="1033.8" gradientTransform="matrix(-1 0 0 1 1764.66 -648)" gradientUnits="userSpaceOnUse">
      <stop offset=".01" stop-color="#f0f0f1"/>
      <stop offset=".27" stop-color="#dfe4e3"/>
      <stop offset=".72" stop-color="#c5d2ce"/>
      <stop offset="1" stop-color="#bccbc6"/>
    </linearGradient>
  </defs>
  <g id="Layer_2" data-name="Layer 2">
    <g id="Layer_1-2" data-name="Layer 1">
      <g id="mag_glass">
        <g opacity=".87">
          <path class="cls-4" d="M849.61 404.63c13 34.72 49.69 63.58 82 64.68 12.79.55 22.84-3.47 29.78-10.41l-.73.73c-7 6.94-17 10.78-29.79 10.41-32.52-1.28-69.24-30.15-82.22-64.68-7.85-21-5.11-39.28 5.48-50.06l.73-.74c-10.55 10.79-13.29 29.06-5.25 50.07z"/>
          <g clip-path="url(#clip-path)">
            <path class="cls-4" d="M854.9 354.56l-.73.74-.73.73.73-.73.73-.74m-.73.74a18.51 18.51 0 0 0-1.82 2.19l-.73.73c.54-.73 1.27-1.46 1.82-2.19l.73-.73M852.35 357.49a27 27 0 0 0-1.65 2.37l-.73.73a27 27 0 0 1 1.65-2.37l.73-.73"/>
            <path class="cls-4" d="M850.7 359.68c-.55.91-.91 1.65-1.46 2.56l-.73.73c.55-.91.91-1.83 1.46-2.56l.73-.73m-1.46 2.56c-.36.73-.73 1.64-1.28 2.56l-.73.73c.37-.92.91-1.65 1.28-2.56l.73-.73m-1.1 2.56c-.36.91-.73 2-1.09 2.92l-.73.73c.36-1.1.73-2 1.09-2.92l.73-.73m-1.09 2.92c-.37 1.1-.55 2-.92 3.29l-.73.73c.37-1.28.55-2.19.92-3.29l.73-.73"/>
            <path class="cls-4" d="M846.13 370.83a35.11 35.11 0 0 0-.73 3.65l-.73.73a22.66 22.66 0 0 1 .73-3.65l.73-.73M845.4 374.48a30.43 30.43 0 0 0-.36 4.2l-.73.73a30.43 30.43 0 0 1 .36-4.2l.73-.73m-.36 4.2v5.12l-.73.73v-5.12l.73-.73"/>
            <path class="cls-4" d="M845 383.62a46.78 46.78 0 0 0 .73 7.31l-.73.73c-.37-2.38-.55-4.94-.73-7.31l.73-.73m.73 7.49a76.35 76.35 0 0 0 3.65 13.7 91.59 91.59 0 0 0 3.84 8.77l-.73.73a78 78 0 0 1-3.84-8.95 70.81 70.81 0 0 1-3.65-13.52l.73-.73m7.67 22.29c1.28 2.74 2.74 5.12 4.21 7.67l-.74.73c-1.46-2.55-2.92-5.11-4.2-7.67l.73-.73m4.21 7.67c1.09 1.83 2.37 3.48 3.47 5.3l-.73.73c-1.1-1.82-2.38-3.47-3.48-5.3l.74-.73M861.12 426.37l3.29 4.39-.73.73q-1.65-2.19-3.29-4.39l.73-.73"/>
            <path class="cls-4" d="M864.41 430.57c1.09 1.47 2.19 2.75 3.1 3.84l-.73.73c-1.1-1.28-2-2.56-3.1-3.83l.73-.74M867.51 434.41c1.1 1.28 2.19 2.38 3.29 3.47l-.91.73c-1.1-1.09-2-2.19-3.11-3.47l.73-.73"/>
            <path class="cls-4" d="M870.8 437.88a25.49 25.49 0 0 0 3.11 3.29l-.73.55c-1.1-.91-2-2-3.11-3.11l.73-.73M873.91 441.17c.91.92 2 2 3.1 2.93l-.73.73a23.88 23.88 0 0 1-3.1-2.93l.73-.73"/>
            <path class="cls-4" d="M877 444.1q1.65 1.36 3.29 2.74l-.73.73q-1.64-1.38-3.29-2.74l.73-.73"/>
            <path class="cls-4" d="M880.12 446.84l3.29 2.74-.73.73-3.29-2.74.73-.73"/>
            <path class="cls-4" d="M883.41 449.58c1.28.91 2.37 1.64 3.47 2.56l-.73.73a24.1 24.1 0 0 1-3.47-2.56l.73-.73"/>
            <path class="cls-4" d="M886.88 452.14c1.28.91 2.38 1.64 3.65 2.55l-.73.73c-1.28-.91-2.37-1.64-3.65-2.55l.73-.73"/>
            <path class="cls-4" d="M890.53 454.69a35.82 35.82 0 0 0 3.84 2.38l-.73.73c-1.28-.73-2.56-1.64-3.84-2.38l.73-.73m3.66 2.38c1.46.91 2.74 1.64 4.2 2.37l-.91.74c-1.28-.74-2.74-1.65-4-2.38l.73-.73m4.2 2.37l4.39 2.2-.73.73-4.39-2.19.73-.74"/>
            <path class="cls-4" d="M902.78 461.64c1.64.73 3.47 1.64 5.11 2.19l-.73.73c-1.64-.55-3.47-1.46-5.11-2.19l.73-.73"/>
            <path class="cls-4" d="M907.89 463.83c2.2.91 4.39 1.64 6.58 2.37l-.73.74c-2.19-.74-4.39-1.47-6.58-2.38l.73-.73"/>
            <path class="cls-4" d="M914.47 466.2a67.26 67.26 0 0 0 17 2.93c12.79.55 22.84-3.47 29.79-10.42l-.74.73c-6.94 6.95-17 10.78-29.78 10.42a67.69 67.69 0 0 1-17-2.92l.73-.74"/>
          </g>
          <path d="M966.73 408.65c13 34.53-2.93 61.57-35.27 60.48s-69.06-29.78-82-64.5 2.74-61.76 35.27-60.66c32.27 1.09 69.02 30.15 82 64.68z" style="isolation:isolate" opacity=".39" fill="#fff"/>
        </g>
        <path d="M954.43 443.15l-.55 1.1-.55 1.1-.73 1.1a4 4 0 0 0-.55.91c-.18.37-.37.55-.55.92l-.92.92-.73.91-1.1 1.1 11.37-11.55.55-.55c.18-.18.36-.18.55-.55s.55-.55.73-.91l.37-.37.36-.55.55-.92.19-.36c.18-.37.18-.55.36-.74a3.69 3.69 0 0 0 .55-.91l.19-.37c.18-.18.18-.37.36-.73l.55-1.1.19-.37.36-.73.37-1.29c.18 0 .18-.18.18-.36 0-.37 0-.19.19-.74s.18-1.28.36-1.46a.67.67 0 0 0 .19-.55l.18-.55a5.46 5.46 0 0 0 .37-1.65.69.69 0 0 0 .18-.55V423c0-.73.18-1.47.18-2.39V416c0-.37.19-.55 0-.92a3.59 3.59 0 0 1-.18-1.46c0-.55-.18-.92-.18-1.47l-.19-1.47v-.55c0-.36-.18-.55-.18-.91l-.18-1.1a4.68 4.68 0 0 0-.37-1.84c-.18-.36-.18-.73-.37-1.1-.18-.73-.36-1.28-.55-2-.18-.19-.18-.55-.36-.92-.37-.92-.74-1.83-1.1-2.93s-.92-2.2-1.29-3.3l-.36-.92c-.55-.92-1.65-3.48-1.65-3.48a19.85 19.85 0 0 0-1.47-2.75l-.18-.19a18.63 18.63 0 0 0-1.47-2.56l-.18-.19-.19-.36a45.86 45.86 0 0 0-2.56-3.85l-.37-.37c-.73-.92-1.47-2-2.2-2.93l-.37-.37s-1.65-2.2-2.38-2.93l-.18-.19c-.74-.91-1.47-1.65-2.2-2.56l-.19-.19-.55-.55-1.65-1.64-.36-.37-.37-.36a11.32 11.32 0 0 0-1.47-1.47l-.55-.55-.18-.18-1.83-1.65-.55-.37a30.05 30.05 0 0 0-2.39-2l-.55-.36-2-1.65-.37-.19-.37-.18-1.83-1.28-.55-.37-.37-.18c-.73-.37-1.46-.92-2.2-1.29l-.55-.36-.18-.19c-.92-.55-2-1.1-2.94-1.65l-.18-.18-.37-.18a19.85 19.85 0 0 0-2.75-1.47h-.36l-.37-.18c-1.28-.55-2.38-1.1-3.67-1.65l-.36-.19-.74-.36-1.46-.55-1.1-.37-1.47-.37-.55-.18-.37-.18a13.72 13.72 0 0 0-2.56-.74l-.55-.18c-1.1-.18-2-.37-3.12-.55l-.73-.18a10.42 10.42 0 0 0-2.39-.37l-.91-.18c-1.1 0-2-.19-3.12-.19-10.27-.36-18.33 2.94-24 8.62l-11.37 11.55c5.5-5.68 13.76-8.8 24-8.43a18.15 18.15 0 0 1 3.12.18l.92.18c.73.19 1.65.19 2.38.37l.73.18c1.1.19 2 .37 3.12.55l.55.19c.92.18 1.65.55 2.57.73l1.1.37 1.46.36 1.1.37 1.47.55 1.1.37c1.28.55 2.38 1.1 3.67 1.65l.73.36c.92.55 1.83.92 2.75 1.47l.55.37c.92.55 2 1.1 2.93 1.65l.74.36a19.53 19.53 0 0 0 2 1.29l.92.55c.55.37 1.28.92 1.83 1.28l.92.55a19.63 19.63 0 0 1 2 1.47l.55.37c.73.73 1.65 1.28 2.38 2l.55.55c.55.55 5 4.4 5 4.4.55.55 4.59 5.5 4.59 5.5.73.92 1.28 1.65 2 2.57l.55.73c.74.92 1.47 2 2.2 2.94l.19.18c.91 1.28 1.65 2.57 2.56 3.85l.37.55c.55.92.92 1.65 1.47 2.57l.18.18c.55.92.92 1.83 1.47 2.75.18.18.18.55.36.73a17.16 17.16 0 0 1 1.29 2.57c0 .37.18.55.36.92.37 1.1.92 2.38 1.29 3.3s.73 2 1.1 2.93c.18.37.18.55.36.92.19.73.37 1.28.55 2l.37 1.1a11.08 11.08 0 0 1 .37 1.84c0 .36.18.73.18 1.1l.37 1.65c0 .37.18.92.18 1.47l.18 1.46.19 1.47v5.32a10.07 10.07 0 0 1-.19 2.38l-.18 1.1c-.18.55-.73 3.85-.92 4.22 0 0-.55 2-.73 2.38a3.2 3.2 0 0 0-.39.91z" fill="url(#linear-gradient)"/>
        <path d="M847.15 406.56a98.73 98.73 0 0 0 11.77 21.65c12.53 17.19 29.23 31.56 49.24 39.3a75.09 75.09 0 0 0 16 3.81c8.2 1.24 16.81.58 24.45-2.83 8.72-3.89 15-11.87 21.6-18.55a32.78 32.78 0 0 1-5 4.07c-8 5.36-17.94 7-27.39 6.12a78.63 78.63 0 0 1-8.51-1.26 52.84 52.84 0 0 1-7.06-2.18c-1.94-.68-4-1.15-5.87-2-3.09-1.35-6.17-2.78-9.19-4.29-1.69-.84-2.63-2.27-4.05-3.4s-2.86-2.35-4.28-3.54q-6.86-5.7-13.64-11.46c-2.83-2.39-5.85-4.67-8.54-7.22s-5-6.11-7.16-9.15a69 69 0 0 1-7.12-11.89c-3.42-7.67-6.91-15.57-8-24-1.57-12 .65-25.32 9.47-34.14l-6.3 6.4c-3.63 3.69-8.08 7.46-10.37 12.17a46.08 46.08 0 0 0-4.53 20.35 61.45 61.45 0 0 0 4.48 22.04z" fill="url(#linear-gradient-2)"/>
        <path d="M960.15 481.74l69.07 66.87c3.47 2 9.5.37 14.61-4 5.67-5.12 7.86-12.06 4.75-15.53L979.33 462c-3.65-1.64-9.5-.18-14.43 4.2-5.66 5.12-7.86 12.06-4.75 15.54z" fill="#5308ab"/>
        <path d="M962 476.44c1.82.73 5.48-1.28 8.58-4.39s4.57-6.58 4-8.4l-10.23-9.87c-1.83-.55-5.11 1.1-8.22 4.2s-4.75 6.76-4 8.41z" fill="url(#linear-gradient-3)"/>
        <path d="M858.38 395.68c13 34.53 49.88 63.58 82.22 64.68s48-25.95 35.08-60.48-49.68-63.59-82.22-64.68c-32.34-1.1-48.06 25.94-35.08 60.48zm39.83-48.61c26.13.92 55.73 24.3 66.14 52.08s-2 49.7-28.14 48.78-55.72-24.3-66.14-52.07c-10.6-27.77 2.01-49.7 28.14-48.79z" fill="url(#linear-gradient-4)"/>
      </g>
    </g>
  </g>
</svg>
