<svg xmlns="http://www.w3.org/2000/svg" xmlns:xlink="http://www.w3.org/1999/xlink" viewBox="0 0 946 658.31">
  <defs>
    <style>
      .cls-2{fill:#1c08a0}.cls-3{fill:#93c}.cls-4{fill:#f5dbad}.cls-6{fill:#be7dde}.cls-7{fill:#4534b1}.cls-8{opacity:.2}.cls-19,.cls-21,.cls-24,.cls-37,.cls-8{isolation:isolate}.cls-10{fill:#b5d2cb}.cls-15{fill:#262928}.cls-16{fill:none;stroke:#ede580;stroke-miterlimit:10;stroke-width:3px}.cls-17{fill:#accbcd}.cls-19{opacity:.35}.cls-20{fill:#171718}.cls-21{opacity:.15}.cls-24{opacity:0}.cls-27{fill:#fde0c7}.cls-36{fill:#2f243a}.cls-37{opacity:.25}.cls-38{fill:#decbb7}.cls-49{fill:#e9ead6}

      .col1{animation: pulse1 1s; animation-direction: forwards; animation-timing-function: ease-in; animation-fill-mode: forwards;}@keyframes pulse1{to {opacity:1;}}
      .col2{animation: pulse2 1s; animation-direction: forwards; animation-delay:1s; animation-timing-function: ease-in; animation-fill-mode: forwards;}@keyframes pulse2{to {opacity:1;}}
      .col3{animation: pulse3 1s; animation-direction: forwards; animation-delay:2s; animation-timing-function: ease-in; animation-fill-mode: forwards;}@keyframes pulse3{to {opacity:1;}}
      .col4{animation: pulse3 1s; animation-direction: forwards; animation-delay:3s; animation-timing-function: ease-in; animation-fill-mode: forwards;}@keyframes pulse3{to {opacity:1;}}

      .pichart{animation: pchart 2s; animation-direction: forwards; animation-delay:4s; animation-timing-function: ease-in; animation-fill-mode: forwards;}@keyframes pchart{to {fill:#93c;}}

      .path1{stroke-dasharray: 78;stroke-dashoffset: -78;animation: dash 1.5s linear forwards;animation-delay: 0s}@keyframes dash{to{stroke-dashoffset: 0;}}@-webkit-keyframes dash{to{stroke-dashoffset: 0;}}
      .path2{stroke-dasharray: 78;stroke-dashoffset: -78;animation: dash 1.5s linear forwards;animation-delay: 1.5s}@keyframes dash{to{stroke-dashoffset: 0;}}@-webkit-keyframes dash{to{stroke-dashoffset: 0;}}
      .path3{stroke-dasharray: 76;stroke-dashoffset: -76;animation: dash 1.5s linear forwards infinite;animation-delay: 3s}@keyframes dash{to{stroke-dashoffset: 0;}}@-webkit-keyframes dash{to{stroke-dashoffset: 0;}}
      .smoke{animation: pulse 1.5s infinite; animation-direction: alternate;}@keyframes pulse{to {opacity:.1;}}@-webkit-keyframe pulse{to {opacity:.1;}}
      .chartfill{animation: pulser 2s; animation-direction: alternate; animation-delay: 6s; animation-fill-mode: forwards;}@keyframes pulser{to {fill:#93c;}}

      .arm_down{animation: armove 4s infinite; -webkit-animation: armove 4s infinite; animation: armove 5s infinite; animation-direction: alternate;}@keyframes armove {from {transform: rotate(8deg); transform-origin: 5% 10%;} to{rotate(-2deg); transform-origin: 0% 5%;}}@-webkit-keyframes armove {from {transform: rotate(8deg); transform-origin: 5% 10%;} to{rotate(-2deg); transform-origin: 0% 5%;}}
    </style>
    <linearGradient id="linear-gradient" x1="-246.05" y1="206.68" x2="-128.29" y2="206.68" gradientTransform="matrix(.98 -.18 -.18 -.98 406.93 364.59)" gradientUnits="userSpaceOnUse">
      <stop offset="0" stop-color="#c78fe3"/>
      <stop offset=".58" stop-color="#cb98e5"/>
      <stop offset=".99" stop-color="#d0a2e7"/>
    </linearGradient>
    <linearGradient id="linear-gradient-2" x1="335" y1="162.35" x2="520.14" y2="162.35" gradientTransform="matrix(1 0 0 -1 0 410.46)" gradientUnits="userSpaceOnUse">
      <stop offset=".01" stop-color="#f0f0f1"/>
      <stop offset=".27" stop-color="#dfe4e3"/>
      <stop offset=".72" stop-color="#c5d2ce"/>
      <stop offset="1" stop-color="#bccbc6"/>
    </linearGradient>
    <linearGradient id="linear-gradient-3" x1="302.06" y1="93.9" x2="491.16" y2="93.9" gradientTransform="matrix(1 0 0 -1 0 410.46)" gradientUnits="userSpaceOnUse">
      <stop offset="0" stop-color="#849994"/>
      <stop offset=".49" stop-color="#a5bfb9"/>
      <stop offset=".74" stop-color="#b3c6c1"/>
      <stop offset="1" stop-color="#bccbc6"/>
    </linearGradient>
    <linearGradient id="linear-gradient-4" x1="750.81" y1="-168.01" x2="901.69" y2="-168.01" gradientTransform="matrix(.11 .99 .99 -.11 902.71 -270.09)" xlink:href="#linear-gradient-3"/>
    <linearGradient id="linear-gradient-5" x1="525.61" y1="157.23" x2="693.86" y2="157.23" xlink:href="#linear-gradient-2"/>
    <linearGradient id="linear-gradient-6" x1="551.87" y1="90.51" x2="723.65" y2="90.51" xlink:href="#linear-gradient-3"/>
    <linearGradient id="linear-gradient-7" x1="812.56" y1="-123.53" x2="842.95" y2="-123.53" xlink:href="#linear-gradient-2"/>
    <linearGradient id="linear-gradient-8" x1="749.3" y1="88.74" x2="889.81" y2="88.74" gradientTransform="matrix(1 0 0 -1 0 410.46)" gradientUnits="userSpaceOnUse">
      <stop offset=".01" stop-color="#b2ec9f"/>
      <stop offset=".2" stop-color="#a8e594"/>
      <stop offset=".7" stop-color="#91d77a"/>
      <stop offset="1" stop-color="#89d171"/>
    </linearGradient>
    <linearGradient id="linear-gradient-9" x1="883.76" y1="-24.08" x2="880.3" y2="83.31" xlink:href="#linear-gradient-3"/>
    <linearGradient id="linear-gradient-10" x1="881.15" y1="-24.17" x2="877.69" y2="83.23" gradientTransform="matrix(1 0 0 -1 0 410.46)" gradientUnits="userSpaceOnUse">
      <stop offset="0" stop-color="#fff"/>
      <stop offset=".28" stop-color="#f6f6f6"/>
      <stop offset=".74" stop-color="#dcdcdc"/>
      <stop offset=".99" stop-color="#ccc"/>
    </linearGradient>
    <linearGradient id="linear-gradient-11" x1="714.39" y1="5.32" x2="1057.45" y2="5.32" xlink:href="#linear-gradient-3"/>
    <linearGradient id="linear-gradient-12" x1="393.65" y1="-312.03" x2="282.21" y2="49.23" gradientTransform="matrix(1 0 0 -1 0 410.46)" gradientUnits="userSpaceOnUse">
      <stop offset="0" stop-color="#bccbc6"/>
      <stop offset=".26" stop-color="#b3c6c1"/>
      <stop offset=".51" stop-color="#a5bfb9"/>
      <stop offset="1" stop-color="#849994"/>
    </linearGradient>
    <linearGradient id="linear-gradient-13" x1="330.62" y1="-114.74" x2="362.8" y2="-114.74" xlink:href="#linear-gradient-2"/>
    <linearGradient id="linear-gradient-14" x1="398.93" y1="-17.53" x2="248.68" y2="220.39" xlink:href="#linear-gradient-3"/>
    <linearGradient id="linear-gradient-15" x1="341.93" y1="-69.66" x2="352.23" y2="19.55" gradientTransform="matrix(1 0 0 -1 0 410.46)" gradientUnits="userSpaceOnUse">
      <stop offset=".01" stop-color="#5e6663"/>
      <stop offset=".26" stop-color="#6a7673"/>
      <stop offset=".72" stop-color="#7d908b"/>
      <stop offset="1" stop-color="#849994"/>
    </linearGradient>
    <linearGradient id="linear-gradient-16" x1="335.22" y1="-151.08" x2="348.72" y2="-34.14" xlink:href="#linear-gradient-12"/>
    <linearGradient id="linear-gradient-17" x1="12.82" y1="151.25" x2="124.44" y2="151.25" gradientTransform="matrix(1 0 0 -1 0 410.46)" xlink:href="#linear-gradient"/>
    <linearGradient id="linear-gradient-18" x1="621.86" y1="403.96" x2="655.67" y2="403.96" gradientTransform="matrix(1 0 0 -1 0 660)" xlink:href="#linear-gradient"/>
    <linearGradient id="linear-gradient-19" x1="557.5" y1="136.22" x2="581.52" y2="136.22" gradientTransform="matrix(1 0 0 -1 0 410.46)" gradientUnits="userSpaceOnUse">
      <stop offset="0" stop-color="#fff"/>
      <stop offset="1" stop-color="#2a2627"/>
      <stop offset="1"/>
    </linearGradient>
  </defs>
  <g id="Layer_2" data-name="Layer 2">
    <g id="Layer_1-2" data-name="Layer 1">
      <rect x="126.91" y="5.3" width="364.64" height="226.9" rx="2.95" ry="2.95" fill="#efffff"/>
      <path class="cls-2" d="M134.89 0h348.7A9.41 9.41 0 0 1 493 9.41V30.3H125.41V9.41A9.41 9.41 0 0 1 134.82 0h.07z"/>
      <g id="barchart">
        <path class="cls-2 col1" opacity="0" d="M162.07 139.22h28.36v61.12h-28.36z"/>
        <path class="cls-2 col2" opacity="0" d="M200.34 113.75h28.36v86.59h-28.36z"/>
        <path class="cls-2 col3" opacity="0" d="M240.52 83.19h28.36v117.15h-28.36z"/>
        <path class="cls-2 col4" opacity="0" d="M280.69 55.18h28.36v145.16h-28.36z"/>
      </g>
      <g id="piechart">
        <path id="piechart-2" data-name="piechart" fill="#cb98e5" class="pichart" d="M406.82 124.68h51.55V124a51.75 51.75 0 0 0-51.75-51.75"/>
        <path class="cls-2" d="M457.32 131.32h-56.8V73.56H400a57.3 57.3 0 1 0 57.29 57.77z"/>
      </g>
      <path class="cls-4" d="M99.31 551.51l-20.62.35.67 24.55c2.82.28 5.65.45 8.43.85 7.35 1.1 14.68 2.28 22 3.48-9.35-7.89-12.36-17.83-10.48-29.23zM115.48 560.48l37.29 8.22c-9.77-8.7-14.25-19-11.17-31.7l-23.23.53q-1.44 11.47-2.89 22.95z"/>
      <path class="cls-2" d="M109.73 580.69c-7.33-1.15-14.66-2.35-22-3.48-2.83-.42-5.7-.57-8.55-.87l-.28.16c-.66 1.15-1.89 2.14-2 3.47-.16 3.74 1.11 5.44 3.68 8.17 5.94 6.31 32.21 8.69 49.83 10.81 1.48.19 1.74-.6 1.43-1.46-1.74-6.49-22.11-16.8-22.11-16.8zM115.68 560.71a.26.26 0 0 0-.28.13c-2.94 5.34-3.34 10.67 3.59 12.95 15.64 5.21 31.55 9.69 47.92 13.74a2.12 2.12 0 0 0 2.24-3.27c-4.34-6.13-10.42-10.7-16.33-15.34h-.1z"/>
      <g id="arm" class="arm_down">
        <path class="cls-4" d="M227.53 167.38l12.69 5.39 5.89-9.07c.79.05 6.2-4.68 10.07-8.94 1.52-1.33 8-6.9 6.08-8-1.39-.82-4.41 2.2-4.59 1.15-.08-.44 5.34-4.53 5.34-4.53l-.28-1.53c-1.56-1.66-8.25 5.07-7.26 3.45 2.29-3.82 6.87-5 3.12-7.37-.48-.31-1.67.51-1.73.77.12-.27-5.21 4.32-5.21 4.32-.25-.25 3.81-4.24 3.81-4.24 1-.86.32-1.53-.94-2-2.3-1-10.79 7.93-11.42 8.27l-4.51 4.33-2.59-10.2h-1.88z"/>
        <path d="M227.17 159.19c-7.38 7-12.83 13.84-20.21 20.78l-4.8 4.4-5.76 5.73-5.49 4.79c-3.91 4.87.09-.69-8.23 8.16-1.48 1.57-4.39-2.38-7.61-4.4a115 115 0 0 1-18.38-13.31c-8.68-5.15-15.48-23.54-23.66-22.1a6.76 6.76 0 0 0-5.24 1.49 13.72 13.72 0 0 0-4.44 13 40.08 40.08 0 0 0 2.26 6.65 87.19 87.19 0 0 1 3.61 9.93c1 3 3.29 8.7 5.33 11 1.32 1.52 15.84 14.11 16.09 16.16 42.86 19.48 38.49 26.41 62.62-7.7 10.18-14.36 19.7-28.5 28.44-43.75-11.25-8.02-9.24-6.19-14.53-10.83z" fill="url(#linear-gradient)"/>
      </g>
      <path class="cls-6" d="M129.8 157q1.51 15.9 3 31.76c-1 12.8-2.54 25.57-2.92 38.38-.5 16.87-.64 33.81.11 50.66.34 7.89-.47 18 1.46 25.8 2.2 8.91-4.16 35.79-1.74 44.67 3.47 2 11.9-1.95 17.68-1.95 7.68-1.74 14.41-6.84 15.43-9.66.33-.92-5-13.39-6.58-17.37-7.23-14.72-10.67-34.38-12.91-50.54-1.53-11.12-1.37-37.3-.47-44 .33.16-2.19-39.21-1.58-64.18-.9-.73-10.45-2.99-11.48-3.57z"/>
      <path class="cls-7" d="M140.59 321.66l-69.36 2.27-2.72 10.17-1.74 16a491.22 491.22 0 0 0 5.38 82A244.85 244.85 0 0 1 75 469.77c-.13 29.87 1.73 59.71 1.89 89.58l31.81.52 2.68-25.57 4.13-32.7-1.62 46.4 27.11 1 .22-5.92c2.17-36.16 4-53.67 5.39-84.84.1-2.07.19-4.22.28-6.43 1.78-43.63 2.49-86.21-6.3-130.15z"/>
      <path class="cls-2" d="M123.37 366.27c-.62 18.07 6.95 52-10.82 153.21"/>
      <path d="M107 347.88c10.53-2.45 24.5-3.58 34.11-6.4a3.73 3.73 0 0 0 2.6-4.39c-2.15-8.81-3.25-21.63-5.21-29.37s-1.3-22-1.74-29.84C136 261 139 228.47 139.54 211.6c.4-13.16-5.71-13.17-7-28.36v-.36c-1-10.53-2-15.28-3-25.8V156a2.54 2.54 0 0 0-2.75-2.28 2.39 2.39 0 0 0-.6.14c-10.72 3.47-21.58-.64-31.16-3.86a2.5 2.5 0 0 0-2.64.65l-1.73 1.73a3.14 3.14 0 0 0 0 4.44 3.35 3.35 0 0 0 1.28.77c5.6 1.73 11 4.16 12.35 8 2.92 8.32 2.91 17.63 3.48 26.56.19 3.09-2.64 6.31-2.52 9.4.23 6.06 2.35 12.16 2.21 18.1a230.11 230.11 0 0 1-2.8 25.11c-.73 5.33-2.85 10.63-2.64 15.9q.81 21.74 3.21 43.43c.61 5.46 3.58 10.63 4.85 16.07a30.1 30.1 0 0 1 .26 9.84c-.22 2.12-3.77 9.55-6.34 14.1a2.6 2.6 0 0 0 .89 3.57 2.56 2.56 0 0 0 2.11.21z" fill="#efe0f7"/>
      <path class="cls-10" d="M166.48 371.17h22v202.17a2.64 2.64 0 0 1-2.62 2.66h-19.38z"/>
      <path d="M739.8 376.37a34.1 34.1 0 0 1-3.64.28v-2.13z" fill="#f3d8dc"/>
      <path class="cls-10" d="M731.37 316.81h20.6v255.97h-20.6z"/>
      <path fill="#cedfd9" d="M747.89 321.29l-581.97-.5-37.35 50.58 576.36.78 42.96-50.86z"/>
      <path class="cls-10" d="M751.67 337.52l-51.1 53.66 3.06-26.56 48.04-49.05v21.95z"/>
      <path d="M335 306.18l152.75.68L520 195.33a4.27 4.27 0 0 0-3.07-5.21 4.39 4.39 0 0 0-1.25-.12l-141.58-.63a6.82 6.82 0 0 0-6.68 4.75z" fill="url(#linear-gradient-2)"/>
      <rect x="302.06" y="306.06" width="189.1" height="21.01" rx="5.56" ry="5.56" fill="url(#linear-gradient-3)"/>
      <path class="cls-15" d="M347.75 297.07l129.82.58 28.83-97.94-129.84-.57-28.81 97.93z"/>
      <g id="code">
        <path class="cls-16 path1" d="M475.18 221.06h-77.05"/>
        <path class="cls-16 path2" d="M469.31 237.23h-77.06"/>
        <path class="cls-16 path3" d="M463.24 253.41h-77.05"/>
      </g>
      <path class="cls-17" d="M332.62 246a10.86 10.86 0 0 0-.22-1.39c.07.46.15.93.22 1.39z"/>
      <ellipse cx="827.7" cy="570.26" rx="49.54" ry="75.69" transform="rotate(-83.75 827.7009514 570.261175)" fill="url(#linear-gradient-4)"/>
      <path class="cls-20" d="M738.28 584.27l3.53-22.13c-23.78 4.24-23.94 4-41.89 18.7-5.3 4.38-10.36 3.85-16.54 6.92-13.48 17 66.77 18.12 54.9-3.49z"/>
      <path class="cls-20" d="M789.69 551.65l-1.5-22.35c-22.26 9.4-22.47 9.17-36.7 27.47-4.26 5.46-9.24 6.05-14.57 10.41-9.35 19.47 69.17 2.82 52.77-15.53z"/>
      <path d="M693.86 309.81l-138.76.66-29.35-108.74a4.09 4.09 0 0 1 2.86-5 4.23 4.23 0 0 1 1.06-.14l128.64-.59a6.24 6.24 0 0 1 6.07 4.61z" fill="url(#linear-gradient-5)"/>
      <rect x="551.87" y="309.71" width="171.78" height="20.48" rx="5.65" ry="5.65" fill="url(#linear-gradient-6)"/>
      <path class="cls-15" d="M682.16 300.94l-117.94.57-26.19-95.5 117.94-.57 26.19 95.5z"/>
      <path d="M843 504.33v59.37a12.16 12.16 0 0 1-12.16 12.14h-6.06a12.16 12.16 0 0 1-12.17-12.14v-59.4a12.17 12.17 0 0 1 12.17-12.16h6.06c6.67.03 11.91-.41 12.16 12.19z" fill="url(#linear-gradient-7)"/>
      <path d="M776 422.58c3.53 28.27 6.06 56.73 10.46 84.91 6.69 42.83-.82 33.82-26.36 39.83-11.3-47.9-18.13-63-25.18-111.86-11.03-76.95 71.08-.78 41.08-12.88z" fill="#301ea8"/>
      <path class="cls-27" d="M723.65 308.63a32.82 32.82 0 0 0-34.28-7.18 37 37 0 0 0-6.08 2.85 38.74 38.74 0 0 0-3.25 2.14 1.46 1.46 0 0 0-.27 2.05 1.44 1.44 0 0 0 1.35.56l6-.7a52.86 52.86 0 0 1 7-.46 2.78 2.78 0 0 1 3 2.52 2.85 2.85 0 0 1-.29 1.49c-.49 1-2.42 3.07-2.33 4.66s0 0 3.53 1.17c12.58 3.27 17.68-1.63 25.62-9.1z"/>
      <path d="M709.65 301.07c20.6-9.23 27.65-15 47.71-25.2 21.2-10.73 42.51-7.07 64.19-3.87 5.3.8 7.32 0 12.69.34 9.56 16.11 15.18 41.52 19.43 58.92 1.38 5.53 1.66-4.8 3.41.74-14.13-5.65-14.13-4.64-27.86-11-28.85-13.27-55.85-20.09-86.58-12.74-12.86 3.1-12.37 2.07-25.57 7.55-2.95-7.81-5.79-10.81-7.42-14.74z" fill="#89d171"/>
      <path class="cls-27" d="M766.83 212.4c.57 10.6 6.13 20.16-1.4 29.67-4.1 5.16-3.81 15.26 5.78 10.35s20.55-6.82 30.82-12.37c1.94-1 7.59-2.12 6.18-3.81-7.53-9-10.6-18-15-27.05s-13.21-4.76-22.6-2.19a5.3 5.3 0 0 0-3.78 5.4z"/>
      <path d="M765.13 242.7c17.23-.3 35.34 6.68 40.91-9.93 18.57 3.11 38.32 25.91 52.67 67.43 11.1 32.14 6 12.19 24 76.88 8.71 31.34 20.9 33.07-42.41 33.57-30 .26-60.92-4-91-2.19 42.83-20.9-7.98-140.91 15.83-165.76z" fill="url(#linear-gradient-8)"/>
      <path class="cls-27" d="M683.34 312.57c-3.92-3.78-3.53-9.31-8.18-9.31h-4.66c-1.1 0-5.51-.18-10.6.16a45.5 45.5 0 0 0-12.76 2.35 14.34 14.34 0 0 0-3.2 1.67 1.31 1.31 0 0 0 1 2.34c16 .58 10.23 2.66 18.57 8.6 12.68 3.16 11.85 1.62 19.83-5.81z"/>
      <path d="M767.08 362.48v5.57c5.6 1.34 19.08-76.24 8.57-92.13-3.7-5.58-10.48-9.63-15.45-6.22-4.68 3.24-2.91 4-6.43 11.47-4.27 9.24 13.23 78.52 13.31 81.31z" style="isolation:isolate" opacity=".77" fill="#89d171"/>
      <path d="M737.87 372.64a15.64 15.64 0 0 0 19.19-3.53c22.47-26.26 30.71-91.88 21-113.7-4.2-9.42-9.8-14.79-15.79-10.46-5.64 4.06-5.3 8.39-9.93 17.56-11.5 23.15-14.54 57.55-25.69 61.58-7.49 2.7-17.55-5.83-37.41-14-8-3.27-6.43.78-9.35 3.54-5.17 4.82-21.11 6.13-19.86 7.06 13.12 9.14 59.18 42.08 77.84 51.95z" fill="#b2ec9f"/>
      <path class="cls-7" d="M888 462.44c6.77-26.91-3.92-37.21-1.77-55.73-17.67-1.17-73.15 1.77-105.61-6.87-23.92-6.35-50.87-12.37-65-7.07-15.32 5.74-16.91 24.52-16.06 64.91 1 49.48 4.24 69.27 9.59 118.18 37.56 0 32.74.58 32.74-40.43V450c28.27 15.64 56.24 22.16 86.91 26.5 17.43 1.77 20.91 3.54 17.43 1.77-4.23-2.27 29.49-3.55 41.77-15.83z"/>
      <path d="M917.67 323.28a3.76 3.76 0 0 0-5-1c-23 16.5-38.35 8.48-69.11 5.3-4.17-.44-7.42 1.76-6.15 5.81 9.35 29.6 8 49.1 5.3 71.49a633.48 633.48 0 0 1-12.11 63.62c31.11 1 51.11-6.8 81.28-15.67 10.81-13 11.23-12.8 15.33-23.65 11.2-29.43 16.42-57.3-9.54-105.9z" style="isolation:isolate" fill="url(#linear-gradient-9)" opacity=".68"/>
      <path d="M933.18 443.32c17-33.91 20.91-88.82-12.19-132.36-5-6.63-8.58.3-20.9 5.3a40.8 40.8 0 0 1-19.15 3.54c-22.71 0-29.74-2.11-49.23-4a8.14 8.14 0 0 0-8.83 7.28 7.61 7.61 0 0 0 .3 3.18c10.21 33.47 9.27 51.24 6.18 77.32-1.91 16.19-12.28 58.95-13.57 65.13h99.48a33.91 33.91 0 0 0 2.33-2.61c10.4-14.1 13.85-19.25 15.58-22.78zM830.7 468.48a629.88 629.88 0 0 0 12.09-63.61c2.65-22.39 4-41.89-5.3-71.49-1.27-4 2-6.25 6.15-5.81 30.76 3.23 46.11 11.25 69.1-5.3a3.78 3.78 0 0 1 5 1c26 48.61 20.74 76.47 9.59 105.85-4.1 10.85-4.52 10.61-15.34 23.64-30.25 8.84-50.32 16.67-81.27 15.7z" fill="url(#linear-gradient-10)"/>
      <path d="M921 310.93c-5-6.63-8.58.3-20.9 5.3a41 41 0 0 1-19.1 3.53c-22.71 0-29.74-2.1-49.23-4a8.14 8.14 0 0 0-8.83 7.28 7.61 7.61 0 0 0 .3 3.18c10.21 33.46 9.27 51.24 6.18 77.32-1.91 16.18-12.28 58.94-13.57 65.13a4.94 4.94 0 0 0-.12.77.11.11 0 0 0 0 .11c-20.43 4.89-38-8.69-56.54-18.32a16.29 16.29 0 0 0-22 6.86 16 16 0 0 0-1.68 5.12 78.65 78.65 0 0 0-.83 12.07c0 1.31 0 2.65.12 4a21.45 21.45 0 0 0 21.49 19.95c21.2 0 42.3 4 63 2.49 13.89-1 29.41-2.19 43-4.38 27.11-4.36 46.47-22 53-28.76a34.05 34.05 0 0 0 2.33-2.62c10.44-13.92 13.94-19.15 15.67-22.63 16.86-33.99 20.8-88.87-12.29-132.4zm6.27 118.25c-4.09 10.85-4.52 10.61-15.33 23.65-30.15 8.83-50.15 16.64-81.28 15.67a632.68 632.68 0 0 0 12.09-63.61c2.65-22.39 4-41.89-5.3-71.49-1.28-4 2-6.25 6.14-5.81 30.77 3.23 46.12 11.25 69.11-5.3a3.76 3.76 0 0 1 5 1c25.91 48.6 20.69 76.47 9.54 105.9z" fill="url(#linear-gradient-11)"/>
      <ellipse cx="347.18" cy="571.86" rx="77.44" ry="54.57" fill="url(#linear-gradient-12)"/>
      <path class="cls-36" d="M391.43 565.14l3.77-23.86c-25.66 4.57-12.68.52-32 16.4-5.79 4.73 3.31 3.7-3.36 7-14.48 18.32 44.47 23.68 31.59.46zM322.49 568.89c1.27-8-1.23-15.9 0-23.86-25.66 4.57-23.95.54-43.33 16.41-5.76 4.72-11.15 6-17.8 9.34-14.48 18.22 73.96 21.36 61.13-1.89z"/>
      <path class="cls-38" d="M471.35 357.19c-14.83.15-48.45.29-63.29.45l-4-22.78h31.74l.44-1.82-7.2-5.21 18-27.26 4.2 5 5.86 7.46 12.16 15.89c1 1.53 2 3.1 3.06 4.56 6.82 12.42 8.07 15.96-.97 23.71zM306.06 334.32l-5 23c-13.24-.14-45.26-.73-58.5-.41-9.41.22-11-.42-12-5.34-1.17-5.71-3-3.84 3.47-18.57a40.7 40.7 0 0 1 2.21-3.62 10.85 10.85 0 0 1 .87-1.26l11.89-15.5 9.91-12.49h.26l18.1 27.56-7.29 5 .5 1.65z"/>
      <path class="cls-7" d="M345.55 433.11l68.64 4.89c0 12.56-16.33 25.92-18.17 39.4-.45 3.27 1.13 52.61-.17 75.67-1.24 22-17.27 24.44-48.65 14.57l-7.51-83.15h-2.36A67 67 0 0 1 302.74 474l-9.1-5.74 32.61 84.79a12.16 12.16 0 0 1-8.79 14.78 8.56 8.56 0 0 0-1.12.23l-22 3.47a18 18 0 0 1-19.88-11.71C263 528.13 230.2 425.42 237.34 410.6c13-27.07 86.34 15.98 108.21 22.51z"/>
      <path d="M362.8 488.6l-3.21 57.91s-2.19 23.87-2.71 24.5-6.52 2-9.92 2c0 0-11.35-1.88-14.58-3.47-2.05-1-1.63-.33-1.63-3.25l-.13-77.72a11.15 11.15 0 0 1 11.11-11.17h9.9a11.13 11.13 0 0 1 11.17 11.09v.1z" fill="url(#linear-gradient-13)"/>
      <path d="M408.09 300c-34 12.16-97.86.85-110.34-1.56-6.51-1.27-16.73-3.72-18 2.79-5.21 27.8.22 57.54 2.27 72.87.56 4.2 3.79 18 8.08 39.59.28 1.39 5.75 15.92 5.22 17.15 44 8.69 82.92 15.41 128.3 7.11-.62-2.94 3.08-19.11 3.7-22.17 2.76-13.08 4.05-24.5 4.43-27 3.76-24.81 3.88-69.88-8.89-89.81-3.18-5.09-9.08-1.03-14.77 1.03z" style="isolation:isolate" fill="url(#linear-gradient-14)" opacity=".68"/>
      <path d="M435.65 432.4c.9-3.48 3-14.52 3.72-18.07a156 156 0 0 0 3.28-24.06c4.4-29 5.21-78.34-9.68-101.64-3.8-5.92-10-6.58-18.08-4.43-40.8 11-110.29 5.35-129.09-1.84-7.24-2.76-16.14 1.51-16.94 9.22-7.45 73.1 4.41 98.57 9.45 123.81.31 1.63 1.13 6.39 1.88 9.38 1.87 7.53 4.06 10.43 1.87 11.28-10.3 4.32-22.58 4.74-23.05 11.92v1.23h181.33a44.43 44.43 0 0 0-2.38-5.65c-1.96-3.99-3.77-5.63-2.31-11.15zm-3.82-43.66c-.38 2.5-1.74 13.9-4.43 27-.63 3-4.33 19.23-3.7 22.17-45.38 8.3-84.34 1.53-128.31-7.11.5-1.23-5-15.76-5.21-17.15-4.29-21.58-7.52-35.39-8.08-39.59-2.05-15.33-7.52-45.07-2.28-72.87 1.24-6.51 11.45-4.06 18-2.79 12.47 2.41 76.34 13.69 110.34 1.56 5.65-2 11.59-6.08 14.84-1 12.73 19.93 12.61 65 8.86 89.81z" style="isolation:isolate" opacity=".7" fill="url(#linear-gradient-15)"/>
      <path class="cls-10" d="M712.92 369.87h3.47c-6.56-.21-587.75 1.56-587.82 1.56v245a2.17 2.17 0 0 0 2.15 2.19h17.6a2.21 2.21 0 0 0 2.21-2.21V388.79a9.48 9.48 0 0 1 3.78-1.13c61.79 0 328.06-1.65 328.13-1.74H690.8v231h23v-247z"/>
      <path d="M445.54 289.69c-4.64-6.32-24.1-30.26-24.1-30.26s-4.29-3.69-19.11-7.68c-8.93-2.38-18.3-6-23.41-4.52-16.17 4.74-20 5.63-40.88-1.84-16.17 2.33-27.05 3-40 13.9-13.62 11.52-33.35 31.53-46 44.09 1.74 8 25.51 23.93 32.51 27.31 7.61-6.77 10.7-8.82 16.07-16.54v44.5c0 1.93-.07 3.86-.21 5.78L295 443.59l120.23-1.9 3.9-32.69a301.93 301.93 0 0 0 .81-62.54l-3.84-32.86c4.82 6 8.57 15.36 15.15 19.86 3.7-5.68 29.11-25.15 25.42-29.19a169 169 0 0 1-11.13-14.58z" fill="#effffa"/>
      <path d="M441.11 414.33a157.27 157.27 0 0 0 3.28-24.06c4.39-29 5.21-78.34-9.68-101.64-3.8-5.92-10-6.58-18.08-4.43-40.8 11-110.29 5.35-129.09-1.84-7.25-2.76-16.14 1.51-16.94 9.22-7.46 73.1 4.41 98.57 9.45 123.81.31 1.63 1.13 6.39 1.88 9.38 1.87 7.53 4.06 10.43 1.87 11.28-10.3 4.32-22.58 4.74-23.05 11.92v1.23c.1 20.17 31.95 46 99.43 44.48 57-1.29 80.84-10.08 82-30.42.24-4.35 2.12-7.18-.14-14.06a44.43 44.43 0 0 0-2.38-5.65c-2-4-3.77-5.63-2.31-11.15.99-3.4 3.01-14.52 3.76-18.07zM283.8 374.06c-2.05-15.33-7.52-45.07-2.27-72.87 1.23-6.51 11.45-4.06 18-2.79 12.48 2.41 76.34 13.69 110.34 1.56 5.65-2 11.59-6.08 14.84-1 12.77 19.93 12.65 65 8.9 89.81-.39 2.5-1.74 13.9-4.44 27-.62 3-4.32 19.23-3.7 22.17-45.38 8.3-84.33 1.53-128.3-7.11.5-1.23-5-15.76-5.21-17.15-4.37-21.61-7.6-35.42-8.16-39.62z" fill="url(#linear-gradient-16)"/>
      <path class="cls-4" d="M31.2 362.52c-.19-.47-.36-1-.85-1.09-5-1.34-8.68-2.8-13.55-4.15a1.1 1.1 0 0 0-1.35.78.74.74 0 0 0 0 .21c-.23 3.79-1 6.26-1.39 11.3h-.13v16.53a6.46 6.46 0 0 0 1.39 4l2.18 5.54c.1.12 1.54-1 1.73-.89l.44-2.31 1.27 3.2c0 .12 1.52-1 1.73-.89v-3.65l1.74 4.54c0 .12 1.53-1 1.74-.89v-4c.68 3.47 1.35 6.13 2 5.85l2.08-1.6a1.05 1.05 0 0 0 .61-1.35l-1.74-9.94s0-.14-.17-1.41l.54-8.69s6.53 4.39 7.17 4.67c1.86.47-1.81-6.91-5.44-15.76z"/>
      <path d="M94.65 162.48c8.27-10.89 9.94-25.21 9.92-38.33C91.89 143 74.08 152.28 67 169.32c-2.68 6.42-.86 16.51-1 24.87 9.52-10.64 19-21.27 28.65-31.71z" fill="#e59d1f"/>
      <path class="cls-4" d="M106.26 92.31c-6.34 4.91-8.2 10.42-4.29 14.87.64.71 3.47 2.47 2.79 2.81-7.74 4.09-3.7 8.52-1 13 0 4.62 1 9.4 0 13.9a162.23 162.23 0 0 1-4.43 18.57c9.62.85 18.21 8.46 27.26 1.35-.45-4.43-3-10.21-3.48-14.64.35-1-.73-2.07 1.58-3.1 1.34-.59 7.06-2.51 7.49-3.75.75-2.69.49-7.94-1.13-16.45-.29-1.58 1.15-3.08.59-4.43-.76-1.88-5.59-5.34-7.19-6.46-1.28-.93-.28-3.24-5.85-8.81-3.15-3.17-7.15-4.71-10.8-7.17-1.04-.75-.43.79-1.54.31z"/>
      <path d="M108.53 92c-2.13-.73-4.34-2.31-6.37-2-12.93 1.74-23.77 4.89-33.29 13.68-3 2.76-3 7.62-3 11.43-.19 11 .75 22 1.25 33 .42 8.16-1.32 19.91-.92 28.08 1.74-.87 5.91-12.06 7.21-13.31 4.67-4.52 8-1.62 9.9-7 4.31-12.16 14.6-21.13 21.84-31.71-2.93-4.6-9.28-9.21-.45-13.64.75-.38-.24-2.1-.76-3-4.04-6.59-.3-10.24 4.59-15.53z" fill="#e9ae47"/>
      <path d="M117.45 321.19a117.31 117.31 0 0 1-3.06-14.84c-1.74-15-1.34-56.25-.59-61.81l.16-1.06c-5.81-27.21 5.88-60.95-8.95-84.25-3.86-1.93-7.77-5.21-9.64-3.86-5.62 4.14-17.38 7.72-27 15.43-5 4-19.29 23.14-26.76 40-7 15.63-8 17.81-12 29.85-12.49 35.53-14.82 72.51-16.24 109.19-.13 2.87-.91 5.77-.35 8.69 6.1 1.58 17.37 3.25 23.54 4.83 1.74-10.43 2.15-15.92 4.26-26.25 3.47-16.93 5-38.78 8.68-55.6 2.8-6.95 16.23-34.9 20.14-41.58-.56 1.06 1.74 30.77 1.48 45.45l-3.58 29.9-5.21 40.8 13.49 2.4a34.56 34.56 0 0 0 8 .45c13.76-.84 30.26-.23 40.57-10.65.68-3.34-6.18-23.81-6.94-27.09z" fill="url(#linear-gradient-17)"/>
      <path class="cls-6" d="M91.46 211c-6.95 13.47-11.3 13.78-22.82 32.33 9.4-16.67 10.13-24.84 22.83-35.65a2.87 2.87 0 0 1-.01 3.32zM108.48 222.26c-1-6.36-1.44-10.82-2.15-17.37-.37-3.3-2.89-14.44-3.18-17.72-.87-9.56-2.09-14.89-2.92-23-1-10-1.22-5.88 11.4-5.68.34 0 1 3.11 1 3.61.69 20.64 3.47 42.62 1.73 80.2-2.23-7.86-4.36-11.49-5.88-20.04z"/>
      <path class="cls-38" d="M388.34 196.32c0-4.27-.82-13.79-2.29-17.54-2.37-6-1-9.28-6.14-13s-19.23-7.92-26.37-7.92c-18.22 0-31.19 20.21-31.19 38.43 0 7.2 7.2 13.43 11.37 18.77 2.81 3.59 2.29 6.77 4.74 9.54-.5 5.33-2 21.64-2 23.87 11 3.91 35.3 2.95 44.61.71 1.93-.68 1.12-1.23-.55-2.15-5.32-2.94-4.31-16.87-4.71-19.6a21.67 21.67 0 0 0 8.34-6.27c.57-.68 1.13-5 1.65-5.74 1.44-2 .87-6 1.82-8.35a62.4 62.4 0 0 0 .72-10.75z"/>
      <path class="cls-17" d="M327.81 239.85l-.21-1.29z"/>
      <path class="cls-20" d="M354.06 149.81c4.31 1.74 8.57 0 11.23.3 6.95.75 7.57 5.21 11.38 11.45.57 2.48 10.07 11 9 12.66.9 3.62-1.13.23.56 5.51-.14 2.42-.79 4.8-.92 7.23 1 3.79-.77 2 1 5.59 0 1.74-7.09 7.16-7.09 1.74 0 3.2-3.23-5.07-4 2.05-.45 4.22-2.32 10.43-2.46 14.46-.18 5.33-3.58 9.92-3.32 12.16-7.4 5.75-15.34 3.82-23.51 5.21-2.34.4-7.3-1.74-9.94-3.21-.62-.6-6.95-11.58-11.66-15.94-1.85-1.73-1 1.45-1.92 1-.25-5-4.33-11.07-4.59-16-.4-2 1.32-3.39.92-5.42-.54-2.38-1.22-4.25-1.74-6.62-.21-2.08 1.41-4.15 1.2-6.23.4-4.24 4.4-4.87 4.78-9.11.87-2.36 5.37-6.51 6.25-8.86 2.45-1.74 1.74-3.35 5.55-3.37 6.67 0 12.3-3.7 12.16-3.11a16.5 16.5 0 0 0 7.12-1.49z"/>
      <path class="cls-38" d="M381.41 197.44c-1.91 0-1.43 6.22-6.17 3-.09-5.82-2.69-10.81-.09-13.41 1.74-1.74 1.74-1.74 4.63-2.09.76-.1 1.49 0 1.51.79.07 4.63.15 9.39.12 11.71z"/>
      <path class="cls-27" d="M800.63 187.45a27.87 27.87 0 0 1-16.87 35.62c-4.86 1.77-11.62 3.78-16.34 2.9a28 28 0 0 1-7.65-2.6c-2.44-1.25-2.48-2.44-5-6.5-1-1.57-2.53-4.43-3.53-6-1.36-2-4.23-2.39-5.08-4.74-.47-1.34.62-2.67.62-4 0-7.3-1.13-8-1.76-10.8a87.75 87.75 0 0 1 0-12.56c2-9.15 10.14-14 19.73-17 22.05-6.86 30.67 11.16 35.88 25.68z"/>
      <path class="cls-20" d="M760.79 185.1c.56.25 1.06 1.42 1.48 3.08.51 2 .94 4.79 1.34 7.51l.53 3.81c.5 3.38 1 6 1.52 6.12 11.47 1.66 15.34-.43 19.58-.8.8 0 16.43-3.28 17.32-2.95 2.1-3.43 3.12-19.12 5.3-22.46 3.53-5.3-1.36-8.11-3.84-11.66-1.41-1.76-3.8-3.41-4.08-5.3-.83-5.78-5.16-7.42-9.52-9.33-8.41-1-16.36-6.48-23.36-.56-1.77 1.53-6.45 1.55-9.79 1.34-7.7-.49-8.83 4.42-13.22 9.91 0 .6-2.89 3.84-2 5.8a21.82 21.82 0 0 1 .94 9.22c-.25 2.79.83 1.61 2.06.39 1.77-1.77 2.51-4.44 3.54-3.53.37.37 1.36 15.37 1.76 15.67 2 1.71 1.7 0 3.47 0s1.76 0-.29-4.49c-1.14-2.59 2.25-4.34 4.28-3.23"/>
      <g id="computer_chart">
        <path class="chartfill" d="M605.15 232.62c-21.83 0-34.67 18-28.76 40.29h21.81c-2.59-10 3.18-18 13-18a21.68 21.68 0 0 1 10.7 3c2.79-6.16 4.38-12.68 6.67-18.76a48 48 0 0 0-23.42-6.53z" fill="#cb98e5"/>
        <path d="M628.53 239.16c-2.29 6.08-3.88 12.6-6.67 18.76a26 26 0 0 1 12 15h21.81c-3.88-14.17-14.4-26.58-27.14-33.76z" fill="#cb98e5"/>
      </g>
      <path class="cls-49" d="M581.91 355.22h-24.33a9.35 9.35 0 0 1-9.34-9.35v-40.62c0-5.21 3.7-6.95 9.34-9.35h22.8c4.76 1.22 10.77 4.22 10.77 9.38v40.64a9.35 9.35 0 0 1-9.24 9.3z"/>
      <path id="smoke" class="smoke" d="M560.64 292.17c-13.9-16.63 23.77-17.74 7.42-35.86 24.62 5.75 7.14 22.18 11.12 35.86z" style="isolation:isolate" opacity=".3" fill="#F6F9F8"/>
      <g id="cup">
        <path class="cls-49" d="M584.41 312.25a2 2 0 0 1 1.34-2.33c3.47-1.11 8.68 0 10.75 2.05 10.42 10.51 5.58 22.59-7 28.46a2.08 2.08 0 0 1-2.77-.94 2 2 0 0 1-.21-.91v-3.89a2.13 2.13 0 0 1 1.55-2 7.93 7.93 0 0 0 2.69-14.17 2 2 0 0 0-1.15-.33h-2.53a2.07 2.07 0 0 1-2-1.74z"/>
        <ellipse cx="569.73" cy="302.85" rx="20.45" ry="8.2" fill="#161601"/>
      </g>
    </g>
  </g>
</svg>
