<svg xmlns="http://www.w3.org/2000/svg" viewBox="0 0 229.33 233.57">
  <defs>
    <style>
      .cls-2{opacity:.13;mix-blend-mode:multiply}
    </style>
    <linearGradient id="linear-gradient" x1="11.78" y1="116.7" x2="217.44" y2="116.7" gradientUnits="userSpaceOnUse">
      <stop offset="0" stop-color="#93c"/>
      <stop offset=".03" stop-color="#922fc9"/>
      <stop offset=".2" stop-color="#771ebc"/>
      <stop offset=".36" stop-color="#6312b2"/>
      <stop offset=".52" stop-color="#570aad"/>
      <stop offset=".69" stop-color="#5308ab"/>
      <stop offset=".8" stop-color="#1c08a0"/>
      <stop offset=".93" stop-color="#1c08a0"/>
    </linearGradient>
    <linearGradient id="linear-gradient-2" y1="116.78" x2="229.33" y2="116.78" gradientUnits="userSpaceOnUse">
      <stop offset="0" stop-color="#bccbc6"/>
      <stop offset=".5" stop-color="#beccc8"/>
      <stop offset=".68" stop-color="#c5d1cd"/>
      <stop offset=".82" stop-color="#d1dad7"/>
      <stop offset=".92" stop-color="#e2e6e5"/>
      <stop offset=".99" stop-color="#f0f0f1"/>
    </linearGradient>
  </defs>
  <g style="isolation:isolate">
    <g id="Layer_2" data-name="Layer 2">
      <g id="Layer_1-2" data-name="Layer 1">
        <path d="M217 105.16a4.78 4.78 0 0 0-4.93-4.65l-14.37.4a84 84 0 0 0-4.89-16.43L205 77a4.78 4.78 0 0 0 1.57-6.59l-9.09-14.74a4.81 4.81 0 0 0-6.6-1.57l-12.2 7.5a85.22 85.22 0 0 0-12.48-11.83L173 37.2a4.79 4.79 0 0 0-2-6.49l-15.25-8.22a4.81 4.81 0 0 0-6.51 1.93l-6.76 12.49a83.71 83.71 0 0 0-16.79-4l-.4-14.18a4.78 4.78 0 0 0-4.93-4.65l-17.33.48a4.81 4.81 0 0 0-4.67 4.93l.4 14.17a84.21 84.21 0 0 0-24.28 8.62l.29-15.76A4.79 4.79 0 0 0 68.2 25l-14.77 9a4.79 4.79 0 0 0-1.57 6.59l7.49 12.14a84.69 84.69 0 0 0-11 11.44l-12.49-7A4.8 4.8 0 0 0 29.37 59l-5.78 7a4.77 4.77 0 0 0 1.84 6.52l13.62 6.31a83.88 83.88 0 0 0-8.23 26.8l-14.37.37a4.8 4.8 0 0 0-4.67 5l.49 17.29a4.79 4.79 0 0 0 4.93 4.66l14.38-.41a83.59 83.59 0 0 0 4.88 16.44l-12.22 7.51a4.78 4.78 0 0 0-1.57 6.51l9.09 14.73a4.79 4.79 0 0 0 6.6 1.57l12.2-7.49A85.12 85.12 0 0 0 63 183.66l-6.75 12.54a4.78 4.78 0 0 0 1.94 6.49l15.26 8.23A4.8 4.8 0 0 0 80 209l6.76-12.48a84.4 84.4 0 0 0 16.79 4l.4 14.18a4.8 4.8 0 0 0 4.94 4.65l17.33-.49a4.8 4.8 0 0 0 4.66-4.92l-.4-14.18a83.49 83.49 0 0 0 15.13-4.36 94.54 94.54 0 0 0 9.19-3l1.48 14.46c1.39 2.25 2.54 3 4.79 1.57l14.77-9.07a4.79 4.79 0 0 0 1.57-6.6l-7.49-12.13a85.29 85.29 0 0 0 11-11.44l12.49 7a4.8 4.8 0 0 0 6.54-1.83l8-14.24a1.51 1.51 0 0 1-1.36-.14l-14.79-6.37c.74-2 1.63-5.12 2.52-8.55a83.44 83.44 0 0 0 4.16-17.29l14.38-.4a4.79 4.79 0 0 0 4.66-4.93zm-102.34 59a47.46 47.46 0 1 1 47.46-47.46 47.45 47.45 0 0 1-47.51 47.46z" fill="url(#linear-gradient)"/>
        <path d="M208.34 159.28l-.47.85c1.21-.5 1.47-2.62.47-.85z" fill="#5308ab"/>
        <path d="M1.59 39.23l7.75 4.92c3.95 2.5 7.88 5.07 11.88 7.48s8.21 2.73 12-.05C40.43 46.25 44.67 39 44 29.29a12 12 0 0 0-5.63-9.58L22.05 9.13c-.71-.46-1.39-1-2.45-1.7 1-1.11 1.78-2.41 2.84-2.9 10.26-4.8 20.9-6.39 31.49-1.77C63.64 7 73.27 12.87 76.77 24c1.87 6 1.55 12 .57 18.1-.07.48-.2 1-.25 1.44-.45 4.13-1.45 8.31 1.74 11.48 14.24 14.18 28.05 28.84 42.25 43.07 7.71 7.72 15.87 14.93 23.85 22.36 11.56 10.75 23.16 21.46 34.66 32.29 1.53 1.43 3.94.85 5.74.36 2.15-.59 4.25-1.39 6.42-1.86 8.14-1.76 15.51.39 22.22 5.38 8 5.94 12.74 14.2 15 24.12.63 2.76-.08 6.52.31 9.33a4.73 4.73 0 0 1-1.46 4.17c-.65-.38-1.37-.76-2.06-1.2-5.74-3.62-11.47-7.27-17.22-10.88-4.73-3-9.54-2.94-13.74.71-6.13 5.31-10.06 12.08-9.52 20.87a12.42 12.42 0 0 0 5.88 10.2c5.6 3.56 11.14 7.23 16.7 10.86.51.33 1 .72 1.5 1.1-.52 1.39-1.05 2.57-2.4 3.18-10.46 4.72-21.24 6.41-31.94 1.55-9.56-4.35-19.13-10.21-22.5-21.31-1.77-5.83-1.48-11.71-.55-17.63a35.58 35.58 0 0 0 .5-4.59c.06-2.42 1.21-5.33-.6-7.16-13.83-14-27.47-28.31-41.36-42.29-7.31-7.34-15-14.27-22.55-21.33-8.54-8-17.13-15.9-25.69-23.85C58.51 89 54.57 85.7 51.05 82c-2.67-2.86-5.42-2-8.58-.82a26.5 26.5 0 0 1-8.53 1.72c-7.34.23-13.68-2.53-19.33-7.27C6.71 68.94 2.42 59.15.66 48.77c-.28-1.68-.37-3.39-.6-5.08a5.06 5.06 0 0 1 1.53-4.46z" fill="url(#linear-gradient-2)" id="SUQDEg.tif"/>
      </g>
    </g>
  </g>
</svg>
