<svg xmlns="http://www.w3.org/2000/svg" viewBox="0 0 222.18 180.63">
  <defs>
    <linearGradient id="a" x1="70.59" y1="97.16" x2="150.92" y2="97.16" gradientTransform="matrix(-1 0 0 1 254.54 -.05)" gradientUnits="userSpaceOnUse">
      <stop offset="0" stop-color="#bccbc6"/>
      <stop offset=".28" stop-color="#c5d2ce"/>
      <stop offset=".73" stop-color="#dfe4e3"/>
      <stop offset=".99" stop-color="#f0f0f1"/>
    </linearGradient>
  </defs>
  <g data-name="Layer 2">
    <g data-name="Layer 1">
      <path d="M14.66 14a49.16 49.16 0 0 1 69.34.67l27.16 27.73 27.74-27.16a49.17 49.17 0 0 1 69.33.72 49.16 49.16 0 0 1-.72 69.33l-27.73 27.16-51.38 50.33-17.4 17.85S95.89 167 91.42 162.39L41.1 111 13.94 83.28A49.17 49.17 0 0 1 14.66 14" fill="#5308ab" fill-rule="evenodd"/>
      <path d="M118.2 119.29c-6.92-5.34-8.31-12.56-9.59-20.06-12.43 16.09.27 44 21.72 47.52-4.33-9.33-4.33-18 2.81-25.22l7.79 13.86c9.57-5.88 12.11-13.18 9.72-25.87 6.1 2.72 11 9.14 10.38 16.59-.55 6.78-6.58 13.44-13.7 19.44 31.24-1.41 40.22-23.62 35.55-40.14-3.88-13.75-17.06-23.24-27.41-32.66C150.39 68.13 146 63 145 56c-.39-2.72-.06-5.54-.07-8.3-25.13 9.18-35.79 37.12-26.73 71.59z" fill="url(#a)"/>
    </g>
  </g>
</svg>
