<svg xmlns="http://www.w3.org/2000/svg" viewBox="0 0 149.99 142.6">
  <defs>
    <linearGradient id="a" y1="71.3" x2="149.99" y2="71.3" gradientUnits="userSpaceOnUse">
      <stop offset="0" stop-color="#93c"/>
      <stop offset=".03" stop-color="#922fc9"/>
      <stop offset=".2" stop-color="#771ebc"/>
      <stop offset=".36" stop-color="#6312b2"/>
      <stop offset=".52" stop-color="#570aad"/>
      <stop offset=".69" stop-color="#5308ab"/>
      <stop offset=".8" stop-color="#1c08a0"/>
      <stop offset=".93" stop-color="#1c08a0"/>
    </linearGradient>
  </defs>
  <g data-name="Layer 2">
    <path d="M121.25 142.59c-1.58-.82-3.07-1.57-4.55-2.35Q96.35 129.53 76 118.79a1.92 1.92 0 0 0-2 0q-22 11.6-43.92 23.1c-.42.22-.86.41-1.48.71.56-3.27 1.08-6.33 1.61-9.39q2-11.76 4-23.53c.95-5.55 1.88-11.11 2.89-16.65a3.3 3.3 0 0 0-1-3.38C24.4 78.36 12.79 67 1.15 55.66A14.6 14.6 0 0 0 0 54.73l.15-.33 5.23-.8c5.29-.77 10.62-1.6 15.85-2.32 5.83-.84 11.66-1.65 17.48-2.48 4.11-.59 8.22-1.22 12.29-1.8.83-.11 1-.68 1.3-1.24q4.77-9.65 9.52-19.3Q68 14.06 74.12 1.6c.24-.48.49-.95.83-1.6.29.5.52.85.7 1.22q10.84 22 21.65 43.92a3.07 3.07 0 0 0 2.69 2c6.66.85 13.31 1.88 20 2.86l17.32 2.54c3.81.56 7.63 1.09 11.45 1.63.34 0 .67.13 1.27.26-.52.53-.9.93-1.3 1.32q-17.44 17-34.93 34a3 3 0 0 0-1 3q2.83 16.36 5.63 32.74 1.39 8.1 2.82 16.21a5.92 5.92 0 0 1 0 .89z" fill="url(#a)" data-name="Layer 1"/>
  </g>
</svg>
