<svg xmlns="http://www.w3.org/2000/svg" xmlns:xlink="http://www.w3.org/1999/xlink" viewBox="0 0 180.91 146.1">
  <defs>
    <linearGradient id="a" y1="73.05" x2="180.91" y2="73.05" gradientUnits="userSpaceOnUse">
      <stop offset="0" stop-color="#93c"/>
      <stop offset=".03" stop-color="#922fc9"/>
      <stop offset=".2" stop-color="#771ebc"/>
      <stop offset=".36" stop-color="#6312b2"/>
      <stop offset=".52" stop-color="#570aad"/>
      <stop offset=".69" stop-color="#5308ab"/>
      <stop offset=".8" stop-color="#1c08a0"/>
      <stop offset=".93" stop-color="#1c08a0"/>
    </linearGradient>
    <linearGradient id="b" x1="37.59" y1="94.3" x2="180.91" y2="94.3" xlink:href="#a"/>
    <linearGradient id="c" y1="52.61" x2="142.9" y2="52.61" xlink:href="#a"/>
  </defs>
  <g data-name="Layer 2">
    <g data-name="Layer 1">
      <g data-name="5SW467">
        <path d="M140.27 71.85c-1.09 19.84-9.42 34.79-26.31 43.8-21.41 11.43-41.42 7.32-59.41-7.81l-17 16.53C57 142.65 79.8 150.09 105.5 144c37.43-8.81 55.8-34.53 59.21-72.3h16.2l-28.12-29.2-29.49 29.35zm2.63-50.4C122 2.19 97.62-4.76 70.49 3.3 35.92 13.55 19 38.66 16.13 74.51H0l29.63 30.7c4.76-4.91 9.54-9.9 14.38-14.84s9.77-9.92 15.89-16.11H41.36C39.6 59.55 48.45 42 62.89 32.84c22.37-14.17 43.68-10.75 62.91 5z" fill="url(#a)"/>
        <path d="M140.27 71.85h-17l29.52-29.35 28.12 29.24h-16.2c-3.41 37.77-21.78 63.49-59.21 72.3-25.7 6.05-48.46-1.39-67.91-19.67l17-16.53c18 15.13 38 19.24 59.41 7.81 16.85-9.01 25.18-23.96 26.27-43.8z" fill="url(#b)"/>
        <path d="M142.9 21.45l-17.1 16.44c-19.23-15.8-40.54-19.22-62.91-5C48.45 42 39.6 59.55 41.36 74.26H59.9c-6.12 6.19-11 11.13-15.89 16.11s-9.62 9.93-14.38 14.84L0 74.51h16.13C19 38.66 35.92 13.55 70.49 3.3 97.62-4.76 122 2.19 142.9 21.45z" fill="url(#c)"/>
      </g>
    </g>
  </g>
</svg>
