<svg xmlns="http://www.w3.org/2000/svg" xmlns:xlink="http://www.w3.org/1999/xlink" viewBox="0 0 242.93 226.23">
  <defs>
    <style>
      .cls-2{fill:#1c08a0}
    </style>
    <linearGradient id="linear-gradient" x1="80.94" y1="107.28" x2="242.93" y2="107.28" gradientUnits="userSpaceOnUse">
      <stop offset="0" stop-color="#93c"/>
      <stop offset=".03" stop-color="#922fc9"/>
      <stop offset=".2" stop-color="#771ebc"/>
      <stop offset=".36" stop-color="#6312b2"/>
      <stop offset=".52" stop-color="#570aad"/>
      <stop offset=".69" stop-color="#5308ab"/>
      <stop offset=".8" stop-color="#1c08a0"/>
      <stop offset=".93" stop-color="#1c08a0"/>
    </linearGradient>
    <linearGradient id="linear-gradient-2" x1="70.44" y1="177.6" x2="128.95" y2="177.6" xlink:href="#linear-gradient"/>
    <linearGradient id="linear-gradient-3" x1="171.88" y1="20.4" x2="212.86" y2="20.4" xlink:href="#linear-gradient"/>
  </defs>
  <g id="Layer_2" data-name="Layer 2">
    <g id="Layer_1-2" data-name="Layer 1">
      <path d="M242.93 62c-1.55 5.39-5.1 8.62-10.21 11-8.4 4-16.6 8.42-24.59 13.17-5.65 3.36-10.18 2.59-14.95-1.52s-9.89-7.73-15.42-12l-19.27 36.42c8.66 4.64 17 9.11 25.29 13.55 4.3 2.29 8.67 4.42 12.93 6.78 10.4 5.76 11.33 15.67 2 22.91q-23.25 18.11-46.71 35.93c-5.38 4.1-11.44 3.6-15.3-1s-3.2-10.59 1.84-15.24c8.07-7.44 16.35-14.67 24.53-22 1.53-1.37 3-2.83 5-4.77-8.34-3.37-16.3-6.12-23.83-9.76a121.35 121.35 0 0 1-20.14-11.8c-7.44-5.6-8.56-11.49-5.23-20.22 5.73-15 11.63-30 17.47-45 1-2.55 2-5.1 3.18-8.17-4.34-2.35-8.25-4.83-12.47-6.57-1.6-.66-4.08-.06-5.86.68-9 3.72-17.87 7.68-26.8 11.56-6.13 2.67-10.25 1.75-12.51-2.81s-.51-8.46 5.47-11.64C98.2 35.75 109 29.87 120.08 24.66a13.91 13.91 0 0 1 10.17-.3c16 6.78 32 13.48 47.31 21.63 7.81 4.17 14 11.3 21 17.13 1.76 1.48 3.44 3.06 5.13 4.59 8.11-3.42 16.06-6.36 23.62-10.09 5.16-2.54 9.53-2.22 14 .94z" fill="url(#linear-gradient)"/>
      <path class="cls-2" d="M0 144.21c2.62-.78 5.21-2.12 7.87-2.25 17.7-.85 35.41-1.5 53.12-2.09 7.11-.24 10.27 1.95 10.51 6.78.25 5-3.21 7.66-10.45 7.51-17.72-.36-35.44-.77-53.14-1.39-2.66-.1-5.25-1.44-7.87-2.21z"/>
      <path d="M108.94 129l20 17.6a9.28 9.28 0 0 0-1.74 2.3q-18.09 34.89-36.07 69.84c-2.4 4.68-5.62 8-11.32 7.47-7.67-.73-11.54-7.87-8.14-15.62 5.35-12.19 11.06-24.22 16.6-36.33 6.94-15.2 13.86-30.37 20.67-45.26z" fill="url(#linear-gradient-2)"/>
      <path d="M201.25 38.7a20.37 20.37 0 0 1-27.42-9.44 20.5 20.5 0 0 1 36.88-17.93 20.17 20.17 0 0 1-9.46 27.37z" fill="url(#linear-gradient-3)"/>
      <path class="cls-2" d="M50.83 122.32c-8.22-.34-16.43-.79-24.66-1-3.65-.08-6.41-1.13-6.57-5.12s2.32-5.43 6.08-5.6c16.44-.72 32.87-1.63 49.31-2.29 5.08-.2 7.63 2.4 7.75 7.06.12 4.86-2.66 7.77-7.87 7.66-8-.16-16-.63-24-1zM68.15 89.85c-8.23.05-16.45.15-24.68.14-3.77 0-6.82-1.22-6.59-5.76.21-4.08 3-5 6.59-5.13 16-.71 32-1.6 48-2.32 5.34-.25 8.33 2.35 8.53 7 .22 4.89-2.84 7.69-8.49 7.67q-6 0-12-.24c-3.8-.14-7.59-.4-11.38-.61z"/>
    </g>
  </g>
</svg>
