<svg xmlns="http://www.w3.org/2000/svg" viewBox="0 0 158 195.9">
  <path d="M16 105.6l16.1-17.3 27.5 25 20.5-18.5v-86c-1.5.2-3.2.2-3.9.3-20.9 4-41.8 8.2-62.8 12-3.9.7-6.1 3.2-6.1 7 .1 29.7 0 59.4.2 89.1.1 3.8.8 7.5 2.1 11.1 3.3 9.5 9.2 17.5 16.1 24.7 11.6 12.1 25.5 21.9 40.5 29.2 3.6 1.8 9.4 3.2 13.6 4.9v-60l-18.6 19.8L16 105.6z" fill="#5308ab"/>
  <path d="M81.9.2c-1.1-.3-2.2-.3-3.3 0-17.3 3.3-38 6.5-55.3 9.8-7.9 1.5-15.6 3.1-23.3 4.7 0 36 .6 109.8.9 110.8 2.5 11.3 8.5 20.8 15.9 29.4 16.6 19.1 38.5 31.5 61.7 40.8.5.2 1.2.3 1.7.1 21.7-8.7 41.5-20.3 57.8-37.3 9.4-9.6 16.2-21.4 20-34.3V14.7c-14.3-2.8-28.5-5.7-42.8-8.4C104.4 4.1 92.7 2.2 81.9.2zM125 49l16.2 16.6c-13.5 13.4-27.8 27.5-41.9 41.6-6.9 6.9-13.7 13.9-20.5 20.8v58c-4.2-1.8-7.9-3.2-11.6-4.9-15-7.3-28.9-16.1-40.5-28.2-6.9-7.2-12.8-15.1-16.1-24.7-1.3-3.6-2-7.3-2.1-11.1-.2-29.7 0-59.4-.2-89.1 0-3.9 1.1-5.3 5.1-6 21-3.8 41.8-7.9 62.8-12 .7-.1 1.3-.1 2.8-.2v85c12.6-12.6 25.2-25.1 37.8-37.7 2.9-2.8 5.7-5.6 8.2-8.1z" fill="#1c08a0"/>
  <linearGradient id="a" gradientUnits="userSpaceOnUse" x1="16" y1="100.055" x2="141.23" y2="100.055" gradientTransform="matrix(1 0 0 -1 0 198)">
    <stop offset="0" stop-color="#bccbc6"/>
    <stop offset=".28" stop-color="#c5d2ce"/>
    <stop offset=".73" stop-color="#dfe4e3"/>
    <stop offset=".99" stop-color="#f0f0f1"/>
  </linearGradient>
  <path d="M79.1 94.8l-19.5 18.5-27.5-25L16 105.6l45.2 41.3 17.6-18.8c6.8-7 13.6-14 20.5-20.8 14.2-14.2 28.4-28.2 41.9-41.6L125 49c-2.5 2.6-5.3 5.4-8.1 8.2-12.6 12.5-25.2 25.1-37.8 37.6z" fill="url(#a)"/>
</svg>
