<?xml version="1.0" encoding="utf-8"?>
<!-- Generator: Adobe Illustrator 22.1.0, SVG Export Plug-In . SVG Version: 6.00 Build 0)  -->
<svg version="1.1" id="Layer_1" xmlns="http://www.w3.org/2000/svg" xmlns:xlink="http://www.w3.org/1999/xlink" x="0px" y="0px"
	 viewBox="0 0 101.8 131.9" style="enable-background:new 0 0 101.8 131.9;" xml:space="preserve">
<style type="text/css">
	.st0{opacity:0.7;fill:#FEFEFE;}
	.st1{fill:#5308AB;}
</style>
<g>
	<path class="st0" d="M88.5,26.8c0-0.1,0.8-5-0.3-6.7c-3.5-5.5-11-8-20.6-6.8C63.8,8,56.3,0,46.3,0c-9.8,0-18.6,8.1-22.6,13.3
		C10.3,13.8,0,16.2,0,24.9C0,29.8,6.7,34,12.2,37c-0.5,1.8-0.8,3.6-0.7,5.4c0,7,4.7,11.3,14.6,11.3c2.8,0,5.7-0.5,8.3-1.4
		c5.5,3.1,13.3,5,21.9,5c10.5,0,19.8-2.9,25.2-7.2h1.4c10.4,0,20.4-6.5,18.8-14.2C100.8,31.5,97.1,28.1,88.5,26.8z"/>
	<path class="st1" d="M70.5,86.9L53.8,69.3c-0.3-0.3-0.8-0.3-1.1,0c0,0,0,0,0,0l-16.8,18c-0.3,0.3-0.3,0.8,0,1.1
		c0.1,0.1,0.3,0.2,0.5,0.2l5.6,0.2c0.4,0,0.7,0.4,0.8,0.8l-0.5,41.4c0,0.4,0.4,0.8,0.8,0.8c0,0,0,0,0,0l19.8-0.2
		c0.4,0,0.8-0.4,0.8-0.8c0,0,0,0,0,0l0.5-41.4c0-0.4,0.3-0.8,0.7-0.8l5-0.4c0.4,0,0.8-0.4,0.8-0.8C70.7,87.2,70.7,87,70.5,86.9z"/>
</g>
</svg>
