<svg xmlns="http://www.w3.org/2000/svg" xmlns:xlink="http://www.w3.org/1999/xlink" viewBox="0 0 127 130.33">
  <defs>
    <style>
      .cls-8{font-size:17.29px;fill:#1c08a0;font-family:AvenirNext-Bold,Avenir Next;font-weight:700}.cls-11{fill:#bccbc6;stroke:#cedfd9;stroke-miterlimit:10;opacity:.6}
    </style>
    <linearGradient id="linear-gradient" x1="7.38" y1="109.24" x2="127" y2="109.24" gradientUnits="userSpaceOnUse">
      <stop offset="0" stop-color="#bccbc6"/>
      <stop offset=".51" stop-color="#b3c6c1"/>
      <stop offset=".99" stop-color="#a5bfb9"/>
    </linearGradient>
    <linearGradient id="linear-gradient-2" x1="4.35" y1="53.11" x2="77.79" y2="53.11" gradientUnits="userSpaceOnUse">
      <stop offset=".01" stop-color="#f0f0f1"/>
      <stop offset=".27" stop-color="#dfe4e3"/>
      <stop offset=".72" stop-color="#c5d2ce"/>
      <stop offset="1" stop-color="#bccbc6"/>
    </linearGradient>
    <linearGradient id="linear-gradient-3" x1="5.38" y1="55.83" x2="80.49" y2="51.9" gradientUnits="userSpaceOnUse">
      <stop offset=".01" stop-color="#a5bfb9"/>
      <stop offset=".49" stop-color="#b3c6c1"/>
      <stop offset="1" stop-color="#bccbc6"/>
    </linearGradient>
    <linearGradient id="linear-gradient-4" x1="62.63" y1="99.74" x2="99.25" y2="99.74" xlink:href="#linear-gradient"/>
    <linearGradient id="linear-gradient-5" x1="8.05" y1="93.96" x2="126.95" y2="93.96" xlink:href="#linear-gradient-2"/>
    <linearGradient id="linear-gradient-6" x1="16.32" y1="88.27" x2="101.54" y2="88.27" xlink:href="#linear-gradient"/>
  </defs>
  <g style="isolation:isolate">
    <g id="Layer_2" data-name="Layer 2">
      <g id="metodologia">
        <path d="M127 88.23c-.67-.32-1.2.37-1.7.65-1 .59-17.25 9.67-21.28 11.94q-12.19 6.84-24.44 13.62c-4 2.25-8.06 4.53-12.11 6.77l-6.12 3.37-2.78 1.52a3.62 3.62 0 0 1-3 .59 17.53 17.53 0 0 1-2.84-1.5l-3.34-1.85q-3.14-1.73-6.25-3.47c-4-2.26-8.08-4.49-12.12-6.74s-8.09-4.56-12.15-6.82l-6-3.29c-1-.53-5-3.44-5.12-3.11a11 11 0 0 0-.33 2.59c0 .77.56 1.12 1.22 1.66a4.81 4.81 0 0 0 .83.47c.45.26.82.55 1.31.79 1.95.94 3.84 2.09 5.75 3.15 4.2 2.31 8.37 4.68 12.56 7 8 4.45 15.85 8.92 23.84 13.39a12.85 12.85 0 0 0 2.49 1.24 4.26 4.26 0 0 0 3.07-.49c2.14-1 4.16-2.31 6.21-3.47q6.11-3.43 12.24-6.84 12.5-6.93 25-13.88c4-2.25 8-4.52 12-6.76 2.12-1.18 4.24-2.36 6.35-3.56 1.83-1 3.83-1.93 5.62-3.06 1.28-.83 1.09-3.88 1.09-3.91z" fill="url(#linear-gradient)"/>
        <path d="M7.71 100.21c0-5 .25-50.64 0-52.51a.91.91 0 0 1 0-.17 3 3 0 0 1 1.64-1.78c3-1.73 6.07-3.38 9.11-5.06C21 39.28 32.69 32.77 36 31c2.71-1.5 5.45-2.92 8.15-4.43C49 23.79 53.92 21 58.83 18.28c2.46-1.37 4.94-2.69 7.41-4.05l11-6.13.4-.31c.33-.18.11-.6-.13-.89l-.56-.68a.64.64 0 0 0-.79-.14L4.67 45.22a.6.6 0 0 0-.32.53v53a.59.59 0 0 0 .44.57s2.92.98 2.92.89z" fill="url(#linear-gradient-2)"/>
        <path d="M9.4 95.77a6.51 6.51 0 0 1-.34-1.47V49.1a2.17 2.17 0 0 1 .1-.42l1.16-.68c.18-.49 48.47-26.88 66.83-37.12l.21.11a.29.29 0 0 1 .11.14 3 3 0 0 1 .06.51v46.65c-.45.32-66.83 37.26-67.42 37.49z" fill="#fff"/>
        <path d="M77.82 7.52a6 6 0 0 1 .43 1.6c0 17.29.3 34.58.3 51.86-.11.11-.52.22-.64.33-1.91 1.09-3.82 2.18-5.74 3.25s-3.79 2-5.66 3.09C62.72 69.78 59 72 55.15 74.07c-3.32 1.86-6.67 3.65-10 5.5-4.09 2.27-8.15 4.59-12.24 6.87-2.55 1.42-5.13 2.79-7.68 4.22q-6.06 3.34-12.09 6.8c-1.38.78-2.72 1.63-4.08 2.45-.47.1-.74.19-1.35.32v-1.3c0-16.86-.33-33.73-.33-50.59-.23-1.32.7-2 1.65-2.56 3-1.74 6.07-3.39 9.11-5.07 2.56-1.41 5.14-2.8 7.69-4.22 3.27-1.83 6.52-3.7 9.8-5.52 2.7-1.5 5.45-2.92 8.15-4.42 4.91-2.74 9.81-5.55 14.72-8.25 2.46-1.37 4.94-2.69 7.4-4.05q5.5-3 11-6.13a8.9 8.9 0 0 1 .92-.6zm-2.6 51.72V15.06a2.63 2.63 0 0 0-.06-.48c0-.05-.06-.09-.1-.13l-.2-.1C57.49 24 11.78 49 11.61 49.47l-1.11.67a2.82 2.82 0 0 0-.09.4v42.78c0 .47.06 1.55.06 1.55s0 .3.61 0c.16-.08.4-.19.56-.28C16 92.28 74.81 59.53 75.22 59.24z" fill="url(#linear-gradient-3)"/>
        <path d="M62.63 102.71a6.32 6.32 0 0 1 1.12-1c1.88-1 3.79-2 5.68-3 2.76-1.49 5.5-3 8.25-4.5l7.18-3.93a2.35 2.35 0 0 1 2.35 0c1.4.73 2.82 1.41 4.2 2.15 2.14 1.15 4.27 2.34 6.4 3.53.44.25.84.58 1.44 1a8.25 8.25 0 0 1-1.25.92c-3.86 2.13-7.75 4.22-11.61 6.34-3.26 1.79-6.49 3.6-9.68 5.37a4.14 4.14 0 0 1-2.88-.69c-2.61-1.51-5.3-2.89-8-4.33-.97-.57-2.01-1.18-3.2-1.86z" fill="url(#linear-gradient-4)"/>
        <text class="cls-8" transform="rotate(-28.62 147.4080785 -34.2779207)">
          &lt;
        </text>
        <text class="cls-8" transform="rotate(-28.4 141.259804 -57.4558824)">
          /<tspan x="7.18" y="0">&gt;</tspan>
        </text>
        <path d="M126.94 88.22l-48-27.38a.65.65 0 0 0-.62 0l-70 38.86c-.1.06-.21.15-.21.22a2.51 2.51 0 0 0 .33.88.55.55 0 0 0 .17.2c.58.39 1.14.8 1.75 1.14 2.5 1.4 5 2.77 7.53 4.16l7.8 4.36 5.85 3.34 9.26 5.15 5.78 3.22 8 4.4a2.92 2.92 0 0 0 3 0l2.76-1.51c2.52-1.39 5-2.76 7.54-4.16s5.2-2.91 7.8-4.36l7.32-4.12 7.49-4.22c2.51-1.39 5-2.76 7.54-4.15 2.66-1.47 5.3-3 7.94-4.44l7.23-4 7.8-4.36 5.86-3.16zm-29.38 9.57l-21.35 11.68a.65.65 0 0 1-.62 0l-10.71-6a.59.59 0 0 1 0-1L84.69 91a.62.62 0 0 1 .59 0l12.24 5.77a.59.59 0 0 1 .04 1.02zm3.19-21.59a.58.58 0 0 1-.32.52l-65.67 35a.64.64 0 0 1-.6 0l-16.45-9.06a.59.59 0 0 1-.3-.42l-.22-1.24a.6.6 0 0 1 .3-.62l65.15-35.65a.62.62 0 0 1 .62 0l17.19 10a.58.58 0 0 1 .3.51z" fill="url(#linear-gradient-5)"/>
        <path d="M16.91 100.11c21.93-12.23 42.93-23.63 65-35.92.63.38 4.2 2.3 4.77 2.63 4.48 2.66 7.64 4.12 12.09 6.81.75.46 3.36 1.63 2.69 2.92-.52.37-51.46 27.74-54.08 29.19-2.87 1.6-5.73 3.09-8.6 4.69-1 .53-1.92 1-2.87 1.59a2.28 2.28 0 0 1-2.49-.07c-1.71-1-3.44-2-5.15-3l-5.66-3.32-4.32-2.52a6.6 6.6 0 0 1-1.67-1.27 1.15 1.15 0 0 1 .29-1.73z" fill="url(#linear-gradient-6)"/>
        <path class="cls-11" d="M34.42 108.12l61.62-33.79M28.65 105.39L89.97 71.6M23.2 102.36l61.31-33.79"/>
      </g>
    </g>
  </g>
</svg>
