<?xml version="1.0" encoding="utf-8"?>
<!-- Generator: Adobe Illustrator 22.1.0, SVG Export Plug-In . SVG Version: 6.00 Build 0)  -->
<svg version="1.1" id="Layer_1" xmlns="http://www.w3.org/2000/svg" xmlns:xlink="http://www.w3.org/1999/xlink" x="0px" y="0px"
	 viewBox="0 0 113.4 117.2" style="enable-background:new 0 0 113.4 117.2;" xml:space="preserve">
<style type="text/css">
	.st0{opacity:0.87;}
	.st1{fill:#FFFFFF;}
	.st2{clip-path:url(#SVGID_2_);}
	.st3{opacity:0.39;fill:#FFFFFF;enable-background:new    ;}
	.st4{fill:url(#SVGID_3_);}
	.st5{fill:url(#SVGID_4_);}
	.st6{fill:#5308AB;}
	.st7{fill:url(#SVGID_5_);}
	.st8{fill:url(#SVGID_6_);}
</style>
<g id="Layer_2_1_">
	<g id="metodologia">
		<g class="st0">
			<g>
				<path class="st1" d="M106.7,10.6l0.4,0.4c5.8,5.9,7.3,15.9,3,27.4c-7.1,18.9-27.2,34.7-45,35.4c-7,0.2-12.5-1.9-16.3-5.7
					l-0.4-0.4c3.8,3.8,9.3,6,16.3,5.7c17.7-0.6,37.8-16.4,44.9-35.4C114,26.5,112.5,16.5,106.7,10.6z"/>
				<g>
					<defs>
						<path id="SVGID_1_" d="M106.7,10.6l0.4,0.4c5.8,5.9,7.3,15.9,3,27.4c-7.1,18.9-27.2,34.7-45,35.4c-7,0.2-12.5-1.9-16.3-5.7
							l-0.4-0.4c3.8,3.8,9.3,6,16.3,5.7c17.7-0.6,37.8-16.4,44.9-35.4C114,26.5,112.5,16.5,106.7,10.6z"/>
					</defs>
					<clipPath id="SVGID_2_">
						<use xlink:href="#SVGID_1_"  style="overflow:visible;"/>
					</clipPath>
					<g class="st2">
						<path class="st1" d="M106.7,10.6l0.4,0.4l0.4,0.4l-0.4-0.4L106.7,10.6 M107.1,11l0.4,0.4c0.3,0.4,0.7,0.8,1,1.2l-0.4-0.4
							C107.8,11.8,107.5,11.4,107.1,11"/>
						<path class="st1" d="M108.1,12.2l0.4,0.4c0.3,0.4,0.6,0.8,0.9,1.3l-0.4-0.4C108.7,13,108.4,12.6,108.1,12.2"/>
						<path class="st1" d="M109,13.4l0.4,0.4c0.3,0.4,0.5,0.9,0.8,1.4l-0.4-0.4C109.5,14.3,109.3,13.9,109,13.4 M109.8,14.8l0.4,0.4
							c0.2,0.5,0.5,0.9,0.7,1.4l-0.4-0.4C110.2,15.7,110,15.2,109.8,14.8 M110.4,16.2l0.4,0.4c0.2,0.5,0.4,1,0.6,1.6l-0.4-0.4
							C110.8,17.3,110.6,16.7,110.4,16.2 M111,17.8l0.4,0.4c0.2,0.6,0.3,1.1,0.5,1.8l-0.4-0.4C111.3,18.9,111.2,18.4,111,17.8"/>
						<path class="st1" d="M111.5,19.5l0.4,0.4c0.2,0.6,0.3,1.3,0.4,2l-0.4-0.4C111.8,20.9,111.7,20.2,111.5,19.5"/>
						<path class="st1" d="M111.9,21.5l0.4,0.4c0.1,0.7,0.2,1.5,0.2,2.3l-0.4-0.4C112.1,23,112,22.2,111.9,21.5 M112.1,23.8l0.4,0.4
							V27l-0.4-0.4V23.8"/>
						<path class="st1" d="M112.1,26.5l0.4,0.4c-0.1,1.3-0.2,2.7-0.4,4l-0.4-0.4C111.9,29.2,112.1,27.9,112.1,26.5 M111.7,30.6
							l0.4,0.4c-0.4,2.5-1.1,5-2,7.4c-0.6,1.7-1.3,3.3-2.1,4.9l-0.4-0.4c0.8-1.6,1.5-3.2,2.1-4.8C110.6,35.6,111.3,33.1,111.7,30.6
							 M107.5,42.8l0.4,0.4c-0.7,1.4-1.5,2.8-2.3,4.2l-0.4-0.4C106,45.6,106.8,44.3,107.5,42.8 M105.2,47l0.4,0.4
							c-0.6,1-1.3,1.9-1.9,2.9l-0.4-0.4C103.9,48.9,104.6,48,105.2,47"/>
						<path class="st1" d="M103.3,49.9l0.4,0.4c-0.6,0.8-1.2,1.6-1.8,2.4l-0.4-0.4C102.1,51.5,102.7,50.7,103.3,49.9"/>
						<path class="st1" d="M101.5,52.2l0.4,0.4c-0.6,0.7-1.1,1.4-1.7,2.1l-0.4-0.4C100.3,53.7,100.9,53,101.5,52.2"/>
						<path class="st1" d="M99.8,54.3l0.4,0.4c-0.6,0.7-1.1,1.3-1.7,1.9L98,56.2C98.6,55.6,99.2,55,99.8,54.3"/>
						<path class="st1" d="M98,56.2l0.4,0.4c-0.6,0.6-1.1,1.2-1.7,1.7L96.3,58C96.9,57.4,97.5,56.9,98,56.2"/>
						<path class="st1" d="M96.3,58l0.4,0.4C96.2,59,95.6,59.5,95,60l-0.4-0.4C95.2,59.1,95.8,58.5,96.3,58"/>
						<path class="st1" d="M94.6,59.6L95,60c-0.6,0.5-1.2,1-1.8,1.5l-0.4-0.4C93.4,60.6,94,60.1,94.6,59.6"/>
						<path class="st1" d="M92.9,61.1l0.4,0.4c-0.6,0.5-1.2,1-1.8,1.5l-0.4-0.4C91.7,62.1,92.3,61.6,92.9,61.1"/>
						<path class="st1" d="M91.1,62.6l0.4,0.4c-0.6,0.5-1.2,1-1.9,1.4L89.2,64C89.8,63.5,90.4,63.1,91.1,62.6"/>
						<path class="st1" d="M89.2,64l0.4,0.4c-0.7,0.5-1.3,0.9-2,1.4l-0.4-0.4C87.9,64.9,88.5,64.5,89.2,64"/>
						<path class="st1" d="M87.2,65.4l0.4,0.4c-0.7,0.4-1.4,0.9-2.1,1.3l-0.4-0.4C85.9,66.3,86.6,65.8,87.2,65.4 M85.2,66.7l0.4,0.4
							c-0.7,0.4-1.5,0.9-2.2,1.3L82.9,68C83.7,67.6,84.4,67.2,85.2,66.7 M82.9,68l0.4,0.4c-0.8,0.4-1.6,0.8-2.4,1.2l-0.4-0.4
							C81.3,68.8,82.1,68.4,82.9,68"/>
						<path class="st1" d="M80.5,69.2l0.4,0.4c-0.9,0.4-1.9,0.9-2.8,1.2l-0.4-0.4C78.6,70.1,79.6,69.6,80.5,69.2"/>
						<path class="st1" d="M77.7,70.4l0.4,0.4c-1.2,0.5-2.4,0.9-3.6,1.3l-0.4-0.4C75.3,71.3,76.5,70.9,77.7,70.4"/>
						<path class="st1" d="M74.1,71.7l0.4,0.4c-3,0.9-6.2,1.5-9.3,1.6c-7,0.2-12.5-1.9-16.3-5.7l-0.4-0.4c3.8,3.8,9.3,6,16.3,5.7
							C67.9,73.2,71.1,72.6,74.1,71.7"/>
					</g>
				</g>
			</g>
			<path class="st3" d="M90.4,4.8C108.2,4.2,116.8,19,109.7,38S82.5,72.7,64.8,73.3S38.4,59.1,45.5,40.2S72.7,5.4,90.4,4.8z"/>
		</g>
		
			<linearGradient id="SVGID_3_" gradientUnits="userSpaceOnUse" x1="104.0038" y1="91.5093" x2="98.5038" y2="90.5093" gradientTransform="matrix(1 0 0 -1 0 120)">
			<stop  offset="0" style="stop-color:#BCCBC6"/>
			<stop  offset="0.26" style="stop-color:#B3C6C1"/>
			<stop  offset="0.51" style="stop-color:#A5BFB9"/>
			<stop  offset="0.73" style="stop-color:#96AEA8"/>
			<stop  offset="1" style="stop-color:#849994"/>
		</linearGradient>
		<path class="st4" d="M52.2,58.4c-0.1-0.2-0.2-0.4-0.2-0.7l-0.2-0.6c-0.1-0.2-0.2-0.5-0.2-0.8s-0.1-0.4-0.1-0.6s-0.1-0.6-0.2-0.9
			l-0.1-0.6c-0.1-0.4-0.1-0.9-0.1-1.3v-0.3c0-0.7,0-1.3,0-2V50l0.1-0.8l0.1-0.8c0-0.3,0.1-0.6,0.1-0.8l0.2-0.9
			c0-0.2,0.1-0.4,0.1-0.6s0.1-0.6,0.2-1l0.2-0.6c0.1-0.4,0.2-0.7,0.3-1.1c0.1-0.2,0.1-0.3,0.2-0.5c0.2-0.5,0.4-1.1,0.6-1.6
			s0.5-1.2,0.7-1.8c0.1-0.2,0.2-0.3,0.2-0.5c0.2-0.5,0.4-0.9,0.7-1.4c0.1-0.1,0.1-0.3,0.2-0.4c0.3-0.5,0.5-1,0.8-1.5l0.1-0.1
			c0.3-0.5,0.5-0.9,0.8-1.4l0.2-0.3c0.5-0.7,0.9-1.4,1.4-2.1l0.1-0.1c0.4-0.5,0.8-1.1,1.2-1.6l0.3-0.4c0.4-0.5,0.7-0.9,1.1-1.4
			L61,28c0.4-0.5,0.8-0.9,1.2-1.4c0.1-0.1,0.3-0.3,0.4-0.4c0.3-0.3,0.6-0.6,0.9-0.9L64,25l0.8-0.8l0.4-0.4c0.3-0.3,0.7-0.6,1-0.9
			l0.3-0.3c0.4-0.4,0.9-0.7,1.3-1.1l0.3-0.2c0.3-0.3,0.7-0.5,1.1-0.8l0.5-0.3c0.3-0.2,0.7-0.5,1-0.7l0.5-0.3
			c0.4-0.2,0.8-0.5,1.1-0.7l0.4-0.2c0.5-0.3,1.1-0.6,1.6-0.9l0.3-0.2c0.5-0.3,1-0.5,1.5-0.8l0.4-0.2c0.7-0.3,1.3-0.6,2-0.9l0.6-0.2
			l0.8-0.3l0.6-0.2l0.8-0.2l0.6-0.2c0.5-0.1,0.9-0.3,1.4-0.4l0.3-0.1c0.6-0.1,1.1-0.2,1.7-0.3l0.4-0.1c0.4-0.1,0.9-0.1,1.3-0.2
			l0.5-0.1c0.6-0.1,1.1-0.1,1.7-0.1c5.6-0.2,10.1,1.5,13.1,4.6l-6.2-6.3C93,8.1,88.6,6.3,83,6.5c-0.6,0-1.1,0.1-1.7,0.1l-0.5,0.1
			c-0.4,0-0.9,0.1-1.3,0.2L79.1,7c-0.6,0.1-1.1,0.2-1.7,0.3l-0.3,0.1c-0.5,0.1-0.9,0.2-1.4,0.4l-0.2,0.1L75.2,8l-0.8,0.2l-0.6,0.2
			L73,8.7l-0.4,0.2l-0.2,0.1c-0.7,0.3-1.3,0.6-2,0.9l-0.2,0.1L70,10c-0.5,0.2-1,0.5-1.5,0.8l-0.2,0.1l-0.1,0.1
			c-0.5,0.3-1.1,0.6-1.6,0.9l-0.1,0.1l-0.3,0.2c-0.4,0.2-0.8,0.5-1.2,0.7l-0.2,0.1l-0.3,0.2l-1,0.7L63.3,14l-0.2,0.1L62,15l-0.3,0.2
			c-0.5,0.4-0.9,0.7-1.3,1.1v0l-0.3,0.2l-1,0.9L59,17.5l-0.3,0.3c-0.3,0.3-0.6,0.5-0.8,0.8l-0.2,0.2l-0.2,0.2
			c-0.3,0.3-0.6,0.6-0.9,0.9l-0.3,0.3c0,0-0.1,0.1-0.1,0.1c-0.4,0.5-0.8,0.9-1.2,1.4l-0.1,0.1c-0.4,0.4-0.8,0.9-1.1,1.4l-0.2,0.2
			l-0.2,0.2c-0.4,0.5-0.8,1.1-1.2,1.6L52,25.4c-0.5,0.7-1,1.4-1.4,2.1l-0.1,0.2l-0.1,0.1c-0.3,0.5-0.6,0.9-0.8,1.4
			c0,0-0.1,0.1-0.1,0.1c-0.3,0.5-0.6,1-0.8,1.5L48.6,31c0,0.1-0.1,0.2-0.1,0.3c-0.2,0.5-0.4,0.9-0.7,1.4l-0.2,0.5
			c-0.2,0.6-0.5,1.2-0.7,1.8s-0.4,1.1-0.6,1.6c-0.1,0.2-0.1,0.4-0.2,0.5c-0.1,0.4-0.2,0.7-0.3,1.1c-0.1,0.2-0.1,0.4-0.2,0.6
			s-0.2,0.6-0.2,1l-0.1,0.6c0,0.2-0.1,0.3-0.1,0.5s0,0.2,0,0.3l-0.1,0.8c0,0.3-0.1,0.5-0.1,0.8s0,0.6-0.1,0.8s0,0.3,0,0.5
			c0,0.1,0,0.1,0,0.2v2.3c0,0.5,0.1,0.9,0.1,1.3v0.2c0,0.1,0,0.2,0.1,0.3c0,0.3,0.1,0.6,0.2,0.9l0.1,0.3c0,0.1,0,0.2,0.1,0.3
			s0.1,0.5,0.2,0.8s0.1,0.2,0.1,0.4c0,0.1,0,0.2,0.1,0.2l0.2,0.7l0.2,0.4l0.1,0.2c0.1,0.2,0.2,0.4,0.3,0.6s0.1,0.3,0.2,0.4l0.1,0.2
			c0.1,0.2,0.2,0.4,0.3,0.5s0.1,0.2,0.2,0.4l0.1,0.2l0.3,0.5l0.2,0.3l0.2,0.2c0.1,0.2,0.3,0.3,0.4,0.5s0.2,0.2,0.3,0.3
			s0.2,0.2,0.3,0.3l6.2,6.3c-0.2-0.2-0.4-0.4-0.6-0.6l-0.4-0.5L54,61.7c-0.1-0.2-0.2-0.3-0.3-0.5s-0.2-0.4-0.3-0.5L53,60.1l-0.3-0.6
			c-0.1-0.2-0.2-0.4-0.3-0.6C52.4,58.8,52.3,58.6,52.2,58.4z"/>
		
			<linearGradient id="SVGID_4_" gradientUnits="userSpaceOnUse" x1="102.5095" y1="127.0902" x2="73.5096" y2="60.0902" gradientTransform="matrix(1 0 0 -1 0 120)">
			<stop  offset="0" style="stop-color:#BCCBC6"/>
			<stop  offset="0.26" style="stop-color:#B3C6C1"/>
			<stop  offset="0.51" style="stop-color:#A5BFB9"/>
			<stop  offset="0.73" style="stop-color:#96AEA8"/>
			<stop  offset="1" style="stop-color:#849994"/>
		</linearGradient>
		<path class="st5" d="M113.4,27v-1.3v-0.5v-0.3c0-0.6-0.1-1.1-0.2-1.6V23c0-0.1-0.1-0.3-0.1-0.4c-0.1-0.4-0.1-0.8-0.2-1.1
			c0-0.1,0-0.3-0.1-0.4s-0.1-0.2-0.1-0.3c-0.1-0.3-0.2-0.6-0.3-1l-0.1-0.5c0-0.1-0.1-0.2-0.1-0.3c-0.1-0.3-0.2-0.5-0.3-0.8l-0.2-0.5
			l-0.1-0.2c-0.1-0.2-0.2-0.5-0.3-0.7s-0.2-0.3-0.2-0.5L111,16l-0.4-0.7l-0.3-0.5l-0.2-0.2c-0.1-0.2-0.3-0.4-0.4-0.6l-0.3-0.4
			c-0.1-0.1-0.1-0.1-0.2-0.2s-0.3-0.4-0.5-0.6s-0.2-0.3-0.3-0.4l-0.4-0.4l-6.2-6.3c0.2,0.2,0.5,0.5,0.7,0.8s0.3,0.4,0.5,0.6l0.5,0.6
			c0.2,0.2,0.3,0.4,0.4,0.6l0.4,0.7c0.1,0.2,0.3,0.4,0.4,0.7s0.2,0.5,0.4,0.7s0.2,0.5,0.3,0.7s0.2,0.5,0.3,0.7s0.2,0.5,0.3,0.8
			s0.2,0.5,0.2,0.7l0.3,1c0.1,0.2,0.1,0.5,0.2,0.7s0.2,0.8,0.2,1.1s0.1,0.5,0.1,0.7c0.1,0.5,0.1,1.1,0.2,1.6v3.7c0,0.3,0,0.7-0.1,1
			s-0.1,0.6-0.1,1s-0.1,0.7-0.2,1s-0.1,0.7-0.2,1.1s-0.1,0.5-0.2,0.8s-0.2,0.8-0.3,1.2c-0.1,0.2-0.1,0.5-0.2,0.8
			c-0.1,0.4-0.2,0.9-0.4,1.3c-0.1,0.2-0.1,0.4-0.2,0.7c-0.2,0.7-0.4,1.3-0.7,2s-0.6,1.5-0.9,2.2l-0.3,0.6c-0.3,0.6-0.5,1.1-0.8,1.7
			c-0.1,0.2-0.2,0.3-0.2,0.5c-0.3,0.6-0.7,1.3-1,1.9c0,0,0,0.1-0.1,0.1c-0.3,0.6-0.7,1.2-1,1.7c-0.1,0.1-0.2,0.3-0.3,0.4
			c-0.6,0.9-1.2,1.8-1.8,2.6c0,0-0.1,0.1-0.1,0.1c-0.5,0.7-1,1.4-1.5,2l-0.4,0.5c-0.5,0.6-0.9,1.2-1.4,1.7L95,49.5
			c-0.5,0.6-1,1.2-1.5,1.7L93,51.7c-0.4,0.4-0.7,0.7-1.1,1.1l-0.6,0.6l-1,1l-0.6,0.5L88.5,56l-0.4,0.3c-0.6,0.5-1.1,0.9-1.7,1.3
			L86,58l-1.3,1l-0.6,0.4c-0.4,0.3-0.8,0.6-1.2,0.8l-0.6,0.4c-0.5,0.3-0.9,0.6-1.4,0.9l-0.5,0.3c-0.7,0.4-1.3,0.8-2,1.1l-0.4,0.2
			c-0.6,0.3-1.2,0.6-1.8,0.9l-0.5,0.2c-0.8,0.4-1.6,0.7-2.4,1.1l-0.7,0.3l-1,0.3l-0.8,0.3l-1,0.3L69,66.9c-0.6,0.2-1.1,0.3-1.7,0.5
			l-0.4,0.1c-0.7,0.2-1.4,0.3-2.1,0.4L64.3,68c-0.5,0.1-1.1,0.2-1.6,0.2L62,68.3c-0.7,0.1-1.4,0.1-2.1,0.2c-7,0.2-12.5-1.9-16.3-5.7
			l6.2,6.3c3.8,3.8,9.3,6,16.3,5.7c0.7,0,1.4-0.1,2.1-0.2l0.6-0.1c0.5-0.1,1.1-0.1,1.6-0.2l0.5-0.1c0.7-0.1,1.4-0.3,2.1-0.4l0.4-0.1
			c0.6-0.1,1.2-0.3,1.7-0.5l0.3-0.1l0.4-0.1l1-0.3l0.8-0.3l1-0.4l0.5-0.2l0.2-0.1c0.8-0.3,1.6-0.7,2.4-1.1l0.2-0.1l0.3-0.2
			c0.6-0.3,1.2-0.6,1.8-0.9l0.3-0.2l0.1-0.1c0.7-0.4,1.3-0.7,2-1.1l0.1-0.1l0.4-0.2c0.5-0.3,1-0.6,1.4-0.9l0.3-0.2l0.3-0.2l1.2-0.8
			l0.4-0.3l0.2-0.2l1.3-1l0.3-0.2l-0.2,0c0.6-0.4,1.1-0.9,1.7-1.3l0.1-0.1l0.3-0.3c0.4-0.3,0.8-0.7,1.2-1.1l0.2-0.2l0.4-0.3l1.1-1
			l0.3-0.3c0.1-0.1,0.2-0.2,0.3-0.3c0.4-0.4,0.7-0.7,1.1-1.1l0.3-0.4l0.1-0.2c0.5-0.6,1-1.1,1.6-1.7l0.1-0.1
			c0.5-0.6,0.9-1.1,1.4-1.7l0.2-0.2l0.2-0.3c0.5-0.7,1-1.3,1.5-2c0,0,0-0.1,0.1-0.1c0.6-0.9,1.2-1.7,1.8-2.6l0.2-0.2l0.1-0.2
			c0.3-0.6,0.7-1.2,1-1.7l0.1-0.2c0.3-0.6,0.7-1.3,1-1.9l0.1-0.2c0-0.1,0.1-0.2,0.2-0.3c0.3-0.6,0.5-1.1,0.8-1.7l0.3-0.6
			c0.3-0.7,0.6-1.5,0.9-2.2s0.5-1.3,0.7-2c0.1-0.2,0.1-0.4,0.2-0.7c0.1-0.5,0.3-0.9,0.4-1.3c0.1-0.3,0.1-0.5,0.2-0.8
			s0.2-0.8,0.3-1.2l0.2-0.8c0-0.2,0.1-0.4,0.1-0.6s0-0.3,0.1-0.5c0.1-0.4,0.1-0.7,0.2-1s0.1-0.6,0.1-1s0-0.7,0.1-1
			c0-0.2,0-0.4,0.1-0.6v-0.5C113.4,27.4,113.4,27.2,113.4,27z"/>
		<path class="st6" d="M49.1,80.2c1.7-1.9,0.5-5.7-2.6-8.5c-2.7-2.4-5.9-3.2-7.9-2.3c0,0-37.8,36.6-37.9,36.7
			c-1.7,1.9-0.5,5.7,2.6,8.5c2.8,2.4,6.1,3.3,8,2.2L49.1,80.2L49.1,80.2z"/>
		
			<linearGradient id="SVGID_5_" gradientUnits="userSpaceOnUse" x1="42.5125" y1="44.1675" x2="51.6225" y2="53.2775" gradientTransform="matrix(1 0 0 -1 0 120)">
			<stop  offset="0" style="stop-color:#BCCBC6"/>
			<stop  offset="0.26" style="stop-color:#B3C6C1"/>
			<stop  offset="0.51" style="stop-color:#A5BFB9"/>
			<stop  offset="1" style="stop-color:#849994"/>
		</linearGradient>
		<path class="st7" d="M53.5,71.8c0.4-0.9-0.5-2.9-2.2-4.6s-3.5-2.6-4.5-2.3l-5.6,5.4c-0.3,1,0.5,2.9,2.2,4.6s3.7,2.8,4.7,2.4
			L53.5,71.8z"/>
		
			<linearGradient id="SVGID_6_" gradientUnits="userSpaceOnUse" x1="95.0435" y1="196.2993" x2="74.0435" y2="92.2993" gradientTransform="matrix(1 0 0 -1 0 120)">
			<stop  offset="1.000000e-02" style="stop-color:#F0F0F1"/>
			<stop  offset="0.27" style="stop-color:#DFE4E3"/>
			<stop  offset="0.72" style="stop-color:#C5D2CE"/>
			<stop  offset="1" style="stop-color:#BCCBC6"/>
		</linearGradient>
		<path class="st8" d="M85.6,0C67.8,0.6,47.7,16.5,40.6,35.4s1.5,33.7,19.2,33.1S97.7,52,104.8,33.1S103.3-0.6,85.6,0z M98.4,33.2
			c-5.7,15.2-21.9,28-36.2,28.5S41.1,50.2,46.8,35S68.7,7,83,6.5S104.2,18,98.4,33.2z"/>
	</g>
</g>
</svg>
