<?xml version="1.0" encoding="utf-8"?>
<!-- Generator: Adobe Illustrator 22.1.0, SVG Export Plug-In . SVG Version: 6.00 Build 0)  -->
<svg version="1.1" id="Layer_1" xmlns="http://www.w3.org/2000/svg" xmlns:xlink="http://www.w3.org/1999/xlink" x="0px" y="0px"
	 viewBox="0 0 96 116" style="enable-background:new 0 0 96 116;" xml:space="preserve">
<style type="text/css">
	.st0{fill:#FFD9CE;}
	.st1{opacity:0.63;}
	.st2{fill:#E5C4BD;}
</style>
<path class="st0" d="M12.6,54.5c11.4-14.2,25.2-24,17.7-40.2c-1.8-4,3.5-7.7,7.6-6.1c24.8,10,5.6,33.1,9.5,35.5
	C47,49.5,79.1,44.4,80,49c4,21,17.6,51.8-32.8,55.4C26.7,105.8,13,102,9.9,87.3C7.6,76.1,5.4,63.4,12.6,54.5z"/>
<g class="st1">
	<path class="st2" d="M81.3,90.6c1.5,1.3,1.8,7.2,0.8,8.8c-1.1,1.9-5.2,1.8-7.4,2c-7.2,0.7-18.1,3-22.6-5c-0.6-1-1.1-2.1-1.4-3.2
		c1.3-1.3,2.7-2.3,4.3-3.1C59.3,89.1,79.7,89.2,81.3,90.6z"/>
</g>
<path class="st0" d="M81.6,90.5c1.4,1.1,1.7,6.1,0.6,7.5c-1.1,1.6-5.2,1.6-7.3,1.8c-7,0.7-17.8,2.8-22.2-3.9c-0.5-0.9-1-1.8-1.4-2.7
	c1.3-1.1,2.7-2,4.2-2.7C60,89.5,80.1,89.3,81.6,90.5z"/>
<g class="st1">
	<path class="st2" d="M83.9,78.2c1.8,1.3,1.5,8.5,0.3,10.3c-1.4,2.1-6.2,1.6-8.6,1.7c-8.3,0.3-20.6,2.4-25.8-7.6
		c-0.6-1.2-0.7-4.5-1.1-5.9c0.8-0.7,1.7-1.2,2.7-1.5c1-0.3,2.1-0.2,3.2,0.2C64.2,79.8,83,77.6,83.9,78.2z"/>
</g>
<path class="st0" d="M84.1,77.1c1.8,1.2,1.5,8.1,0.2,9.8c-1.4,2-6.1,1.6-8.5,1.7c-8.2,0.3-20.3,2.3-25.3-7.1c-0.6-1.2-0.7-4.3-1-5.6
	c0.8-0.7,1.7-1.2,2.7-1.4c1-0.3,2.1-0.2,3.1,0.2C64.7,78.6,83.2,76.5,84.1,77.1z"/>
<g class="st1">
	<path class="st2" d="M83.5,64.6C85.5,66.1,86,73,84.8,75c-1.4,2.2-6.7,2.3-9.4,2.6c-9.2,1.1-23.2,4.3-29.2-5.1
		c-0.8-1.2-1.7-4.5-2.2-5.8c1.4-1.4,2.6-1.4,5-1.7c0.5,0,0.9-0.1,1.4,0C59,65.8,81.6,63.1,83.5,64.6z"/>
</g>
<path class="st0" d="M83.6,63.3c1.9,1.5,2.4,8.3,1.2,10.2c-1.4,2.2-6.6,2.3-9.3,2.6c-9,1.1-22.9,4.2-28.8-5
	c-0.7-1.2-1.7-4.4-2.2-5.7c1.4-1.4,2.6-1.4,4.9-1.7c0.4,0,0.9,0,1.4,0C59.4,64.4,81.7,61.7,83.6,63.3z"/>
<g class="st1">
	<path class="st2" d="M77.2,46.5c2.5,1.7,6.3,10.7,5.3,13.4c-1.1,3.1-5,3.7-8,4.5c-10,2.7-23.3,3.7-34.8-3.7c-1.8-1.2,2.9-6,6.8-7.1
		c1.9-0.5,3.9-0.8,5.9-0.8C61.3,52.7,74.8,44.9,77.2,46.5z"/>
</g>
<path class="st0" d="M79,46.7c2.3,1.4,5.7,8.8,4.6,11.2c-1.2,2.7-5,3.4-8,4.2c-9.9,2.7-22.8,4.1-33.6-1.7c-1.7-0.9,3-5.2,6.9-6.3
	c1.9-0.5,3.8-0.9,5.7-0.9C63.3,52.7,76.7,45.4,79,46.7z"/>
</svg>
