<svg xmlns="http://www.w3.org/2000/svg" xmlns:xlink="http://www.w3.org/1999/xlink" viewBox="0 0 391.45 647.11">
  <defs>
    <style>
      .cls-3{opacity:.2}.cls-11,.cls-3,.cls-5{mix-blend-mode:multiply}.cls-5{opacity:.35}.cls-6{fill:#2f243a}.cls-10{fill:#171718}.cls-11{opacity:.25}.cls-12{fill:#f5dbad}.cls-13{fill:#1b7f89}.cls-18{fill:none;stroke:#ede580;stroke-miterlimit:10;stroke-width:3px}.cls-23{fill:#effffa}.cls-27{fill:#e9ead6}.cls-31{fill:#1c08a0}.cls-32{fill:#fefefe}.cls-35{fill:#e9f27e}.cls-39{fill:#5308ab}.cls-41{fill:#1c0cd0}.cls-44{fill:#fff}
      .path1{stroke-dasharray: 92;stroke-dashoffset: 92;animation: dash 2s linear forwards; -webkit-animation: dash 2s linear forwards; animation-delay: 0s}@keyframes dash{to{stroke-dashoffset: 0;}}@-webkit-keyframes dash{to{stroke-dashoffset: 0;}}
      
      .path2{stroke-dasharray: 92;stroke-dashoffset: 92;animation: dash 2s linear forwards; -webkit-animation: dash 2s linear forwards; animation-delay: 2s}@keyframes dash{to{stroke-dashoffset: 0;}}@-webkit-keyframes dash{to{stroke-dashoffset: 0;}}

      .path3{stroke-dasharray: 92;stroke-dashoffset: 92;animation: dash 2s linear forwards infinite; -webkit-animation: dash 2s linear forwards infinite; animation-delay: 4s}@keyframes dash{to{stroke-dashoffset: 0;}}@-webkit-keyframes dash{to{stroke-dashoffset: 0;}}
      
      .smoke{animation: pulse 1.5s infinite; animation-direction: alternate;}@keyframes pulse{to {opacity:.1;}}
    </style>
    <linearGradient id="linear-gradient" x1="178.46" y1="704.63" x2="90.88" y2="420.74" gradientUnits="userSpaceOnUse">
      <stop offset="0" stop-color="#bccbc6"/>
      <stop offset=".26" stop-color="#b3c6c1"/>
      <stop offset=".51" stop-color="#a5bfb9"/>
      <stop offset=".67" stop-color="#9fb8b2"/>
      <stop offset=".9" stop-color="#8da49f"/>
      <stop offset="1" stop-color="#849994"/>
    </linearGradient>
    <linearGradient id="linear-gradient-2" x1="258.9" y1="176.5" x2="164.16" y2="408.92" gradientUnits="userSpaceOnUse">
      <stop offset=".01" stop-color="#f0f0f1"/>
      <stop offset=".62" stop-color="#cdd7d4"/>
      <stop offset="1" stop-color="#bccbc6"/>
    </linearGradient>
    <linearGradient id="linear-gradient-3" x1="225.91" y1="366.89" x2="245.16" y2="366.89" gradientUnits="userSpaceOnUse">
      <stop offset="0" stop-color="#bccbc6"/>
      <stop offset=".51" stop-color="#b3c6c1"/>
      <stop offset="1" stop-color="#a5bfb9"/>
    </linearGradient>
    <linearGradient id="linear-gradient-4" x1="160.26" y1="302.32" x2="318.57" y2="302.32" gradientUnits="userSpaceOnUse">
      <stop offset=".01" stop-color="#f0f0f1"/>
      <stop offset=".27" stop-color="#dfe4e3"/>
      <stop offset=".72" stop-color="#c5d2ce"/>
      <stop offset="1" stop-color="#bccbc6"/>
    </linearGradient>
    <linearGradient id="linear-gradient-5" y1="499.38" x2="336.44" y2="499.38" gradientUnits="userSpaceOnUse">
      <stop offset="0" stop-color="#849994"/>
      <stop offset=".19" stop-color="#bccbc6"/>
      <stop offset=".57" stop-color="#b3c6c1"/>
      <stop offset=".94" stop-color="#a5bfb9"/>
    </linearGradient>
    <linearGradient id="linear-gradient-6" x1="128.9" y1="549.6" x2="154.28" y2="549.6" xlink:href="#linear-gradient-4"/>
    <linearGradient id="linear-gradient-7" x1="184.11" y1="473.33" x2="65.89" y2="286.15" gradientUnits="userSpaceOnUse">
      <stop offset="0" stop-color="#849994"/>
      <stop offset=".49" stop-color="#a5bfb9"/>
      <stop offset=".74" stop-color="#b3c6c1"/>
      <stop offset="1" stop-color="#bccbc6"/>
    </linearGradient>
    <linearGradient id="linear-gradient-8" x1="139.23" y1="514.27" x2="147.32" y2="444.18" gradientUnits="userSpaceOnUse">
      <stop offset=".01" stop-color="#5e6663"/>
      <stop offset=".26" stop-color="#6a7673"/>
      <stop offset=".72" stop-color="#7d908b"/>
      <stop offset="1" stop-color="#849994"/>
    </linearGradient>
    <linearGradient id="linear-gradient-9" x1="132.62" y1="578.18" x2="143.22" y2="486.33" gradientUnits="userSpaceOnUse">
      <stop offset="0" stop-color="#bccbc6"/>
      <stop offset=".26" stop-color="#b3c6c1"/>
      <stop offset=".51" stop-color="#a5bfb9"/>
      <stop offset=".67" stop-color="#a2bbb5"/>
      <stop offset=".83" stop-color="#98b0aa"/>
      <stop offset=".97" stop-color="#889d98"/>
      <stop offset="1" stop-color="#849994"/>
    </linearGradient>
    <linearGradient id="linear-gradient-10" x1="263.68" y1="346.15" x2="279.97" y2="346.15" gradientUnits="userSpaceOnUse">
      <stop offset="0" stop-color="#fff"/>
      <stop offset="1" stop-color="#2a2627"/>
      <stop offset="1"/>
    </linearGradient>
    <linearGradient id="linear-gradient-11" x1="259.44" y1="181.21" x2="302.44" y2="181.21" gradientUnits="userSpaceOnUse">
      <stop offset="0" stop-color="#93c"/>
      <stop offset=".36" stop-color="#5308ab"/>
      <stop offset=".97" stop-color="#1c08a0"/>
      <stop offset=".99" stop-color="#1c08a0"/>
      <stop offset=".99" stop-color="#1c08a0"/>
    </linearGradient>
    <linearGradient id="linear-gradient-12" x1="210.44" y1="114.23" x2="252.07" y2="114.23" xlink:href="#linear-gradient-11"/>
    <linearGradient id="linear-gradient-13" x1="129.44" y1="65.89" x2="167.88" y2="65.89" xlink:href="#linear-gradient-11"/>
    <linearGradient id="linear-gradient-14" x1="289.44" y1="105.08" x2="349.44" y2="105.08" gradientUnits="userSpaceOnUse">
      <stop offset="0" stop-color="#93c"/>
      <stop offset=".03" stop-color="#922fc9"/>
      <stop offset=".2" stop-color="#771ebc"/>
      <stop offset=".36" stop-color="#6312b2"/>
      <stop offset=".52" stop-color="#570aad"/>
      <stop offset=".69" stop-color="#5308ab"/>
      <stop offset=".8" stop-color="#1c08a0"/>
      <stop offset=".93" stop-color="#1c08a0"/>
    </linearGradient>
  </defs>
  <g style="isolation:isolate">
    <g id="Layer_2" data-name="Layer 2">
      <path d="M115.7 284.62c-69.39-19.52-77-121.93-68-171.63C60.44 43.11 146.27-32.36 306 14.57 407.88 44.5 409.44 169.11 358.83 216.9c-40.73 38.45-152.59 18.24-205.49 14.1-21.09-1.65-45.72 18.84-44.19 39.94.25 3.54 6.46 13.06 6.55 13.68z" fill="#f6f9f8" id="Layer_14" data-name="Layer 14"/>
      <g id="aplicaciones">
        <ellipse cx="141.95" cy="586.26" rx="61.1" ry="42.85" fill="url(#linear-gradient)"/>
        <path class="cls-6" d="M176.91 581l3-18.73c-20.25 3.59-10 .41-25.29 12.87-4.55 3.72 2.62 2.91-2.63 5.51-11.47 14.35 35.01 18.58 24.92.35zM122.48 583.93c1-6.24-1-12.49 0-18.73-20.25 3.59-18.91.41-34.19 12.87-4.55 3.72-8.8 4.74-14.06 7.34-11.43 14.34 58.36 16.77 48.25-1.48z"/>
        <path fill="url(#linear-gradient-2)" d="M336.3 378.05l-316.93-.42L.55 418.89l312.73 1.15 23.02-41.99z"/>
        <path d="M225.91 348.78h19.25v30.69a5.52 5.52 0 0 1-5.52 5.52h-8.21a5.52 5.52 0 0 1-5.52-5.52v-30.69z" fill="url(#linear-gradient-3)"/>
        <path d="M312.4 361.49l-144.29-15.4c-2.9-.31-5.16-3.18-5.26-6.68l-2.59-89.25c-.12-4.1 2.76-7.38 6.17-7l144.28 15.4c2.9.31 5.17 3.18 5.27 6.68l2.59 89.25c.12 4.09-2.76 7.37-6.17 7z" fill="url(#linear-gradient-4)"/>
        <path class="cls-10" d="M308.29 352.28l-135.04-13.73-2.47-84.64 135.04 13.73 2.47 84.64z"/>
        <path class="cls-12" d="M240 417.69c-11.71.12-38.24.23-49.95.35l-3.12-17.88h25.05l.34-1.44-5.68-4.06 14.08-21.47 3.28 3.91 4.63 5.85 9.6 12.49c.8 1.19 1.55 2.42 2.41 3.57 5.43 9.81 6.42 12.59-.64 18.68zM109.49 399.73q-2 9-4 18.1c-10.45-.11-35.72-.57-46.16-.33-7.43.17-8.67-.34-9.46-4.19-.93-4.49-2.41-3 2.77-14.58.45-1 1.19-1.89 1.75-2.85a11.37 11.37 0 0 1 .68-1l9.41-12.2 7.81-9.81h.17l14.27 21.64-5.73 3.93.4 1.29z"/>
        <path class="cls-13" d="M87.13 431.4v1H86a5.27 5.27 0 0 1-.39-.79z"/>
        <path class="cls-12" d="M179.27 291.05c0-3.49-.67-11.25-1.88-14.31-1.93-4.86-.8-7.55-5-10.55-4.42-3.14-15.76-6.46-21.61-6.46-14.92 0-25.54 16.47-25.54 31.32 0 5.86 5.9 10.95 9.32 15.3 2.3 2.93 1.87 5.52 3.88 7.77-.42 4.34-1.66 17.64-1.61 19.45 9 3.2 27.56 3.12 36.54.59 1.58-.56 4.55-.56-.46-1.76-4.83-1.16-3.53-13.75-3.85-16 3.19-1.64 4.53-2.41 6.83-5.11.47-.56.92-4.09 1.35-4.68 1.18-1.65.7-4.92 1.49-6.81.4-1 .74-.46 1-1.46.67-2.34-.46-4.75-.46-7.29z"/>
        <path d="M86 432.36h1.17c0 .33-.11.66-.16 1z" fill="#1b737c"/>
        <path d="M131.12 326.5l-.18-1.06z" fill="#accbcd"/>
        <path class="cls-10" d="M152.61 253.1c3.54 1.35 7 0 9.19.24 5.72.61 6.22 4.29 9.33 9.34.47 2 8.25 9 7.4 10.32.74 2.95-8 1.6-6.67 5.9-.11 2-.62 3.91-.74 5.89.85 3.09-.63 1.61.85 4.56 0 1.48-3 4.43-3 0 0 2.61-.3-8.62-2.81-8.18-4.61.81 1.32-.17-.16 2.28s-1.1 1.76-1.73 7.57c-.37 3.44 2.36 8.52 2.25 11.79a79.75 79.75 0 0 0 .13 10c-6.06 4.69-14 3.12-20.68 4.26-1.92.33-6-1.35-8.13-2.62-.52-.47-5.76-9.43-9.54-13-1.54-1.43-.83 1.19-1.59.83-.2-4-3.54-9-3.75-13.06-.34-1.66 1.08-2.76.74-4.42-.44-1.93-1-3.47-1.43-5.4-.16-1.69 1.15-3.38 1-5.07.31-3.46 3.59-4 3.9-7.43.72-1.92 4.41-5.3 5.13-7.22 2-1.35 1.49-2.72 4.54-2.74 5.46 0 10.06-3 9.91-2.54-.06.21 3.25-.15 5.86-1.3z"/>
        <path d="M168.32 292.14c-1.64 0-1.22 5.28-5.27 2.55-.08-4.94-2.29-9.17-.07-11.38 1.48-1.47 1.48-1.47 3.94-1.78.65-.08 1.28 0 1.29.67.07 3.94.14 7.98.11 9.94z" fill="#decbb7"/>
        <g id="code_lines">
          <path class="cls-18 path1" d="M189.87 278.5l91.39 8.7"/>
          <path class="cls-18 path2" d="M190.38 295.98l91.39 8.7"/>
          <path class="cls-18 path3" d="M189.57 312.63l91.39 8.7"/>

        </g>
        <path d="M336.3 378.05L314 417.72c-.17 0-313.54.44-313.54.44s-.14 12.67-.18 18.76c0 6.26-.15 12.52-.23 18.78v1l.41.21v163.8h11.72s1.35-189.21 2-189.22h6v155.43H32V431.49l278-.07v189.29h11.77v-200l3.59-8.66v174.87h11.11z" fill="url(#linear-gradient-5)"/>
        <path d="M140.66 477.3l54.17 3.82c0 9.86-12.89 20.34-14.35 30.94-.35 2.56.9 41.3-.12 59.41-1 17.29-13.63 19.2-38.42 11.45l-5.94-65.3h-1.93a53.22 53.22 0 0 1-27.3-8.13L99.6 505l25.73 66.57a9.59 9.59 0 0 1-7.81 11.79l-17.4 2.79a14.25 14.25 0 0 1-15.68-9.2c-9-24.91-34.89-105.57-29.25-117.21 10.35-21.37 68.25 12.43 85.47 17.56z" fill="#4534b1"/>
        <path d="M154.28 520.83l-2.53 45.47S150 585 149.6 585.53s-5.14 1.61-7.82 1.61c0 0-8.95-1.48-11.51-2.75-1.62-.8-1.28-.26-1.28-2.54l-.09-61a8.79 8.79 0 0 1 8.81-8.77h7.76a8.79 8.79 0 0 1 8.81 8.75z" fill="url(#linear-gradient-6)"/>
        <path class="cls-23" d="M219.57 364.68c-3.67-5-19-23.77-19-23.77s-3.38-2.89-15.13-6c-7-1.88-14.44-4.73-18.47-3.55-12.76 3.73-15.78 4.43-32.26-1.45-12.76 1.83-21.34 2.38-31.46 10.9-10.74 9-26.31 24.75-36.28 34.63 1.33 6.24 20.14 18.77 25.66 21.43 6-5.32 8.44-6.92 12.68-13v34.93c0 1.52-.06 3-.16 4.55l-4.29 62.16 94.82-1.51 3-25.68a235.44 235.44 0 0 0 .64-49.08l-3-25.79c3.8 4.68 6.76 12.05 12 15.59 2.93-4.47 23-19.76 20.06-22.93s-4.54-5.64-8.81-11.43z"/>
        <path d="M191.39 372.75c-26.83 9.52-77.22.67-87.07-1.23-5.14-1-13.2-2.92-14.17 2.19-4.14 21.83.17 45.19 1.79 57.23.44 3.3 3 14.14 6.38 31.08.22 1.1 4.53 12.5 4.14 13.48 34.69 6.77 65.43 12.1 101.23 5.58-.48-2.31 2.43-15 2.93-17.42 2.18-10.27 3.19-19.23 3.49-21.19 3-19.49 3.06-54.88-7-70.52-2.57-3.95-7.26-.78-11.72.8z" opacity=".68" fill="url(#linear-gradient-7)"/>
        <path d="M213.13 476.75c.71-2.67 2.34-11.41 2.93-14.2a122 122 0 0 0 2.6-18.89c3.46-22.8 4.14-61.51-7.65-79.81-3-4.64-7.92-5.17-14.26-3.47-32.19 8.62-87 4.19-101.86-1.45-5.72-2.17-12.74 1.19-13.36 7.25-5.9 57.39 3.47 77.39 7.47 97.21.26 1.28.9 5 1.49 7.37 1.48 5.9 3.21 8.13 1.48 8.85-8.12 3.4-17.85 3.73-18.19 9.37v1h143.05a34.47 34.47 0 0 0-1.88-4.43c-1.57-3.16-2.95-4.46-1.82-8.8zm-3-34.28c-.3 2-1.31 10.92-3.49 21.19-.5 2.38-3.41 15.11-2.93 17.42-35.8 6.52-66.54 1.19-101.23-5.58.39-1-3.92-12.38-4.14-13.48-3.39-16.94-5.94-27.78-6.38-31.08-1.62-12-5.93-35.4-1.79-57.23 1-5.11 9-3.19 14.17-2.19 9.85 1.9 60.24 10.75 87.07 1.23 4.46-1.58 9.15-4.77 11.7-.8 10.06 15.64 9.96 51.05 7 70.52z" opacity=".7" fill="url(#linear-gradient-8)"/>
        <path d="M216.06 462.55a122 122 0 0 0 2.6-18.89c3.46-22.8 4.14-61.51-7.65-79.81-3-4.64-7.92-5.17-14.26-3.47-32.19 8.62-87 4.19-101.86-1.45-5.72-2.17-12.74 1.19-13.36 7.25-5.9 57.39 3.47 77.39 7.47 97.21.26 1.28.9 5 1.49 7.37 1.48 5.9 3.21 8.13 1.48 8.85-8.12 3.4-17.85 3.73-18.19 9.37v1c.09 15.84 25.21 36.12 78.46 34.93 44.95-1 63.78-7.92 64.72-23.89.21-3.41 1.69-5.63-.1-11a34.47 34.47 0 0 0-1.88-4.43c-1.57-3.12-3-4.42-1.82-8.76.68-2.75 2.31-11.49 2.9-14.28zM91.94 430.94c-1.62-12-5.93-35.4-1.79-57.23 1-5.11 9-3.19 14.17-2.19 9.85 1.9 60.24 10.75 87.07 1.23 4.46-1.58 9.15-4.77 11.7-.8 10.08 15.64 10 51 7 70.52-.3 2-1.31 10.92-3.49 21.19-.5 2.38-3.41 15.11-2.93 17.42-35.8 6.52-66.54 1.19-101.23-5.58.39-1-3.92-12.38-4.14-13.48-3.37-16.94-5.92-27.78-6.36-31.08z" fill="url(#linear-gradient-9)"/>
        <path class="cls-13" d="M156.42 273.22l-.71.15c.09-.21.17-.42.26-.62.16.15.31.31.45.47z"/>
        <g id="coffee">
          <path class="cls-27" d="M280.19 401.12h-16.44a6.34 6.34 0 0 1-6.34-6.34V367.2c0-3.51 2.51-4.69 6.34-6.35h15.48c3.23.82 7.3 2.85 7.3 6.36v27.58a6.34 6.34 0 0 1-6.34 6.33z"/>
          <path class="cls-27" d="M281.93 372a1.4 1.4 0 0 1 .91-1.58c2.31-.75 5.87 0 7.3 1.39 7.13 7.14 3.78 15.31-4.7 19.3a1.41 1.41 0 0 1-2-1.26v-2.65a1.42 1.42 0 0 1 1-1.35 5.38 5.38 0 0 0 1.83-9.62 1.39 1.39 0 0 0-.77-.23h-1.71a1.39 1.39 0 0 1-1.37-1.15z"/>
          <path id="smoke" class="smoke" d="M265.8 358.32c-9.39-11.28 16.13-12 5-24.34 16.71 3.91 4.85 15.06 7.56 24.34z" opacity=".3" fill="#F6F9F8"/>
          <ellipse cx="271.97" cy="365.57" rx="13.87" ry="5.57" fill="#161601"/>
        </g>
        <g id="bootstrap">
          <rect class="cls-31" x="81.44" y="103.44" width="38.8" height="38.06" rx="7.08" ry="7.08"/>
          <path class="cls-32" d="M106.66 121.9a5.29 5.29 0 0 1 4.06 5.36 5.44 5.44 0 0 1-3.75 5.85 11.11 11.11 0 0 1-3.6.74c-3.8.09-7.61 0-11.48 0v-22.24c.24 0 .49-.06.73-.06 3.49 0 7-.06 10.47 0a11.26 11.26 0 0 1 3.68.73 4.5 4.5 0 0 1 2.92 4.16 5 5 0 0 1-2.4 5l-.59.35s-.02.09-.04.11zm-10.75 8.69c2.64 0 5.21.09 7.76 0a3.1 3.1 0 0 0 3-3.5 3.05 3.05 0 0 0-3.25-3.21h-7a2.25 2.25 0 0 0-.49.1zm0-9.85c2.53 0 5 .12 7.47 0a2.71 2.71 0 0 0 2.24-3.15 2.55 2.55 0 0 0-2.71-2.69h-6.99z" id="zYgBU1"/>
        </g>
        <path d="M273.27 197s-2.23 1.29 1.58 1.72a33.6 33.6 0 0 0 12-.49.35.35 0 0 1 .22 0 20.6 20.6 0 0 0 2.38 1.2.32.32 0 0 1 0 .6c-11.28 4.32-24.89-.64-16.12-3.07m-1.39-6.34s-2.49 1.83 1.32 2.23a47.32 47.32 0 0 0 15.42-.72.3.3 0 0 1 .27.08 7.5 7.5 0 0 0 1.47 1 .32.32 0 0 1-.06.6c-13.58 3.6-28.09 0-18.42-3.18M283.63 180a3.68 3.68 0 0 1 .53 4.56.32.32 0 0 0 .47.42c1.88-1.43 4.31-4.07 2.13-7.11-3.07-4.27-5.41-6.4 7.3-13.7 0 0-19.95 5-10.43 15.83m15.11 21.76s1.65 1.34-1.81 2.39c-6.6 2-27.43 2.58-33.21.08-2.09-.89 1.82-2.15 3-2.41a8.1 8.1 0 0 1 2-.22c-2.31-1.62-14.95 3.17-6.42 4.54 23.26 3.75 42.41-1.68 36.38-4.38m-24.4-17.58s-10.6 2.5-3.76 3.4a80.27 80.27 0 0 0 14-.15c2.5-.2 5-.55 6.69-.8a.32.32 0 0 1 .21.59c-.25.14-.5.29-.73.44h-.09c-10.78 2.79-31.49 1.48-25.52-1.38a20.31 20.31 0 0 1 9.18-2.15m19 10.54c10.95-5.64 5.88-11.06 2.35-10.32a9 9 0 0 0-1.26.33 2 2 0 0 1 .94-.71c7-2.44 12.36 7.19-2.26 11m-6.37-42.66s6.05 6-5.76 15.25c-8.29 6.49-3.71 10.55-1 14.7a.33.33 0 0 1-.5.41c-4.72-4.39-7.83-8.31-5.36-12 4-5.93 15.05-8.82 12.61-18.37M275.42 210c10.5.67 27.56-.83 27-5.3 0 0-.73 1.87-8.68 3.36a86.84 86.84 0 0 1-26.57.4s1.34 1.1 8.24 1.54" fill="url(#linear-gradient-11)" id="java"/>
        <g id="javascript">
          <rect class="cls-31" x="196.71" y="174.11" width="39.73" height="40" rx="5.6" ry="5.6"/>
          <path class="cls-32" d="M228.66 199.84l-.94-.4c-1.6-.7-2.3-1.15-2.3-2.27a1.63 1.63 0 0 1 1.79-1.6 2.55 2.55 0 0 1 2.41 1.6l2.91-1.87a5.51 5.51 0 0 0-5.31-3c-3.34 0-5.48 2.14-5.48 4.95 0 3 1.79 4.49 4.49 5.64l.93.4c1.72.75 2.73 1.21 2.73 2.49 0 1.07-1 1.85-2.54 1.85a4.08 4.08 0 0 1-3.69-2.28l-3 1.76a7.19 7.19 0 0 0 6.82 3.82c3.55 0 6.19-1.85 6.19-5.21-.05-3.12-1.83-4.52-5.01-5.88zM214.84 205.23c0 1.88-.78 2.36-2 2.36s-1.82-.88-2.41-1.92l-3 1.84a5.83 5.83 0 0 0 5.62 3.42c3.31 0 5.59-1.77 5.59-5.64v-12.77h-3.74z"/>
        </g>
        <path stroke="#e9f27e" stroke-linecap="round" stroke-linejoin="round" stroke-width="0" fill="none" d="M85.52 269.45v.02"/>
        <g id="python">
          <path class="cls-35" d="M266.26 114.59c-1-3.93-2.83-6.89-6.78-6.89h-5.09v6a8.71 8.71 0 0 1-8.48 8.62h-13.55a6.92 6.92 0 0 0-6.78 6.9v12.94c0 3.69 3.2 5.85 6.78 6.9a22.72 22.72 0 0 0 13.55 0c3.42-1 6.78-3 6.78-6.9V137h-13.54v-1.73h20.33c3.95 0 5.41-2.76 6.78-6.89s1.35-8.38 0-13.79zm-19.5 25.86a2.59 2.59 0 1 1-2.55 2.58 2.57 2.57 0 0 1 2.55-2.58z"/>
          <path d="M231.74 120.64h13.55a6.84 6.84 0 0 0 6.78-6.9v-12.95c0-3.69-3.1-6.45-6.78-7.07a41.87 41.87 0 0 0-13.55 0c-5.74 1-6.78 3.14-6.78 7.07V106h13.57v1.73h-18.66a8.48 8.48 0 0 0-8.48 6.89 25.56 25.56 0 0 0 0 13.8c1 4 3.26 6.89 7.21 6.89h4.66v-6.2a8.62 8.62 0 0 1 8.48-8.47zm-.85-18.12a2.59 2.59 0 1 1 2.55-2.58 2.58 2.58 0 0 1-2.55 2.58z" fill="url(#linear-gradient-12)"/>
        </g>
        <path id="node" d="M160.84 59.48c-.41-.15-.81-.29-1.22-.42.07-.3.13-.6.19-.9.92-4.85.32-8.74-1.73-10s-5.2 0-8.46 3.12c-.32.31-.64.62-.94.94l-.62-.63c-3.42-3.28-6.84-4.67-8.89-3.37s-2.55 4.9-1.73 9.49c.09.46.18.9.28 1.36-.48.15-.95.31-1.4.48-4 1.5-6.88 3.88-6.88 6.34s3.06 5.08 7.23 6.63c.34.12.68.24 1 .34-.11.49-.21 1-.3 1.47-.79 4.51-.17 8.09 1.8 9.32s5.43 0 8.75-3.18c.26-.25.53-.51.79-.79.33.35.67.68 1 1 3.21 3 6.39 4.21 8.35 3s2.69-5.12 1.83-9.8c-.07-.36-.14-.73-.22-1.1l.7-.24c4.33-1.55 7.47-4.07 7.47-6.64s-3-4.86-7-6.38zm-10.16-6.91c2.79-2.63 5.4-3.67 6.59-2.93s1.75 4 1 8.17c-.06.28-.11.55-.18.81a36 36 0 0 0-5.05-.86 41.23 41.23 0 0 0-3.2-4.32c.25-.3.54-.58.84-.87zM140.92 68c.35.72.7 1.43 1.07 2.13s.78 1.41 1.19 2.1a29.11 29.11 0 0 1-3.48-.61c.33-1.17.74-2.38 1.22-3.62zm0-4.11c-.47-1.21-.87-2.4-1.2-3.55a34.09 34.09 0 0 1 3.42-.63c-.4.67-.79 1.36-1.15 2.06s-.73 1.4-1.07 2.12zm.86 2.06c.49-1.13 1-2.22 1.6-3.31s1.19-2.13 1.83-3.16c1.13-.09 2.28-.14 3.45-.14s2.33.05 3.45.14c.64 1 1.24 2.07 1.82 3.15s1.12 2.17 1.63 3.28c-.5 1.13-1 2.23-1.62 3.32s-1.18 2.13-1.82 3.17c-1.12.09-2.28.14-3.46.14s-2.32 0-3.42-.12c-.66-1-1.27-2.09-1.85-3.17s-1.11-2.18-1.61-3.3zm13.56 4.16c.38-.71.74-1.44 1.09-2.17.48 1.18.9 2.37 1.27 3.6a28.11 28.11 0 0 1-3.53.65c.41-.68.79-1.38 1.17-2.08zm1.08-6.22c-.36-.72-.72-1.43-1.09-2.13s-.75-1.38-1.15-2.05a31.54 31.54 0 0 1 3.45.65c-.35 1.15-.76 2.32-1.21 3.48zm-7.74-9.15a35.42 35.42 0 0 1 2.22 2.91q-2.24-.1-4.47 0c.74-1.1 1.49-2.08 2.25-2.96zm-8.71-5c1.26-.8 4.06.34 7 3.17.19.18.37.38.57.57a41.4 41.4 0 0 0-3.22 4.32 36.22 36.22 0 0 0-5.05.85c-.09-.42-.18-.84-.26-1.26-.71-3.94-.24-6.91.95-7.65zm-1.84 21.44c-.32-.09-.63-.2-.93-.31a14.94 14.94 0 0 1-4.73-2.54 3.74 3.74 0 0 1-1.42-2.43c0-1.49 2.38-3.4 5.8-4.69.43-.16.86-.31 1.3-.45A46.12 46.12 0 0 0 140 65.9a45.24 45.24 0 0 0-1.87 5.24zm8.75 8a13.7 13.7 0 0 1-4.23 2.82 3.08 3.08 0 0 1-2.65.1c-1.2-.75-1.69-3.62-1-7.48.09-.46.18-.91.28-1.36a35.13 35.13 0 0 0 5.1.8 43.31 43.31 0 0 0 3.24 4.34c-.24.25-.48.5-.72.72zm1.84-2c-.76-.9-1.53-1.89-2.27-3h4.49a35.68 35.68 0 0 1-2.22 2.96zm9.81 2.44a3.66 3.66 0 0 1-1.23 2.54c-1.2.75-3.74-.22-6.49-2.78-.32-.29-.63-.61-1-.93a40.09 40.09 0 0 0 3.19-4.4 34.42 34.42 0 0 0 5.12-.86c.08.34.15.67.21 1a16.23 16.23 0 0 1 .18 5.39zm1.37-8.75l-.64.22a42.35 42.35 0 0 0-1.91-5.19 43.31 43.31 0 0 0 1.84-5.12c.39.12.76.25 1.12.38 3.5 1.3 6 3.24 6 4.72s-2.66 3.61-6.41 4.95zm-11.24-8.67a3.74 3.74 0 1 1-3.44 3.73 3.59 3.59 0 0 1 3.44-3.73" fill="url(#linear-gradient-13)"/>
        <g id="html">
          <path d="M112.44 179.22H77.75a2 2 0 0 0-2 2.2l3.25 37.4a2 2 0 0 0 1.35 1.75l14.06 4.76a1.94 1.94 0 0 0 1.26 0l14.15-4.76a2 2 0 0 0 1.36-1.75l3.24-37.4a2 2 0 0 0-1.98-2.2zm-5.53 13.22H88.22l.42 5.11h17.86l-1.39 15.35-10 2.79H95l-10-2.79-.61-7.84h4.85l.36 3.94 5.44 1.5 5.46-1.5.61-6.43h-17l-1.3-15.06h24.52z" fill="#cedfd9"/>
          <path class="cls-39" d="M84.14 202.57h16.98l-.61 6.43-5.46 1.5-5.44-1.5-.36-3.94H84.4l.61 7.84 10.04 2.82h.11v-.03l9.95-2.79 1.39-15.35H88.64l-.42-5.11h18.7l.44-4.93H82.84l1.3 15.06z"/>
        </g>
        <g id="_.net" data-name=".net">
          <path d="M271.75 64.58z" fill="#74ceef"/>
          <path class="cls-41" d="M297.43 65.83c.25.31.51.61.75.92a4.45 4.45 0 0 1 .5.87h-2.46a7.93 7.93 0 0 1-2-.1 4.23 4.23 0 0 1 .85-.41 5 5 0 0 0 .84-.31 3.63 3.63 0 0 0 .73-.5 2.81 2.81 0 0 0 .36-.3s.09-.14.13-.15a1.37 1.37 0 0 1 .3-.02z"/>
          <path class="cls-39" d="M281.7 57.52c-.82 1.28-1.39 2.7-2.32 3.91-.32.42-1.2 2-1.22 2.07a15.1 15.1 0 0 0-1 1.75 9.86 9.86 0 0 1-.56 1.07 4 4 0 0 1-.88 1c-.37.3-.82.47-1.21.73a5.73 5.73 0 0 0 4.36-2.28 8.71 8.71 0 0 0 1.23-2.66c.37-1.16.74-2.31 1.09-3.48.12-.4.25-.81.34-1.22.06-.2.27-.76.17-.89z"/>
          <path class="cls-41" d="M299 67.62a1.84 1.84 0 0 1 .73-1.06c.23-.12.38 0 .53.16s.52.59.78.88z"/>
          <path d="M282.34 50l-1 .09z" fill="#36b8e9"/>
          <path class="cls-41" d="M307.62 49.83a5.17 5.17 0 0 0-4.15 2.45 11.41 11.41 0 0 0-1.28 3c-.33 1.24-.69 2.47-1.05 3.7a.21.21 0 0 0 0 .06 2.67 2.67 0 0 1-.19.54c-.28.78-.56 1.57-.83 2.35a10.58 10.58 0 0 1-.58 1.54c-.07.12-.5.79-.38.93a3.6 3.6 0 0 0 .32.71c.17.36.33.73.5 1.09 1.3-1.72 2-3.83 3-5.73s2-3.68 3-5.53 1.83-3.49 2.72-5.25c-.27 0-.87.16-1.08.14z"/>
          <path class="cls-31" d="M308.64 49.71c-.8 1.58-1.55 3.17-2.41 4.72-.54 1-1.08 2-1.61 2.93s-1.06 1.91-1.57 2.88c-.29.56-.52 1.12-.79 1.7-.37.8-.77 1.59-1.18 2.38a12.47 12.47 0 0 1-1.12 1.9l-.82-1.79c-.29.12-.44.41-.68.6a.71.71 0 0 1-.38.18c-.14 0-.14 0-.24.09a2.55 2.55 0 0 0-.24.31c-.07.1-.16.16-.13.27s.21.25.28.34.35.41.51.63a2.65 2.65 0 0 1 .32.54c.05.1.06.19.15.23h.15c.12 0 .06 0 .12-.08s.11-.27.19-.38a2.22 2.22 0 0 1 .32-.42c.29-.3.5-.28.77 0s.33.37.49.55.17.25.25.28a1.27 1.27 0 0 0 .39 0 1.34 1.34 0 0 0 .4 0 1.22 1.22 0 0 0 .29-.23l.64-.5 1.29-1a5.13 5.13 0 0 0 1-1.29 8.06 8.06 0 0 1 .93-1.32 1 1 0 0 0 .3-.54 5.34 5.34 0 0 1 .35-.77c.94-2 1.9-3.89 2.92-5.8.57-1.07 1.1-2.15 1.66-3.22l.83-1.57.46-.85a2.56 2.56 0 0 0 .21-.4 1.91 1.91 0 0 0 .05-.48z"/>
          <path class="cls-39" d="M301.81 67.6a3.71 3.71 0 0 0 2.51-.84 1.91 1.91 0 0 0 .58-.53l1.3-1.44a16 16 0 0 0 1.26-1.47l2.14-3.13c.12-.07.24-.41.31-.53l.63-1.08h-.16c.19 0 .19 0 .29-.18l.22-.39c.16-.27.33-.54.49-.82l1-1.64c.62-1 1.25-2.06 1.85-3.11.17-.31.33-.49.2-.83a3.41 3.41 0 0 0-.44-.76 6.39 6.39 0 0 0-.72-.84c-.11-.12-.35-.4-.54-.39-.53 1-.89 2-1.41 3-.64 1.23-1.26 2.48-1.92 3.7s-1.3 2.52-1.93 3.8"/>
          <path class="cls-31" d="M276.81 54.68c-.54.92-1 1.87-1.51 2.82a55.13 55.13 0 0 1-2.95 5.5c-.2.53-.38 1.06-.61 1.58-.16 1.17-.33 2.35-.47 3.53l2.13-.07a5.45 5.45 0 0 0 1.07 0 1.36 1.36 0 0 0 .37-.21c.13-.06.27-.11.4-.18a4.58 4.58 0 0 0 1.95-2.4c-.32 0-.64-.11-1-.13s-.49 0-.64-.11-.07-.28 0-.42c.14-.3.32-.59.49-.89.62-1.14 1.35-2.22 1.95-3.38a8.13 8.13 0 0 1 .43-.83c.18-.27.41-.52.6-.78l1.17-1.57a34.92 34.92 0 0 1 2.39-3l.78-.81a4.08 4.08 0 0 1 .85-.69 2.46 2.46 0 0 0 .82-.59l.13-.19c.09-.15.08-.12 0-.25a3.13 3.13 0 0 0-.4-.5l-.85-.53a4.78 4.78 0 0 0-.74-.46 3.12 3.12 0 0 0-1-.09 4.47 4.47 0 0 0-.89.08 13.4 13.4 0 0 0-2.11 1.46l-.41.3"/>
          <path class="cls-41" d="M280.36 50.31a16.82 16.82 0 0 0-2.65 1.78 17.17 17.17 0 0 0-2 2.08 8.26 8.26 0 0 0-.79 1.14c-.26.47-.59.9-.88 1.35a26.6 26.6 0 0 0-1.59 3c-1 2-1.73 4-2.51 6.1a4.62 4.62 0 0 0-.52 1.92c0 .14.15.49.37.39h1.46c.05 0 .07-.14.08-.24s0-.41.07-.62c.12-.89.25-1.78.37-2.67v.06a15.31 15.31 0 0 0 .64-1.63 48.52 48.52 0 0 0 2.75-5.13c.33-.64.76-1.39 1.23-2.18 1.08-1.37 2-2.56 2.1-2.64l.65-.65c.4-.42.31-1 .78-1.37s.91-.66 1.39-1a3.14 3.14 0 0 0-.95.31zM278.45 53z"/>
          <path class="cls-31" d="M285 52.16l-1 .64a4.76 4.76 0 0 0-.89.85c-.51.54-1.24 1.1-1.7 1.69-1 1.28-1.69 2.57-2.68 3.85-.51.63-2 3.46-2.42 4.16l-.55 1c-.11.19-.32.49-.06.65s.6.07.83.1.62.17.76.06.19-.33.26-.45l.43-.72c.41-.68 2.91-4.83 3.73-6.23.12-.21.42-.74.45-.77s2.73-3 2.88-3.1.39-.35.44-.52-.1-.4-.17-.56z"/>
          <path class="cls-41" d="M286.24 56.33c.44 2.05 1 4.06 1.58 6.08m.11-.15c-.2.19 0 .49.11.71s.21.53.31.79a8.57 8.57 0 0 0 1.38 2.49 4.12 4.12 0 0 0 1.86 1.27 7.84 7.84 0 0 0 2.69.12c.37 0 .23-.36.36-.41a7.15 7.15 0 0 1-2-2 17.61 17.61 0 0 1-1.42-2.85c-.5-1.11-1-2.24-1.42-3.37-.21-.54-.44-1.08-.64-1.63-.1-.25-.17-.51-.27-.76s-.84-2.67-1-2.92a10.46 10.46 0 0 1-1.17-1.4l-.66.45-.42-.82c-.06-.11-.09-.28-.22-.28s-.2.19-.27.29-.13.21 0 .41l.14.33c.06.14.14.29.19.44s0 .25.06.4c.12.61.35 1.22.52 1.82l.14.48c0 .09.06.44.13.49"/>
          <path class="cls-39" d="M283.22 50.08c.49.3 1 .58 1.49.92a1.11 1.11 0 0 1 .26.27c.07.08.23.37.32.4s.4-.22.53-.32a6 6 0 0 1 1.56-.7l1.67-.69c-1.77.04-5.66.04-5.83.12z"/>
          <path class="cls-31" d="M288.82 56.54c.34.72.58 1.51.88 2.25s.59 1.52.91 2.27.68 1.52 1 2.28a12.76 12.76 0 0 0 1 1.83 7.49 7.49 0 0 0 1.25 1.45c.2.17.56 1 .82 1s.66-.6.91-.69a4.12 4.12 0 0 0 .9-.49c.19-.14.69-.51.65-.74s-.24-.42-.34-.59l-.34-.59-.71-1.24c-.46-1.23-.92-2.45-1.29-3.71-.17-.61-.35-1.23-.54-1.84s-.46-1.11-.59-1.7c-.07-.28-.12-.59-.21-.87a4.3 4.3 0 0 0-.45-.88 16 16 0 0 1-.72-1.64 2.1 2.1 0 0 0-.15-.3c.11.07.35-.06.49-.11l1-.32-.34-.6a5 5 0 0 0-1.48-1.08 3.31 3.31 0 0 0-.86-.27h-1.22a1.54 1.54 0 0 0-.73.14l-1.61.67a5 5 0 0 0-1.43.71l-.12.1c-.1 0-.11.1 0 .17a2 2 0 0 0 .15.29l.37.72.66-.45.6 1"/>
          <path class="cls-41" d="M292.05 50.8a14.18 14.18 0 0 1 1.14 1.05 1.13 1.13 0 0 1 .24.29v-.06c-.14-.15 0-.08-.18-.07s-.2.07-.29.09l-1.1.35a16.39 16.39 0 0 0 .79 1.82 14.19 14.19 0 0 1 .66 1.7c.13.59.41 1.11.58 1.69s.37 1.22.55 1.84a34.57 34.57 0 0 0 1.28 3.71 7.52 7.52 0 0 0 .59 1.21c.15.27.82 1.36 1 1.63s1.6-1.42 1.7-1.49.2-.11.21-.29l-.46-1.27a3.56 3.56 0 0 0-.18-.58c-.16-.66-.31-1.33-.47-2l-.21-.92-.1-.44a2.27 2.27 0 0 0-.06-.25c-.05-.11-.05-.12-.11-.13h.08c-.29-1-.57-2-.86-3s-.78-2-1.26-2.94a3.4 3.4 0 0 0-1.21-1.62 7.42 7.42 0 0 0-1.79-.76 3.94 3.94 0 0 0-1.59-.26"/>
        </g>
        <g id="django">
          <rect x="289.44" y="90.93" width="60" height="28.31" rx="5.05" ry="5.05" fill="url(#linear-gradient-14)"/>
          <g id="FLjHPa">
            <path class="cls-23" d="M326.3 114.85V112c.09 0 .15.1.22.13a5.69 5.69 0 0 0 1.13.42c.12 0 .22.09.34.1a1.91 1.91 0 0 1 .33.06c.21 0 .42.06.63.09a5.14 5.14 0 0 0 .68 0h.31a.68.68 0 0 0 .29 0c.09 0 .21 0 .28-.09a1.42 1.42 0 0 0 .69-.29 1.79 1.79 0 0 0 .69-1 2.72 2.72 0 0 0 .15-.94v-.36c0-.13-.07 0-.1 0a2 2 0 0 1-.8.26c-.09.1-.22 0-.32.06s-.21 0-.31 0h-.65a4.63 4.63 0 0 1-1.32-.27 2.94 2.94 0 0 1-.67-.32 3.6 3.6 0 0 1-.6-.51 4.7 4.7 0 0 1-.51-.58 3.78 3.78 0 0 1-.35-.66c-.06-.16-.11-.33-.16-.5a2.29 2.29 0 0 1-.14-.64c0-.1-.07-.18-.05-.29a.31.31 0 0 0 0-.26v-.13a3.53 3.53 0 0 1 0-.65 3.66 3.66 0 0 1 .14-.92 2 2 0 0 1 .2-.76 4.54 4.54 0 0 1 .54-1 5.19 5.19 0 0 1 .71-.77 3.76 3.76 0 0 1 .6-.45 3.84 3.84 0 0 1 .49-.27 3.08 3.08 0 0 1 .93-.35c.18-.13.4-.11.6-.2s.19 0 .3-.06.31 0 .45-.06.43 0 .63-.1h1.5c.45 0 .8.07 1.21.05.09 0 .17.07.28.06a.57.57 0 0 1 .25 0 2.32 2.32 0 0 0 .38 0c.25 0 .5.1.76.12a2.73 2.73 0 0 1 .41.1c-.07.18-.13.34-.2.5s-.23.47-.34.71l-.4.84c-.07.13-.07.11-.21.09a3.68 3.68 0 0 0-.49 0c0 .18-.05.34 0 .5a.56.56 0 0 1 0 .13c0 1.58.08 3.16.05 4.75v1.11c0 .31-.09.6-.05.91-.07.14 0 .3-.06.45s-.07.46-.13.69-.12.43-.18.64a3.4 3.4 0 0 1-.52 1 4.32 4.32 0 0 1-.91 1 4.52 4.52 0 0 1-1.32.7 3.68 3.68 0 0 1-.87.21c-.13.11-.31 0-.46.09a1.23 1.23 0 0 1-.47 0l-.33.05h-.33l-.42-.05a3.08 3.08 0 0 1-.43 0c-.22 0-.44-.06-.66-.11a6.93 6.93 0 0 1-1.16-.33zm5.68-11.7h-1.06l-.27.07a2.67 2.67 0 0 0-1 .64 2.27 2.27 0 0 0-.58 1.3 2.57 2.57 0 0 0 0 .62 4 4 0 0 0 0 .6 2.48 2.48 0 0 0 .24.71 1.68 1.68 0 0 0 1.39.93 1.78 1.78 0 0 0 .4 0 .77.77 0 0 0 .36 0 1.36 1.36 0 0 1 .37-.06.78.78 0 0 0 .21-.09c.08-.06 0-.15 0-.22a5.69 5.69 0 0 0 0-1.09c-.04-1.12.05-2.26-.04-3.41zM299 100.83v-4.57h2.9v13.87l-.61.13a4 4 0 0 0-.77.15h-.68l-.38.05a1.77 1.77 0 0 0-.4 0 2.83 2.83 0 0 1-.71 0 3.47 3.47 0 0 1-.72 0 3.48 3.48 0 0 0-.55 0c-.1 0-.18-.07-.28-.06a1.26 1.26 0 0 1-.28 0l-.28-.06a.82.82 0 0 1-.28 0 3.7 3.7 0 0 0-.52-.2 2.88 2.88 0 0 1-.5-.24 3 3 0 0 1-.89-.65 4 4 0 0 1-.55-.68 4.18 4.18 0 0 1-.42-.88 3.23 3.23 0 0 1-.2-1 .74.74 0 0 1 0-.44 4 4 0 0 1-.05-.6c0-.14 0-.28.05-.42a1.39 1.39 0 0 1 0-.4 1.16 1.16 0 0 0 .05-.34 2.91 2.91 0 0 1 .19-.7 4.67 4.67 0 0 1 .7-1.3 5.47 5.47 0 0 1 .66-.7 3.78 3.78 0 0 1 .88-.57 3.7 3.7 0 0 1 .91-.34l.54-.11a4 4 0 0 0 .5 0 3.08 3.08 0 0 1 .61 0 2.5 2.5 0 0 1 .47 0 3.41 3.41 0 0 1 .46.05c.01-.05.06-.01.15.01zm0 2.44a1 1 0 0 0-.15-.07 7.17 7.17 0 0 0-.81-.11h-.43a1.23 1.23 0 0 0-.39.08 1.94 1.94 0 0 0-1.2 1 3.26 3.26 0 0 0-.17.47 4 4 0 0 0-.1.5v.62c0 .21.07.41.05.63a3.19 3.19 0 0 0 .28.66 1.76 1.76 0 0 0 .37.48 3.62 3.62 0 0 0 .43.24 1.57 1.57 0 0 0 .46.16 4 4 0 0 0 .5.07 8.27 8.27 0 0 0 1-.05c.09 0 .13 0 .14-.13v-4.67zM336.14 105.76v-.52a3.26 3.26 0 0 1 .06-.62 1.77 1.77 0 0 1 .14-.56 3.14 3.14 0 0 1 .36-1 3 3 0 0 1 .44-.69c.14-.17.28-.33.44-.49a3.92 3.92 0 0 1 .72-.55 5.11 5.11 0 0 1 1.05-.45 1.38 1.38 0 0 1 .29-.08l.26-.05a.4.4 0 0 0 .23 0H341.43a2.94 2.94 0 0 1 .78.11 4.89 4.89 0 0 1 .62.19c.19.09.38.17.57.27s.3.2.45.3a3.33 3.33 0 0 1 .55.51 3.69 3.69 0 0 1 .53.76 4.16 4.16 0 0 1 .37.9c0 .18.1.36.14.54a3.71 3.71 0 0 1 .1.94c0 .15.06.29 0 .44l-.06.81a4 4 0 0 1-.15.84 5.54 5.54 0 0 1-.4 1 4.46 4.46 0 0 1-.64.92 4.59 4.59 0 0 1-.89.76 2.38 2.38 0 0 1-.31.17 8.37 8.37 0 0 1-1 .39 1.94 1.94 0 0 0-.43.06 2.92 2.92 0 0 1-.78 0 4.28 4.28 0 0 1-.8 0 5.56 5.56 0 0 1-1.14-.27 5.22 5.22 0 0 1-.92-.45c-.09 0-.15-.13-.23-.18a3.31 3.31 0 0 1-.44-.4 5.09 5.09 0 0 1-.87-1.36 7.09 7.09 0 0 1-.25-1c-.11-.11 0-.25-.08-.38a1.54 1.54 0 0 1 0-.43zm6.45-.08v-.36a2.69 2.69 0 0 0-.06-.57 5.66 5.66 0 0 0-.32-.9 1.48 1.48 0 0 0-1.22-.76 1.37 1.37 0 0 1-.35 0 1 1 0 0 0-.56.17 1.93 1.93 0 0 0-.65.68 3 3 0 0 0-.33 1.26 4.37 4.37 0 0 0 0 1.14c.05.25.09.5.16.74a2 2 0 0 0 .63.89 2.33 2.33 0 0 0 .34.2h.79a1.34 1.34 0 0 0 .2 0 1.93 1.93 0 0 0 .62-.32 1.41 1.41 0 0 0 .32-.4 3.35 3.35 0 0 0 .4-1.45zM316.65 101.35c.2 0 .39-.11.59-.15s.37-.1.55-.13a4.29 4.29 0 0 0 .62-.14c.1 0 .21 0 .33-.05a2 2 0 0 1 .5-.07h.33a1.15 1.15 0 0 0 .31 0 1.46 1.46 0 0 1 .42 0h1.13c.25 0 .5 0 .75.06a4.85 4.85 0 0 1 .74.15 2 2 0 0 1 .35.11c.15.08.3.13.45.2a2.65 2.65 0 0 1 .39.26 2.23 2.23 0 0 1 .47.5 2.05 2.05 0 0 1 .26.43 2.64 2.64 0 0 1 .17.47 1 1 0 0 1 .08.38c0 .12.07.22.05.34a1 1 0 0 0 0 .34 2.46 2.46 0 0 1 .05.81v5.62a.12.12 0 0 1-.12.13h-2.7a.12.12 0 0 1-.13-.12 1.08 1.08 0 0 1 0-.18v-6.01a1.46 1.46 0 0 0-.28-.84.51.51 0 0 0-.26-.2 2.54 2.54 0 0 0-1.09-.16c-.16.1-.36 0-.54.09a4.11 4.11 0 0 1-.53.13v7.14h-2.77c-.08 0-.12 0-.13-.13v-8.91a.15.15 0 0 1 .01-.07zM315.24 110.22a.53.53 0 0 1-.3.09 1.54 1.54 0 0 0-.3 0c-.09 0-.2 0-.28.05h-.05a7.55 7.55 0 0 0-.83 0c-.23 0-.47 0-.7.06a4.59 4.59 0 0 1-.91 0 7 7 0 0 1-.8.06c-.27 0-.53-.06-.8-.07a2.35 2.35 0 0 1-.64-.09c-.2-.07-.4-.13-.59-.21s-.33-.18-.49-.27a1.76 1.76 0 0 1-.56-.59 2.59 2.59 0 0 1-.31-.83c0-.14 0-.28-.05-.41a1.39 1.39 0 0 1 0-.4 4.68 4.68 0 0 1 .14-.9 2.32 2.32 0 0 1 .57-1 3 3 0 0 1 .91-.67 6.47 6.47 0 0 1 1.07-.38c.27-.08.55-.12.82-.2a4 4 0 0 0 .5-.06 2.87 2.87 0 0 1 .5-.07 2.56 2.56 0 0 1 .49 0v-.78a.56.56 0 0 0-.48-.56 2.85 2.85 0 0 0-.92 0 3.15 3.15 0 0 0-.43 0 1 1 0 0 0-.41.1 6.11 6.11 0 0 0-1.33.37 4.56 4.56 0 0 0-.67.32l-.16.06v-2.14a.22.22 0 0 1 .15-.25c.13-.05.25-.12.38-.18a4.3 4.3 0 0 0 .41-.16 1.37 1.37 0 0 0 .38-.15c.27 0 .5-.14.77-.16s.4-.07.6-.11a2.45 2.45 0 0 1 .46 0c.16 0 .31-.07.48-.06s.32 0 .47 0h.38c.12 0 .25 0 .36.05a2.31 2.31 0 0 1 .81.21 2 2 0 0 1 .58.31 1.47 1.47 0 0 1 .42.44 2.63 2.63 0 0 1 .31.75 9.31 9.31 0 0 1 .09 1.9zm-2.51-3.86a.92.92 0 0 0-.37 0h-.33c-.11 0-.25 0-.35.07a2.75 2.75 0 0 0-.69.15 1.21 1.21 0 0 0-.58.37.62.62 0 0 0-.17.44v.36a.59.59 0 0 0 .05.19.84.84 0 0 0 .53.4c.17 0 .33 0 .5.06s.34-.06.51 0a3.48 3.48 0 0 0 .9-.12z"/>
            <path class="cls-23" d="M303.59 100.87h2.62a.54.54 0 0 1 .18 0 .18.18 0 0 1 .1.09 1.08 1.08 0 0 1 0 .18v7.8c0 .16 0 .31-.05.47a3.92 3.92 0 0 1 0 .49 2 2 0 0 0 0 .42c0 .14-.08.26-.05.4s0 .22-.08.32a2.09 2.09 0 0 0-.07.36 3 3 0 0 1-.1.32 5.79 5.79 0 0 1-.42.91 4 4 0 0 1-.74 1 4.77 4.77 0 0 1-.77.59l-.67.39h-.1l-.29-.15c-.45-.22-.9-.46-1.36-.67-.3-.14-.6-.29-.89-.45l-.06-.06h.07l.39-.21a8.14 8.14 0 0 0 1-.66 3.61 3.61 0 0 0 .93-1.32 3 3 0 0 0 .2-.66c0-.22.08-.44.11-.66s0-.32 0-.47a11 11 0 0 0 .06-1.14 16.84 16.84 0 0 0 0-1.74v-5.48zM303.59 99.35v-3h2.88v3z"/>
          </g>
        </g>
        <g id="c_" data-name="c++">
          <circle class="cls-35" cx="169.48" cy="126.31" r="17.96"/>
          <g id="YlPCR5.tif">
            <path class="cls-39" d="M172.91 129l.1.05q1.92 1.17 3.82 2.36l.09.07c-.28.43-.54.89-.85 1.29a9 9 0 0 1-5.2 3.4 8.45 8.45 0 0 1-5.72-.63 9.43 9.43 0 0 1-4.15-3.94l-.06-.12a10.28 10.28 0 0 1-1-2.49 10.67 10.67 0 0 1-.25-3.38 10 10 0 0 1 2.76-6.16 8.58 8.58 0 0 1 4.91-2.66 8.75 8.75 0 0 1 8.25 2.95 8.56 8.56 0 0 1 1.29 1.84l-1.67 1L173 124h-.1a4.56 4.56 0 0 0-3.56-2.41 4.08 4.08 0 0 0-2.73.64 4.94 4.94 0 0 0-2.31 3.92 4.51 4.51 0 0 0 .16 1.67 4.26 4.26 0 0 0 .46 1.15l.06.12a4.48 4.48 0 0 0 7.93-.11z"/>
            <path class="cls-39" d="M177.14 127.07v1.09h-1v-1.09h-1V126h1v-1.1h1v1.1h1v1.1zM181 127.07v1.09h-1v-1.09h-1V126h1v-1.09h1V126h1v1.1z"/>
          </g>
        </g>
        <g id="node-2" data-name="node">
          <path class="cls-31" d="M188.44 40h62v20.55h-31V64h-13.73c0-.76-.05-1.54 0-2.32s-.24-1.11-1.1-1.11h-16.18zm58.8 17.24c0-.39.08-.72.08-1.05V44.42c0-.9-.26-1.17-1.17-1.16h-18.73c-.89 0-1.19.22-1.18 1.15.05 4 0 7.92 0 11.88 0 .29.05.59.08.93h7.09V47h3.3v10.17h3.61V47h3.29v10.2zm-24.3-14h-13.28c-.24 0-.68.55-.68.85v15.65c0 .65.16 1 .9 1h5.37c.73 0 .91-.3.88-1v-2.55h6.85zm-17.33 13.95a3.64 3.64 0 0 0 .09-.6V44.15c0-.82-.37-.93-1.05-.92h-11.88c-.33 0-.66 0-1.06.08v13.88h7c0-.46.07-.91.07-1.35v-7.88c0-.47-.13-1.07.65-1.07h2.61v10.3z"/>
          <path class="cls-44" d="M247.24 57.2h-3.59V47h-3.29v10.17h-3.61V47h-3.3v10.18h-7.09c0-.34-.08-.64-.08-.93V44.37c0-.93.29-1.16 1.18-1.15h18.73c.91 0 1.18.26 1.17 1.16v11.77c-.04.33-.09.66-.12 1.05zM222.94 43.24v14h-6.85v2.55c0 .65-.15 1-.88 1h-5.37c-.74 0-.9-.32-.9-1V44.14c0-.3.44-.85.68-.85 4.38-.06 8.79-.05 13.32-.05zm-3.6 10.29v-6.65h-2.41c-.63 0-.87.24-.85.88v3.18c0 2.94 0 2.94 3 2.7a1 1 0 0 0 .26-.11zM205.61 57.19h-3.55v-10.3h-2.61c-.78 0-.65.6-.65 1.07v7.88c0 .44 0 .89-.07 1.35h-7V43.32c.4 0 .73-.08 1.06-.08h11.88c.68 0 1.06.1 1.05.92V56.6a3.64 3.64 0 0 1-.11.59z"/>
          <path class="cls-31" d="M219.34 53.53a1 1 0 0 1-.27.1c-3 .24-3 .24-3-2.7v-3.18c0-.64.22-.9.85-.88h2.41z"/>
        </g>
        <g id="postgres">
          <path class="cls-31" d="M332.14 179.25c-2.57-.51-3.33-2.48-3.68-4.69-.22-1.38-.26-2.78-.38-4.18-2.78.63-4.27.43-5.67-.67a11.7 11.7 0 0 1-2.59.51 3.77 3.77 0 0 1-2.89-2.05 22 22 0 0 1-2.92-7.12c-.61-2.42-1-4.88-1.55-7.33v-1.23c.05-.32.12-.65.14-1a7 7 0 0 1 6.43-6.76 16.46 16.46 0 0 1 6.28.7 1.28 1.28 0 0 0 .86 0 9 9 0 0 1 5.53-.81c1.45.19 2.75-.37 4.13-.49h2.31a3.06 3.06 0 0 0 .43.13 10.27 10.27 0 0 1 4.57 1.63 6.25 6.25 0 0 1 3.08 6.71 28.26 28.26 0 0 1-2 7.35c-.63 1.44-1.34 2.85-2.06 4.36.64-.1 1.22-.18 1.79-.29a2 2 0 0 1 2.53 1.18v.92c-1.55 2.79-4.25 3.11-7 3.23-.19 1.56-.3 3.07-.57 4.54a5.7 5.7 0 0 1-4.87 5.11c-.27.05-.54.13-.8.19zm-3.34-10.55l.27.06c0 1.77-.06 3.53 0 5.29a4.2 4.2 0 0 0 2.22 3.95c2.2 1.08 5.63-.38 6.31-2.72a28.35 28.35 0 0 0 .66-3.7c.17-1.09.28-2.2.42-3.25h2.1a6.07 6.07 0 0 0 4.3-1.9 1.18 1.18 0 0 0 .26-1c-.11-.24-.59-.36-.93-.44a2.27 2.27 0 0 0-.76.08c-1 .12-2.1.45-3.17-.12l.41-.69a29.65 29.65 0 0 0 4.4-12.26 4.65 4.65 0 0 0-1.77-4.56 13.1 13.1 0 0 0-2.46-1.53 11.86 11.86 0 0 0-7.76-.32 3.56 3.56 0 0 1-1.26 0 8.62 8.62 0 0 0-5.54.7 1.47 1.47 0 0 1-1 .09 17.15 17.15 0 0 0-5.82-.85 5.81 5.81 0 0 0-5.71 4.19 12.37 12.37 0 0 0-.41 4.32 35 35 0 0 0 2.33 9.65 21.15 21.15 0 0 0 2.24 4.33c1.13 1.64 2.66 1.6 4 .11.78-.88 1.55-1.78 2.34-2.65.14-.15.39-.32.54-.29.56.12 1.09.32 1.65.5a2.16 2.16 0 0 1-1.7 1.24 9.3 9.3 0 0 0-1 .26c-.51.17-1.08.33-1.12 1s.53.93 1.05 1.17a2.45 2.45 0 0 0 .43.15 5.06 5.06 0 0 0 4.48-.81z"/>
          <path class="cls-31" d="M327.91 164.7c.46-1.27 1-2.52 1.37-3.81a9.93 9.93 0 0 0-.28-5.81 2.65 2.65 0 0 0-3.38-1.63c-.71.17-1.41.43-2.33.72a40.78 40.78 0 0 1 1.21-4 5.83 5.83 0 0 1 6.24-3.63c4.06.38 6.75 2.63 8.43 6.24a1.87 1.87 0 0 1 .07.22v.15a13.85 13.85 0 0 0-1.95.22 2.56 2.56 0 0 0-2.05 3.16 16.36 16.36 0 0 0 1.06 3.26c.79 1.69 1.73 3.3 2.65 5-1.28.49-1.19 1.72-1.32 2.89-.27 2.3-.53 4.61-.94 6.9-.34 1.92-3 3.22-4.79 2.48a2.91 2.91 0 0 1-1.72-2.84c-.11-2.33-.14-4.66-.17-7a2.28 2.28 0 0 0-2.1-2.52z"/>
          <path class="cls-31" d="M325 147.43a9 9 0 0 0-2.3 4.57c-.24 1.4-.31 2.83-.41 4.25s-.1 2.66-.16 4a5.31 5.31 0 0 0 1.08 3.59c.18.24.38.48.6.73-.94 1.07-1.84 2.15-2.79 3.18a1.12 1.12 0 0 1-1.81 0 5.46 5.46 0 0 1-1-1.27 35.09 35.09 0 0 1-3.71-13.78 7.37 7.37 0 0 1 .35-2.41 4.5 4.5 0 0 1 3.71-3.45 12.79 12.79 0 0 1 6.44.59zM334.7 146.37c3.13-.41 5.94-.14 8.31 2a3.45 3.45 0 0 1 1.24 2.91 27.23 27.23 0 0 1-4.31 12.42c.79-1.6.6-3.25.45-4.94a17.21 17.21 0 0 1 .16-3.51 5.36 5.36 0 0 0-.35-2.91c-1.08-2.43-2.38-3.9-5.5-5.97z"/>
          <path class="cls-31" d="M328.54 159c-.23.84-.49 1.92-.81 3-.19.6-.48 1.17-.7 1.77-.34.93-.34.93-1.29.6a4 4 0 0 1-2.48-4.08c.09-1.37.13-2.75.14-4.12 0-.48.12-.81.57-1a14.62 14.62 0 0 1 2.47-.68 1.34 1.34 0 0 1 1.63 1.24c.18 1.03.29 2.02.47 3.27zm-1.87-4.38l-.85.77c.33.27.63.68 1 .75s.59-.39.89-.6zM339.28 154.37v8.18h-.25a21.47 21.47 0 0 1-2.64-5.93c-.28-1.42.35-2.23 1.78-2.27zm-1.42 1.63l.82-1c-.23-.15-.51-.45-.69-.4a4 4 0 0 0-1 .58zM324.18 168.32a4.83 4.83 0 0 0 3.46-2.06.83.83 0 0 1 .8-.18.69.69 0 0 1 .29 1.09 4.9 4.9 0 0 1-1.32 1.13 3.87 3.87 0 0 1-3.23.02zM343.88 166.12a6.16 6.16 0 0 1-4.7 1.06c-.11 0-.27-.44-.25-.67a.68.68 0 0 1 1-.63 6.72 6.72 0 0 0 3.95.24z"/>
        </g>
        <g id="css">
          <path class="cls-31" d="M155.95 179.22l-.52.22-8.9 3.71.28 3.67h.02l13.21.04-.3 4.9-4.34 1.22-4.18-1.06-.25-3.04h-3.89l.51 5.87 7.85 2.32 7.8-2.28 1.01-11.64h-8.85l.02-.01 9.16-3.92.38-3.75h-19.24l.46 3.75h9.77z"/>
          <path d="M143.9 200.89l10.92 3.63a1.71 1.71 0 0 0 1.05 0l10.92-3.63a1.68 1.68 0 0 0 1.13-1.43l2.51-28.54a1.66 1.66 0 0 0-1.65-1.81H141.9a1.67 1.67 0 0 0-1.65 1.81l2.52 28.54a1.66 1.66 0 0 0 1.13 1.43zm21.1-25.42l-.38 3.75-9.16 3.92h8.83l-1 11.64-7.8 2.28-7.85-2.32-.51-5.87H151l.25 3 4.15 1.13 4.34-1.22.3-4.9h-13.21l-.28-3.67 8.9-3.71.52-.22h-9.77l-.46-3.75z" fill="#b5d2cb"/>
        </g>
      </g>
    </g>
  </g>
</svg>
