<svg xmlns="http://www.w3.org/2000/svg" xmlns:xlink="http://www.w3.org/1999/xlink" viewBox="0 0 817.48 466.67">
  <defs>
    <style>
      .cls-12,.cls-51{fill:none;stroke:#1c08a0}.cls-11,.cls-12,.cls-51{stroke-miterlimit:10}.cls-5{fill:#fff}.cls-40,.cls-42{mix-blend-mode:multiply}.cls-11{fill:#bccbc6;stroke:#cedfd9;opacity:.6}.cls-11,.cls-12{stroke-width:3px}.cls-19{fill:#a62bcd}.cls-20{fill:#1c0cd0}.cls-40{opacity:.18}.cls-42{opacity:.25}.cls-50{fill:#1c08a0}.cls-51{stroke-width:1.5px}.cls-59{fill:#dfc89e}
    </style>
    <linearGradient id="linear-gradient" x1="964.75" y1="311.36" x2="1134.58" y2="311.36" gradientTransform="matrix(-1 0 0 1 1249.35 0)" gradientUnits="userSpaceOnUse">
      <stop offset="0" stop-color="#bccbc6"/>
      <stop offset=".51" stop-color="#b3c6c1"/>
      <stop offset=".99" stop-color="#a5bfb9"/>
    </linearGradient>
    <linearGradient id="linear-gradient-2" x1="960.46" y1="231.67" x2="1064.71" y2="231.67" gradientTransform="matrix(-1 0 0 1 1249.35 0)" gradientUnits="userSpaceOnUse">
      <stop offset=".01" stop-color="#f0f0f1"/>
      <stop offset=".27" stop-color="#dfe4e3"/>
      <stop offset=".72" stop-color="#c5d2ce"/>
      <stop offset="1" stop-color="#bccbc6"/>
    </linearGradient>
    <linearGradient id="linear-gradient-3" x1="961.92" y1="235.54" x2="1068.55" y2="229.95" gradientTransform="matrix(-1 0 0 1 1249.35 0)" gradientUnits="userSpaceOnUse">
      <stop offset=".01" stop-color="#a5bfb9"/>
      <stop offset=".49" stop-color="#b3c6c1"/>
      <stop offset="1" stop-color="#bccbc6"/>
    </linearGradient>
    <linearGradient id="linear-gradient-4" x1="1043.19" y1="297.88" x2="1095.19" y2="297.88" xlink:href="#linear-gradient"/>
    <linearGradient id="linear-gradient-5" x1="965.71" y1="289.67" x2="1134.5" y2="289.67" xlink:href="#linear-gradient-2"/>
    <linearGradient id="linear-gradient-6" x1="977.45" y1="281.59" x2="1098.43" y2="281.59" xlink:href="#linear-gradient"/>
    <linearGradient id="linear-gradient-7" x1="47.06" y1="269.62" x2="86.3" y2="269.62" gradientUnits="userSpaceOnUse">
      <stop offset="0" stop-color="#849994"/>
      <stop offset=".49" stop-color="#a5bfb9"/>
      <stop offset=".74" stop-color="#b3c6c1"/>
      <stop offset="1" stop-color="#bccbc6"/>
    </linearGradient>
    <linearGradient id="linear-gradient-8" x1="14.5" y1="207.01" x2="105.6" y2="207.01" xlink:href="#linear-gradient"/>
    <linearGradient id="linear-gradient-9" x1="10.2" y1="240.76" x2="115.75" y2="240.76" xlink:href="#linear-gradient-3"/>
    <linearGradient id="linear-gradient-10" x1="66.63" y1="231.62" x2="115.75" y2="231.62" gradientUnits="userSpaceOnUse">
      <stop offset="0" stop-color="#bccbc6"/>
      <stop offset=".28" stop-color="#c5d2ce"/>
      <stop offset=".73" stop-color="#dfe4e3"/>
      <stop offset=".99" stop-color="#f0f0f1"/>
    </linearGradient>
    <linearGradient id="linear-gradient-11" x1="82.36" y1="299.97" x2="184.47" y2="299.97" xlink:href="#linear-gradient-7"/>
    <linearGradient id="linear-gradient-12" x1="62.08" y1="190.86" x2="66.86" y2="190.86" gradientUnits="userSpaceOnUse">
      <stop offset="0" stop-color="#849994"/>
      <stop offset=".35" stop-color="#8ca29d"/>
      <stop offset=".92" stop-color="#a2bcb6"/>
      <stop offset=".99" stop-color="#a5bfb9"/>
    </linearGradient>
    <linearGradient id="linear-gradient-13" x1="38.5" y1="353.34" x2="157.14" y2="290.8" xlink:href="#linear-gradient-10"/>
    <linearGradient id="linear-gradient-14" x1="95.72" y1="235.08" x2="105.47" y2="235.08" gradientTransform="rotate(-174.24 100.94864 234.726877)" xlink:href="#linear-gradient-12"/>
    <linearGradient id="linear-gradient-15" x1="176.99" y1="273.48" x2="197.97" y2="273.48" gradientUnits="userSpaceOnUse">
      <stop offset=".01" stop-color="#a5bfb9"/>
      <stop offset=".08" stop-color="#a2bcb6"/>
      <stop offset=".65" stop-color="#8ca29d"/>
      <stop offset="1" stop-color="#849994"/>
    </linearGradient>
    <linearGradient id="linear-gradient-16" x1="10.86" y1="78.03" x2="112.66" y2="78.03" gradientUnits="userSpaceOnUse">
      <stop offset="0" stop-color="#bccbc6"/>
      <stop offset=".51" stop-color="#beccc8"/>
      <stop offset=".69" stop-color="#c5d1cd"/>
      <stop offset=".82" stop-color="#d0dad7"/>
      <stop offset=".92" stop-color="#e1e5e5"/>
      <stop offset=".99" stop-color="#f0f0f1"/>
    </linearGradient>
    <linearGradient id="linear-gradient-17" x1="637.63" y1="117.61" x2="709.73" y2="117.61" gradientUnits="userSpaceOnUse">
      <stop offset=".07" stop-color="#1c08a0"/>
      <stop offset=".2" stop-color="#1c08a0"/>
      <stop offset=".31" stop-color="#5308ab"/>
      <stop offset=".48" stop-color="#570aad"/>
      <stop offset=".64" stop-color="#6312b2"/>
      <stop offset=".8" stop-color="#771ebc"/>
      <stop offset=".97" stop-color="#922fc9"/>
      <stop offset="1" stop-color="#93c"/>
    </linearGradient>
    <linearGradient id="linear-gradient-18" x1="59.1" y1="367.96" x2="279.4" y2="367.96" gradientTransform="rotate(11.17 179.170869 362.61441)" xlink:href="#linear-gradient-7"/>
    <linearGradient id="linear-gradient-19" x1="489" y1="388.22" x2="629.23" y2="388.22" gradientUnits="userSpaceOnUse">
      <stop offset="0" stop-color="#fff"/>
      <stop offset=".19" stop-color="#fff"/>
      <stop offset=".5" stop-color="#fdfdfd"/>
      <stop offset=".64" stop-color="#f5f5f5"/>
      <stop offset=".75" stop-color="#e9e9e9"/>
      <stop offset=".84" stop-color="#d7d7d7"/>
      <stop offset=".88" stop-color="#ccc"/>
      <stop offset="1" stop-color="#ccc"/>
    </linearGradient>
    <linearGradient id="linear-gradient-20" x1="180.43" y1="70.62" x2="279.04" y2="70.62" xlink:href="#linear-gradient-12"/>
    <linearGradient id="linear-gradient-21" x1="187.27" y1="57.2" x2="272.01" y2="57.2" xlink:href="#linear-gradient-2"/>
    <linearGradient id="linear-gradient-22" x1="187.2" y1="87.92" x2="272.38" y2="87.92" xlink:href="#linear-gradient-2"/>
    <linearGradient id="linear-gradient-23" x1="239" y1="70.69" x2="275.5" y2="70.69" xlink:href="#linear-gradient-2"/>
    <linearGradient id="linear-gradient-24" x1="184.67" y1="70.55" x2="220.83" y2="70.55" xlink:href="#linear-gradient-2"/>
    <linearGradient id="linear-gradient-25" x1="231.87" y1="422.22" x2="320.77" y2="422.22" xlink:href="#linear-gradient-12"/>
    <linearGradient id="linear-gradient-26" x1="375.81" y1="270.28" x2="541.22" y2="270.28" xlink:href="#linear-gradient-2"/>
    <linearGradient id="linear-gradient-27" x1="410.69" y1="268.34" x2="508.58" y2="268.34" gradientUnits="userSpaceOnUse">
      <stop offset="0" stop-color="#bccbc6"/>
      <stop offset=".26" stop-color="#b3c6c1"/>
      <stop offset=".51" stop-color="#a5bfb9"/>
      <stop offset="1" stop-color="#849994"/>
    </linearGradient>
    <linearGradient id="linear-gradient-28" x1="294.66" y1="347.51" x2="431.79" y2="347.51" xlink:href="#linear-gradient-27"/>
    <linearGradient id="linear-gradient-29" x1="503.15" y1="181.79" x2="587" y2="181.79" gradientUnits="userSpaceOnUse">
      <stop offset=".01" stop-color="#a5bfb9"/>
      <stop offset=".47" stop-color="#b3c6c1"/>
      <stop offset=".95" stop-color="#bccbc6"/>
    </linearGradient>
    <linearGradient id="linear-gradient-30" x1="348.7" y1="120.71" x2="487.73" y2="120.71" xlink:href="#linear-gradient-10"/>
    <linearGradient id="linear-gradient-31" x1="382.2" y1="120.71" x2="454.23" y2="120.71" xlink:href="#linear-gradient-7"/>
    <linearGradient id="linear-gradient-32" x1="526.21" y1="58.21" x2="611.44" y2="58.21" xlink:href="#linear-gradient-10"/>
    <linearGradient id="linear-gradient-33" x1="526.78" y1="11.05" x2="549.06" y2="11.05" xlink:href="#linear-gradient-10"/>
    <linearGradient id="linear-gradient-34" x1="51.33" y1="202.66" x2="77.62" y2="202.66" gradientTransform="rotate(-90 64.475 202.655)" xlink:href="#linear-gradient-12"/>
    <linearGradient id="linear-gradient-35" x1="37.59" y1="54.23" x2="85.93" y2="54.23" gradientUnits="userSpaceOnUse">
      <stop offset="0" stop-color="#93c"/>
      <stop offset=".03" stop-color="#922fc9"/>
      <stop offset=".2" stop-color="#771ebc"/>
      <stop offset=".36" stop-color="#6312b2"/>
      <stop offset=".52" stop-color="#570aad"/>
      <stop offset=".69" stop-color="#5308ab"/>
      <stop offset=".8" stop-color="#1c08a0"/>
      <stop offset=".93" stop-color="#1c08a0"/>
    </linearGradient>
    <linearGradient id="linear-gradient-36" x1="292.09" y1="199.3" x2="337.42" y2="199.3" gradientTransform="rotate(-1.32 308.417452 208.012716)" xlink:href="#linear-gradient-17"/>
    <linearGradient id="linear-gradient-37" x1="57.83" y1="131.33" x2="65.7" y2="131.33" gradientUnits="userSpaceOnUse">
      <stop offset=".01" stop-color="#a5bfb9"/>
      <stop offset=".61" stop-color="#a7c0ba"/>
      <stop offset=".82" stop-color="#aec4be"/>
      <stop offset=".98" stop-color="#b9cac5"/>
      <stop offset="1" stop-color="#bccbc6"/>
    </linearGradient>
    <linearGradient id="linear-gradient-38" x1="629.28" y1="265.9" x2="654.18" y2="265.9" xlink:href="#linear-gradient-35"/>
    <linearGradient id="linear-gradient-39" x1="746.99" y1="246.58" x2="817.38" y2="246.58" gradientTransform="rotate(-10.59 816.438623 1017.174069)" gradientUnits="userSpaceOnUse">
      <stop offset=".01" stop-color="#f0f0f1"/>
      <stop offset=".34" stop-color="#d9e0de"/>
      <stop offset=".74" stop-color="#c4d1cc"/>
      <stop offset="1" stop-color="#bccbc6"/>
    </linearGradient>
    <linearGradient id="linear-gradient-40" x1="669.44" y1="409.78" x2="764.05" y2="409.78" xlink:href="#linear-gradient-19"/>
  </defs>
  <g style="isolation:isolate">
    <g id="Layer_2" data-name="Layer 2">
      <path d="M49.31 71.22l65-.36c3.74-.08 10.81 4.08 10.81 9.24v59.18a10.21 10.21 0 0 0 3.37 8l.43.33c4 3.15 10.7-.83 10.7-7.18l.85-92.7c0-6.46 5.19-10.37 9.14-6.88 2.89 2.54 4.64 7 4.63 11.67l-.11 18c0 5.27 2.14 9.56 6 9.56h-2.47l140 1.11c3.68 0 6.66 3.33 6.71 7.45l.48 46.54c.05 3.6-2.53 6.56-5.75 6.59l-10.88.12c-7.27-.59-34.54.09-61.77 0-24.35-.05-14.84 15.56-11.34 15.59 12.77.08 22.59.68 43 1.53 5 .2 8.51 1.19 8.24 6.36-.25 4.85-3.32 7.23-8.24 7.2-20.9-.14-35.22-3.1-35.1 5.66.26 18.63-3.72 73.42-4.23 88.71 1.95 0 95 2 113.4 2.36 1.66 0 6 1.94 5.9-3l-.6-17.89c-.09-5.06 6.55-8.42 11-7.46 5.84 1.26 4.93 7 4.93 13.62v5.17c0 6.36-3 43.81 2.61 42.56 0 0 102.25 14.8 105.48 17.33 6.53 5.1 60.65-49.27 60.68-49.25h30.46a3.52 3.52 0 0 1 3.31 3.52c.92 18.82-1.62 22.79 3.32 27a7 7 0 0 0 6.77.86c2.88-1.23 4.62-4.53 4.53-8l-.86-56.28c-.08-3 2.07-5.46 4.75-5.42 14.83.22 58.28 2.28 58.56 1.35.15-.52 65.19-.33 65.19-.33 1.7-.42 3-2.44 3-4.82l-.18-15.36c0-2.61 1.51-7.09 3.4-7.24l20.87-.11 1.18-.08c3-.22 5.39-1.2 5.51-5.32 0-.29.06-5.2 0-5.28-1.77-3.57-4-4.5-6.34-4.33 0 0-50-.24-50.77-.18-9.27.67-15.83-16-4.52-16l18.57.38c1.81-.3 3.18-4.79 3.16-7.31 0 0 .56-94.57.54-102.5 0-10.74-1.7-10.51-4.11-10.74-10.36-1-18.65.44-27-.93-3.79-.63-3.09-20.12-2.77-26.32a7.28 7.28 0 0 0-.7-3.57c-1.84-3.86-6.12-5.34-9.59-3.3a7.74 7.74 0 0 0-3.61 7c.32 9.88 1.7 31.78-1.43 31.79-15.69.07-24.67.1-37.54-.91l-97.05 1a3.59 3.59 0 0 0-3.33 3.76V76.3a3.48 3.48 0 0 1-.71 2.13 6 6 0 0 1-8.83 1.08 4 4 0 0 1-1.14-1.58c-2.75-7.76 5.54-59.44-3.88-59.58-11.09-.16-.68 19.55-10.37 20-6.25.32-38.82-.32-50.88-.57a4.67 4.67 0 0 0-4.48 4.94l.21 61" stroke-width="4" stroke-miterlimit="10" fill="none" stroke="#1c08a0" id="Layer_3" data-name="Layer 3"/>
      <g id="Layer_2-2" data-name="Layer 2">
        <path d="M114.84 281.53c1-.46 1.72.53 2.42.93 1.47.84 24.49 13.73 30.21 16.94q17.33 9.72 34.7 19.35c5.73 3.19 11.45 6.42 17.19 9.6l8.69 4.79 3.95 2.16c1.39.76 2.7 1.36 4.31.83a25 25 0 0 0 4-2.13l4.75-2.62q4.44-2.44 8.87-4.93c5.72-3.21 11.48-6.37 17.2-9.57s11.49-6.47 17.25-9.67c2.82-1.57 5.65-3.11 8.47-4.67 1.37-.76 7.17-4.89 7.26-4.43a15.28 15.28 0 0 1 .48 3.68c0 1.09-.8 1.59-1.73 2.36a8.55 8.55 0 0 1-1.18.67c-.65.37-1.17.78-1.86 1.12-2.77 1.34-5.45 3-8.17 4.47-6 3.28-11.88 6.64-17.83 9.94-11.38 6.32-22.5 12.66-33.84 19a18.22 18.22 0 0 1-3.53 1.77 6 6 0 0 1-4.37-.7c-3-1.42-5.9-3.28-8.81-4.92q-8.67-4.89-17.37-9.72-17.76-9.82-35.47-19.7c-5.7-3.19-11.38-6.41-17.08-9.59q-4.52-2.52-9-5.06c-2.61-1.5-5.45-2.74-8-4.34-1.84-1.18-1.61-5.51-1.51-5.56z" fill="url(#linear-gradient)"/>
        <path d="M284.12 298.54c0-7.15-.35-71.9 0-74.54a.7.7 0 0 0 0-.25 4.21 4.21 0 0 0-2.33-2.52c-4.28-2.45-8.61-4.81-12.93-7.19-3.64-2-20.18-11.24-24.83-13.82-3.84-2.13-7.74-4.15-11.57-6.28-7-3.88-13.93-7.82-20.9-11.71-3.49-1.94-7-3.82-10.51-5.76q-7.8-4.32-15.59-8.69c-.14-.08-.5-.4-.57-.44-.47-.25-.16-.86.18-1.27l.8-.95a.88.88 0 0 1 1.11-.21l101.47 55.57a.85.85 0 0 1 .45.74v75.31a.85.85 0 0 1-.63.81s-4.15 1.33-4.15 1.2z" fill="url(#linear-gradient-2)"/>
        <path class="cls-5" d="M280.72 292.25c-.83-.33-95.07-52.77-95.72-53.22v-66.28a3.57 3.57 0 0 1 .1-.71.43.43 0 0 1 .14-.2 3.11 3.11 0 0 1 .31-.15c26.06 14.53 94.62 52 94.88 52.69l1.66 1a3.62 3.62 0 0 1 .13.59v64.18a9.23 9.23 0 0 1-.49 2.08z"/>
        <path d="M185.93 167.81q7.78 4.37 15.59 8.69c3.49 1.94 7 3.82 10.5 5.76 7 3.89 13.93 7.83 20.91 11.71 3.83 2.13 7.73 4.15 11.56 6.28 4.66 2.58 9.27 5.24 13.91 7.83 3.63 2 7.29 4 10.92 6 4.32 2.38 8.66 4.74 12.93 7.19 1.35.78 2.67 1.77 2.35 3.64 0 23.94-.48 47.89-.48 71.83-.06.58.08 1.13 0 1.84-.85-.19-1.24-.31-1.91-.46-1.92-1.16-3.83-2.37-5.79-3.48q-8.57-4.86-17.17-9.65c-3.62-2-7.28-4-10.9-6-5.8-3.24-11.57-6.52-17.38-9.76-4.72-2.62-9.48-5.16-14.19-7.79-5.39-3-10.74-6.09-16.13-9.12-2.66-1.49-5.37-2.9-8-4.38s-5.44-3.08-8.16-4.62c-.16-.16-.75-.31-.91-.46 0-24.55.43-49.09.43-73.63a8.42 8.42 0 0 1 .62-2.28 13.68 13.68 0 0 1 1.3.86zm92.6 122.75c.22.13.57.28.8.4.86.43.86 0 .86 0s.1-1.53.1-2.19v-60.74a3 3 0 0 0-.12-.56l-1.58-.95c-.24-.67-65.13-36.12-89.79-49.87a1.74 1.74 0 0 0-.29.15.4.4 0 0 0-.14.18 3.83 3.83 0 0 0-.08.68v62.72c.58.41 84.12 46.9 90.24 50.18z" fill="url(#linear-gradient-3)"/>
        <path d="M206.17 302.1a9.81 9.81 0 0 0-1.6-1.49c-2.67-1.48-5.39-2.87-8.07-4.32q-5.87-3.18-11.71-6.39l-10.19-5.58a3.35 3.35 0 0 0-3.34-.07c-2 1-4 2-5.95 3.05-3.05 1.64-6.07 3.32-9.09 5-.63.36-1.19.82-2.05 1.41a11 11 0 0 0 1.74 1.51c5.48 3 11 6 16.48 9 4.62 2.53 9.21 5.1 13.73 7.61a5.83 5.83 0 0 0 4.1-1c3.7-2.14 7.52-4.09 11.29-6.14 1.49-.77 2.95-1.63 4.66-2.59z" fill="url(#linear-gradient-4)"/>
        <path d="M114.86 281.54l8.32 4.48h.06c3.68 2.08 7.38 4.13 11.07 6.19l10.26 5.79c3.76 2.1 7.51 4.22 11.27 6.31 3.56 2 7.15 3.91 10.71 5.89s7.09 4 10.64 6l10.46 5.8c3.69 2.06 7.37 4.14 11.07 6.19s7.13 3.93 10.7 5.9l3.92 2.15a4.18 4.18 0 0 0 4.29 0c3.77-2.08 7.55-4.16 11.31-6.25l8.21-4.58q6.57-3.64 13.14-7.3c2.81-1.56 5.6-3.14 8.4-4.71 3.69-2.07 7.37-4.14 11.07-6.19s7.14-3.92 10.69-5.91c.86-.49 1.66-1.07 2.48-1.62a.72.72 0 0 0 .24-.28 3.59 3.59 0 0 0 .48-1.26c0-.1-.16-.22-.3-.3L184 242.64a.89.89 0 0 0-.88 0l-68.21 38.88s-.06.02-.05.02zm41.76 12.06l17.38-8.18a.87.87 0 0 1 .83 0L203 301.67a.84.84 0 0 1 0 1.47l-15.21 8.54a.92.92 0 0 1-.88 0l-30.34-16.58a.84.84 0 0 1 .05-1.5zM152 263.13a.84.84 0 0 1 .42-.72l24.41-14.23a.91.91 0 0 1 .89 0l92.48 50.57a.84.84 0 0 1 .43.88l-.31 1.78a.82.82 0 0 1-.43.59l-23.35 12.86a.88.88 0 0 1-.86 0l-93.19-49.66a.84.84 0 0 1-.45-.74z" fill="url(#linear-gradient-5)"/>
        <path d="M271.06 298.4c-31.12-17.36-60.94-33.54-92.23-51-.89.54-6 3.27-6.77 3.75-6.36 3.77-10.84 5.84-17.16 9.66-1.07.65-4.77 2.31-3.82 4.15.73.52 84.91 46.87 89 49.14 1.36.75.64.44 2 1.21a5.31 5.31 0 0 0 4.58-.1c2.43-1.42 5.92-2.81 8.35-4.23 2.68-1.56 5.36-3.14 8-4.71 2-1.2 4.08-2.4 6.13-3.58a9.35 9.35 0 0 0 2.36-1.8 1.64 1.64 0 0 0-.44-2.49z" fill="url(#linear-gradient-6)"/>
        <path class="cls-11" d="M246.21 309.78l-87.48-47.98M254.39 305.9l-87.05-47.97M262.14 301.6l-87.05-47.98"/>
        <g id="computer_lines">
          <path class="cls-12" d="M270.39 238.48l-72.12-39.36M270.03 254.62l-72.12-39.35M270.02 270.28l-72.12-39.36"/>
        </g>
        <path fill="url(#linear-gradient-7)" d="M50.73 265.27l-3.67 8.7h39.25l-4.69-8.7H50.73z"/>
        <path d="M10 217.42a.33.33 0 0 0 .24 0v1.55h-.2z" fill="#b7c7c1"/>
        <path d="M66.68 213.19a41.81 41.81 0 0 1-4.43.45q-23.11.06-46.21 0a9.18 9.18 0 0 1-1.54-.26c5-1.64 10-3.31 15.06-4.94q11.94-3.85 23.9-7.65a8.2 8.2 0 0 1 2.44-.44h48.45c.42 0 .83.05 1.25.08-1.02 1.18-37.51 12.34-38.92 12.76z" fill="url(#linear-gradient-8)"/>
        <path d="M115.75 249.77a4.45 4.45 0 0 0-.73.12q-11.76 3.74-23.51 7.5l-16.86 5.42c-.24-2-.5-4-.73-6.05-.41-3.51-.82-7-1.19-10.53-.31-2.85-.54-5.71-.83-8.56-.25-2.53-.53-5-.81-7.56-.31-2.81-.7-5.61-.91-8.43s-.68-5.61-2.74-7.6c-1-1 0 0-.76-.89a41.81 41.81 0 0 1-4.43.45q-23.11.06-46.21 0a9.18 9.18 0 0 1-1.54-.26 4.61 4.61 0 0 0-4.26 4v1.55c.53 5.22 1.05 10.45 1.6 15.67 1 9.33 2 18.66 3 28 .37 3.62 2.63 5.71 6.28 5.71h48.49a21.24 21.24 0 0 0 3.66-.63c13.24-4.25 26.49-8.48 39.71-12.82.9-.29 1.55-1.37 2.31-2.09l.48-1.49c-.05-.5-.04-1.01-.02-1.51z" fill="url(#linear-gradient-9)"/>
        <path d="M114.8 240.86c-.53-5.16-1-10.32-1.56-15.48-.65-6.27-1.29-15.68-2-21.95-.25-2.21-4.1-2.93-4.1-2.93h-1.11a3.32 3.32 0 0 1-.42 0c-1 1.18-37.51 12.34-38.92 12.76-.28-.15.76.89.76.89 2 2 2.54 4.87 2.74 7.6s.6 5.62.91 8.43c.28 2.52.56 5 .81 7.56.29 2.85.52 5.71.83 8.56.37 3.51.78 7 1.19 10.53.23 2 .49 4 .73 6.05l16.86-5.42q11.74-3.76 23.51-7.5a4.45 4.45 0 0 1 .73-.12c-.33-3.04-.66-6.01-.96-8.98z" fill="url(#linear-gradient-10)"/>
        <path fill="url(#linear-gradient-11)" d="M82.36 302.21l34.93 3.59 61.8-34.93 5.38 8.95-40.31 33.14-26.87 15.23-25.07.89-9.86-26.87z"/>
        <path class="cls-19" d="M328.09 129.45c0-.28.05-.56.05-.85a14.47 14.47 0 0 0-14.46-14.46h-.85v15.26z"/>
        <path class="cls-20" d="M329.22 134.19h-21.14v-21.66c-13.08 1.63-18.26 9.22-18.64 17.78A19.91 19.91 0 0 0 309.26 153a20 20 0 0 0 5.83-.87c7.86-1.8 13-7.93 14.37-18z"/>
        <path fill="#faab20" d="M510.04 243.93l.12.38-.35-.04.23-.34z"/>
        <path fill="url(#linear-gradient-12)" d="M62.08 175.8h4.78v30.12h-4.78z"/>
        <path d="M88.47 401.74h-49a27 27 0 0 1-27-27v-59.05c0-23.29 0-32.25 34.93-42.1l41-.48c14.93 0 27 15.69 27 30.62v71a27 27 0 0 1-26.93 27.01z" fill="url(#linear-gradient-13)"/>
        <circle cx="64.47" cy="169.7" r="6.35" fill="#96e57c"/>
        <path d="M104.57 221.72h.34v26h-.34a7.57 7.57 0 0 1-7.57-7.57v-10.86a7.57 7.57 0 0 1 7.57-7.57z" transform="rotate(174.24 100.966482 234.719131)" fill="url(#linear-gradient-14)"/>
        <path d="M177.19 274.11c-1.65-11.92 7.41-15.19 13.53-9.77a1.58 1.58 0 0 1-.49 2.63c-10.43 4.27-3.87 11.85 6.07 11.33a1.58 1.58 0 0 1 1.31 2.57c-6 7.15-16.81 5.61-20.36-6.47a1.36 1.36 0 0 1-.06-.29z" fill="url(#linear-gradient-15)"/>
        <rect x="10.86" y="18.27" width="101.8" height="119.51" rx="8.18" ry="8.18" fill="url(#linear-gradient-16)"/>
        <path fill="#f7f6f5" d="M21.58 29.05h80.37v94.35H21.58z"/>
        <path d="M672.43 126.76c0-4.28-.07-8.56.06-12.83v-2.62a5 5 0 0 1 .44-2.06 3.22 3.22 0 0 1 2.19-2.41 5.15 5.15 0 0 1 2.53-.69h61.58a5.16 5.16 0 0 1 5.15 5.16v45.18a5.16 5.16 0 0 1-5.15 5.16h-5.91c-.27 3.59-.53 7-.91 12-3.61-3.34-5.88-5.63-8.35-7.68-1.83-1.52-3.73-2.94-5.64-4.36H677.7a5.16 5.16 0 0 1-5.16-5.16v-1.17a38 38 0 0 1-.17-4c-.08-8.13.03-16.28.06-24.52z" fill="#14076e"/>
        <path d="M709.64 104.45c0-4.28.07-8.56-.06-12.83 0-.5 0-1-.06-1.4V89a5.2 5.2 0 0 0-.43-2.06 3.24 3.24 0 0 0-2.19-2.41 5.18 5.18 0 0 0-2.53-.69h-61.58a5.16 5.16 0 0 0-5.16 5.16v45.18a5.16 5.16 0 0 0 5.16 5.16h5.91c.27 3.59.53 7 .91 12 3.61-3.34 5.88-5.63 8.35-7.68 1.82-1.52 3.73-2.94 5.64-4.36h40.77a5.16 5.16 0 0 0 5.15-5.16V133a37.53 37.53 0 0 0 .18-4c.08-8.16-.03-16.35-.06-24.55z" fill="url(#linear-gradient-17)"/>
        <path d="M116.14 327.27c34.23 56.36 87.77 100.37 150 76.8l3.68 17c-44.58 43.28-121.82-2.24-156.38-40.86-11.36-12.69-49.86-66-43.82-81.86 8.95-23.69 28.73-13.19 46.52 28.92z" fill="url(#linear-gradient-18)"/>
        <path d="M489 465.91c8-31.38 71.31-135.17 104.47-155.38l35.76 21.09c-8 16-18.56 116.68-18.67 134.29z" fill="url(#linear-gradient-19)"/>
        <path d="M279 39.84v61.37a4.21 4.21 0 0 1-4.21 4.21h-89.48a4.89 4.89 0 0 1-4.88-4.88V39.25a3.44 3.44 0 0 1 3.44-3.44H275a4 4 0 0 1 4 4.03zm-84.92 4.32l34.29 29a2.24 2.24 0 0 0 2.89 0L264.67 45l-1.74-4.79h-67.38a2.23 2.23 0 0 0-1.43 3.95zm27.46 32l-26.45 20.4a2.24 2.24 0 0 0 1.36 4h66.6a2.24 2.24 0 0 0 1.36-4L238.06 76.2a2.22 2.22 0 0 0-2.66 0c-5.11 3.69-5.88 3.68-11.18 0a2.22 2.22 0 0 0-2.64-.02zm53 17.66V47.78a2.23 2.23 0 0 0-3.54-1.71L242.47 70a2.27 2.27 0 0 0 .07 3.51L271 95.61a2.23 2.23 0 0 0 3.63-1.77zm-89.17-45.9v45.53a2.23 2.23 0 0 0 3.63 1.76l28.21-21.73a2.25 2.25 0 0 0 .07-3.5l-28.23-23.77a2.24 2.24 0 0 0-3.68 1.71z" fill="url(#linear-gradient-20)"/>
        <path d="M187.27 39.22H272c.16.29-28.13 24.15-42.15 36z" fill="url(#linear-gradient-21)"/>
        <path d="M223.4 74.34c1.65 1.16 2.3 2.27 3.62 3.15a5.09 5.09 0 0 0 5.59 0c1.32-.86 3-2 4.61-3.17l35.16 27.16H187.2c12.16-9.36 24.73-18.29 36.2-27.14z" fill="url(#linear-gradient-22)"/>
        <path d="M275.5 100.19L239 71.86l36.5-30.66z" fill="url(#linear-gradient-23)"/>
        <path d="M184.67 41.37l36.16 30.49-36.16 27.86z" fill="url(#linear-gradient-24)"/>
        <path id="hand_gear" d="M317.4 433.59l-5.9-2.59a36.49 36.49 0 0 0 1.06-7.22l6.38-.75a2.07 2.07 0 0 0 1.82-2.3l-.88-7.43a2.07 2.07 0 0 0-2.3-1.82l-6.38.75a36.72 36.72 0 0 0-2.7-6.78l5.16-3.84a2.08 2.08 0 0 0 .42-2.9l-4.47-6a2.08 2.08 0 0 0-2.9-.43l-5.16 3.84a35.76 35.76 0 0 0-5.73-4.52l2.55-5.9a2.07 2.07 0 0 0-1.09-2.73l-6.87-3a2.07 2.07 0 0 0-2.72 1.08l-2.55 5.95a35.07 35.07 0 0 0-7.22-1.06l-.75-6.38a2.07 2.07 0 0 0-2.3-1.82l-7.43.87a2.08 2.08 0 0 0-1.82 2.3l.75 6.39a36.87 36.87 0 0 0-6.26 2.43l-3.76-5.22a2.08 2.08 0 0 0-2.89-.47l-6.07 4.38a2.07 2.07 0 0 0-.47 2.89l3.75 5.22a36 36 0 0 0-4.93 6.14l-5.9-2.54a2.08 2.08 0 0 0-2.73 1.08l-3 6.88a2.07 2.07 0 0 0 1.08 2.72l5.91 2.54a36 36 0 0 0-1.06 7.23l-6.38.74a2.08 2.08 0 0 0-1.82 2.3l.87 7.44a2.08 2.08 0 0 0 2.3 1.81l6.39-.75a36.12 36.12 0 0 0 2.7 6.79l-5.1 3.88a2.06 2.06 0 0 0-.42 2.9l4.47 6a2.06 2.06 0 0 0 2.9.42l5.15-3.84a36.27 36.27 0 0 0 5.73 4.53l-2.54 5.9a2.07 2.07 0 0 0 1.08 2.72l6.88 3a2.07 2.07 0 0 0 2.75-1.12l2.54-5.9a36.69 36.69 0 0 0 7.23 1.06l.74 6.38a2.08 2.08 0 0 0 2.3 1.81l7.44-.87a2.06 2.06 0 0 0 1.81-2.3l-.74-6.38a36.81 36.81 0 0 0 6.25-2.44l3.77 5.22a2.07 2.07 0 0 0 2.89.47l6.07-4.37a2.08 2.08 0 0 0 .47-2.9l-3.77-5.21a36.19 36.19 0 0 0 4.94-6.15l5.9 2.55a2.07 2.07 0 0 0 2.72-1.09l3-6.87a2.07 2.07 0 0 0-1.16-2.72z" fill="url(#linear-gradient-25)"/>
        <g id="center_gear">
          <path d="M537.35 259.42h-12a66.44 66.44 0 0 0-3.52-13.16l10.39-6a3.87 3.87 0 0 0 1.41-5.29l-7-12.1a3.87 3.87 0 0 0-5.29-1.41l-10.39 6a67.57 67.57 0 0 0-9.64-9.64l6-10.39a3.87 3.87 0 0 0-1.41-5.29l-12.1-7a3.87 3.87 0 0 0-5.29 1.41l-6 10.39a66.44 66.44 0 0 0-13.16-3.52v-12a3.87 3.87 0 0 0-3.87-3.87h-14a3.87 3.87 0 0 0-3.87 3.87v12a66.72 66.72 0 0 0-13.12 3.58l-6-10.39a3.87 3.87 0 0 0-5.29-1.41l-12.1 7a3.88 3.88 0 0 0-1.42 5.29l6 10.39a68.12 68.12 0 0 0-8.93 8.8l-10.3-6.17a3.87 3.87 0 0 0-5.31 1.33l-7.18 12a3.87 3.87 0 0 0 1.33 5.31l10.3 6.16a67.28 67.28 0 0 0-3.93 14.18h-12a3.87 3.87 0 0 0-3.87 3.87v14a3.87 3.87 0 0 0 3.87 3.87h12a67.43 67.43 0 0 0 3.53 13.17l-10.39 6a3.88 3.88 0 0 0-1.42 5.29l7 12.1a3.87 3.87 0 0 0 5.29 1.42l10.39-6a68.48 68.48 0 0 0 9.63 9.63l-6 10.39a3.87 3.87 0 0 0 1.42 5.29l12.1 7a3.88 3.88 0 0 0 5.29-1.52l6-10.39a67.43 67.43 0 0 0 13.17 3.53v12a3.87 3.87 0 0 0 3.87 3.87h14a3.87 3.87 0 0 0 3.87-3.87v-12a67.15 67.15 0 0 0 13.16-3.53l6 10.39a3.88 3.88 0 0 0 5.29 1.42l12.1-7a3.87 3.87 0 0 0 1.41-5.29l-6-10.39a67.51 67.51 0 0 0 8.93-8.8l10.31 6.17a3.86 3.86 0 0 0 5.3-1.33l7.19-12a3.87 3.87 0 0 0-1.34-5.3l-10.29-6.17a66.67 66.67 0 0 0 3.92-14.18h12a3.87 3.87 0 0 0 3.87-3.87v-14a3.87 3.87 0 0 0-3.91-3.84z" fill="url(#linear-gradient-26)"/>
          <path d="M506.29 261.92h-7.1a39.72 39.72 0 0 0-2.08-7.79l6.15-3.55a2.29 2.29 0 0 0 .83-3.13l-4.09-7.16a2.3 2.3 0 0 0-3.13-.84l-6.19 3.55a41.49 41.49 0 0 0-5.7-5.7l3.55-6.15a2.29 2.29 0 0 0-.84-3.13l-7.16-4.13a2.29 2.29 0 0 0-3.13.84l-3.55 6.14a39.54 39.54 0 0 0-7.79-2.08v-7.1a2.28 2.28 0 0 0-2.29-2.29h-8.27a2.29 2.29 0 0 0-2.29 2.29v7.1a39.91 39.91 0 0 0-7.79 2.08l-3.55-6.14a2.28 2.28 0 0 0-3.12-.84l-7.16 4.11a2.28 2.28 0 0 0-.84 3.13l3.55 6.15a40.69 40.69 0 0 0-5.29 5.21l-6.09-3.65a2.3 2.3 0 0 0-3.15.79l-4.24 7.09a2.29 2.29 0 0 0 .78 3.14l6.09 3.65a39.88 39.88 0 0 0-2.32 8.39H413a2.29 2.29 0 0 0-2.29 2.29v8.27a2.3 2.3 0 0 0 2.29 2.29h7.1a39.74 39.74 0 0 0 2.09 7.79l-6.19 3.57a2.3 2.3 0 0 0-.84 3.13l4.14 7.16a2.29 2.29 0 0 0 3.13.83l6.15-3.55a40 40 0 0 0 5.7 5.71l-3.55 6.15a2.27 2.27 0 0 0 .84 3.12l7.16 4.14a2.28 2.28 0 0 0 3.12-.84l3.55-6.15a39.93 39.93 0 0 0 7.79 2.09v7.1a2.3 2.3 0 0 0 2.29 2.29h8.27a2.29 2.29 0 0 0 2.29-2.29v-7.1a39.56 39.56 0 0 0 7.79-2.09l3.57 6.19a2.29 2.29 0 0 0 3.13.84l7.16-4.14a2.28 2.28 0 0 0 .84-3.12l-3.53-6.19a40.61 40.61 0 0 0 5.28-5.21l6.1 3.65a2.28 2.28 0 0 0 3.14-.79l4.25-7.09a2.28 2.28 0 0 0-.79-3.14l-6.09-3.65a40 40 0 0 0 2.32-8.39h7.1a2.29 2.29 0 0 0 2.29-2.29v-8.27a2.28 2.28 0 0 0-2.31-2.29z" fill="url(#linear-gradient-27)"/>
        </g>
        <path d="M429.14 358.1l-6.76-1.53a60.1 60.1 0 0 0 .68-9.06 61.28 61.28 0 0 0-.34-6.39l6.6-1.18a3 3 0 0 0 2.42-3.48l-.43-2.42a3 3 0 0 0-3.49-2.43l-6.59 1.19a59.07 59.07 0 0 0-5.23-13.48l5.87-3.69a2.76 2.76 0 0 0 .86-3.8l-1.58-2.51a2.76 2.76 0 0 0-3.79-.86l-5.88 3.7A59.87 59.87 0 0 0 400.82 301l4.36-6.26a2 2 0 0 0-.5-2.81l-3.68-2.56a2 2 0 0 0-2.8.5l-4.35 6.25a59.74 59.74 0 0 0-13.26-5.87l1.68-7.38a2 2 0 0 0-1.52-2.42l-4.33-1A2 2 0 0 0 374 281l-1.68 7.38a59.83 59.83 0 0 0-9.13-.69 61.28 61.28 0 0 0-6.39.34l-1.3-7.26A2.2 2.2 0 0 0 353 279l-4 .72a2.2 2.2 0 0 0-1.78 2.56l1.3 7.25a59.26 59.26 0 0 0-13.52 5.23l-4-6.4a2 2 0 0 0-2.78-.63l-3.76 2.37a2 2 0 0 0-.63 2.78l4 6.41A60.76 60.76 0 0 0 316.61 310l-5.61-3.92a2.74 2.74 0 0 0-3.82.68l-1.7 2.44a2.75 2.75 0 0 0 .69 3.83l5.66 3.93a59.5 59.5 0 0 0-5.84 13.24l-6.75-1.52a2.75 2.75 0 0 0-3.29 2.06l-.66 2.9a2.75 2.75 0 0 0 2.07 3.29l6.76 1.53a60 60 0 0 0-.68 9.05 61.28 61.28 0 0 0 .34 6.39l-6.59 1.19a3 3 0 0 0-2.43 3.48l.44 2.42a3 3 0 0 0 3.48 2.42l6.59-1.18a59.72 59.72 0 0 0 5.22 13.48l-5.86 3.69a2.75 2.75 0 0 0-.87 3.79l1.59 2.51a2.73 2.73 0 0 0 3.78.86l5.88-3.69a60.49 60.49 0 0 0 10.67 11.19l-4.36 6.26a2 2 0 0 0 .5 2.81l3.65 2.53a2 2 0 0 0 2.8-.5l4.36-6.25a60 60 0 0 0 13.26 5.87l-1.69 7.38a2 2 0 0 0 1.52 2.41l4.34 1a2 2 0 0 0 2.4-1.51l1.69-7.38a60.45 60.45 0 0 0 15.51.35l1.3 7.26a2.2 2.2 0 0 0 2.56 1.77l4-.72a2.19 2.19 0 0 0 1.77-2.55l-1.3-7.25a59.36 59.36 0 0 0 13.54-5.26l4 6.4a2 2 0 0 0 2.77.64l3.76-2.37a2 2 0 0 0 .63-2.78l-4-6.42A60.09 60.09 0 0 0 409.84 385l5.66 4a2.75 2.75 0 0 0 3.83-.68l1.69-2.44a2.75 2.75 0 0 0-.68-3.83l-5.67-3.93a58.92 58.92 0 0 0 5.84-13.25l6.76 1.53a2.73 2.73 0 0 0 3.28-2.07l.66-2.89a2.75 2.75 0 0 0-2.07-3.34zm-25.5-6.49a12.1 12.1 0 0 1-13.44-9.56c-.74-3.46 4.69-10.63 9.32-12a39.79 39.79 0 0 1 4.12 21.56zm-45.86 18.89c-1.27-1.67-1.14-4.73-1-7.11.32-4.47-1.53-7.37-5.41-9.24-1.39-.66-2.7-1.52-4.13-2.08-9.5-3.68-15-11.42-19.94-19.7a4.4 4.4 0 0 1 .12-3.68 40.8 40.8 0 0 1 17.11-17c1.43-.75 3.84-.46 5.46.19 4.66 1.85 4.74 1.94 6.78-2.58a3.75 3.75 0 0 1 1.7-1.87c4.43-1.8 5.76 2.44 8.15 4.46 1.79 1.5 2.47 3.48.54 5.6s-3.64 4-2.19 7.26c.23.52-1.92 2.76-3.3 3.22-4 1.34-4.9 2.85-3.13 6.74a9.6 9.6 0 0 1 1 2.09 30 30 0 0 1 .21 3.81 14.11 14.11 0 0 1-3.75-.76c-3.08-1.6-8.64-1.29-11 1.19-.59.62-.55 2.5-.05 3.34a5.2 5.2 0 0 0 3.07 1.88c4.37 1 8.48 2.23 11 6.56.48.83 2.44 1 3.73 1.11a69.52 69.52 0 0 0 8.78 0c5.27-.38 8.49 2.57 10.56 6.75 1.84 3.72-.67 6.47-2.77 9.52-2.3 3.33-3.77 7.29-5.23 11.12-2.45 6.46-2.84 6.84-10.9 6.45.95-6.77-1.54-12.15-5.41-17.27z" fill="url(#linear-gradient-28)" id="map_gear"/>
        <path d="M584.48 177.3H578a33.18 33.18 0 0 0-6.47-15.63l4.56-4.57a2.5 2.5 0 0 0 0-3.56l-2.78-2.79a2.52 2.52 0 0 0-3.56 0l-4.57 4.57a33 33 0 0 0-15.64-6.47v-6.47a2.51 2.51 0 0 0-2.52-2.51h-3.92a2.51 2.51 0 0 0-2.51 2.51v6.47a33 33 0 0 0-15.59 6.47l-4.57-4.57a2.52 2.52 0 0 0-3.56 0l-2.87 2.79a2.5 2.5 0 0 0 0 3.56l4.56 4.57a33.18 33.18 0 0 0-6.47 15.63h-6.46a2.52 2.52 0 0 0-2.52 2.52v3.94a2.52 2.52 0 0 0 2.52 2.52h6.46a33.14 33.14 0 0 0 6.47 15.63l-4.56 4.57a2.5 2.5 0 0 0 0 3.56l2.78 2.79a2.52 2.52 0 0 0 3.56 0l4.57-4.57a33.09 33.09 0 0 0 15.64 6.48v6.46a2.51 2.51 0 0 0 2.51 2.52H547a2.52 2.52 0 0 0 2.52-2.52v-6.46a33.13 33.13 0 0 0 15.64-6.48l4.57 4.57a2.52 2.52 0 0 0 3.56 0l2.78-2.79a2.5 2.5 0 0 0 0-3.56l-4.56-4.57a33.14 33.14 0 0 0 6.49-15.63h6.46a2.52 2.52 0 0 0 2.52-2.52v-3.94a2.52 2.52 0 0 0-2.5-2.52z" fill="url(#linear-gradient-29)" id="small_gear"/>
        <g id="top_gear">
          <path d="M485.3 124.68l-5.7-.7a62 62 0 0 0-.23-9.42 64.21 64.21 0 0 0-1-6.57l5.42-1.55a2.91 2.91 0 0 0 2-3.6l-.74-2.58a2.91 2.91 0 0 0-3.6-2L476 99.79a61.54 61.54 0 0 0-6.8-13.39l4.54-3.53a2.78 2.78 0 0 0 .48-3.89l-1.84-2.35a2.76 2.76 0 0 0-3.88-.48l-4.5 3.54a61.67 61.67 0 0 0-12.18-10.45l3.14-5.65a2 2 0 0 0-.78-2.76l-3.91-2.17a2 2 0 0 0-2.76.79l-3.13 5.63A61.16 61.16 0 0 0 430 60.39l.79-6.36a2 2 0 0 0-1.76-2.26l-4.44-.55a2 2 0 0 0-2.23 1.78l-.79 6.34a62.23 62.23 0 0 0-16.06 1.25l-1.73-6a2.14 2.14 0 0 0-2.64-1.47l-4.09 1.17a2.14 2.14 0 0 0-1.47 2.64l1.72 6a61.24 61.24 0 0 0-13.45 6.84l-3.93-5a2 2 0 0 0-2.85-.36l-3.53 2.75a2 2 0 0 0-.35 2.85l3.95 4.99a61.29 61.29 0 0 0-10.45 12.22l-5-2.77a2.77 2.77 0 0 0-3.76 1.07l-1.46 2.61a2.78 2.78 0 0 0 1.08 3.77l5 2.77a60.91 60.91 0 0 0-4.65 14.3l-5.71-.7a2.75 2.75 0 0 0-3.08 2.4l-.37 3a2.77 2.77 0 0 0 2.4 3.09l5.71.7a62 62 0 0 0 .23 9.42 59.13 59.13 0 0 0 1 6.57l-5.4 1.55a2.9 2.9 0 0 0-2 3.6l.73 2.58a2.92 2.92 0 0 0 3.6 2l5.41-1.54a61.1 61.1 0 0 0 6.8 13.39l-4.54 3.53a2.77 2.77 0 0 0-.48 3.89l1.83 2.35a2.76 2.76 0 0 0 3.88.48l4.55-3.54a61.73 61.73 0 0 0 12.19 10.45l-3.15 5.65a2 2 0 0 0 .79 2.76l3.91 2.17a2 2 0 0 0 2.8-.77l3.14-5.63a61.16 61.16 0 0 0 14.27 4.63l-.79 6.36a2 2 0 0 0 1.76 2.26l4.44.55a2 2 0 0 0 2.26-1.77l.79-6.34a62.23 62.23 0 0 0 16.06-1.25l1.72 6a2.15 2.15 0 0 0 2.64 1.47l4.1-1.17a2.14 2.14 0 0 0 1.47-2.64l-1.72-6a61 61 0 0 0 13.44-6.84l3.94 5a2 2 0 0 0 2.84.36l3.53-2.75a2 2 0 0 0 .36-2.85l-3.95-5.06a62 62 0 0 0 10.45-12.22l5 2.77a2.77 2.77 0 0 0 3.76-1.07l1.45-2.61a2.76 2.76 0 0 0-1.07-3.77l-5-2.77a60.94 60.94 0 0 0 4.66-14.3l5.71.7a2.76 2.76 0 0 0 3.08-2.4l.37-3a2.77 2.77 0 0 0-2.41-2.98z" fill="url(#linear-gradient-30)"/>
          <path d="M452.29 114.84l-5.21.18a29.08 29.08 0 0 0-1.72-5.67l4.42-2.75a1.69 1.69 0 0 0 .54-2.32l-3.21-5.15a1.68 1.68 0 0 0-2.31-.54l-4.43 2.76a29 29 0 0 0-4.32-4l2.45-4.61a1.68 1.68 0 0 0-.69-2.27l-5.36-2.86a1.68 1.68 0 0 0-2.27.7l-2.46 4.59a28.91 28.91 0 0 0-5.72-1.37l-.18-5.21a1.68 1.68 0 0 0-1.73-1.63l-6.09.21a1.66 1.66 0 0 0-1.62 1.73l.17 5.21a30 30 0 0 0-5.67 1.72l-2.75-4.42a1.69 1.69 0 0 0-2.32-.54l-5.15 3.21a1.69 1.69 0 0 0-.54 2.32l2.76 4.42a29.89 29.89 0 0 0-3.75 4l-4.58-2.55a1.69 1.69 0 0 0-2.29.65l-2.94 5.31a1.68 1.68 0 0 0 .66 2.29l4.55 2.52A29.4 29.4 0 0 0 389 117l-5.21.17a1.67 1.67 0 0 0-1.62 1.74l.2 6.06a1.69 1.69 0 0 0 1.74 1.63l5.21-.18a28.41 28.41 0 0 0 1.72 5.67l-4.43 2.75a1.69 1.69 0 0 0-.53 2.32l3.21 5.15a1.67 1.67 0 0 0 2.31.54l4.43-2.76a29.57 29.57 0 0 0 4.32 4.05l-2.45 4.6a1.68 1.68 0 0 0 .69 2.27l5.36 2.86a1.69 1.69 0 0 0 2.27-.7l2.45-4.59a29.9 29.9 0 0 0 5.77 1.34l.17 5.2a1.69 1.69 0 0 0 1.74 1.63l6.07-.21a1.67 1.67 0 0 0 1.62-1.73l-.17-5.21a29.69 29.69 0 0 0 5.66-1.72l2.76 4.42a1.67 1.67 0 0 0 2.31.54l5.15-3.21a1.69 1.69 0 0 0 .54-2.32l-2.75-4.42a29.89 29.89 0 0 0 3.75-4l4.56 2.53a1.68 1.68 0 0 0 2.28-.65l2.95-5.31a1.69 1.69 0 0 0-.66-2.29l-4.56-2.52a28.82 28.82 0 0 0 1.5-6.22l5.21-.17a1.68 1.68 0 0 0 1.62-1.74l-.2-6.06a1.69 1.69 0 0 0-1.7-1.62z" fill="url(#linear-gradient-31)"/>
        </g>
        <path d="M549.06 0h62.38v116.42h-84c-.33-1.19-1.15-2.77-1.16-4.35q-.12-43.42 0-86.85c0-1.58 1-3.16 1.49-4.74H548c0-7.86 1.06-13.33 1.06-20.48z" fill="url(#linear-gradient-32)"/>
        <path d="M549.06 0v18.2a3.9 3.9 0 0 1-4 3.89c-3.14-.07-4.3-.23-18.3-.23C533.89 15 542 6.83 549.06 0z" fill="url(#linear-gradient-33)"/>
        <path class="cls-20" d="M566.53 37.42v-.72a12.2 12.2 0 0 0-12.2-12.2h-.71v12.92z"/>
        <path class="cls-50" d="M568.23 41H550.4V22.72c-11 1.38-15.41 7.78-15.73 15a17.23 17.23 0 0 0-.17 2.28 16.9 16.9 0 0 0 21.81 16.16c6.63-1.51 10.93-6.69 12.12-15.16z"/>
        <path class="cls-19" d="M566.53 81.24v-.71a12.2 12.2 0 0 0-12.2-12.2h-.71v12.91z"/>
        <path class="cls-50" d="M568.23 84.82H550.4V66.55c-11 1.38-15.41 7.78-15.73 15a17.23 17.23 0 0 0-.17 2.28A16.9 16.9 0 0 0 556.31 100c6.63-1.52 10.93-6.69 12.12-15.17z"/>
        <path class="cls-51" d="M574.85 30.35h28.99M574.85 38.83h28.99M574.85 47.31h28.99M574.85 72.76h28.99M574.85 81.24h28.99M574.85 89.73h28.99"/>
        <path d="M68.63 189.51H69v26.29h-.39a8.7 8.7 0 0 1-8.7-8.7v-8.9a8.7 8.7 0 0 1 8.7-8.7z" transform="rotate(90 64.475 202.655)" fill="url(#linear-gradient-34)"/>
        <path id="cloud" d="M78.74 50.82v-.14c0-3.15-3.62-5.78-8.45-6.41-1.85-2.66-5.94-4.52-10.67-4.52s-8.7 1.8-10.59 4.39c-6.39.28-11.45 3.83-11.45 8.18 0 2.5 1.67 4.73 4.3 6.23a4.88 4.88 0 0 0-.41 2c0 3.52 3.82 6.38 8.54 6.38a11 11 0 0 0 4-.73 20.6 20.6 0 0 0 10.4 2.55c5 0 9.39-1.46 12-3.67h.65c4.93 0 8.93-3.23 8.93-7.2-.06-3.5-3.15-6.41-7.25-7.06z" fill="url(#linear-gradient-35)"/>
        <path id="arrow" class="cls-50" d="M73.26 86.08L62.18 75.77a.58.58 0 0 0-.77 0L50.26 86.4a.45.45 0 0 0 .36.77l3.73.13a.5.5 0 0 1 .5.45l-.37 24.35a.5.5 0 0 0 .53.46l13.19-.19a.51.51 0 0 0 .52-.47l.37-24.35a.49.49 0 0 1 .49-.47l3.33-.22a.46.46 0 0 0 .35-.78z"/>
        <path d="M336.69 201.82c-4.13-20.35-21.73-34.92-45.43-30.12l5.38 24.43c.29 0 .57-.06.87-.07a15.43 15.43 0 0 1 15.77 15.06c0 1.9.82 2.63.23 4.33 5.51 2.71 6.82 5.58 19.36 11.86l.15.11a38.39 38.39 0 0 0 3.67-25.6z" fill="url(#linear-gradient-36)"/>
        <path class="cls-19" d="M297.58 226.51a15.4 15.4 0 0 1-3.28-.36l.12 20.52c5.65 0 14.18-1.44 19.57-4.18 6.72-3.87 10.42-6.73 13.85-12.91 0 0-9.57-6.21-17.08-10.51a15.42 15.42 0 0 1-13.18 7.44z"/>
        <path class="cls-20" d="M291.89 198.28l-5.05-20.84c-14.58 1.71-23.39 11.62-25.59 22.52h.15c9.92 5.44 12.9 7.08 18.71 10.21.82-6.37 5.58-10.45 11.78-11.89z"/>
        <circle cx="61.76" cy="131.33" r="3.93" fill="url(#linear-gradient-37)"/>
        <path class="cls-5" d="M617.75 307.5c4.74.06 39.41.1 44.45.1.57 0 .87-1.38 1.16-1.83 0-1.13 1.37-85.1 1.34-85.36-.46 0-.77-.1-1.07-.1-10.59-.15-41.71-.48-44.49-.52-.16.57-1.22 57.73-1.58 85.74a18.69 18.69 0 0 0 .19 1.97z"/>
        <circle cx="641.73" cy="265.9" r="12.45" fill="url(#linear-gradient-38)"/>
        <path d="M637.65 272l-.51 1.77z" fill="#806d62"/>
        <path d="M635.81 218.68l-.2.6z" fill="#cfb699"/>
        <path class="cls-5" d="M662 212.33q-17.26-.26-34.55-.45c-.46 0-.92.08-1.38.12-1.47-.05-2.94-.16-4.41-.15-3.64 0-5.77 2.09-5.84 5.77-.17 8.61-.28 17.21-.41 25.82.73 5.71 1.26 11.43.32 17.18a28 28 0 0 0-.53 4.16q-.37 25-.65 49.94c0 3.35 2.16 5.51 5.53 5.58 5.21.1 10.42.15 15.64.2a16.89 16.89 0 0 0 1.9-.19c-.34-1.81-.68-3.4-.93-5-.41-2.51-1.44-4.95-.87-7.58l-18.11-.23a18.69 18.69 0 0 1-.19-2q.54-42 1.1-84l.48-1.7 8.34.1h1.97l.44.35a13.19 13.19 0 0 1 2.05-.31q15.89.18 31.77.41c.3 0 .61.06 1.07.1a10.4 10.4 0 0 1 .21 1.53q-.43 34.8-.91 69.6c0 .24 0 .47-.06.7s.16.37.23.55l1.11 1.82c1.53-1.25 1.36-3.15 1.85-4.8 0-.38 0-.75-.08-1.13-1.21-3.39-.62-6.74.17-10.1v-3.44c-2.11-3.31-1.82-6.59-.44-10.16.78-2 .72-4.4.78-6.62.08-3.16-.08-6.33-.1-9.5a3.08 3.08 0 0 1 .42-1.05l-.27-1.26.17-.56v-17.41c0-3.49.14-7 0-10.48-.07-3.91-2-5.75-5.82-5.81z"/>
        <path class="cls-59" d="M665.28 294.61c1.53-1.25 1.52-4.78 2-6.43a20.31 20.31 0 0 0 3.44.47c1.12 0 4.94-3.92 5.12-5.42 1.06-.1.79 5.78 1 6.54 1.4 4.19-3.71 9-6.23 12.2-1.27.7-2.51.41-3.79.16-2.31-2-2.67-4.51-1.6-7.29a.87.87 0 0 0 .06-.23z"/>
        <path class="cls-59" d="M667.05 288.68c-1.21-3.39-.62-6.74.17-10.1.46-.53 1.18-2.44 1.63-3 2.27.47 3 .29 4.21-1.34 2-2.77 3.27-5.39 5.15-8.22a20.34 20.34 0 0 1 1.73 3.2c1.26 5.21.64 9.91-3.43 13.9-1.21 1.19-1.81 3-2.69 4.51-2.24 2.3-2.67 2.37-5.86 1.07a3 3 0 0 0-.91-.02z"/>
        <path class="cls-5" d="M615.86 217.62c-.17 8.61-.28 17.21-.41 25.82.73 5.71 1.26 11.43.32 17.18a28 28 0 0 0-.53 4.16q-.37 25-.65 49.94c0 3.35 2.16 5.51 5.53 5.58l3.36.05q6.13.09 12.28.15a16.89 16.89 0 0 0 1.9-.19v-.1c7.11-.13 17.13-.36 20-.37H661c3.37 0 5.5-2.71 5.5-6.06v-5.12c.11-2.17 0-12.94 0-16 .27-.92.34-1.93.62-2.86 0-.38 0-.75-.08-1.13a12.3 12.3 0 0 1-.55-2.23v-4.05a37.2 37.2 0 0 1 .73-3.82v-3.44a11.11 11.11 0 0 1-.76-1.44v-7.77c.11-.32.22-.63.34-.95.78-2 .72-4.4.78-6.62.08-3.16-.08-6.33-.1-9.5 0-.35.5-27.28.39-30.77-.12-3.86-2-5.7-5.83-5.76-10.81-.16-35.58-.45-39.79-.48l-3.65.68c-1.72.9-2.69 2.64-2.74 5.1zm47.77 2.69c.3 0 .61.06 1.07.1 0 .26-1.32 84.23-1.34 85.36-.29.45-.59 1.82-1.16 1.83-5 0-39.71 0-44.45-.1a18.69 18.69 0 0 1-.19-2c.36-28 1.42-85.17 1.58-85.74 2.78.07 33.86.4 44.49.55z"/>
        <path d="M615.86 217.62c-.17 8.61-.28 17.21-.41 25.82.73 5.71 1.26 11.43.32 17.18a28 28 0 0 0-.53 4.16q-.37 25-.65 49.94c0 3.35 2.16 5.51 5.53 5.58l3.36.05q6.13.09 12.28.15a16.89 16.89 0 0 0 1.9-.19v-.1c7.11-.13 17.13-.36 20-.37H661c3.37 0 5.5-2.71 5.5-6.06v-5.12c.11-2.17 0-12.94 0-16 .27-.92.34-1.93.62-2.86 0-.38 0-.75-.08-1.13a12.3 12.3 0 0 1-.55-2.23v-4.05a37.2 37.2 0 0 1 .73-3.82v-3.44a11.11 11.11 0 0 1-.76-1.44v-7.77c.11-.32.22-.63.34-.95.78-2 .72-4.4.78-6.62.08-3.16-.08-6.33-.1-9.5 0-.35.5-27.28.39-30.77-.12-3.86-2-5.7-5.83-5.76-10.81-.16-35.58-.45-39.79-.48l-3.65.68c-1.72.9-2.69 2.64-2.74 5.1zm47.77 2.69c.3 0 .61.06 1.07.1 0 .26-1.32 84.23-1.34 85.36-.29.45-.59 1.82-1.16 1.83-5 0-39.71 0-44.45-.1a18.69 18.69 0 0 1-.19-2c.36-28 1.42-85.17 1.58-85.74 2.78.07 33.86.4 44.49.55z" fill="url(#linear-gradient-39)"/>
        <path class="cls-59" d="M639.3 328.28c-.71.66-1.25 1.18-1.82 1.67-2.53 2.16-5.06 4.33-7.6 6.48-1 .88-2.2 1.63-3.14 2.6a2.36 2.36 0 0 0-.54 1.85c.54 2.41-20.06-16.83-21.53-18-3.39-2.81-6.84-5.56-10.22-8.38a17.44 17.44 0 0 1-1.83-2.09 25.77 25.77 0 0 0 3.5-14c-.25-6.39 1.06-12.64 2.19-18.89.78-4.25 1.47-8.53 2.4-12.75a20.23 20.23 0 0 1 2.15-5.83 37.19 37.19 0 0 0 4.67-15.42c.1-.92.37-1.82.48-2.74.25-2.13.35-2.14 2.41-2.18 2.31 0 3.59 1.54 5 2.91.73 5.71 1.26 11.43.32 17.18a28 28 0 0 0-.53 4.16q-.37 25-.65 49.94c0 3.35 2.16 5.51 5.53 5.58 5.21.1 10.42.15 15.64.2a16.89 16.89 0 0 0 1.9-.19"/>
        <g id="arm">
          <path d="M816.73 397.71l.75-1.91z" fill="#898a8b"/>
          <path d="M764.05 462.61s-31.57-71.95-31.94-72.68c-4.38-8.85-16.25-29.89-22.42-36.29l-40.25 12.89c.8 4.81 1.28 11 2.15 17.61 4.62 35.52 4.62 81.77 4.62 81.77z" fill="url(#linear-gradient-40)"/>
          <path class="cls-59" d="M708.45 316.62c-2-3.51-4.5-4.2-8.39-2.64a2.21 2.21 0 0 1-2.74-.56c-.51-.58-1-1.18-1.48-1.8-1.9-2.45-5.87-3.52-8.34-1.88-1.79 1.19-3.06 1-4.45-.41-.48-.49-1.12-.84-1.64-1.29-3.6-3.09-6.67-3.31-10.09-.73a6 6 0 0 1-4.77 1.34 3.35 3.35 0 0 1-2.46-2.16 4.85 4.85 0 0 0-1.08-1.61.47.47 0 0 1-.09-.12 115.87 115.87 0 0 1-7.35-16.64c-.89-2.45-2-4.83-2.85-7.27-.26-.7-.9-3.54-1.19-4.18-1.26-.6-.79-1.78-.95-2.76l-.85-1.93-.92-2.81c-1-1.83-1.77-3.75-2.9-5.47a5.18 5.18 0 0 0-7.27-2 3 3 0 0 0-1.9 2.92c0 1.69.16 3.38.26 5.07 0 .85.11 1.7.16 2.55l1.2 3.29c.17.78.35 1.56.52 2.34.3.93.59 1.86.89 2.8l.45 1.89c.91 3.09 1.78 6.2 2.75 9.28.87 2.78 1.91 5.52 2.77 8.31.77 2.48 1.4 5 2.1 7.51.64 2.68 1.3 5.35 1.91 8a5.72 5.72 0 0 1 0 2.44 41.22 41.22 0 0 0-4.75-10.26 22.86 22.86 0 0 0-3.91-2.75 3.66 3.66 0 0 0-4.62 1.64c-.19.34-.41.67-.62 1-.57 2.63.46 5.07.87 7.58.25 1.6.59 3.19.93 5l1.64 8 .24.51c.44-3.18-.71-6.06-1.87-8.94 1.16 2.88 2.31 5.76 1.87 8.94a5.62 5.62 0 0 1 .47 1.12c.78 3.15 1.46 6.32 2.3 9.45 1.51 5.61 2.87 11.28 7.15 15.66 2.21 2.27 4.11 4.85 6.3 7.14 2.63 2.75 5.41 5.36 8.14 8 2.28 2.21 4.6 4.39 6.9 6.59.71.68 21.79-5.26 21.59-5.79 2.23-.84 4.38-1.64 6.51-2.47 4.44-1.74 8.87-3.51 13.31-5.25a5.34 5.34 0 0 1 .9-.2 29.9 29.9 0 0 1 0-14.26 21.48 21.48 0 0 0 .49-6.46c-.19-3.78-.83-7.54-1-11.32a32.68 32.68 0 0 0-4.14-14.41z"/>
        </g>
        <path class="cls-59" d="M667.24 275.14c-2.11-3.31-1.82-6.59-.44-10.16.78-2 .72-4.4.78-6.62.08-3.16-.08-6.33-.1-9.5a4.51 4.51 0 0 1 0-1.42c2.35 1 5.12 2.39 7.79 1.94a11.43 11.43 0 0 1 2.24 2.14c1.6 2.74 3 5.68 3 8.85 0 1.79-1.14 3.59-1.77 5.39-2 2.82-4 5.65-6 8.47-1.5 2.09-2.59 2.31-4.86 1a2.35 2.35 0 0 0-.64-.09z"/>
      </g>
    </g>
  </g>
</svg>
