<svg xmlns="http://www.w3.org/2000/svg" xmlns:xlink="http://www.w3.org/1999/xlink" viewBox="0 0 493.63 664.95">
  <defs>
    <style>
      .cls-2{fill:#f6f9f8}.cls-3,.cls-31{fill:none;stroke:#1c08a0}.cls-12,.cls-3,.cls-31{stroke-miterlimit:10}.cls-3{stroke-width:2px}.cls-12{fill:#bccbc6;stroke:#cedfd9;opacity:.6}.cls-12,.cls-31{stroke-width:3px}.cls-19{fill:#7d8884}.cls-28{fill:#a62bcd}.cls-29{fill:#5d0cd5}.cls-30{fill:#1c08a0}.cls-32{fill:#ffc42a}.cls-33{fill:#f03;opacity:.73}.cls-34{fill:#f7f7f7}.cls-37{fill:#4534b1}.cls-39{fill:#7bbc66}.arrow1{animation: pulse 3s infinite; animation-direction: alternate;}@keyframes pulse{to {opacity:.1;}}.arrow2{animation: pulse 3s infinite; animation-direction: alternate; animation-delay: 3s;}@keyframes pulse{to {opacity:.5;}}
    </style>
    <linearGradient id="linear-gradient" x1="255.01" y1="622.87" x2="493.63" y2="622.87" gradientUnits="userSpaceOnUse">
      <stop offset="0" stop-color="#bccbc6"/>
      <stop offset=".51" stop-color="#b3c6c1"/>
      <stop offset=".99" stop-color="#a5bfb9"/>
    </linearGradient>
    <linearGradient id="linear-gradient-2" x1="248.98" y1="510.91" x2="395.46" y2="510.91" gradientUnits="userSpaceOnUse">
      <stop offset=".01" stop-color="#f0f0f1"/>
      <stop offset=".27" stop-color="#dfe4e3"/>
      <stop offset=".72" stop-color="#c5d2ce"/>
      <stop offset="1" stop-color="#bccbc6"/>
    </linearGradient>
    <linearGradient id="linear-gradient-3" x1="251.04" y1="516.35" x2="400.86" y2="508.5" gradientUnits="userSpaceOnUse">
      <stop offset=".01" stop-color="#a5bfb9"/>
      <stop offset=".49" stop-color="#b3c6c1"/>
      <stop offset="1" stop-color="#bccbc6"/>
    </linearGradient>
    <linearGradient id="linear-gradient-4" x1="365.22" y1="603.94" x2="438.28" y2="603.94" xlink:href="#linear-gradient"/>
    <linearGradient id="linear-gradient-5" x1="256.35" y1="592.41" x2="493.53" y2="592.41" xlink:href="#linear-gradient-2"/>
    <linearGradient id="linear-gradient-6" x1="272.85" y1="581.05" x2="442.84" y2="581.05" xlink:href="#linear-gradient"/>
    <linearGradient id="linear-gradient-7" x1="231.22" y1="591.53" x2="231.24" y2="591.53" gradientUnits="userSpaceOnUse">
      <stop offset="0" stop-color="#849994"/>
      <stop offset=".49" stop-color="#a5bfb9"/>
      <stop offset=".74" stop-color="#b3c6c1"/>
      <stop offset="1" stop-color="#bccbc6"/>
    </linearGradient>
    <linearGradient id="linear-gradient-8" x1="44.99" y1="594.38" x2="225.54" y2="594.38" xlink:href="#linear-gradient-7"/>
    <linearGradient id="linear-gradient-9" x1="204.3" y1="620.24" x2="227.38" y2="620.24" xlink:href="#linear-gradient-7"/>
    <linearGradient id="linear-gradient-10" x1="41.06" y1="624.92" x2="205.79" y2="624.92" xlink:href="#linear-gradient-2"/>
    <linearGradient id="linear-gradient-11" x1="126.27" y1="347.18" x2="201.82" y2="347.18" gradientUnits="userSpaceOnUse">
      <stop offset=".07" stop-color="#1c08a0"/>
      <stop offset=".2" stop-color="#1c08a0"/>
      <stop offset=".31" stop-color="#5308ab"/>
      <stop offset=".48" stop-color="#570aad"/>
      <stop offset=".64" stop-color="#6312b2"/>
      <stop offset=".8" stop-color="#771ebc"/>
      <stop offset=".97" stop-color="#922fc9"/>
      <stop offset="1" stop-color="#93c"/>
    </linearGradient>
    <linearGradient id="linear-gradient-12" x1="264.06" y1="347.18" x2="339.61" y2="347.18" xlink:href="#linear-gradient-11"/>
    <linearGradient id="linear-gradient-13" x1="232.22" y1="526.53" x2="232.24" y2="526.53" xlink:href="#linear-gradient-7"/>
    <linearGradient id="linear-gradient-14" x1="44.99" y1="529.88" x2="225.54" y2="529.88" xlink:href="#linear-gradient-7"/>
    <linearGradient id="linear-gradient-15" x1="204.3" y1="555.74" x2="227.38" y2="555.74" xlink:href="#linear-gradient-7"/>
    <linearGradient id="linear-gradient-16" x1="41.06" y1="560.42" x2="205.79" y2="560.42" xlink:href="#linear-gradient-2"/>
    <linearGradient id="linear-gradient-17" x1="232.22" y1="460.53" x2="232.24" y2="460.53" xlink:href="#linear-gradient-7"/>
    <linearGradient id="linear-gradient-18" x1="44.99" y1="464.88" x2="225.54" y2="464.88" xlink:href="#linear-gradient-7"/>
    <linearGradient id="linear-gradient-19" x1="204.3" y1="490.74" x2="227.38" y2="490.74" xlink:href="#linear-gradient-7"/>
    <linearGradient id="linear-gradient-20" x1="41.06" y1="495.42" x2="205.79" y2="495.42" xlink:href="#linear-gradient-2"/>
  </defs>
  <g style="isolation:isolate">
    <g id="Layer_2" data-name="Layer 2">
      <g id="cloud">
        <path class="cls-2" d="M356 103.53v-1.29c0-29.48-31.32-54.09-73.06-60C266.91 17.32 231.6 0 190.6 0 150.25 0 115.39 16.77 99 41.07 43.74 43.62 0 76.89 0 117.58c0 23.36 14.43 44.27 37.17 58.33a49.12 49.12 0 0 0-3.58 18.35c0 32.94 33.08 59.65 73.89 59.65a87.94 87.94 0 0 0 34.26-6.81c22.63 14.68 54.58 23.85 90 23.85C275 271 313 257.33 335.28 236.67c1.86.11 3.73.19 5.62.19 42.66 0 77.25-30.13 77.25-67.31 0-32.68-26.73-59.91-62.15-66.02z"/>
        <ellipse class="cls-3" cx="249.63" cy="201.01" rx="34" ry="10.99"/>
        <ellipse class="cls-3" cx="249.63" cy="190.73" rx="34" ry="10.99"/>
        <ellipse class="cls-3" cx="249.63" cy="180.32" rx="13.72" ry="5.2"/>
        <ellipse class="cls-3" cx="249.63" cy="210.27" rx="26.86" ry="8.68"/>
        <ellipse class="cls-3" cx="249.63" cy="186.19" rx="8.73" ry="3.74"/>
        <ellipse class="cls-3" cx="249.63" cy="210.99" rx="13.72" ry="5.2"/>
        <ellipse class="cls-3" cx="249.63" cy="181.1" rx="26.86" ry="8.68"/>
        <ellipse class="cls-3" cx="249.63" cy="205.51" rx="8.73" ry="3.74"/>
        <ellipse class="cls-3" cx="249.63" cy="195.9" rx="6.36" ry="5.89"/>
        <path d="M493.54 581c-1.34-.64-2.41.74-3.4 1.3-2.06 1.18-34.41 19.3-42.45 23.81q-24.33 13.65-48.75 27.18c-8.06 4.49-16.08 9-24.15 13.49l-12.22 6.73-5.54 3c-1.95 1.07-3.78 1.9-6 1.17a35.25 35.25 0 0 1-5.66-3l-6.72-3.68q-6.24-3.45-12.45-6.93c-8.05-4.5-16.13-8.94-24.18-13.44s-16.14-9.09-24.24-13.59c-3.95-2.21-7.93-4.38-11.89-6.57-1.93-1.06-10.07-6.86-10.21-6.22a21.71 21.71 0 0 0-.67 5.18c0 1.53 1.13 2.23 2.44 3.31a11.26 11.26 0 0 0 1.66.94c.91.52 1.63 1.1 2.61 1.57 3.89 1.89 7.66 4.18 11.48 6.28 8.37 4.62 16.68 9.34 25 14 16 8.87 31.63 17.78 47.56 26.69a25.58 25.58 0 0 0 5 2.49c2.12.64 4.18-.06 6.14-1 4.26-2 8.28-4.61 12.37-6.92q12.18-6.87 24.42-13.65 24.93-13.81 49.83-27.69c8-4.48 16-9 24-13.48 4.23-2.36 8.46-4.71 12.66-7.11 3.66-2.1 7.65-3.85 11.21-6.1 2.61-1.64 2.29-7.76 2.15-7.76z" fill="url(#linear-gradient)"/>
        <path d="M255.68 604.87c0-10 .5-101 0-104.74a.83.83 0 0 1 0-.35c.36-1.65 1.8-2.68 3.28-3.53 6-3.46 12.1-6.76 18.17-10.11 5.11-2.82 28.35-15.8 34.89-19.42 5.39-3 10.86-5.84 16.25-8.83 9.81-5.45 19.57-11 29.37-16.44 4.9-2.73 9.85-5.38 14.76-8.1q11-6.08 21.9-12.22c.2-.11.71-.55.8-.61.67-.36.23-1.21-.24-1.78l-1.12-1.35a1.27 1.27 0 0 0-1.57-.29l-142.56 78.09a1.19 1.19 0 0 0-.63 1V602a1.19 1.19 0 0 0 .88 1.14s5.82 1.91 5.82 1.73z" fill="url(#linear-gradient-2)"/>
        <path d="M259 596a13.5 13.5 0 0 1-.68-2.93v-90.18a4.52 4.52 0 0 1 .18-.83l2.34-1.41c.36-1 96.69-53.63 133.31-74a2.57 2.57 0 0 1 .43.22.58.58 0 0 1 .2.27 4.9 4.9 0 0 1 .13 1v93.12c-.91.64-133.32 74.32-134.5 74.78z" fill="#fff"/>
        <path d="M395.52 420a11.55 11.55 0 0 1 .87 3.2c0 34.49.6 69 .6 103.46-.22.21-1.05.43-1.27.64-3.82 2.17-7.62 4.36-11.46 6.49s-7.56 4.07-11.29 6.17c-7.57 4.24-15.08 8.57-22.66 12.8-6.62 3.7-13.31 7.27-19.94 11-8.16 4.54-16.27 9.16-24.42 13.71-5.09 2.84-10.24 5.58-15.32 8.41q-12.09 6.75-24.13 13.57c-2.75 1.56-5.42 3.25-8.13 4.88-.94.21-1.48.38-2.69.65-.1-1 .09-1.77 0-2.59 0-33.64-.67-67.28-.67-100.92-.44-2.63 1.4-4 3.3-5.11 6-3.46 12.1-6.76 18.17-10.11 5.11-2.81 10.25-5.58 15.34-8.42 6.53-3.64 13-7.37 19.55-11 5.39-3 10.86-5.84 16.25-8.83 9.81-5.45 19.57-11 29.37-16.44 4.9-2.73 9.85-5.38 14.76-8.09q11-6.09 21.9-12.23a21.69 21.69 0 0 1 1.87-1.24zm-5.17 103.18v-88.14a5.25 5.25 0 0 0-.12-.95.58.58 0 0 0-.19-.26 4.4 4.4 0 0 0-.41-.21c-34.63 19.3-125.83 69.11-126.17 70.05l-2.22 1.33a5 5 0 0 0-.17.79v85.35c0 .92.13 3.07.13 3.07s0 .61 1.21 0c.32-.16.81-.38 1.13-.55 8.6-4.61 125.98-69.93 126.81-70.51z" fill="url(#linear-gradient-3)"/>
        <path d="M365.22 609.87a14 14 0 0 1 2.24-2.1c3.75-2.07 7.57-4 11.34-6.07 5.49-3 11-6 16.45-9 4.78-2.61 9.54-5.23 14.32-7.83a4.68 4.68 0 0 1 4.69-.1c2.78 1.45 5.62 2.8 8.37 4.28 4.28 2.3 8.53 4.67 12.77 7 .88.49 1.67 1.14 2.88 2a16 16 0 0 1-2.44 2.12c-7.7 4.25-15.45 8.42-23.16 12.65-6.49 3.56-12.95 7.18-19.3 10.7a8.15 8.15 0 0 1-5.75-1.37c-5.2-3-10.57-5.76-15.86-8.63-2.1-1.09-4.16-2.3-6.55-3.65z" fill="url(#linear-gradient-4)"/>
        <path d="M493.52 581l-95.85-54.63a1.25 1.25 0 0 0-1.24 0l-139.66 77.47c-.2.11-.42.28-.42.42A4.94 4.94 0 0 0 257 606a1.09 1.09 0 0 0 .34.4c1.15.77 2.27 1.59 3.48 2.27 5 2.79 10 5.52 15 8.3q7.78 4.34 15.55 8.7c3.93 2.21 7.86 4.43 11.8 6.62q9.22 5.14 18.47 10.26l11.57 6.45 15.9 8.78a5.9 5.9 0 0 0 6 0l5.51-3c5-2.76 10-5.5 15-8.28 5.2-2.88 10.37-5.81 15.55-8.7l14.71-8.2c5-2.8 9.95-5.64 14.95-8.42s10-5.5 15-8.28q7.94-4.41 15.84-8.87l14.42-8c5.18-2.9 10.37-5.78 15.55-8.7l.09-.05 11.69-6.3s.11.02.1.02zm-58.62 19l-42.59 23.29a1.28 1.28 0 0 1-1.23 0l-21.37-12a1.17 1.17 0 0 1 0-2.05l39.53-22.8a1.32 1.32 0 0 1 1.18-.05l24.43 11.51a1.17 1.17 0 0 1 .05 2.1zm6.38-43a1.19 1.19 0 0 1-.64 1l-131 69.77a1.27 1.27 0 0 1-1.21 0l-32.82-18.06a1.2 1.2 0 0 1-.6-.84l-.43-2.5a1.15 1.15 0 0 1 .61-1.23l129.94-71.06a1.27 1.27 0 0 1 1.24 0l34.3 20a1.19 1.19 0 0 1 .6 1z" fill="url(#linear-gradient-5)"/>
        <path d="M274 604.66c43.73-24.38 85.63-47.12 129.59-71.65 1.25.76 8.37 4.59 9.51 5.26 8.93 5.3 15.23 8.21 24.12 13.59 1.5.91 6.7 3.23 5.36 5.82-1 .74-102.65 55.33-107.87 58.23-5.73 3.17-11.43 6.16-17.15 9.35-1.91 1.06-3.83 2.09-5.73 3.17a4.57 4.57 0 0 1-5-.15c-3.41-2-6.85-3.94-10.27-5.93-3.77-2.2-7.52-4.42-11.29-6.63q-4.3-2.52-8.62-5a12.67 12.67 0 0 1-3.32-2.52 2.31 2.31 0 0 1 .67-3.54z" fill="url(#linear-gradient-6)"/>
        <path class="cls-12" d="M308.95 620.66l122.92-67.41M297.46 615.21l122.31-67.41M286.57 609.16l122.31-67.41"/>
        <path d="M222.57 586.55c-.11 0 0-.06.08-.06H106.58l-38.63.09a1.45 1.45 0 0 0-.36 0 12 12 0 0 0-2.63.68c-6.66 3.38-13.28 6.82-19.92 10.24a9.93 9.93 0 0 0 1.51.2q21.41-.09 42.81-.2 43.79-.13 87.56-.22c7.95 0 25 .37 25.06.33 2.13.23 2.13 3.23 2.29 4.59.15-.1.31-1.2.48-1.29 2.93-1.48 6.83-4 9.75-5.48 3.23-1.66 6.47-3.31 9.69-5a9.09 9.09 0 0 0 1.4-1.09 4.77 4.77 0 0 0-3.02-2.79z" fill="url(#linear-gradient-8)"/>
        <path d="M205.22 600.26a1.74 1.74 0 0 0-.89 1.85s.2 2.55.24 3.82c.17 4.87.32 9.74.48 14.6s.34 9.9.48 14.84c.11 4 .18 8.07.26 12.1v1l-1.21 2.64L225 640.57a4 4 0 0 0 2.13-2.71 5.31 5.31 0 0 0 .24-1.2h-.14c-.09-3.13-.85-30.18-1.13-39-.06-2.15-.11-4.3-.22-6.46a13.52 13.52 0 0 0-.35-1.86 9.09 9.09 0 0 1-1.4 1.09c-3.22 1.68-6.46 3.33-9.69 5L205.7 600l-.48.29" fill="url(#linear-gradient-9)"/>
        <path d="M201.93 597.67a5.21 5.21 0 0 1-1.2-.14c-7.95-.07-15.91-.2-23.86-.19q-43.77.07-87.56.22-21.4.08-42.81.2a9.93 9.93 0 0 1-1.51-.2 6.27 6.27 0 0 0-3.61 3.58c0 2.16-.28 43.49-.32 45.76-.05 3 2 4.75 4.84 5.6 6 0 147.69-.33 154.92-.43a14.65 14.65 0 0 0 3.31-.8l.34-.21h.11l1.21-2.64v-1c-.08-4-.15-8.06-.26-12.1-.14-4.94-.32-9.89-.48-14.84s-.31-9.73-.48-14.6c0-1.27-.13-2.55-.24-3.82-.27-3.16-.27-4.16-2.4-4.39z" fill="url(#linear-gradient-10)"/>
        <path id="arrow_left" class="arrow2" d="M201.35 317.87l-36-37.86a1.69 1.69 0 0 0-2.48 0l-36.12 38.89a1.7 1.7 0 0 0 1.18 2.85l12.08.48a1.69 1.69 0 0 1 1.63 1.67l-1.05 89.29a1.71 1.71 0 0 0 1.73 1.68l42.8-.62a1.7 1.7 0 0 0 1.68-1.72l1.05-89.3a1.71 1.71 0 0 1 1.58-1.72l10.83-.78a1.7 1.7 0 0 0 1.09-2.86z" fill="url(#linear-gradient-11)"/>
        <path id="arrow_right" class="arrow1" d="M264.53 376.48l36 37.87a1.7 1.7 0 0 0 2.48 0l36.12-38.88a1.7 1.7 0 0 0-1.18-2.86l-12.08-.47a1.7 1.7 0 0 1-1.63-1.68l1.05-89.29a1.7 1.7 0 0 0-1.73-1.67l-42.8.61a1.71 1.71 0 0 0-1.68 1.72l-1.05 89.3a1.7 1.7 0 0 1-1.58 1.72l-10.83.79a1.7 1.7 0 0 0-1.09 2.84z" fill="url(#linear-gradient-12)"/>
        <path class="cls-19" d="M134.39 587.1l-.35.21z"/>
        <path d="M222.57 522.05c-.11 0 0-.06.08-.06H106.58l-38.63.09a1.45 1.45 0 0 0-.36 0 12 12 0 0 0-2.63.68c-6.66 3.38-13.28 6.82-19.92 10.24a9.93 9.93 0 0 0 1.51.2q21.41-.09 42.81-.2 43.79-.13 87.56-.22c7.95 0 25 .37 25.06.33 2.13.23 2.13 3.23 2.29 4.59.15-.1.31-1.2.48-1.29 2.93-1.48 6.83-4 9.75-5.48 3.23-1.66 6.47-3.31 9.69-5a9.09 9.09 0 0 0 1.4-1.09 4.77 4.77 0 0 0-3.02-2.79z" fill="url(#linear-gradient-14)"/>
        <path d="M205.22 535.76a1.74 1.74 0 0 0-.89 1.85s.2 2.55.24 3.82c.17 4.87.32 9.74.48 14.6s.34 9.9.48 14.84c.11 4 .18 8.07.26 12.1v1l-1.21 2.64L225 576.07a4 4 0 0 0 2.13-2.71 5.31 5.31 0 0 0 .24-1.2h-.14c-.09-3.13-.85-30.18-1.13-39-.06-2.15-.11-4.3-.22-6.46a13.52 13.52 0 0 0-.35-1.86 9.09 9.09 0 0 1-1.4 1.09c-3.22 1.68-6.46 3.33-9.69 5l-8.75 4.48-.48.29" fill="url(#linear-gradient-15)"/>
        <path d="M201.93 533.17a5.21 5.21 0 0 1-1.2-.14c-7.95-.07-15.91-.2-23.86-.19q-43.77.07-87.56.22-21.4.08-42.81.2a9.93 9.93 0 0 1-1.51-.2 6.27 6.27 0 0 0-3.61 3.58c0 2.16-.28 43.49-.32 45.76-.05 3 2 4.75 4.84 5.6 6 0 147.69-.33 154.92-.43a14.65 14.65 0 0 0 3.31-.8l.34-.21h.11l1.21-2.64v-1c-.08-4-.15-8.06-.26-12.1-.14-4.94-.32-9.89-.48-14.84s-.31-9.73-.48-14.6c0-1.27-.13-2.55-.24-3.82-.27-3.16-.27-4.16-2.4-4.39z" fill="url(#linear-gradient-16)"/>
        <path class="cls-19" d="M134.39 586.1l-.35.21zM134.39 522.1l-.35.21z"/>
        <path d="M222.57 457.05c-.11 0 0-.06.08-.06H222c-5.34 0-103.54 0-115.42.05l-38.63.09a1.45 1.45 0 0 0-.36 0 12 12 0 0 0-2.63.68c-6.66 3.38-13.28 6.82-19.92 10.24a9.93 9.93 0 0 0 1.51.2q21.41-.09 42.81-.2 43.79-.13 87.56-.22c7.95 0 25 .37 25.06.33 2.13.23 2.13 3.23 2.29 4.59.15-.1.31-1.2.48-1.29 2.93-1.48 6.83-4 9.75-5.48 3.23-1.66 6.47-3.31 9.69-5a9.09 9.09 0 0 0 1.4-1.09 4.77 4.77 0 0 0-3.02-2.84z" fill="url(#linear-gradient-18)"/>
        <path d="M205.22 470.76a1.74 1.74 0 0 0-.89 1.85s.2 2.55.24 3.82c.17 4.87.32 9.74.48 14.6s.34 9.9.48 14.84c.11 4 .18 8.07.26 12.1v1l-1.21 2.64L225 511.07a4 4 0 0 0 2.13-2.71 5.31 5.31 0 0 0 .24-1.2h-.14c-.09-3.13-.85-30.18-1.13-39-.06-2.15-.11-4.3-.22-6.46a13.52 13.52 0 0 0-.35-1.86 9.09 9.09 0 0 1-1.4 1.09c-3.22 1.68-6.46 3.33-9.69 5l-8.75 4.48-.48.29" fill="url(#linear-gradient-19)"/>
        <path d="M201.93 468.17a5.21 5.21 0 0 1-1.2-.14c-7.95-.07-15.91-.2-23.86-.19q-43.77.07-87.56.22-21.4.07-42.81.2a9.93 9.93 0 0 1-1.51-.2 6.27 6.27 0 0 0-3.61 3.58c0 2.16-.28 43.49-.32 45.76-.05 3 2 4.75 4.84 5.6 6 0 147.69-.33 154.92-.43a14.65 14.65 0 0 0 3.31-.8l.34-.21h.11l1.21-2.64v-1c-.08-4-.15-8.06-.26-12.1-.14-4.94-.32-9.89-.48-14.84s-.31-9.73-.48-14.6c0-1.27-.13-2.55-.24-3.82-.27-3.16-.27-4.16-2.4-4.39z" fill="url(#linear-gradient-20)"/>
        <path class="cls-19" d="M134.39 520.1l-.35.21zM205.05 451.1l-.35.21z"/>
        <circle class="cls-28" cx="144.88" cy="490" r="6.53"/>
        <circle class="cls-29" cx="165.18" cy="490" r="6.53"/>
        <circle class="cls-30" cx="184.03" cy="490" r="6.53"/>
        <circle class="cls-28" cx="144.88" cy="555" r="6.53"/>
        <circle class="cls-29" cx="165.18" cy="555" r="6.53"/>
        <circle class="cls-30" cx="184.03" cy="555" r="6.53"/>
        <circle class="cls-28" cx="144.88" cy="619.5" r="6.53"/>
        <circle class="cls-29" cx="165.18" cy="619.5" r="6.53"/>
        <circle class="cls-30" cx="184.03" cy="619.5" r="6.53"/>
        <path class="cls-31" d="M275.65 517.19l99.55-54.33M276.14 539.47l99.55-54.33M276.16 560.08l99.55-54.33"/>
        <g id="I8l0cn.tif">
          <path d="M124.93 177.42c.12-.51.25-1 .37-1.53q2-8.35 3.94-16.72a5.52 5.52 0 0 1 .16-.54 1.1 1.1 0 0 1 1.08-.83h3.08a1.06 1.06 0 0 1 1 .81c.16.54.29 1.1.42 1.65q2 8.61 4.06 17.23s0 .11.07.21a1.89 1.89 0 0 0 .06-.21l4-15.48c.24-.94.48-1.88.73-2.82a5.61 5.61 0 0 1 .23-.65 1.09 1.09 0 0 1 1.07-.74h2.35a5 5 0 0 1 .67 0 .56.56 0 0 1 .59.65 4.23 4.23 0 0 1-.17.93q-2.38 7.68-4.8 15.36l-2 6.38-.18.47a1.2 1.2 0 0 1-1.19.82h-3a1.12 1.12 0 0 1-1.15-.86c-.19-.66-.35-1.33-.51-2q-1.95-8.08-3.89-16.18c0-.06 0-.11-.06-.22 0 .11-.05.17-.07.23q-2.1 8.81-4.22 17.6a4.33 4.33 0 0 1-.27.79 1 1 0 0 1-.95.59h-3.17a1.05 1.05 0 0 1-1-.69c-.21-.54-.39-1.09-.56-1.65q-3.12-10.2-6.21-20.4a9.26 9.26 0 0 1-.25-1 .62.62 0 0 1 .66-.81h3.08a1 1 0 0 1 1 .71c.21.62.39 1.25.55 1.88q2.15 8.43 4.28 16.87l.06.18z"/>
          <path class="cls-32" d="M130.63 206.87h-2.87c-.96 0-2.11-.15-3.17-.24a56.67 56.67 0 0 1-5.66-.8 60.91 60.91 0 0 1-23-9.51 62.43 62.43 0 0 1-6.42-5 1.85 1.85 0 0 1-.34-.4.63.63 0 0 1 0-.75.66.66 0 0 1 .74-.24 3.38 3.38 0 0 1 .52.22c1.76.93 3.5 1.9 5.29 2.77a71.54 71.54 0 0 0 8.14 3.38 75 75 0 0 0 8.69 2.52c2 .45 4.06.84 6.1 1.2 1.24.22 2.5.37 3.75.51 1 .12 1.94.19 2.91.27s1.92.14 2.88.16c1.71.05 3.42.09 5.13.07 1.2 0 2.4-.08 3.6-.16s2.42-.2 3.62-.34c2.57-.29 5.12-.71 7.65-1.24a82.82 82.82 0 0 0 13.28-4l1.82-.74a1.47 1.47 0 0 1 1-.06 1.09 1.09 0 0 1 .54 1.83 2.16 2.16 0 0 1-.42.38 45.07 45.07 0 0 1-7.92 4.61 58.16 58.16 0 0 1-11.27 3.87c-1.76.41-3.54.73-5.33 1-1.17.2-2.36.33-3.54.46-.86.09-1.73.14-2.59.18l-3.18.12z"/>
          <path d="M108.32 179.23c-.49.47-.95 1-1.45 1.38a9.73 9.73 0 0 1-5.49 2.34 9.54 9.54 0 0 1-4.25-.39 6.43 6.43 0 0 1-4.42-5.07 8.2 8.2 0 0 1 .31-4.65 7.21 7.21 0 0 1 3.45-3.84 10 10 0 0 1 4-1.14 22 22 0 0 1 6.16.49l1.3.27v-.09c0-1.17 0-2.35-.1-3.52a5 5 0 0 0-.75-2.3 3.63 3.63 0 0 0-2.25-1.52 10.79 10.79 0 0 0-3.71-.28 17.92 17.92 0 0 0-5.12 1.37 6.48 6.48 0 0 1-1 .32c-.48.13-.75-.08-.79-.57v-.61-1.2a1.21 1.21 0 0 1 .69-1.22c.49-.24 1-.48 1.47-.68a18.32 18.32 0 0 1 7.65-1.2 12.36 12.36 0 0 1 4.11.85 6.63 6.63 0 0 1 3.86 4.29 12.11 12.11 0 0 1 .55 3.63v8.81a9.46 9.46 0 0 0 1.25 4.93 1 1 0 0 1-.3 1.44c-.62.44-1.25.86-1.9 1.26a1.1 1.1 0 0 1-1.49-.27 10.41 10.41 0 0 1-1.61-2.49zm-5.32-8.11a8.48 8.48 0 0 0-2.66.31 3.74 3.74 0 0 0-2.77 2.57 5.58 5.58 0 0 0-.14 2.3 3.33 3.33 0 0 0 2.76 3 6.67 6.67 0 0 0 2.48 0 7.17 7.17 0 0 0 3.08-1.18 5 5 0 0 0 2.15-3.28 18.22 18.22 0 0 0 .16-2.86c0-.17-.06-.22-.21-.26a21.8 21.8 0 0 0-4.85-.6zM160.08 157a16.89 16.89 0 0 1 6 1.11 5.38 5.38 0 0 1 1.07.61 1.32 1.32 0 0 1 .57 1.15v1.5a1.41 1.41 0 0 1-.05.35.51.51 0 0 1-.6.43 2.59 2.59 0 0 1-.77-.21 13.07 13.07 0 0 0-6.13-1.18 7.34 7.34 0 0 0-2.62.5 2.86 2.86 0 0 0-1.65 3.79 3.14 3.14 0 0 0 1.56 1.57 15.59 15.59 0 0 0 2.82 1.11c1.32.42 2.64.82 3.95 1.27a8.17 8.17 0 0 1 3.08 1.82 6 6 0 0 1 1.77 3.74 7.12 7.12 0 0 1-.57 3.73 7.55 7.55 0 0 1-3.81 3.7 12.21 12.21 0 0 1-4.16 1.06 18.13 18.13 0 0 1-7.69-1.11 8.72 8.72 0 0 1-1.33-.67 1.36 1.36 0 0 1-.68-1.27v-1.57a1.32 1.32 0 0 1 .09-.43.44.44 0 0 1 .45-.31 2.55 2.55 0 0 1 .68.11c.92.32 1.81.72 2.74 1a14.61 14.61 0 0 0 6 .43 5.27 5.27 0 0 0 2.53-1 3 3 0 0 0 .43-4.36 4 4 0 0 0-1.63-1c-1.09-.4-2.21-.74-3.31-1.11s-2.19-.68-3.25-1.11a6.88 6.88 0 0 1-3.95-3.77 6.45 6.45 0 0 1 2-7.73 9.35 9.35 0 0 1 4.89-2c.58-.06 1.18-.09 1.57-.15z"/>
          <path class="cls-32" d="M164.24 191.35c-.94.06-2 .11-3 .19l-3.06.3c-.18 0-.36.06-.54.07a.55.55 0 0 1-.6-.21.49.49 0 0 1 .09-.62 3.91 3.91 0 0 1 .66-.56 14.38 14.38 0 0 1 5.45-2 20.13 20.13 0 0 1 4.24-.29 12.94 12.94 0 0 1 3.9.63 1.4 1.4 0 0 1 1.14 1.57 15.08 15.08 0 0 1-.81 5.24 17.8 17.8 0 0 1-2.83 5.66 12.73 12.73 0 0 1-1.78 1.89 1.12 1.12 0 0 1-.75.33.38.38 0 0 1-.42-.42 1.74 1.74 0 0 1 .12-.5 55.59 55.59 0 0 0 1.95-5.42 27 27 0 0 0 .65-2.8 5.87 5.87 0 0 0 0-1.39 1.2 1.2 0 0 0-.86-1.14 9.69 9.69 0 0 0-1.61-.39c-.6-.1-1.18-.1-1.94-.14z"/>
        </g>
        <rect class="cls-33" x="52.63" y="84.95" width="60.3" height="43" rx="7.25" ry="7.25"/>
        <path class="cls-34" d="M60.81 94.56h44.22v33.38H60.81z"/>
        <path class="cls-33" d="M84.7 103.45a4.19 4.19 0 0 1-5 0L55.66 85l-.28.1a4.58 4.58 0 0 0-1.79 1.24 1.33 1.33 0 0 0-.28.49l-.54 1.56 27.25 20a4.62 4.62 0 0 0 5.52 0l26.82-20.86-1-1.41-2.6-1.12z"/>
        <path class="cls-34" d="M84.7 103.45L108.76 85h-53.1l24 18.5a4.19 4.19 0 0 0 5.04-.05z"/>
        <path d="M55.38 88s-2.61-1.87-2.61 1.1v34.79a4.14 4.14 0 0 0 4.17 4.11h2.38l24.27-18.73z" opacity=".25" fill="#a8a7a7"/>
        <path d="M112.5 123.84V89.05c0-2.27-2-1-2-1L83 109.22 107.85 128h.49a4.13 4.13 0 0 0 4.16-4.16z" opacity=".14" fill="#a8a7a7"/>
        <path class="cls-37" d="M353 141.79h-23.57a2.8 2.8 0 0 0-2.8 2.8v49.47a2.8 2.8 0 0 0 2.8 2.8h35.7a2.8 2.8 0 0 0 2.8-2.8v-36.88C363 152 357.79 147.09 353 141.79z"/>
        <path class="cls-2" d="M336.77 169.33h20.16v2.46h-20.16zM336.77 174.24h20.16v2.46h-20.16zM336.77 179.16h20.16v2.46h-20.16zM336.77 183.57h16.72v2.46h-16.72z"/>
        <path class="cls-30" d="M352.67 154.24a2.8 2.8 0 0 0 2.8 2.79h12.16c-4.81-5.3-10.05-10.18-15-15.39z"/>
        <path d="M274.87 82.11h-25.7a3.06 3.06 0 0 0-3.06 3v54a3.06 3.06 0 0 0 3.06 3.06h39a3.06 3.06 0 0 0 3.06-3.06v-40.2c-5.38-5.69-11.1-11.01-16.36-16.8z" fill="#89d171"/>
        <path class="cls-2" d="M255.24 108.34V132h27.07v-23.66zm12.22 20.2h-7.86v-4.37h7.86zm0-6.12h-7.86v-4.36h7.86zm0-6.11h-7.86V112h7.86zm11.35 12.23H271v-4.37h7.86zm0-6.12H271v-4.36h7.86zm0-6.11H271V112h7.86z"/>
        <path class="cls-39" d="M274.56 95.69a3.06 3.06 0 0 0 3.06 3.06h13.27c-5.26-5.79-11-11.12-16.33-16.8z"/>
        <path d="M161.07 80.12c5.32-12.78 22.5-17.28 32.49-7.64l9.12-8.77A32.27 32.27 0 0 0 180.21 55a33.46 33.46 0 0 0-29.74 18 8.8 8.8 0 0 0 1.89 1.13c2.99 1.87 5.83 3.93 8.71 5.99z" fill="#e24d3d"/>
        <path d="M159.45 88.45a21.59 21.59 0 0 1 1.62-8.33c-2.88-2.06-5.72-4.17-8.71-6a8.8 8.8 0 0 1-1.89-1.12 33.65 33.65 0 0 0-.79 29.28c3.37-2.46 7.27-4.57 10.92-6.88a21.54 21.54 0 0 1-1.15-6.95z" fill="#ede580"/>
        <path class="cls-39" d="M193.31 105.23a19.76 19.76 0 0 1-13.1 4.37 20.83 20.83 0 0 1-19.61-14.21c-3.65 2.31-7.55 4.42-10.92 6.88A33.45 33.45 0 0 0 180.21 122c9.63 0 17.71-3.38 23.4-9.13-3.35-2.75-6.82-5-10.3-7.64z"/>
        <path class="cls-37" d="M212.63 89.23a29.32 29.32 0 0 0-.53-5.59h-31.89v11.52h19a17.44 17.44 0 0 1-5.92 10.07c3.48 2.64 6.95 4.89 10.3 7.59 5.74-5.82 9.04-14 9.04-23.59z"/>
      </g>
    </g>
  </g>
</svg>
