<svg xmlns="http://www.w3.org/2000/svg" xmlns:xlink="http://www.w3.org/1999/xlink" viewBox="0 0 248.35 294">
  <defs>
    <style>
      .cls-2{opacity:.15}.cls-11,.cls-2,.cls-6{mix-blend-mode:multiply}.cls-6{opacity:.35}.cls-7{fill:#171718}.cls-11{opacity:0}.cls-14{fill:#faedd6}.cls-20{fill:none;stroke:#ede580;stroke-miterlimit:10;stroke-width:3px}.path1{stroke-dasharray: 100;stroke-dashoffset: 100;animation: dash 3s linear forwards;animation-delay: 0s}@keyframes dash{to{stroke-dashoffset: 0;}}.path2{stroke-dasharray: 100;stroke-dashoffset: 100;animation: dash 3s linear forwards;animation-delay: 1s}@keyframes dash{to{stroke-dashoffset: 0;}}.path3{stroke-dasharray: 42;stroke-dashoffset: 42;animation: dash 2s linear forwards infinite;animation-delay: 2s}@keyframes dash{to{stroke-dashoffset: 0;}}
    </style>
    <linearGradient id="linear-gradient" x1="11.26" y1="181.06" x2="222.25" y2="181.06" gradientUnits="userSpaceOnUse">
      <stop offset="0" stop-color="#849994"/>
      <stop offset=".19" stop-color="#bccbc6"/>
      <stop offset=".57" stop-color="#b3c6c1"/>
      <stop offset=".94" stop-color="#a5bfb9"/>
    </linearGradient>
    <linearGradient id="linear-gradient-2" x1="137.14" y1="243.96" x2="223.78" y2="243.96" gradientTransform="rotate(83.75 180.460557 243.94555)" gradientUnits="userSpaceOnUse">
      <stop offset=".12" stop-color="#849994"/>
      <stop offset=".49" stop-color="#a5bfb9"/>
      <stop offset=".74" stop-color="#b3c6c1"/>
      <stop offset="1" stop-color="#bccbc6"/>
    </linearGradient>
    <linearGradient id="linear-gradient-3" x1="6.88" y1="61.86" x2="103.53" y2="61.86" gradientUnits="userSpaceOnUse">
      <stop offset=".01" stop-color="#f0f0f1"/>
      <stop offset=".27" stop-color="#dfe4e3"/>
      <stop offset=".72" stop-color="#c5d2ce"/>
      <stop offset="1" stop-color="#bccbc6"/>
    </linearGradient>
    <linearGradient id="linear-gradient-4" x1="22.04" y1="100.18" x2="120.68" y2="100.18" gradientUnits="userSpaceOnUse">
      <stop offset="0" stop-color="#849994"/>
      <stop offset=".49" stop-color="#a5bfb9"/>
      <stop offset=".74" stop-color="#b3c6c1"/>
      <stop offset="1" stop-color="#bccbc6"/>
    </linearGradient>
    <linearGradient id="linear-gradient-5" x1="171.74" y1="223.1" x2="189.19" y2="223.1" xlink:href="#linear-gradient-3"/>
    <linearGradient id="linear-gradient-6" x1="135.45" y1="101.23" x2="216.08" y2="101.23" gradientUnits="userSpaceOnUse">
      <stop offset=".01" stop-color="#b2ec9f"/>
      <stop offset=".2" stop-color="#a8e594"/>
      <stop offset=".7" stop-color="#91d77a"/>
      <stop offset="1" stop-color="#89d171"/>
    </linearGradient>
    <linearGradient id="linear-gradient-7" x1="212.64" y1="165.98" x2="210.65" y2="104.31" xlink:href="#linear-gradient-4"/>
    <linearGradient id="linear-gradient-8" x1="211.1" y1="166.03" x2="209.11" y2="104.36" gradientUnits="userSpaceOnUse">
      <stop offset="0" stop-color="#fff"/>
      <stop offset=".28" stop-color="#f6f6f6"/>
      <stop offset=".74" stop-color="#dcdcdc"/>
      <stop offset=".99" stop-color="#ccc"/>
    </linearGradient>
    <linearGradient id="linear-gradient-9" x1="154.54" y1="185.91" x2="258.54" y2="95.91" gradientUnits="userSpaceOnUse">
      <stop offset="0" stop-color="#849994"/>
      <stop offset=".18" stop-color="#879c97"/>
      <stop offset=".32" stop-color="#8fa6a1"/>
      <stop offset=".44" stop-color="#9eb7b1"/>
      <stop offset=".49" stop-color="#a5bfb9"/>
      <stop offset=".74" stop-color="#b3c6c1"/>
      <stop offset="1" stop-color="#bccbc6"/>
    </linearGradient>
  </defs>
  <g style="isolation:isolate">
    <g id="Layer_2" data-name="Layer 2">
      <g id="text_elements">
        <path d="M222.13 241.15S217.33 105 215 105l-195.11 1.09a4.22 4.22 0 0 0-4.22 4.21l-4.39 130.93c-.39 1.15 5.72 1.87 6.11.73l5.77-125.64h53.43l-3.48 137.79a2.29 2.29 0 0 0 1.33 2.95s4.6.41 5-.83l3.94-139.13c.07-.22.16-.48.25-.78H164l1.28 113.19c.44 1.31 4.67 1.08 4.67 1.08a2.5 2.5 0 0 0 1.59-3.17l.31-111.1H209l7.11 126.85c.38 1.15 4.66.76 4.66.76a2.19 2.19 0 0 0 1.36-2.78z" fill="url(#linear-gradient)"/>
        <ellipse cx="180.46" cy="243.96" rx="28.45" ry="43.47" transform="rotate(-83.75 180.447875 243.953053)" fill="url(#linear-gradient-2)"/>
        <path class="cls-7" d="M129.08 252l2-12.7c-13.66 2.44-13.75 2.29-24.06 10.73-3.07 2.52-5.94 2.21-9.49 4-7.71 9.69 38.38 10.33 31.55-2.03z"/>
        <path class="cls-7" d="M158.61 233.22l-.87-12.83c-12.78 5.39-12.9 5.27-21.07 15.78-2.44 3.13-5.31 3.47-8.37 6-5.37 11.16 39.7 1.61 30.31-8.95z"/>
        <path d="M103.53 94.35l-79.68.39L7 32.29a2.35 2.35 0 0 1 2.26-3L83.08 29a3.58 3.58 0 0 1 3.48 2.65z" fill="url(#linear-gradient-3)"/>
        <rect x="22.04" y="94.3" width="98.64" height="11.76" rx="3.2" ry="3.2" fill="url(#linear-gradient-4)"/>
        <path fill="#262928" d="M96.86 89.27l-67.72.32L14.1 34.75l67.72-.32 15.04 54.84z"/>
        <path d="M189.19 206.06v34.09a7 7 0 0 1-7 7h-3.48a7 7 0 0 1-7-7v-34.09a7 7 0 0 1 7-7h3.48c3.87.01 6.89-.24 7 7z" fill="url(#linear-gradient-5)"/>
        <path d="M150.75 159.11c2 16.25 3.48 32.58 6 48.76 3.84 24.6-.47 19.42-15.14 22.87-6.48-27.5-10.41-36.16-14.46-64.23-6.37-44.23 40.79-.45 23.6-7.4z" fill="#301ea8"/>
        <path class="cls-14" d="M120.71 93.7A18.82 18.82 0 0 0 101 89.59a19.73 19.73 0 0 0-3.49 1.63 20.06 20.06 0 0 0-1.87 1.23.84.84 0 0 0 .61 1.5l3.43-.4a31.21 31.21 0 0 1 4-.27 1.59 1.59 0 0 1 1.56 2.31c-.29.56-1.4 1.76-1.34 2.67s0 0 2 .67c7.29 1.83 10.23-.93 14.81-5.23z"/>
        <path d="M112.64 89.34c11.83-5.3 15.88-8.63 27.43-14.48 12.16-6.15 24.41-4.08 36.86-2.21 3 .45 4.2 0 7.28.19 5.49 9.25 8.72 23.84 11.2 33.83.79 3.18 1-2.76 2 .43-8.1-3.25-8.08-2.67-16-6.31-16.56-7.62-32.07-11.54-49.71-7.31-7.38 1.77-7.13 1.18-14.68 4.33-1.81-4.49-3.49-6.22-4.38-8.47z" fill="#89d171"/>
        <path class="cls-14" d="M145.48 38.43c.32 6 3.52 11.57-.81 17-2.35 3-2.18 8.77 3.32 5.94s11.8-3.92 17.7-7.06c1.11-.59 4.35-1.22 3.54-2.19-4.31-5.18-6-10.36-8.63-15.53s-7.59-2.73-12.95-1.28a3 3 0 0 0-2.17 3.12z"/>
        <path d="M144.5 55.82c9.89-.16 20.27 3.84 23.49-5.7 10.68 1.79 22 14.88 30.25 38.74 6.37 18.46 3.44 7 13.76 44.14 5 18 12 19-24.3 19.32-17.22.16-35-2.32-52.25-1.26C160 139 130.79 70.09 144.5 55.82z" fill="url(#linear-gradient-6)"/>
        <path class="cls-14" d="M97.54 95.92c-2.25-2.18-2-5.35-4.7-5.35h-2.68c-.63 0-3.16-.09-6.08.1A26.13 26.13 0 0 0 76.76 92a8 8 0 0 0-1.84 1c-.61.45-.21 1.31.55 1.34 9.19.33 5.87 1.53 10.66 4.94 7.24 1.81 6.87.93 11.41-3.36z"/>
        <path d="M145.28 125.56l-.37 3.18c3.09 1.17 16.43-42 11.61-51.84-1.7-3.46-5.27-6.26-8.35-4.67-2.9 1.49-1.95 2-4.5 6.06-3.15 4.94 1.79 45.71 1.61 47.27z" opacity=".77" fill="#89d171"/>
        <path d="M128.85 130.45a9 9 0 0 0 11-2c12.91-15.07 17.64-52.71 12-65.28-2.41-5.41-5.62-8.49-9.06-6-3.24 2.33-3.08 4.82-5.7 10.09-6.61 13.29-8.35 33-14.76 35.35-4.3 1.56-10.07-3.34-21.47-8-4.6-1.88-3.69.45-5.37 2-3 2.77-12.13 3.52-11.41 4 7.6 5.19 34.06 24.16 44.77 29.84z" fill="#b2ec9f"/>
        <path class="cls-14" d="M163.94 23.73a16 16 0 0 1-9.74 20.5c-2.79 1-6.67 2.17-9.39 1.66a16 16 0 0 1-4.38-1.49c-1.4-.72-1.43-1.4-2.85-3.74-.54-.9-1.45-2.54-2.06-3.42-.78-1.13-2.42-1.37-2.91-2.72-.27-.77.35-1.53.36-2.33 0-4.19-.66-4.59-1-6.19a49.71 49.71 0 0 1 0-7.22c1.13-5.25 5.82-8 11.34-9.76C156 5 161 15.38 163.94 23.73z"/>
        <path class="cls-7" d="M137 26c1 0 1 0-.15-2.59-.67-1.49 1.28-2.48 2.45-1.85.2 0-.89-.33 1.71.81.33.14.61.81.85 1.77a42.19 42.19 0 0 1 .77 4.31c.11.75.21 1.5.31 2.19.29 1.94.55 3.46.87 3.51 6.59 1 8.81-.24 11.24-.45.46 0 9.44-1.89 9.95-1.7 1.2-2 1.79-11 3.07-12.89 2-3.05-.78-4.66-2.2-6.7-.81-1-2.19-2-2.34-3-.48-3.32-3-4.27-5.47-5.36-4.83-.59-9.4-3.72-13.41-.32-1 .88-3.71.89-5.63.77-4.42-.29-5 2.53-7.59 5.69 0 .34-1.66 2.19-1.15 3.33a12.29 12.29 0 0 1 .53 5.29c-.14 1.61.49.92 1.19.22 1-1 1.45-2.55 2-2 .22.21.78 8.82 1 9 1.22.97 1-.03 2-.03z"/>
        <path d="M215 182c3.88-15.45-2.26-21.37-1-32-10.12-.67-42 1-60.64-3.95-13.74-3.65-29.21-7.11-37.36-4.05-8.79 3.3-9.71 14.08-9.22 37.28.58 28.35 2.44 39.77 5.51 67.85 21.57 0 18.8.34 18.8-23.21v-49.13c16.21 9 32.29 12.73 49.91 15.21 10 1 12 2 10 1-2.4-1.2 17-2 24-9z" fill="#4534b1"/>
        <path class="cls-20 path1" d="M31.94 47.89h40.2"/>
        <path class="cls-20 path2" d="M35.01 57.95h40.2"/>
        <path class="cls-20 path3" d="M38.17 68h40.2"/>
        <path d="M232.1 102.08a2.18 2.18 0 0 0-2.9-.56c-13.2 9.48-22 4.87-39.68 3-2.4-.25-4.26 1-3.54 3.34 5.38 17 4.62 28.2 3.09 41a362.08 362.08 0 0 1-6.94 36.52c17.87.56 29.35-3.9 46.67-9 6.2-7.45 6.44-7.35 8.8-13.57C244 146 247 130 232.1 102.08z" opacity=".68" fill="url(#linear-gradient-7)"/>
        <path d="M241 171c9.74-19.47 12-51-7-76-2.89-3.81-4.93.17-12 3a23.44 23.44 0 0 1-11 2c-13 0-17.08-1.21-28.27-2.31a4.69 4.69 0 0 0-4.95 6c5.86 19.2 5.33 29.45 3.56 44.39-1.1 9.29-7.06 33.85-7.8 37.4h57.12c.76-.8 1.22-1.34 1.34-1.5 6-7.98 8-10.98 9-12.98zm-58.87 14.44a362.08 362.08 0 0 0 6.94-36.52c1.53-12.85 2.29-24-3.09-41-.72-2.3 1.14-3.59 3.54-3.34 17.66 1.86 26.48 6.47 39.68-3a2.18 2.18 0 0 1 2.9.56C247 130 244 146 237.6 162.88c-2.36 6.22-2.6 6.12-8.8 13.57-17.32 5.09-28.8 9.55-46.67 8.99z" fill="url(#linear-gradient-8)"/>
        <path d="M234 95c-2.89-3.81-4.93.17-12 3a23.44 23.44 0 0 1-11 2c-13 0-17.08-1.21-28.27-2.31a4.69 4.69 0 0 0-4.95 6c5.86 19.2 5.33 29.45 3.56 44.39-1.1 9.29-7.06 33.85-7.8 37.4a2.73 2.73 0 0 0-.08.44v.08c-11.73 2.81-21.85-5-32.43-10.52a9.37 9.37 0 0 0-13.6 6.91 46 46 0 0 0-.47 6.94c0 .74 0 1.52.07 2.31a12.32 12.32 0 0 0 12.34 11.46c12.21 0 24.29 2.32 36.19 1.43 8-.59 16.88-1.26 24.68-2.51 15.56-2.51 26.69-12.62 30.42-16.52.76-.8 1.22-1.34 1.34-1.5 6-8 8-11 9-13 9.74-19.47 12-51-7-76zm3.6 67.88c-2.36 6.22-2.6 6.12-8.8 13.57-17.32 5.09-28.8 9.55-46.67 9a362.08 362.08 0 0 0 6.94-36.52c1.53-12.85 2.29-24-3.09-41-.72-2.3 1.14-3.59 3.54-3.34 17.66 1.86 26.48 6.47 39.68-3a2.18 2.18 0 0 1 2.9.56C247 130 244 146 237.6 162.88z" fill="url(#linear-gradient-9)"/>
      </g>
    </g>
  </g>
</svg>
