<svg xmlns="http://www.w3.org/2000/svg" xmlns:xlink="http://www.w3.org/1999/xlink" viewBox="0 0 523.99 677.7">
  <defs>
    <style>
      .cls-8{fill:#806d62}.cls-10{fill:#fff}.cls-16,.cls-19{fill:none}.cls-14{opacity:.18}.cls-14,.cls-37{mix-blend-mode:multiply}.cls-16,.cls-19{stroke-miterlimit:10}.cls-16{stroke-width:2px;stroke:#1a237e}.cls-19{stroke:#14076e}.cls-22{fill:#1c08a0}.cls-30{fill:#5308ab}.cls-33{fill:#e9f27e}.cls-35{fill:#dfc89e}.cls-36{opacity:.33}.cls-37{opacity:.25}.cls-38{fill:#a59277}.touch-up{ -webkit-animation: armove 3s infinite; animation: armove 3s infinite; animation-direction: alternate;}@keyframes armove {from {transform: translateY(60px);}}}
    </style>
    <linearGradient id="linear-gradient" x1="297.44" y1="64.91" x2="344.58" y2="64.91" gradientUnits="userSpaceOnUse">
      <stop offset="0" stop-color="#bccbc6"/>
      <stop offset=".26" stop-color="#b3c6c1"/>
      <stop offset=".51" stop-color="#a5bfb9"/>
      <stop offset="1" stop-color="#849994"/>
    </linearGradient>
    <linearGradient id="linear-gradient-2" x1="301.75" y1="58.55" x2="339.96" y2="58.55" gradientUnits="userSpaceOnUse">
      <stop offset=".01" stop-color="#f0f0f1"/>
      <stop offset=".27" stop-color="#dfe4e3"/>
      <stop offset=".72" stop-color="#c5d2ce"/>
      <stop offset="1" stop-color="#bccbc6"/>
    </linearGradient>
    <linearGradient id="linear-gradient-3" x1="301.98" y1="73.16" x2="340.1" y2="73.16" xlink:href="#linear-gradient-2"/>
    <linearGradient id="linear-gradient-4" x1="326.08" y1="64.95" x2="342.48" y2="64.95" xlink:href="#linear-gradient-2"/>
    <linearGradient id="linear-gradient-5" x1="299.8" y1="64.88" x2="316.06" y2="64.88" xlink:href="#linear-gradient-2"/>
    <linearGradient id="linear-gradient-6" x1="208.31" y1="311.48" x2="336.74" y2="311.48" gradientUnits="userSpaceOnUse">
      <stop offset=".01" stop-color="#f0f0f1"/>
      <stop offset=".34" stop-color="#d9e0de"/>
      <stop offset=".74" stop-color="#c4d1cc"/>
      <stop offset="1" stop-color="#bccbc6"/>
    </linearGradient>
    <linearGradient id="linear-gradient-7" x1="-1446.43" y1="415.86" x2="775.45" y2="415.86" xlink:href="#linear-gradient-6"/>
    <linearGradient id="linear-gradient-8" x1="336.7" y1="257.51" x2="389.15" y2="257.51" gradientUnits="userSpaceOnUse">
      <stop offset=".07" stop-color="#1c08a0"/>
      <stop offset="1" stop-color="#93c"/>
    </linearGradient>
    <linearGradient id="linear-gradient-9" x1="405.55" y1="188.08" x2="481.26" y2="188.08" gradientUnits="userSpaceOnUse">
      <stop offset="0" stop-color="#bccbc6"/>
      <stop offset=".28" stop-color="#c5d2ce"/>
      <stop offset=".73" stop-color="#dfe4e3"/>
      <stop offset=".99" stop-color="#f0f0f1"/>
    </linearGradient>
    <linearGradient id="linear-gradient-10" x1="422.55" y1="188.11" x2="473.18" y2="188.11" gradientUnits="userSpaceOnUse">
      <stop offset="0" stop-color="#fff"/>
      <stop offset=".39" stop-color="#fdfdfd"/>
      <stop offset=".61" stop-color="#f4f4f4"/>
      <stop offset=".8" stop-color="#e6e6e6"/>
      <stop offset=".96" stop-color="#d2d2d2"/>
      <stop offset="1" stop-color="#ccc"/>
    </linearGradient>
    <linearGradient id="linear-gradient-11" x1="289.92" y1="163.69" x2="342.29" y2="111.32" gradientUnits="userSpaceOnUse">
      <stop offset=".11" stop-color="#ffc42a"/>
      <stop offset=".23" stop-color="#d78b6a"/>
      <stop offset=".34" stop-color="#b55b9f"/>
      <stop offset=".43" stop-color="#a13ec0"/>
      <stop offset=".48" stop-color="#93c"/>
      <stop offset=".51" stop-color="#852cc5"/>
      <stop offset=".6" stop-color="#601fb8"/>
      <stop offset=".68" stop-color="#4215ad"/>
      <stop offset=".76" stop-color="#2d0ea6"/>
      <stop offset=".84" stop-color="#2009a2"/>
      <stop offset=".92" stop-color="#1c08a0"/>
    </linearGradient>
    <linearGradient id="linear-gradient-12" x1="264.07" y1="223.14" x2="306.44" y2="223.14" xlink:href="#linear-gradient-2"/>
    <linearGradient id="linear-gradient-13" x1="246.43" y1="235.09" x2="261.84" y2="235.09" gradientUnits="userSpaceOnUse">
      <stop offset=".07" stop-color="#1c08a0"/>
      <stop offset=".2" stop-color="#1c08a0"/>
      <stop offset=".31" stop-color="#5308ab"/>
      <stop offset=".48" stop-color="#570aad"/>
      <stop offset=".64" stop-color="#6312b2"/>
      <stop offset=".8" stop-color="#771ebc"/>
      <stop offset=".97" stop-color="#922fc9"/>
      <stop offset="1" stop-color="#93c"/>
    </linearGradient>
    <linearGradient id="linear-gradient-14" x1="253.28" y1="245.49" x2="257.96" y2="245.49" gradientUnits="userSpaceOnUse">
      <stop offset="0" stop-color="#93c"/>
      <stop offset=".03" stop-color="#922fc9"/>
      <stop offset=".2" stop-color="#771ebc"/>
      <stop offset=".36" stop-color="#6312b2"/>
      <stop offset=".52" stop-color="#570aad"/>
      <stop offset=".69" stop-color="#5308ab"/>
      <stop offset=".8" stop-color="#1c08a0"/>
      <stop offset=".93" stop-color="#1c08a0"/>
    </linearGradient>
    <linearGradient id="linear-gradient-15" x1="155.22" y1="247.58" x2="212.7" y2="247.58" xlink:href="#linear-gradient-13"/>
    <linearGradient id="linear-gradient-16" x1="379.13" y1="96.12" x2="413.13" y2="96.12" xlink:href="#linear-gradient-9"/>
    <linearGradient id="linear-gradient-17" x1="383.61" y1="106.68" x2="421.76" y2="106.68" xlink:href="#linear-gradient-9"/>
    <linearGradient id="linear-gradient-18" x1="-192.76" y1="497.21" x2="-166.29" y2="497.21" gradientTransform="rotate(40.74 288.0894229 1044.7917547)" gradientUnits="userSpaceOnUse">
      <stop offset="0" stop-color="#bccbc6"/>
      <stop offset=".51" stop-color="#b3c6c1"/>
      <stop offset=".99" stop-color="#a5bfb9"/>
    </linearGradient>
    <linearGradient id="linear-gradient-19" y1="572.52" x2="230.26" y2="572.52" gradientUnits="userSpaceOnUse">
      <stop offset="0" stop-color="#fff"/>
      <stop offset=".19" stop-color="#fff"/>
      <stop offset=".5" stop-color="#fdfdfd"/>
      <stop offset=".64" stop-color="#f5f5f5"/>
      <stop offset=".75" stop-color="#e9e9e9"/>
      <stop offset=".84" stop-color="#d7d7d7"/>
      <stop offset=".88" stop-color="#ccc"/>
      <stop offset="1" stop-color="#ccc"/>
    </linearGradient>
    <linearGradient id="linear-gradient-20" x1="250.98" y1="500.2" x2="261.98" y2="500.2" gradientUnits="userSpaceOnUse">
      <stop offset=".01" stop-color="#a5bfb9"/>
      <stop offset=".61" stop-color="#a7c0ba"/>
      <stop offset=".82" stop-color="#aec4be"/>
      <stop offset=".98" stop-color="#b9cac5"/>
      <stop offset="1" stop-color="#bccbc6"/>
    </linearGradient>
    <linearGradient id="linear-gradient-21" x1="285.5" y1="638.57" x2="392.06" y2="638.57" xlink:href="#linear-gradient-19"/>
  </defs>
  <g style="isolation:isolate">
    <g id="Layer_2" data-name="Layer 2">
      <g id="digital_marketing">
        <path id="globo" d="M181 311.66c41-7.53 82-33.92 133.09-9.72C360 323.7 381.88 334.14 430 290.7c31-28 93.13-22.31 94-102 .64-58.53-40.45-137.74-91-170-80.67-51.49-169.22 15.53-257.5 54.87C118.86 98.8 80.59 103.89 83 169c1 27.73 29.91 155.16 98 142.66z" fill="#f6f9f8"/>
        <path d="M344.58 50.22v29.29a2 2 0 0 1-2 2h-42.8a2.33 2.33 0 0 1-2.33-2.33V49.94a1.64 1.64 0 0 1 1.64-1.64h43.58a1.92 1.92 0 0 1 1.91 1.92zM304 52.29l16.4 13.81a1.06 1.06 0 0 0 1.38 0l16-13.41-.84-2.29h-32.27a1.07 1.07 0 0 0-.67 1.89zm13.13 15.28c-4.14 3.19-8.32 6.4-12.64 9.74a1.06 1.06 0 0 0 .65 1.91H337a1.07 1.07 0 0 0 .65-1.92L325 67.58a1.05 1.05 0 0 0-1.27 0c-2.44 1.76-2.81 1.75-5.35 0a1.05 1.05 0 0 0-1.27-.01zM342.48 76V54a1.07 1.07 0 0 0-1.76-.81L327.1 64.61a1.09 1.09 0 0 0 0 1.68c4.52 3.5 9 6.93 13.62 10.55a1.07 1.07 0 0 0 1.76-.84zM299.8 54.08v21.73a1.07 1.07 0 0 0 1.72.84L315 66.28a1.07 1.07 0 0 0 0-1.67l-13.44-11.35a1.07 1.07 0 0 0-1.76.82z" fill="url(#linear-gradient)"/>
        <path d="M301.75 50.4h38l.22.41c-6.27 5.26-12.53 10.53-18.89 15.88z" fill="url(#linear-gradient-2)"/>
        <path d="M317.73 67.09c3.37 2.38 3.37 2.38 6.63 0l15.74 12.13H302z" fill="url(#linear-gradient-3)"/>
        <path d="M342.48 78.18l-16.4-12.71 16.4-13.75z" fill="url(#linear-gradient-4)"/>
        <path d="M299.8 51.79l16.26 13.68L299.8 78z" fill="url(#linear-gradient-5)"/>
        <path class="cls-8" d="M271.84 415.27c-.46.92-.91 1.84-1.36 2.76.45-.92.9-1.84 1.36-2.76zM286.91 418.28l-.83-.16z"/>
        <path d="M260.36 385.73l-.5.94z" fill="#cfb699"/>
        <path class="cls-10" d="M216.66 481.73c8.46 1.69 70.63 13.4 79.68 15.08 1 .19 2-2.18 2.68-2.88.43-2 31-152.16 31-152.64-.81-.24-1.34-.44-1.88-.55-18.94-3.81-74.64-14.85-79.62-15.84-.44.96-21.52 103.1-31.52 153.23a34.89 34.89 0 0 0-.34 3.6z"/>
        <path d="M255.8 311.51a12.18 12.18 0 0 0-5.78.19h6.77z" fill="url(#linear-gradient-6)"/>
        <path d="M328.17 340.74c-18.94-3.81-74.64-14.85-79.62-15.84-.47.96-21.55 103.1-31.55 153.23a34.89 34.89 0 0 0-.31 3.6c8.46 1.69 70.63 13.4 79.68 15.08 1 .19 2-2.18 2.68-2.88.43-2 31-152.16 31-152.64-.81-.24-1.34-.44-1.88-.55z" fill="none"/>
        <path d="M328 325.9l-19-3.82-42.82-8.56c-.23 0-.46-.08-.69-.11-4.08-.81-7.17-1.42-8.71-1.71-.31-.07-.63-.14-.95-.19a11.46 11.46 0 0 0-7 .64 8.56 8.56 0 0 0-2.08 1.38l-.08.09a8.45 8.45 0 0 0-.77.81l-.12.15a10 10 0 0 0-1.34 2.2c-.05.1-.09.21-.14.31-.13.32-.26.65-.37 1 0 .13-.09.25-.12.38-.14.46-.27.93-.37 1.42-3.19 15.38-6.27 30.78-9.39 46.17-.62 10.49-1.57 20.92-5.19 30.92a51 51 0 0 0-2.34 7.28q-9 44.66-17.92 89.34a13.36 13.36 0 0 0-.25 2.21 10.31 10.31 0 0 0 8.3 10.66c2 .41 71.48 13.5 73.49 13.87 6 1.08 10.76-5 11.89-11 .58-3.07 1.77-9.19 1.79-9.18l.1-.42v-.14c0-.12 0-.24.08-.37v-.17l.09-.43c0-.07 0-.14.05-.21l.09-.46.05-.27.09-.47c0-.1.05-.22.07-.33l.09-.48c0-.11 0-.23.07-.34s.06-.36.1-.54l.07-.35c0-.19.07-.38.1-.58s.05-.23.07-.35.08-.44.13-.67 0-.2.05-.3.08-.45.13-.68 0-.27.07-.4l.12-.68c0-.12.05-.24.07-.36s.09-.5.14-.75l.06-.35c0-.3.11-.59.16-.89v-.14l.18-1v-.13c.06-.37.13-.74.2-1.11.14-.74.27-1.49.4-2.24.6-3.38 1.19-6.7 1.66-9.3l.05-.31.12-.64v-.12c0-.2.07-.38.1-.57v-.21c0-.13 0-.25.07-.37l.06-.34v-.25c0-.08.05-.24.07-.35s.06-.37.1-.53c.19-.38.37-.78.53-1.18a.61.61 0 0 0 0-.12c.16-.38.31-.77.45-1.16l.45-1.16.05-.12c.17-.4.34-.8.54-1.18.08-.69.16-1.37.25-2.06a17.44 17.44 0 0 1-.21-1.88c0-.38 0-.75-.05-1.12v-1.13l1.35-7.26c.16-.52.34-1 .52-1.56 0-.08.07-.17.1-.26.37-1 .77-2 1.19-3 0-.11.09-.22.14-.33.2-.49.41-1 .63-1.45l1.2-6.17c-.2-.47-.36-.94-.51-1.41v-.08c-.14-.46-.26-.9-.37-1.35.86-4.65 1.73-9.29 2.58-13.94.3-.53.6-1.06.93-1.59 2.07-3.35 2.76-7.64 3.61-11.61 1.21-5.64 2-11.38 3-17.06.12-.63 1.56-5.07 1.56-5.07q3-15.6 5.9-31.2c1.12-5.84 2.39-11.65 3.35-17.51.09-.53.17-1 .22-1.29 1.3-7.08-1.53-11.04-8.29-12.41zm-29 168c-.67.7-1.66 3.07-2.68 2.88-9-1.68-71.22-13.39-79.68-15.08a34.89 34.89 0 0 1 .31-3.6c.21-1 .41-2 .61-3 10.26-51.08 30.51-149.27 31-150.21l14.93 3 .86.18.4.06 2.24.45.57.66h3C289.15 333 314.62 338 327 340.51l1.15.23c.54.11 1.07.31 1.88.55-.03.48-30.58 150.62-31.03 152.64z" fill="url(#linear-gradient-7)"/>
        <path d="M341.3 395.68a1.68 1.68 0 0 1 .83-.15z" fill="#faf7f5"/>
        <g id="torus">
          <ellipse class="cls-16" cx="271.96" cy="416.92" rx="12.79" ry="36.68" transform="rotate(-77.73 271.9463811 416.906061)"/>
          <ellipse class="cls-16" cx="274.51" cy="405.22" rx="12.79" ry="36.68" transform="rotate(-77.73 274.4920786 405.2136602)"/>
          <ellipse class="cls-16" cx="277.08" cy="393.38" rx="6.06" ry="14.81" transform="rotate(-77.73 277.0619372 393.3769904)"/>
          <ellipse class="cls-16" cx="269.67" cy="427.44" rx="10.1" ry="28.98" transform="rotate(-77.73 269.6499943 427.4382873)"/>
          <ellipse class="cls-16" cx="275.63" cy="400.05" rx="4.35" ry="9.42" transform="rotate(-77.73 275.6143958 400.049499)"/>
          <ellipse class="cls-16" cx="269.49" cy="428.27" rx="6.06" ry="14.81" transform="rotate(-77.73 269.4778016 428.2614933)"/>
          <ellipse class="cls-16" cx="276.89" cy="394.27" rx="10.1" ry="28.98" transform="rotate(-77.73 276.8733575 394.2586266)"/>
          <ellipse class="cls-16" cx="270.85" cy="422.03" rx="4.35" ry="9.42" transform="rotate(-77.73 270.830451 422.0242007)"/>
          <circle class="cls-16" cx="273.23" cy="411.1" r="6.86"/>
        </g>
        <g id="report">
          <path d="M362.81 283.67c-12.82.48-26.12-10.45-26.11-26.25a26.25 26.25 0 0 1 26.11-26.09c14.13 0 26.45 10.91 26.34 26.36a25.7 25.7 0 0 1-26.34 25.98z" fill="url(#linear-gradient-8)"/>
          <path d="M374.66 274.15c.36 0 .13.24.2-.12a31.61 31.61 0 0 0 .55-9.43 62.91 62.91 0 0 0-2.41-10.54c-2.34-6.55 2.64-13.39 4.1-11.64-2.63-3.16-13.3-2.13-20.51-2.19h-1.11a16.39 16.39 0 0 0-2.22 0c-2.77 1.67-6.11 5.46-5.54 9.43.51 3.55.53 7.14 1.09 9.51a34.31 34.31 0 0 1 1.13 8.79 15.57 15.57 0 0 1-1.11 6.1l21.43.07z" fill="#f7f7f7"/>
          <path class="cls-19" d="M352.12 247.41h13.31M352.12 252.68h13.31M353.79 257.67h13.3M354.9 262.66h13.3"/>
        </g>
        <g id="seo">
          <path d="M405.57 181.74h8.78c8.63-21.38 21.89-30 40.37-26.5 15.43 2.91 26.64 17 26.54 33.44-.09 15.58-11.71 29.56-26.84 32.31-18.43 3.34-31.89-5.58-40.08-26.84h-8.79zm17 6.43c0 14.06 11.59 26 25.43 25.41 16.5-.68 25.25-13.66 25.2-25.37-.07-13.48-10.08-25.23-25.36-25.58-14.01-.32-25.3 11.37-25.29 25.54z" fill="url(#linear-gradient-9)"/>
          <path class="cls-22" d="M405.57 181.74v12.41l-.32 3.83H357v-19.69h48.07z"/>
          <path d="M422.55 188.17c0-14.13 11.28-25.86 25.27-25.54 15.28.35 25.29 12.1 25.36 25.58.05 11.71-8.7 24.69-25.2 25.37-13.84.56-25.42-11.35-25.43-25.41z" fill="url(#linear-gradient-10)"/>
          <text transform="translate(432.96 194.02)" font-size="17.05" fill="#14076e" font-family="MyriadPro-Regular,Myriad Pro">
            SEO
          </text>
        </g>
        <g id="instagram">
          <rect x="283.62" y="114.23" width="55.75" height="55.75" rx="19.82" ry="19.82" opacity=".88" fill="url(#linear-gradient-11)"/>
          <path class="cls-10" d="M317.75 133.9c-10.15-6.27-20.72 4.3-14.46 14.45a6.08 6.08 0 0 0 2 2c10.15 6.27 20.72-4.3 14.45-14.45a6 6 0 0 0-1.99-2zm-6.25 14.77c-5 0-8.77-5.7-5.06-11a3 3 0 0 1 .66-.66c5.29-3.66 11 .06 11 5.09a6.57 6.57 0 0 1-6.56 6.56zM322 134a2.35 2.35 0 0 1-2.36-2.35A2.39 2.39 0 1 1 322 134zm9 0c-.15-3.16-.87-5.95-3.18-8.25s-5.09-3-8.24-3.18-13-.18-16.24 0-5.94.87-8.24 3.17-3 5.09-3.18 8.25-.19 13 0 16.23.87 5.95 3.18 8.25 5.09 3 8.24 3.18 13 .18 16.24 0 5.94-.87 8.24-3.18 3-5.09 3.18-8.25.19-13 0-16.22zm-4.2 19.71a6.62 6.62 0 0 1-3.74 3.74c-2.59 1-8.73.79-11.6.79s-9 .23-11.6-.79a6.65 6.65 0 0 1-3.74-3.74c-1-2.59-.79-8.74-.79-11.6s-.23-9 .79-11.6a6.65 6.65 0 0 1 3.74-3.74c2.59-1 8.74-.79 11.6-.79s9-.23 11.6.79a6.62 6.62 0 0 1 3.74 3.74c1 2.59.79 8.74.79 11.6s.28 9.02-.75 11.6z"/>
        </g>
        <path id="facebook" class="cls-22" d="M220.29 162v-34.72h-11.62v-13.79h11.62v-10.87c0-11.8 7.21-18.23 17.75-18.23a96.06 96.06 0 0 1 10.63.55v12.33h-7.3c-5.73 0-6.83 2.73-6.83 6.72v9.5h12.92l-1.77 13.79h-11.15V162"/>
        <g id="like">
          <path d="M304.08 226.44a8.72 8.72 0 0 0 2.34-5.92 7.2 7.2 0 0 0-7.17-7H287c.88-3.41 4-6.27 4-11.38 0-8.84-5.78-9.8-8.67-9.8-2.43 0-1.82 2.54-5.12 12.43-2.66 6.68-2 6.85-12.74 15.23a1.42 1.42 0 0 0-.43 1v25.73c0 .79 5.84 2.54 7.75 3.39 3.83 1.7 8.58 3.82 14.39 3.82h.35c5.15 0 11.23-.05 13.69-3.58A6.38 6.38 0 0 0 301 245a9.52 9.52 0 0 0 2-9 10.05 10.05 0 0 0 1.08-9.56z" fill="url(#linear-gradient-12)"/>
          <path d="M259 219.29h-9.63a2.77 2.77 0 0 0-2.89 2.64v26.33a2.76 2.76 0 0 0 2.89 2.63H259a2.77 2.77 0 0 0 2.89-2.63v-26.33a2.78 2.78 0 0 0-2.89-2.64z" fill="url(#linear-gradient-13)"/>
          <circle cx="255.62" cy="245.49" r="2.34" fill="url(#linear-gradient-14)"/>
        </g>
        <path id="google" d="M212.7 248.26c0 16.67-11.42 28.53-28.27 28.53a29.21 29.21 0 1 1 0-58.42A28.08 28.08 0 0 1 204 226l-8 7.65c-10.4-10-29.75-2.5-29.75 13.92A18.3 18.3 0 0 0 184.43 266c11.57 0 15.9-8.3 16.58-12.6h-16.58v-10h27.81a25.59 25.59 0 0 1 .46 4.87z" fill="url(#linear-gradient-15)"/>
        <g id="message">
          <path class="cls-22" d="M141.29 166.79v-7.48-1.53a2.71 2.71 0 0 1 .28-1.2 2 2 0 0 1 1.4-1.4 3.5 3.5 0 0 1 1.62-.4h39.48a3.15 3.15 0 0 1 3.3 3v26.35a3.16 3.16 0 0 1-3.3 3h-3.79c-.17 2.09-.34 4.07-.58 7-2.32-1.95-3.77-3.28-5.35-4.48-1.18-.89-2.4-1.72-3.62-2.54h-26.07a3.17 3.17 0 0 1-3.3-3v-.68a22.46 22.46 0 0 1-.12-2.32c-.05-4.76.03-9.54.05-14.32z"/>
          <path class="cls-30" d="M165.14 153.79v-7.49-1.53a2.71 2.71 0 0 0-.28-1.2 2 2 0 0 0-1.4-1.4 3.5 3.5 0 0 0-1.62-.4h-39.56a3.16 3.16 0 0 0-3.3 3v26.35a3.17 3.17 0 0 0 3.3 3h3.79c.18 2.09.34 4.07.59 7 2.31-2 3.77-3.28 5.35-4.48 1.17-.89 2.39-1.72 3.61-2.54h26.14a3.16 3.16 0 0 0 3.3-3v-.68a19.94 19.94 0 0 0 .12-2.32c.05-4.76-.02-9.54-.04-14.31z"/>
        </g>
        <g id="megaphone">
          <path d="M379.13 106.12c10.64-6.91 17.75-17 24.37-27.45l9.5 15.81.15 1c-4.21 2.52-8.44 5-12.61 7.57-5.66 3.48-11.27 7-16.91 10.57z" fill="url(#linear-gradient-16)"/>
          <path class="cls-30" d="M413 94.69c-3.16-5.27-6.38-10.75-9.54-16 1.15-2.23 2.26-4.47 3.49-6.66.17-.3.89-.3 1.36-.44 3.48 6.08 7.51 12.16 11 18.25-1.91 1.53-4.31 3.3-6.31 4.85zM379.13 106.12c1.5 2.48 3 5 4.48 7.45v.47L375 118.7c-1.4-2.52-4.15-5.26-3.79-7.49.29-1.82 4.31-3 6.68-4.5.41-.24.84-.39 1.24-.59z"/>
          <path class="cls-22" d="M375 118.7l8.6-4.66 2.8 4.64-8.24 5q-1.54-2.51-3.16-4.98z"/>
          <path d="M386.43 118.68l-2.8-4.64v-.47c5.64-3.53 11.25-7.09 16.91-10.57 4.17-2.57 7.34-5.11 12.52-8.31 1.77 2.86 3.7 6.42 5.37 9.34 1.24 2.19 2.24 4.51 3.35 6.78a72.61 72.61 0 0 0-19.65 2.52l-11.88 3.75z" fill="url(#linear-gradient-17)"/>
          <path class="cls-22" d="M390.23 117.08l11.88-3.75c2.31 4 4.56 8.15 7 12.15.91 1.52.87 2.36-.82 3.2-2.37 1.19-4.58 2.71-7 3.86a2.49 2.49 0 0 1-2.35-.49c-3-4.94-5.83-9.97-8.71-14.97zM421.76 110.81c-1.11-2.27-2.1-4.6-3.35-6.78-1.51-2.63-3.54-5.69-5.37-9.34 1.94-1.55 4.36-3.32 6.3-4.87 3.9 6.57 7.25 13.16 11.15 19.73.61 1 .73 1.63-.85 1.53-2.64-.17-5.25-.19-7.88-.27z"/>
          <path class="cls-33" d="M430.2 73l2.52-11.75c.8-3.77-5-5.38-5.79-1.6l-2.51 11.76c-.81 3.76 5 5.37 5.78 1.59zM435 81.6l12.72-8.93c3.14-2.21.15-7.41-3-5.18L432 76.42c-3.14 2.21-.15 7.41 3 5.18zM437.78 91.62l12.23.82c3.85.25 3.84-5.75 0-6l-12.23-.82c-3.85-.25-3.84 5.75 0 6z"/>
        </g>
        <path d="M305.31 326.42l.24 1.87-28.83-5.49-.05-1.54c4.07.66 8.15 1.26 12.21 2 4.59.83 9.94 1.91 16.43 3.16z" fill="url(#linear-gradient-18)"/>
        <path class="cls-35" d="M298.29 491.38c3.52-.74 6.48-6.47 8.66-8.72a38.07 38.07 0 0 0 5.17 3.65c1.79 1 11.31-8.18 12.84-10.46 1.82.73-3.57 16-3.8 17.46-1.26 8-13.6 11.48-20.36 14.51-2.64.06-4.41-1.45-6.26-2.93-2-5.24-.54-9.54 3.53-13.15a1.45 1.45 0 0 0 .22-.36z"/>
        <g class="cls-36">
          <path class="cls-38" d="M311 468.81c-.8 1.62-1.25 3.48-2 5.11-.44 2.51-1.34 6.93-2.28 12.47.28.51.47 1.85.75 2.35 1.82.75 3.64 1.35 5.72.63 5.4-5 14.84-12.1 13.78-20.3-.19-1.49 2.18-12.2.3-12.37-.78 2.69-7.71 8.62-9.64 8.2a35.87 35.87 0 0 1-5.81-2 19.17 19.17 0 0 0-.77 2c0 .7.11 1.4.22 2.11z"/>
        </g>
        <path class="cls-35" d="M311.14 466.57c-.81 1.57-1.27 3.35-2.07 4.92-.49 2.6-1.5 8.35-2.53 14.08 2.2.88 4.34 1.81 6.84 1 5.59-4.86 16.38-11.8 15.28-19.79-.2-1.46 2.26-11.9.31-12.07-.81 2.63-9 8.41-11 8a39.47 39.47 0 0 1-6-2 15.76 15.76 0 0 0-.8 1.91 17.8 17.8 0 0 0 .21 1.9c-.08.68-.16 1.36-.24 2.05z"/>
        <g class="cls-36">
          <path class="cls-38" d="M311.14 465.17c-.26-5.56 1.69-10.66 3.93-15.71 1-.8 2.94-5 3.91-5.76 3.93 1.6 3.38 1.54 6-1 4.45-4.31 6.67-5.57 11-10 .48 1.4 2.95 4.89 3 6.31.52 9.76-1 11.69-8.81 18.77-2.22 1.92-4.26 7.76-6.35 10.19-4.78 3.37-5.58 3.36-10.87 0a3.55 3.55 0 0 1-1.81-2.8z"/>
        </g>
        <path class="cls-35" d="M311.15 462.33c-.31-5.62 1.66-10.77 3.92-15.87 1-.8 2.94-5 3.91-5.76 3.93 1.6 3.38 1.54 6-1 4.45-4.31 8.67-7.57 13-12 .48 1.4 2.95 4.89 3 6.31.52 9.76-2.18 18-10.81 23.77-2.56 1.73-4.26 4.76-6.35 7.19-4.78 3.37-5.58 3.36-10.87 0a.83.83 0 0 0-.16-.09 3 3 0 0 1-1.64-2.55z"/>
        <g class="cls-36">
          <path class="cls-38" d="M315.65 440.45c-.25-5.17 1.56-9.93 3.64-14.63.93-.74 2.73-4.62 3.63-5.35 3.65 1.5 3.13 1.43 5.57-.92 4.13-4 2.05-7 6.06-11.14.45 1.3 2.74 4.54 2.81 5.86.49 9.06 4 16.69-4 22.06-2.39 1.6-4 4.41-5.9 6.67-4.44 3.13-5.17 3.12-10.08 0a3.25 3.25 0 0 1-1.73-2.55z"/>
        </g>
        <path class="cls-35" d="M316.2 440.64a2.83 2.83 0 0 1-1.38-1.55c-2-6.14-.38-11.59 3.06-17.17 2.07-3.35 2.76-7.64 3.61-11.61 1.21-5.64 3-11.38 4-17.06a8.53 8.53 0 0 1 .48-2.55c3.87 2.62 8.39 6 13.32 6.08 1.12 1.52 2.68 2.89 3.29 4.6 2 5.44 3.51 11.2 2.49 16.89-.58 3.22-3.25 6.06-5 9.07q-6.81 6.59-13.63 13.17c-3.39 3.25-6.43 3.28-10.07.26a1.37 1.37 0 0 0-.17-.13zM272 516.7c-1.5.92-26.29 11.22-27.47 11.91-5.26 3-12.52 4.08-17.81 7.08-2.16 1.22-2.49 4.19-4.51 5.61a4.26 4.26 0 0 0-1.58 3.13c.17 4.5-30.33-36.9-32.56-39.57-5.14-6.17-10.4-12.26-15.52-18.46a30.55 30.55 0 0 1-2.59-4.36 46.86 46.86 0 0 0 11-24c1.7-11.56 6.15-22.32 10.28-33.15 2.81-7.37 5.48-14.81 8.57-22.06a37 37 0 0 1 5.8-9.74c6.68-7.64 10.74-16.51 13.57-26.09.47-1.61 1.26-3.14 1.77-4.75 1.17-3.74 1.34-3.73 5.05-3.1 4.16.7 5.92 4 8 6.9-.62 10.49-1.57 20.92-5.19 30.92a51 51 0 0 0-2.34 7.28q-9 44.66-17.92 89.34c-1.19 6 2 10.62 8.05 11.87"/>
        <path d="M0 665.35C41.75 606 103.11 510.9 171.19 479.69l59.07 55.46c-20.2 30.71-54.18 93.65-60.27 130.2z" fill="url(#linear-gradient-19)"/>
        <circle cx="256.48" cy="500.2" r="5.5" fill="url(#linear-gradient-20)"/>
        <g id="hand" class="touch-up">
          <path class="cls-35" d="M376.25 528.5c-2.31-6.94-6.65-9-14.15-7.55a4 4 0 0 1-4.74-1.92c-.71-1.21-1.39-2.45-2-3.71-2.6-5.05-9.35-8.29-14.34-6.18-3.62 1.53-5.84.82-7.85-2.22-.69-1.05-1.71-1.88-2.51-2.87-5.41-6.74-10.84-8.17-17.85-4.7a10.89 10.89 0 0 1-9 .81 6.09 6.09 0 0 1-3.68-4.69 8.8 8.8 0 0 0-1.4-3.27 1 1 0 0 1-.12-.23 211.78 211.78 0 0 1-7.6-32.31c-.78-4.69-1.89-9.32-2.68-14-.23-1.34-1.55-11.36-1.5-13.16-.3-1.25-.6-2.5-.89-3.75l-.7-5.34c-1.1-3.6-1.92-7.33-3.37-10.79-2.34-5.63-6.84-7.55-12.37-6a5.56 5.56 0 0 0-4.4 4.59c-.53 3.05-.84 6.13-1.23 9.2-.2 1.54-.37 3.08-.56 4.62q.53 3.15 1 6.31l.15 4.36c.22 1.77.44 3.54.67 5.31.05 1.19.11 2.37.16 3.55.6 5.86 1.12 11.72 1.82 17.56.63 5.29 1.57 10.55 2.18 15.85.55 4.7.84 9.44 1.25 14.16.25 5 .54 10 .73 15.06a10.52 10.52 0 0 1-.79 4.39 76 76 0 0 0-5.07-20.12c-2-2.12-3.73-4.64-6.09-6.25a6.67 6.67 0 0 0-8.82 1.39c-.47.55-1 1.06-1.46 1.59-1.9 4.52-.87 9.24-1 13.88-.07 3 0 5.93 0 9.29l.27 14.85c.09.36.18.68.26 1 1.86-5.55.75-11.11-.36-16.66 1.11 5.55 2.22 11.11.36 16.66a10.5 10.5 0 0 1 .46 2.16c.35 5.91.5 11.83 1 17.73.83 10.56 1.36 21.18 7.56 30.48 3.21 4.81 5.75 10.07 8.91 14.92 3.79 5.8 7.9 11.41 11.91 17.07 3.36 4.73 6.78 9.42 10.17 14.13 1.05 1.46 40.85-2.13 40.67-3.15 4.27-.76 8.39-1.46 12.49-2.24 8.55-1.63 17.09-3.32 25.64-5a11.55 11.55 0 0 1 1.67-.06 54.51 54.51 0 0 1 4.85-25.56 39.06 39.06 0 0 0 3-11.41c.93-6.85 1.05-13.8 2-20.64a59.66 59.66 0 0 0-2.65-27.14z"/>
          <path d="M392.06 668.44s-.84-3.42-1.28-5.11c-5.29-20.32-12.36-39-21.86-54.68l-80.79 14c-.12 10.53-.76 23.82-2 38.26-.21 2.49-.67 7.55-.67 7.55z" fill="url(#linear-gradient-21)"/>
        </g>
      </g>
    </g>
  </g>
</svg>
