<svg xmlns="http://www.w3.org/2000/svg" viewBox="0 0 318.6 198.8"><defs><style>.cls-1{fill:#fff}.cls-2{fill:#cf142b}.cls-3{fill:#00247d}</style></defs><g id="Layer_2" data-name="Layer 2"><g id="Countryflags.com"><path class="cls-1" d="M0 1.3v18.5l92.9 46.5H70.8L0 30.9v7.3l56 28.1H0v13.2h139.3V0h-13.2v64.3L0 1.3zM318.6 79.5V66.3h-56.3l56.3-28.2V19.8l-93 46.5h-22l115-57.7V1.2L192.3 64.3V0h-13.2v79.5h139.5zM0 119.2v13.3h56l-56 28V179l92.8-46.5H115L0 190.1v7.4l126.1-63.1v64.4h13.2v-79.6H0zM318.6 197.6v-18.4l-93.2-46.7h22.1l71.1 35.6v-7.4l-56.3-28.2h56.3v-13.3H179.1v79.6h13.2v-64.4l126.3 63.2z"/><path class="cls-2" d="M318.6 119.2V79.5H179.1V0h-39.8v79.5H0v39.7h139.3v79.6h39.8v-79.6h139.5z"/><path class="cls-3" d="M318.6 1.2V0H192.3v64.3L318.6 1.2zM318.6 197.6l-126.3-63.2v64.4h126.3v-1.2zM0 197.5v1.3h126.1v-64.4L0 197.5zM0 1.3l126.1 63V0H0v1.3zM0 38.2v28.1h56L0 38.2zM318.6 66.3V38.1l-56.3 28.2h56.3zM318.6 160.7v-28.2h-56.3l56.3 28.2zM56 132.5H0v28l56-28z"/><path class="cls-2" d="M225.6 66.3l93-46.5V8.6l-115 57.7h22zM115 132.5H92.8L0 179v11.1l115-57.6zM92.9 66.3L0 19.8v11.1l70.8 35.4h22.1zM225.4 132.5l93.2 46.7v-11.1l-71.1-35.6h-22.1z"/></g></g></svg>