<?xml version="1.0" encoding="utf-8"?>
<!-- Generator: Adobe Illustrator 22.1.0, SVG Export Plug-In . SVG Version: 6.00 Build 0)  -->
<svg version="1.1" id="Layer_1" xmlns="http://www.w3.org/2000/svg" xmlns:xlink="http://www.w3.org/1999/xlink" x="0px" y="0px"
	 viewBox="0 0 57 56" style="enable-background:new 0 0 57 56;" xml:space="preserve">
<style type="text/css">
	.st0{fill:#5308AB;}
</style>
<title>gear_icon</title>
<g>
	<g id="Layer_2_1_">
		<g id="Layer_4">
			<path class="st0" d="M54.9,24.3h-4.1c-0.2-1.5-0.6-3-1.2-4.4l3.5-2c0.6-0.4,0.8-1.1,0.5-1.8c0,0,0,0,0,0L51.3,12
				c-0.4-0.6-1.2-0.8-1.8-0.5l-3.5,2c-1-1.2-2.1-2.3-3.3-3.2l2-3.5c0.4-0.6,0.1-1.4-0.5-1.8l-4.1-2.4c-0.6-0.4-1.4-0.1-1.8,0.5
				l-2,3.5c-1.4-0.5-2.9-0.9-4.4-1.2V1.3c0-0.7-0.6-1.3-1.3-1.3c0,0,0,0,0,0h-4.7c-0.7,0-1.3,0.6-1.3,1.3v4.1C23,5.6,21.5,6,20,6.6
				l-2-3.5c-0.4-0.6-1.2-0.9-1.8-0.5c0,0,0,0-0.1,0L12,4.9c-0.6,0.4-0.8,1.1-0.5,1.8c0,0,0,0,0,0l2.1,3.6c-1.1,0.9-2.1,1.9-3,2.9
				l-3.5-2.1c-0.6-0.4-1.4-0.2-1.8,0.5c0,0,0,0,0,0l-2.4,4c-0.4,0.6-0.2,1.4,0.4,1.8c0,0,0,0,0,0l3.5,2.1c-0.6,1.5-1.1,3.2-1.3,4.8
				H1.4c-0.7,0-1.3,0.6-1.3,1.3v4.7c0,0.7,0.6,1.3,1.3,1.3h4.1c0.2,1.5,0.6,3,1.2,4.4l-3.5,2.1c-0.6,0.4-0.8,1.1-0.5,1.8
				c0,0,0,0,0,0L5,44c0.4,0.6,1.2,0.8,1.8,0.5l3.5-2c1,1.2,2.1,2.3,3.3,3.3l-2,3.5c-0.4,0.6-0.2,1.4,0.5,1.8c0,0,0,0,0,0l4.1,2.4
				c0.6,0.4,1.4,0.1,1.8-0.5l2-3.5c1.4,0.5,2.9,0.9,4.4,1.2v4.1c0,0.7,0.6,1.3,1.3,1.3h4.7c0.7,0,1.3-0.6,1.3-1.3v-4.1
				c1.5-0.2,3-0.6,4.4-1.2l2,3.5c0.4,0.6,1.2,0.8,1.8,0.5l4.1-2.4c0.6-0.4,0.8-1.2,0.5-1.8l-1.9-3.5c1.1-0.9,2.1-1.9,3-2.9l3.5,2.1
				c0.6,0.4,1.4,0.2,1.8-0.5c0,0,0,0,0,0l2.4-4.1c0.4-0.6,0.2-1.4-0.4-1.8c0,0,0,0,0,0l-3.5-2.1c0.6-1.5,1.1-3.2,1.3-4.8h4.1
				c0.7,0,1.3-0.6,1.3-1.3v-4.7C56.2,24.9,55.6,24.3,54.9,24.3z"/>
		</g>
	</g>
</g>
</svg>
