<svg xmlns="http://www.w3.org/2000/svg" xmlns:xlink="http://www.w3.org/1999/xlink" viewBox="0 0 517.33 378">
  <defs>
    <style>
      .cls-2{fill:#978ed3}.cls-3{fill:#faedd6}.cls-12,.cls-15,.cls-19,.cls-22,.cls-39,.cls-44{mix-blend-mode:multiply}.cls-7{fill:#1c08a0}.cls-28,.cls-8{fill:none;stroke-miterlimit:10;stroke-width:3px}.cls-8{stroke:#b4a5d7}.cls-9{fill:#5308ab}.cls-12{opacity:.2}.cls-14{fill:#171718}.cls-15{opacity:.15}.cls-19{opacity:0}.cls-21{fill:#301ea8}.cls-22{opacity:.35}.cls-27{fill:#4534b1}.cls-28{stroke:#ede580}.cls-53{opacity:.68}.cls-32{fill:#ffd9ce}.cls-33{fill:#14076e}.cls-34{fill:url(#linear-gradient-10)}.cls-35{fill:#2f243a}.cls-36{fill:url(#linear-gradient-11)}.cls-37{fill:url(#linear-gradient-12)}.cls-38{fill:url(#linear-gradient-13)}.cls-39{opacity:.25}.cls-40{fill:#f5dbad}.cls-41{fill:#1b737c}.cls-42{fill:#1b7f89}.cls-43{fill:#accbcd}.cls-44{opacity:.39}.cls-45{fill:#decbb7}.cls-46{fill:url(#linear-gradient-14)}.cls-47{fill:url(#linear-gradient-15)}.cls-48{fill:url(#linear-gradient-16)}.cls-49{fill:#8378cb;opacity:.8}.cls-51{fill:#ab58d5}.cls-52{fill:#effffa}.cls-53{fill:url(#linear-gradient-18)}.cls-54{opacity:.7;fill:url(#linear-gradient-19)}.cls-55{fill:url(#linear-gradient-20)}.arm-down{ -webkit-animation: armove 5s infinite; animation: armove 5s infinite; animation-direction: alternate; animation-delay: -3s;}@keyframes armove {from {rotate(-10deg); transform-origin: 50% 50%;} to {transform: rotate(10deg); transform-origin: 20% 30%;}}.path1{stroke-dasharray: 87;stroke-dashoffset: 87;animation: dash 1.5s linear forwards;animation-delay: 0s}@keyframes dash{to{stroke-dashoffset: 0;}}.path2{stroke-dasharray: 87;stroke-dashoffset: 87;animation: dash 1.5s linear forwards;animation-delay: 1s}@keyframes dash{to{stroke-dashoffset: 0;}}.path3{stroke-dasharray: 62;stroke-dashoffset: 62;animation: dash 1.5s linear forwards infinite;animation-delay: 2s}@keyframes dash{to{stroke-dashoffset: 0;}}.path4{stroke-dasharray: 60;stroke-dashoffset: 60;animation: dash 1.5s linear forwards;animation-delay: 0s}@keyframes dash{to{stroke-dashoffset: 0;}}.path5{stroke-dasharray: 60;stroke-dashoffset: 60;animation: dash 1.5s linear forwards;animation-delay: 1s}@keyframes dash{to{stroke-dashoffset: 0;}}.path6{stroke-dasharray: 40;stroke-dashoffset: 40;animation: dash 1.5s linear forwards infinite;animation-delay: 2s}@keyframes dash{to{stroke-dashoffset: 0;}}
    </style>
    <linearGradient id="linear-gradient" x1="4.17" y1="239" x2="205.03" y2="239" gradientUnits="userSpaceOnUse">
      <stop offset="0" stop-color="#849994"/>
      <stop offset=".19" stop-color="#bccbc6"/>
      <stop offset=".57" stop-color="#b3c6c1"/>
      <stop offset=".94" stop-color="#a5bfb9"/>
    </linearGradient>
    <linearGradient id="linear-gradient-2" x1="124.01" y1="298.88" x2="206.49" y2="298.88" gradientTransform="rotate(83.75 165.2511875 298.8655486)" gradientUnits="userSpaceOnUse">
      <stop offset=".12" stop-color="#849994"/>
      <stop offset=".49" stop-color="#a5bfb9"/>
      <stop offset=".74" stop-color="#b3c6c1"/>
      <stop offset="1" stop-color="#bccbc6"/>
    </linearGradient>
    <linearGradient id="linear-gradient-3" y1="125.52" x2="92.01" y2="125.52" gradientUnits="userSpaceOnUse">
      <stop offset=".01" stop-color="#f0f0f1"/>
      <stop offset=".27" stop-color="#dfe4e3"/>
      <stop offset=".72" stop-color="#c5d2ce"/>
      <stop offset="1" stop-color="#bccbc6"/>
    </linearGradient>
    <linearGradient id="linear-gradient-4" x1="14.43" y1="162" x2="108.34" y2="162" gradientUnits="userSpaceOnUse">
      <stop offset="0" stop-color="#849994"/>
      <stop offset=".49" stop-color="#a5bfb9"/>
      <stop offset=".74" stop-color="#b3c6c1"/>
      <stop offset="1" stop-color="#bccbc6"/>
    </linearGradient>
    <linearGradient id="linear-gradient-5" x1="156.95" y1="279.02" x2="173.56" y2="279.02" xlink:href="#linear-gradient-3"/>
    <linearGradient id="linear-gradient-6" x1="122.4" y1="163" x2="199.16" y2="163" gradientUnits="userSpaceOnUse">
      <stop offset=".01" stop-color="#b2ec9f"/>
      <stop offset=".2" stop-color="#a8e594"/>
      <stop offset=".7" stop-color="#91d77a"/>
      <stop offset="1" stop-color="#89d171"/>
    </linearGradient>
    <linearGradient id="linear-gradient-7" x1="195.89" y1="224.64" x2="194" y2="165.93" xlink:href="#linear-gradient-4"/>
    <linearGradient id="linear-gradient-8" x1="194.42" y1="224.69" x2="192.52" y2="165.98" gradientUnits="userSpaceOnUse">
      <stop offset="0" stop-color="#fff"/>
      <stop offset=".28" stop-color="#f6f6f6"/>
      <stop offset=".74" stop-color="#dcdcdc"/>
      <stop offset=".99" stop-color="#ccc"/>
    </linearGradient>
    <linearGradient id="linear-gradient-9" x1="140.57" y1="243.62" x2="239.58" y2="157.94" gradientUnits="userSpaceOnUse">
      <stop offset="0" stop-color="#849994"/>
      <stop offset=".18" stop-color="#879c97"/>
      <stop offset=".32" stop-color="#8fa6a1"/>
      <stop offset=".44" stop-color="#9eb7b1"/>
      <stop offset=".49" stop-color="#a5bfb9"/>
      <stop offset=".74" stop-color="#b3c6c1"/>
      <stop offset="1" stop-color="#bccbc6"/>
    </linearGradient>
    <linearGradient id="linear-gradient-10" x1="410.69" y1="428.37" x2="351.27" y2="235.77" gradientUnits="userSpaceOnUse">
      <stop offset="0" stop-color="#bccbc6"/>
      <stop offset=".26" stop-color="#b3c6c1"/>
      <stop offset=".51" stop-color="#a5bfb9"/>
      <stop offset=".68" stop-color="#9db6b0"/>
      <stop offset=".95" stop-color="#899e99"/>
      <stop offset="1" stop-color="#849994"/>
    </linearGradient>
    <linearGradient id="linear-gradient-11" x1="465.01" y1="70.41" x2="400.92" y2="227.63" xlink:href="#linear-gradient-3"/>
    <linearGradient id="linear-gradient-12" x1="442.65" y1="199.12" x2="455.65" y2="199.12" gradientUnits="userSpaceOnUse">
      <stop offset="0" stop-color="#bccbc6"/>
      <stop offset=".51" stop-color="#b3c6c1"/>
      <stop offset="1" stop-color="#a5bfb9"/>
    </linearGradient>
    <linearGradient id="linear-gradient-13" x1="398.29" y1="155.28" x2="505.26" y2="155.28" xlink:href="#linear-gradient-3"/>
    <linearGradient id="linear-gradient-14" x1="290.01" y1="289.08" x2="517.33" y2="289.08" xlink:href="#linear-gradient"/>
    <linearGradient id="linear-gradient-15" x1="377.1" y1="323.17" x2="394.25" y2="323.17" xlink:href="#linear-gradient-3"/>
    <linearGradient id="linear-gradient-16" x1="240.09" y1="180.91" x2="299.58" y2="180.91" gradientUnits="userSpaceOnUse">
      <stop offset=".01" stop-color="#978ed3"/>
      <stop offset=".49" stop-color="#a39cd8"/>
      <stop offset="1" stop-color="#aca5dc"/>
    </linearGradient>
    <linearGradient id="linear-gradient-17" x1="208.17" y1="209.2" x2="307.3" y2="179.16" gradientUnits="userSpaceOnUse">
      <stop offset="0" stop-color="#aca5dc"/>
      <stop offset=".41" stop-color="#a8a1da"/>
      <stop offset=".84" stop-color="#9d94d5"/>
      <stop offset=".99" stop-color="#978ed3"/>
    </linearGradient>
    <linearGradient id="linear-gradient-18" x1="414.47" y1="271.33" x2="334.36" y2="144.49" xlink:href="#linear-gradient-4"/>
    <linearGradient id="linear-gradient-19" x1="384.05" y1="299.15" x2="389.54" y2="251.59" gradientUnits="userSpaceOnUse">
      <stop offset=".01" stop-color="#5e6663"/>
      <stop offset=".26" stop-color="#6a7673"/>
      <stop offset=".72" stop-color="#7d908b"/>
      <stop offset="1" stop-color="#849994"/>
    </linearGradient>
    <linearGradient id="linear-gradient-20" x1="379.56" y1="342.56" x2="386.76" y2="280.22" gradientUnits="userSpaceOnUse">
      <stop offset="0" stop-color="#bccbc6"/>
      <stop offset=".26" stop-color="#b3c6c1"/>
      <stop offset=".51" stop-color="#a5bfb9"/>
      <stop offset=".66" stop-color="#9fb9b3"/>
      <stop offset=".87" stop-color="#90a7a1"/>
      <stop offset="1" stop-color="#849994"/>
    </linearGradient>
    <linearGradient id="linear-gradient-28" x1="208.17" y1="209.2" x2="307.3" y2="179.16" gradientTransform="matrix(.98 0 0 1 5.39 .84)" xlink:href="#linear-gradient-17"/>
  </defs>
  <g style="isolation:isolate">
    <g id="Layer_2" data-name="Layer 2">
      <g id="Layer_2-2" data-name="Layer 2">
        <g id="arm" class="arm-down">
          <path class="cls-2" d="M278 201.11a8.32 8.32 0 0 1-8.72-5.66c-6.16-17.93 1.85-53 10.63-62.13 3.77-3.94 7.7-3.41 9.83 0 2 3.21.87 3.24 1.41 8.83 1.37 14.12-3.45 32.25 1.25 36.56 3.16 2.89 9.62.59 20.81.48 4.5-.05 3 1.69 3.92 3.67 1.64 3.51 9.18 7.4 8.41 7.59-8.1 1.93-36.63 9.4-47.54 10.66z"/>
          <path class="cls-3" d="M314.5 181.86c4.59-4.15 6.8-7.24 4.89-13.18 8-3.34 6.91 0 5.84 6.95 9.53 3.28 11.44 13.79-.66 14.65-5.95.43-6.57-3.28-10.07-8.42z"/>
          <path class="cls-3" d="M322.63 174.91c6.1-.51 6.89-1.29 10.51 1.39 4.64 11-5.62 14-8.31 11.49-4.07-3.79-3.22-6.79-2.2-12.88z"/>
          <path class="cls-2" d="M278 201.11a8.32 8.32 0 0 1-8.72-5.66c-6.16-17.93 1.85-53 10.63-62.13 3.77-3.94 7.7-3.41 9.83 0 2 3.21.87 3.24 1.41 8.83 1.37 14.12-3.45 32.25 1.25 36.56 3.16 2.89 9.62.59 20.81.48 4.5-.05 3 1.69 3.92 3.67 1.64 3.51 9.18 7.4 8.41 7.59-8.1 1.93-36.63 9.4-47.54 10.66z"/>
          <path class="cls-3" d="M314.5 181.86c4.59-4.15 6.8-7.24 4.89-13.18 8-3.34 6.91 0 5.84 6.95 9.53 3.28 11.44 13.79-.66 14.65-5.95.43-6.57-3.28-10.07-8.42z"/>
          <path d="M321 179.5a4.68 4.68 0 0 1 4.15-3.95c3.08-.33 4.2-.3 7 1.75 4.64 11-5.62 14-8.31 11.49-3.19-2.96-3.37-5.44-2.84-9.29z" fill="#ead8bb"/>
          <path class="cls-3" d="M322.63 175.91c6.1-.51 6.89-1.29 10.51 1.39 4.64 11-5.62 14-8.31 11.49-4.07-3.79-3.22-6.79-2.2-12.88z"/>
        </g>
        <rect x="136.38" y="5.46" width="231.52" height="144.06" rx="1.46" ry="1.46" fill="#efffff"/>
        <path class="cls-7" d="M141.42 0h221.51a4.66 4.66 0 0 1 4.66 4.66v14.58H136.76V4.66A4.66 4.66 0 0 1 141.42 0z"/>
        <path class="cls-8" d="M245.41 69.51h-27.29M181.02 42.93h23.52l-.19 19.76"/>
        <circle class="cls-9" cx="173.95" cy="42.93" r="10.4"/>
        <path class="cls-8" d="M279.99 69.55h-26.6M326.58 69.36l-28.6-.02"/>
        <rect class="cls-9" x="276.74" y="60.66" width="30.54" height="16.9" rx="1.9" ry="1.9"/>
        <circle class="cls-9" cx="334.37" cy="69.11" r="10.4"/>
        <path stroke="#9792e3" fill="none" stroke-miterlimit="10" stroke-width="3" d="M248.62 98.56V69.97"/>
        <rect class="cls-9" x="239.52" y="59.68" width="18.85" height="18.85" rx="2.66" ry="2.66" transform="rotate(45 248.9451654 69.1064638)"/>
        <circle class="cls-9" cx="248.82" cy="102.83" r="10.4"/>
        <rect class="cls-9" x="188.87" y="60.66" width="30.54" height="16.9" rx="1.9" ry="1.9"/>
        <path d="M204.92 296.21s-4.57-129.62-6.79-129.62l-185.75 1a4 4 0 0 0-4 4L4.19 296.28c-.37 1.1 5.44 1.79 5.81.69l5.5-119.6h50.87l-3.32 131.18a2.17 2.17 0 0 0 1.27 2.8s4.37.4 4.77-.79l3.74-132.45.24-.74h76.5l1.22 107.75c.42 1.25 4.45 1 4.45 1a2.37 2.37 0 0 0 1.5-3l.31-105.77h35.35l6.76 120.76c.36 1.1 4.44.72 4.44.72a2.08 2.08 0 0 0 1.32-2.62z" fill="url(#linear-gradient)"/>
        <ellipse cx="165.25" cy="298.88" rx="27.08" ry="41.38" transform="rotate(-83.75 165.2359292 298.8736136)" fill="url(#linear-gradient-2)"/>
        <path class="cls-14" d="M116.34 306.53l1.91-12.09c-13 2.32-13.09 2.17-22.91 10.21-2.92 2.4-5.65 2.11-9 3.79-7.34 9.25 36.49 9.87 30-1.91z"/>
        <path class="cls-14" d="M144.44 288.66l-.82-12.22c-12.17 5.14-12.28 5-20.06 15-2.32 3-5 3.3-8 5.69-5.08 10.67 37.84 1.58 28.88-8.47z"/>
        <path d="M92 156.46l-75.85.36L.08 97.37a2.24 2.24 0 0 1 2.15-2.82l70.31-.34a3.43 3.43 0 0 1 3.32 2.53z" fill="url(#linear-gradient-3)"/>
        <rect x="14.43" y="156.41" width="93.91" height="11.2" rx="3.2" ry="3.2" fill="url(#linear-gradient-4)"/>
        <path fill="#262928" d="M85.66 151.61l-64.47.31L6.88 99.71l64.47-.3 14.31 52.2z"/>
        <path d="M173.56 262.8v32.45a6.65 6.65 0 0 1-6.65 6.65h-3.31a6.65 6.65 0 0 1-6.65-6.65V262.8a6.64 6.64 0 0 1 6.65-6.65h3.31c3.67 0 6.54-.24 6.65 6.65z" fill="url(#linear-gradient-5)"/>
        <path class="cls-21" d="M137 218.1c1.9 15.47 3.31 31 5.72 46.42 3.66 23.42-.45 18.49-14.41 21.78-6.17-26.19-9.91-34.43-13.77-61.15-6.11-42.15 38.79-.43 22.46-7.05z"/>
        <path class="cls-3" d="M108.37 155.84a17.94 17.94 0 0 0-18.74-3.93 19.64 19.64 0 0 0-3.32 1.56c-.61.36-1.2.75-1.78 1.17a.8.8 0 0 0 .58 1.43l3.27-.38a27.94 27.94 0 0 1 3.81-.26 1.52 1.52 0 0 1 1.49 2.2c-.27.54-1.33 1.68-1.28 2.55s0 0 1.91.63c6.9 1.74 9.69-.89 14.06-4.97z"/>
        <path d="M100.69 151.68c11.26-5 15.12-8.21 26.11-13.78 11.57-5.9 23.2-3.9 35.09-2.11 2.9.43 4 0 6.93.18 5.23 8.81 8.3 22.7 10.67 32.21.75 3 .9-2.62 1.86.41-7.71-3.09-7.7-2.54-15.23-6-15.77-7.25-30.54-11-47.33-7-7 1.69-6.78 1.13-14 4.12-1.66-4.24-3.26-5.89-4.1-8.03z" fill="#89d171"/>
        <path class="cls-3" d="M132 103.21c.3 5.76 3.35 11-.77 16.21-2.24 2.83-2.08 8.35 3.16 5.67s11.23-3.74 16.85-6.73c1.06-.56 4.14-1.16 3.37-2.09-4.11-4.92-5.75-9.85-8.21-14.78s-7.23-2.6-12.34-1.22a2.88 2.88 0 0 0-2.06 2.94z"/>
        <path d="M131 119.77c9.41-.16 19.29 3.65 22.35-5.42 10.17 1.7 21 14.16 28.8 36.88 6.07 17.57 3.29 6.66 13.11 42 4.76 17.13 11.42 18.08-23.14 18.39-16.39.15-33.3-2.21-49.74-1.2C145.77 199 118 133.35 131 119.77z" fill="url(#linear-gradient-6)"/>
        <path class="cls-3" d="M86.31 158c-2.14-2.08-1.92-5.09-4.47-5.09h-2.56c-.6 0-3-.1-5.78.09a24.63 24.63 0 0 0-7 1.28 7.33 7.33 0 0 0-1.74.92c-.59.42-.2 1.25.52 1.27 8.75.32 5.59 1.46 10.15 4.71 6.91 1.69 6.57.82 10.88-3.18z"/>
        <path d="M131.75 186.17l-.34 3c2.94 1.12 15.64-40 11.05-49.35-1.62-3.29-5-6-8-4.45-2.76 1.42-1.85 2-4.28 5.77-2.95 4.73 1.75 43.51 1.57 45.03z" opacity=".77" fill="#89d171"/>
        <path d="M116.12 190.82a8.55 8.55 0 0 0 10.48-1.9c12.29-14.35 16.79-50.19 11.46-62.15-2.3-5.15-5.36-8.09-8.64-5.73-3.07 2.23-2.93 4.6-5.42 9.61-6.29 12.66-8 31.46-14 33.66-4.09 1.48-9.59-3.18-20.45-7.64-4.37-1.79-3.51.42-5.11 1.91-2.83 2.64-11.54 3.35-10.86 3.82 7.15 4.95 32.34 23.01 42.54 28.42z" fill="#b2ec9f"/>
        <path class="cls-3" d="M149.53 89.22a15.26 15.26 0 0 1-9.28 19.52c-2.66.94-6.35 2.07-8.94 1.58a15.69 15.69 0 0 1-4.17-1.42c-1.34-.69-1.36-1.33-2.71-3.56-.52-.86-1.38-2.42-2-3.26-.74-1.07-2.31-1.3-2.77-2.59-.26-.73.33-1.46.34-2.21 0-4-.63-4.38-.92-5.9a45 45 0 0 1 0-6.87c1.07-5 5.54-7.63 10.79-9.3 12.13-3.82 16.81 6.06 19.66 14.01z"/>
        <path class="cls-14" d="M123.88 91.38c1 0 1 0-.15-2.46-.64-1.42 1.22-2.37 2.33-1.76.2 0-.84-.32 1.64.77.31.13.57.77.8 1.68.29 1.11.52 2.61.74 4.1.1.72.2 1.43.29 2.09.27 1.84.53 3.3.83 3.34 6.27.91 8.39-.23 10.7-.43.43 0 9-1.79 9.47-1.62 1.14-1.87 1.71-10.45 2.92-12.27 1.94-2.9-.74-4.44-2.09-6.38-.77-1-2.08-1.86-2.23-2.88-.46-3.16-2.82-4.06-5.21-5.1-4.59-.57-8.94-3.55-12.76-.31-1 .84-3.53.85-5.36.73-4.21-.27-4.78 2.41-7.22 5.42 0 .33-1.58 2.09-1.1 3.17a12 12 0 0 1 .51 5c-.14 1.53.45.88 1.13.21.95-1 1.37-2.43 1.9-1.91.21.21.74 8.4 1 8.57 1.12.97.9.04 1.86.04z"/>
        <path class="cls-27" d="M198.13 239.89c3.7-14.71-2.15-20.34-.95-30.46-9.63-.64-40 .95-57.73-3.76-13.08-3.47-27.81-6.77-35.57-3.86-8.37 3.15-9.24 13.41-8.78 35.49.56 27 2.33 37.86 5.25 64.6 20.54 0 17.9.32 17.9-22.1V233c15.44 8.55 30.74 12.12 47.51 14.48 9.52 1 11.43 1.9 9.52 1-2.28-1.16 16.19-1.92 22.85-8.59z"/>
        <g id="code_left">
          <path id="one" class="cls-28 path4" d="M23.86 112.22h38.27"/>
          <path id="two" class="cls-28 path5" d="M26.78 121.8h38.27"/>
          <path id="three" class="cls-28 path6" d="M29.79 131.37h38.26"/>
        </g>
        <path d="M214.41 163.81a2.09 2.09 0 0 0-2.76-.54c-12.57 9-21 4.64-37.78 2.87-2.28-.24-4.05 1-3.36 3.19 5.11 16.17 4.39 26.84 2.94 39.08a343.55 343.55 0 0 1-6.61 34.76c17 .53 27.94-3.71 44.43-8.56 5.9-7.09 6.13-7 8.38-12.92 6.09-16.07 8.95-31.3-5.24-57.88z" fill="url(#linear-gradient-7)" opacity=".68"/>
        <path d="M222.88 229.42c9.27-18.54 11.43-48.55-6.66-72.35-2.75-3.62-4.69.16-11.42 2.86a22.39 22.39 0 0 1-10.48 1.9c-12.41 0-16.26-1.15-26.91-2.2a4.46 4.46 0 0 0-4.71 5.73c5.58 18.28 5.07 28 3.38 42.27-1 8.84-6.71 32.22-7.42 35.6H213c.73-.77 1.17-1.28 1.28-1.43 5.72-7.62 7.65-10.47 8.6-12.38zm-56 13.75a343.55 343.55 0 0 0 6.61-34.76c1.45-12.24 2.17-22.91-2.94-39.08-.69-2.19 1.08-3.43 3.36-3.19 16.82 1.77 25.21 6.16 37.78-2.87a2.09 2.09 0 0 1 2.76.54c14.19 26.58 11.33 41.81 5.24 57.88-2.25 5.92-2.48 5.83-8.38 12.92-16.53 4.85-27.46 9.09-44.47 8.56z" fill="url(#linear-gradient-8)"/>
        <path d="M216.22 157.07c-2.75-3.62-4.69.16-11.42 2.86a22.39 22.39 0 0 1-10.48 1.9c-12.41 0-16.26-1.15-26.91-2.2a4.46 4.46 0 0 0-4.71 5.73c5.58 18.28 5.07 28 3.38 42.27-1 8.84-6.71 32.22-7.42 35.6a2.87 2.87 0 0 0-.07.42v.06c-11.16 2.67-20.79-4.75-30.87-10a8.91 8.91 0 0 0-12.94 6.58 42.82 42.82 0 0 0-.46 6.6c0 .71 0 1.45.08 2.2A11.72 11.72 0 0 0 126.13 260c11.62 0 23.13 2.21 34.45 1.37 7.59-.57 16.08-1.21 23.5-2.4 14.82-2.38 25.41-12 29-15.72.73-.77 1.17-1.28 1.28-1.43 5.71-7.62 7.61-10.47 8.56-12.38 9.23-18.56 11.39-48.57-6.7-72.37zm3.43 64.62c-2.25 5.92-2.48 5.83-8.38 12.92-16.49 4.85-27.42 9.09-44.43 8.56a343.55 343.55 0 0 0 6.61-34.76c1.45-12.24 2.17-22.91-2.94-39.08-.69-2.19 1.08-3.43 3.36-3.19 16.82 1.77 25.21 6.16 37.78-2.87a2.09 2.09 0 0 1 2.76.54c14.19 26.58 11.33 41.81 5.24 57.88z" fill="url(#linear-gradient-9)"/>
        <path class="cls-32" d="M290.12 349.94c-1.69 6.21.37 11.35 5 15.76-6.06-1.53-11.17-2.45-17.23-4l3.45-11.23z"/>
        <path class="cls-33" d="M278.12 361.46c-1.34 2.73-1.44 5.4 2.07 6.35 8.61 2.31 17.32 4.29 26.33 5.93-2.33-4.07-6.13-6.63-9.89-9.23l-18.51-3.05"/>
        <path class="cls-32" d="M255.49 350.24a90.2 90.2 0 0 1-.9 15.89c1.64.18 4.43-.25 6 0 4.27.66 8.61.44 12.88 1.13-5.42-4.63-7.14-10.45-6-17.17"/>
        <path class="cls-33" d="M272.54 365.9c-4.29-.18-8.58-.38-12.87-.52-1.65-.06-3.31 0-5 .06l-.16.1c-.3.7-1 1.35-.89 2.12.14 2.16 1 3 2.64 4.45 3.87 3.26 19.34 2.85 29.62 2.93l.26-.79z"/>
        <path class="cls-21" d="M290.01 233.38l1.08 63.02 4.09 25.82 1.2 33.01-.32-.03h-18.14l-12.66-76.74-11.29-43.77 36.04-1.31z"/>
        <path class="cls-7" d="M252 236.6c8.35 39.49 7 39.06 13.3 65.42 5.65 23.68-3.24 26.28-7.15 49.82 10.6 2.13 14.62 5.31 17.19-5.18 10.36-42.34 8.56-87.9 4.32-112.32z"/>
        <ellipse class="cls-34" cx="385.92" cy="348.06" rx="41.28" ry="29.09"/>
        <path class="cls-35" d="M409.54 344.48l2-12.72c-13.68 2.44-6.77.28-17.09 8.74-3.08 2.52 1.77 2-1.78 3.74-7.67 9.76 23.71 12.63 16.87.24zM372.76 346.48c.67-4.24-.66-8.48 0-12.72-13.69 2.44-12.78.29-23.1 8.74-3.08 2.52-5.95 3.22-9.5 5-7.72 9.72 39.44 11.37 32.6-1.02z"/>
        <path class="cls-36" d="M517.24 206.69l-214.14-.28-12.72 28.01 211.31.79 15.55-28.52z"/>
        <path class="cls-37" d="M442.65 186.82h13v19.07a5.52 5.52 0 0 1-5.52 5.52h-2a5.52 5.52 0 0 1-5.52-5.52v-19.07z"/>
        <path class="cls-38" d="M501.09 195.46L403.6 185c-2-.21-3.49-2.16-3.56-4.53l-1.75-60.6c-.08-2.79 1.87-5 4.17-4.77L500 125.56c2 .21 3.49 2.16 3.56 4.53l1.75 60.6c.03 2.79-1.92 5.01-4.22 4.77z"/>
        <path class="cls-14" d="M498.31 189.2l-91.24-9.32-1.67-57.47 91.25 9.33 1.66 57.46z"/>
        <path class="cls-40" d="M452.14 233.61c-7.91.08-25.84.16-33.75.24q-1-6.07-2.11-12.14h16.93l.22-1-3.83-2.71 9.51-14.57 2.24 2.65 3.12 4 6.49 8.49c.54.8 1.05 1.64 1.63 2.42 3.68 6.6 4.35 8.49-.45 12.62z"/>
        <path class="cls-41" d="M269.56 260.07l-.65-.1.68-.55z"/>
        <path class="cls-40" d="M364 221.42q-1.35 6.14-2.69 12.29c-7.06-.08-24.13-.39-31.19-.23-5 .12-5.86-.23-6.39-2.84-.63-3-1.63-2 1.87-9.9a20.35 20.35 0 0 1 1.18-1.93 8.09 8.09 0 0 1 .46-.68l6.36-8.28c1.76-2.22 3.52-4.43 5.27-6.65h.13q4.83 7.35 9.65 14.69l-3.89 2.65.27.88z"/>
        <path class="cls-42" d="M348.88 242.92v.65h-.79a3.71 3.71 0 0 1-.26-.53z"/>
        <path class="cls-40" d="M411.14 147.63c0-2.37-.45-7.64-1.27-9.72-1.31-3.3-.55-5.13-3.39-7.16-3-2.13-10.65-4.39-14.6-4.39-10.09 0-17.26 11.18-17.26 21.27 0 4 4 7.44 6.29 10.38 1.56 2 1.27 3.75 2.62 5.28-.28 3-1.11 12-1.08 13.21 6.06 2.17 18.62 2.11 24.69.4 1.07-.38 3.07-.38-.31-1.2s-2.39-9.34-2.6-10.84a12 12 0 0 0 4.61-3.47c.32-.38.62-2.77.91-3.18.8-1.12.48-3.33 1-4.62.27-.65.5-.31.69-1 .46-1.59-.3-3.24-.3-4.96z"/>
        <path class="cls-42" d="M384 121.08l-.52.1.19-.45a3.61 3.61 0 0 1 .33.35z"/>
        <path class="cls-41" d="M348.1 243.57h.79c0 .22-.07.45-.11.67z"/>
        <path class="cls-43" d="M378.61 171.7c-.05-.24-.09-.48-.13-.72.04.24.09.48.13.72z"/>
        <path class="cls-14" d="M393.13 121.86c2.39.92 4.74 0 6.21.17 3.86.41 4.2 2.91 6.29 6.34.32 1.37 5.58 6.09 5 7 .5 2-5.44 1.09-4.51 4-.07 1.34-.42 2.65-.5 4 .57 2.09-.43 1.09.57 3.09 0 1-2 3-2 0 0 1.78-.2-5.85-1.89-5.55-3.12.55.89-.12-.11 1.55s-.75 1.19-1.17 5.14c-.25 2.33 1.6 5.78 1.52 8a54.28 54.28 0 0 0 .09 6.77c-4.1 3.19-9.45 2.12-14 2.9-1.29.22-4-.92-5.49-1.78-.35-.33-3.89-6.41-6.45-8.82-1-1-.56.81-1.07.56-.14-2.74-2.39-6.12-2.53-8.86-.23-1.13.73-1.88.5-3-.3-1.3-.67-2.35-1-3.66-.11-1.15.78-2.29.67-3.44.21-2.35 2.43-2.7 2.64-5.05.48-1.3 3-3.6 3.46-4.89 1.36-.93 1-1.86 3.07-1.87 3.69 0 6.8-2 6.7-1.72a9.47 9.47 0 0 0 4-.88z"/>
        <use class="cls-44" transform="translate(386.89 139)" xlink:href="#image"/>
        <path class="cls-45" d="M403.74 148.37c-1.11 0-.83 3.58-3.56 1.73-.05-3.35-1.55-6.23-.05-7.73 1-1 1-1 2.66-1.21.44 0 .87 0 .87.46.05 2.67.1 5.38.08 6.75z"/>
        <path class="cls-28" d="M418.3 139.11l61.75 5.9M418.64 150.98l61.75 5.9M418.1 162.28l61.75 5.9"/>
        <path class="cls-3" d="M299.24 110.82a18.42 18.42 0 0 1-.85 2.57c-.22.54-.47 1.06-.73 1.57-.7 1.33-.51 2.55-1.47 3.65s-.81 1-2.3.93a22.33 22.33 0 0 1-4.59-.58c-3.81-1.26-6.4 2.52-10.94 1.37-10.11-2.57-11-8.7-8.47-18.81s7.66-16.22 17.77-13.65c3.65.93 6.79 1.83 9.17 4.4 1.54 1.65 1.73 4.6 2.59 6.67.5 1.21-.15 2.47.09 3.77s1.42 4.71 1.38 6.06-1.3.67-1.65 2.05z"/>
        <path class="cls-3" d="M288.4 118.39c-.49 1.94-.31 9.6-.8 11.54-6.51.18-15.11-2-20.63-5.67.34-1.51 3.79-9.83 4.13-11.33 4.98 4.93 8.9 5.51 17.3 5.46z"/>
        <path class="cls-46" d="M517.24 206.7l-15.11 26.93c-.11 0-211.84.3-211.84.3s-.07 8.6-.09 12.74-.11 8.5-.16 12.75v.65l.28.15v111.24h7.95S299.15 243 299.61 243h4.05v105.51h7.95V243h187.84v128.46h7.95V235.65l2.43-5.88v118.74h7.5z"/>
        <path class="cls-27" d="M247.78 225.61c-14 26.56 2.16 43 8 67.2 5.25 21.51-1.51 40.22-5.41 61.53 10.59 1.92 13.4 2.17 24.19 1.73 9.15-43.9 5.91-81.26 1.59-125.44zM385.05 274.09l36.6 2.59c0 6.69-8.71 13.81-9.69 21-.24 1.73.6 28-.09 40.33-.66 11.74-9.21 13-26 7.77l-4-44.33h-1.31a35.88 35.88 0 0 1-18.44-5.51l-4.86-3.06 17.39 45.2a6.5 6.5 0 0 1-5.27 8L357.66 348a9.63 9.63 0 0 1-10.6-6.24C341 324.8 323.49 270 327.3 262.13c6.99-14.48 46.12 8.47 57.75 11.96z"/>
        <use class="cls-19" transform="translate(368.89 289)" xlink:href="#image-2"/>
        <path class="cls-47" d="M394.25 303.64l-1.71 30.87s-1.17 12.73-1.45 13.06-3.47 1.09-5.29 1.09c0 0-6-1-7.77-1.87-1.1-.54-.87-.17-.87-1.72l-.06-41.43a6 6 0 0 1 6-5.95h5.24a6 6 0 0 1 5.91 5.95z"/>
        <path class="cls-48" d="M271 122.67l-6.47 4.91-6.41 11.91-3 11.79-3.22 23.77-3.56 22.12-.16 1.21c-1.41 11.11-1.16 21.2-5.29 31.65-.83 2.12-2.76 8.67-2.76 8.67l3.62.26a117 117 0 0 0 20-.57l7.77-.88 18.48-3.17-1.08-35.21 1.3-16.36 8.19-14.77a9.33 9.33 0 0 0 .75-7.31l-4.25-9.44-6.37-24.7z"/>
        <path class="cls-49" d="M283.17 137.06l3.33 1.22c4 20.32.75 41.38-2.39 61.69 9.8 10.68 15.39 23.86 23.93 35.54l-10.25-2c-9.15-11-21.42-14.49-32.33-23.23a4.54 4.54 0 0 1-1.69-3.77c1.11-21.08 2.1-26.15 5.51-48.17l6.08-20.15a8.36 8.36 0 0 1 7.81-1.13z"/>
        <use class="cls-15" transform="translate(280.89 216)" xlink:href="#image-3"/>
        <path class="cls-3" d="M302.11 223.11c5.6 4.17 6.91 5.18 10.09 8.42-1.08 12.23-8 14.86-18.49 8.64.21-7.27 3.38-11.43 8.4-17.06z"/>
        <path d="M287.49 132.74l3.33 1.22c4 20.32.75 41.38-2.39 61.69 9.8 10.68 15.39 23.86 23.93 35.54l-14.29 4.94c-9.66-11.57-18.76-21.83-30.1-31.71 1.17-23 4.61-45.19 8.14-68l3.57-2.61a8.36 8.36 0 0 1 7.81-1.07z" fill="url(#linear-gradient-17)"/>
        <path class="cls-51" d="M297.55 91c-1.15-.5-6.46-4.55-7.6-4.49-7.28.41-8.63-3-20.18 6.07-1.79 1.4-2 4-2.19 6.14-.61 6.15-2.57 10.73-3.81 18.48-.08 2.62-4.53 17.22-10.9 30.9-4.72 10.14-6.89 16.43-1.33 19.46 1.82 1 4.08-1.28 6-1.9 3.94-1.26 8.21-2.35 8.51-2.6 1.37-1.13 3.82-10.13 6.12-19.39 2.42-9.74 3.67-19.76 4.33-21.23 1.88-4.21 5.07-7.59 8.3-10.93 1.82-1.89 3.65-3.76 5.27-5.77-1.43-2.69-3.73-5.45 1.39-7.53.43-.18.65-1.05.73-1.61.46-2.92 4.97-2.74 5.36-5.6z"/>
        <path class="cls-52" d="M438.36 197.62c-2.47-3.37-12.85-16.14-12.85-16.14s-2.28-2-10.23-4.09c-4.75-1.27-9.75-3.21-12.47-2.41-8.62 2.54-10.67 3-21.8-1-8.62 1.24-14.42 1.62-21.26 7.4-7.26 6.14-17.78 16.81-24.51 23.51.9 4.24 13.61 12.75 17.33 14.55 4.07-3.61 5.71-4.7 8.57-8.82v23.73c0 1 0 2.06-.1 3.09l-2.9 42.2 64.09-1 2-17.43a160.75 160.75 0 0 0 .43-33.33l-2-17.51c2.56 3.18 4.56 8.19 8.07 10.59 2-3 15.52-13.42 13.56-15.57a89.46 89.46 0 0 1-5.93-7.77z"/>
        <path class="cls-53" d="M419.32 203.1c-18.12 6.46-52.17.45-58.83-.84-3.47-.67-8.92-2-9.57 1.49-2.8 14.83.12 30.68 1.21 38.86.3 2.24 2 9.6 4.31 21.1.15.75 3.06 8.49 2.8 9.15 23.44 4.6 44.21 8.21 68.4 3.79-.33-1.57 1.64-10.21 2-11.83 1.47-7 2.16-13.06 2.36-14.39 2-13.23 2.06-37.26-4.75-47.88-1.74-2.69-4.91-.55-7.93.55z"/>
        <path class="cls-54" d="M434 273.71c.48-1.81 1.58-7.75 2-9.64a83.49 83.49 0 0 0 1.76-12.82c2.34-15.49 2.8-41.77-5.16-54.19-2-3.16-5.35-3.51-9.64-2.36-21.75 5.85-58.8 2.85-68.83-1-3.86-1.48-8.6.8-9 4.92-4 39 2.35 52.54 5 66 .17.87.6 3.41 1 5 1 4 2.17 5.51 1 6-5.49 2.3-12.06 2.53-12.29 6.35v.65h96.67a21.54 21.54 0 0 0-1.27-3c-1.05-2.08-2-2.96-1.24-5.91zm-2-23.28c-.2 1.33-.89 7.42-2.36 14.39-.34 1.62-2.31 10.26-2 11.83-24.19 4.42-45 .81-68.4-3.79.26-.66-2.65-8.4-2.8-9.15-2.29-11.5-4-18.86-4.31-21.1-1.09-8.18-4-24-1.21-38.86.65-3.47 6.1-2.16 9.57-1.49 6.66 1.29 40.71 7.3 58.83.84 3-1.07 6.19-3.24 7.91-.55C434 213.17 434 237.2 432 250.43z"/>
        <path class="cls-55" d="M436 264.07a83.49 83.49 0 0 0 1.76-12.82c2.34-15.49 2.8-41.77-5.16-54.19-2-3.16-5.35-3.51-9.64-2.36-21.75 5.85-58.8 2.85-68.83-1-3.86-1.48-8.6.8-9 4.92-4 39 2.35 52.54 5 66 .17.87.6 3.41 1 5 1 4 2.17 5.51 1 6-5.49 2.3-12.06 2.53-12.29 6.35v.65c.06 10.76 17 24.53 53 23.72 30.38-.68 43.1-5.37 43.74-16.22.13-2.31 1.13-3.82-.08-7.5a21.54 21.54 0 0 0-1.27-3c-1.05-2.12-2-3-1.22-6 .49-1.72 1.59-7.62 1.99-9.55zm-83.86-21.46c-1.09-8.18-4-24-1.21-38.86.65-3.47 6.1-2.16 9.57-1.49 6.66 1.29 40.71 7.3 58.83.84 3-1.07 6.19-3.24 7.91-.55C434 213.17 434 237.2 432 250.43c-.2 1.33-.89 7.42-2.36 14.39-.34 1.62-2.31 10.26-2 11.83-24.19 4.42-45 .81-68.4-3.79.26-.66-2.65-8.4-2.8-9.15-2.29-11.5-4.01-18.86-4.31-21.1z"/>
        <path class="cls-32" d="M290.12 349.94c-1.69 6.21.37 11.35 5 15.76-6.06-1.53-11.17-2.45-17.23-4l3.45-11.23z"/>
        <path class="cls-33" d="M278.12 361.46c-1.34 2.73-1.44 5.4 2.07 6.35 8.61 2.31 17.32 4.29 26.33 5.93-2.33-4.07-6.13-6.63-9.89-9.23l-18.51-3.05"/>
        <path class="cls-32" d="M255.49 350.24a90.2 90.2 0 0 1-.9 15.89c1.64.18 4.43-.25 6 0 4.27.66 8.61.44 12.88 1.13-5.42-4.63-7.14-10.45-6-17.17"/>
        <path class="cls-33" d="M272.54 365.9c-4.29-.18-8.58-.38-12.87-.52-1.65-.06-3.31 0-5 .06l-.16.1c-.3.7-1 1.35-.89 2.12.14 2.16 1 3 2.64 4.45 3.87 3.26 19.34 2.85 29.62 2.93l.26-.79z"/>
        <path class="cls-21" d="M290.01 233.38l1.08 63.02 4.09 25.82 1.2 33.01-.32-.03h-18.14l-12.66-76.74-11.29-43.77 36.04-1.31z"/>
        <path class="cls-7" d="M252 236.6c8.35 39.49 7 39.06 13.3 65.42 5.65 23.68-3.24 26.28-7.15 49.82 10.6 2.13 14.62 5.31 17.19-5.18 10.36-42.34 8.56-87.9 4.32-112.32z"/>
        <ellipse class="cls-34" cx="385.92" cy="348.06" rx="41.28" ry="29.09"/>
        <path class="cls-35" d="M409.54 344.48l2-12.72c-13.68 2.44-6.77.28-17.09 8.74-3.08 2.52 1.77 2-1.78 3.74-7.67 9.76 23.71 12.63 16.87.24zM372.76 346.48c.67-4.24-.66-8.48 0-12.72-13.69 2.44-12.78.29-23.1 8.74-3.08 2.52-5.95 3.22-9.5 5-7.72 9.72 39.44 11.37 32.6-1.02z"/>
        <path class="cls-36" d="M517.24 206.69l-214.14-.28-12.72 28.01 211.31.79 15.55-28.52z"/>
        <path class="cls-37" d="M442.65 186.82h13v19.07a5.52 5.52 0 0 1-5.52 5.52h-2a5.52 5.52 0 0 1-5.52-5.52v-19.07z"/>
        <path class="cls-38" d="M501.09 195.46L403.6 185c-2-.21-3.49-2.16-3.56-4.53l-1.75-60.6c-.08-2.79 1.87-5 4.17-4.77L500 125.56c2 .21 3.49 2.16 3.56 4.53l1.75 60.6c.03 2.79-1.92 5.01-4.22 4.77z"/>
        <path class="cls-14" d="M498.31 189.2l-91.24-9.32-1.67-57.47 91.25 9.33 1.66 57.46z"/>
        <path class="cls-40" d="M452.14 233.61c-7.91.08-25.84.16-33.75.24q-1-6.07-2.11-12.14h16.93l.22-1-3.83-2.71 9.51-14.57 2.24 2.65 3.12 4 6.49 8.49c.54.8 1.05 1.64 1.63 2.42 3.68 6.6 4.35 8.49-.45 12.62z"/>
        <path class="cls-41" d="M269.56 260.07l-.65-.1.68-.55z"/>
        <path class="cls-40" d="M364 221.42q-1.35 6.14-2.69 12.29c-7.06-.08-24.13-.39-31.19-.23-5 .12-5.86-.23-6.39-2.84-.63-3-1.63-2 1.87-9.9a20.35 20.35 0 0 1 1.18-1.93 8.09 8.09 0 0 1 .46-.68l6.36-8.28c1.76-2.22 3.52-4.43 5.27-6.65h.13q4.83 7.35 9.65 14.69l-3.89 2.65.27.88z"/>
        <path class="cls-42" d="M348.88 242.92v.65h-.79a3.71 3.71 0 0 1-.26-.53z"/>
        <path class="cls-40" d="M411.14 147.63c0-2.37-.45-7.64-1.27-9.72-1.31-3.3-.55-5.13-3.39-7.16-3-2.13-10.65-4.39-14.6-4.39-10.09 0-17.26 11.18-17.26 21.27 0 4 4 7.44 6.29 10.38 1.56 2 1.27 3.75 2.62 5.28-.28 3-1.11 12-1.08 13.21 6.06 2.17 18.62 2.11 24.69.4 1.07-.38 3.07-.38-.31-1.2s-2.39-9.34-2.6-10.84a12 12 0 0 0 4.61-3.47c.32-.38.62-2.77.91-3.18.8-1.12.48-3.33 1-4.62.27-.65.5-.31.69-1 .46-1.59-.3-3.24-.3-4.96z"/>
        <path class="cls-42" d="M384 121.08l-.52.1.19-.45a3.61 3.61 0 0 1 .33.35z"/>
        <path class="cls-41" d="M348.1 243.57h.79c0 .22-.07.45-.11.67z"/>
        <path class="cls-43" d="M378.61 171.7c-.05-.24-.09-.48-.13-.72.04.24.09.48.13.72z"/>
        <path class="cls-14" d="M393.13 121.86c2.39.92 4.74 0 6.21.17 3.86.41 4.2 2.91 6.29 6.34.32 1.37 5.58 6.09 5 7 .5 2-5.44 1.09-4.51 4-.07 1.34-.42 2.65-.5 4 .57 2.09-.43 1.09.57 3.09 0 1-2 3-2 0 0 1.78-.2-5.85-1.89-5.55-3.12.55.89-.12-.11 1.55s-.75 1.19-1.17 5.14c-.25 2.33 1.6 5.78 1.52 8a54.28 54.28 0 0 0 .09 6.77c-4.1 3.19-9.45 2.12-14 2.9-1.29.22-4-.92-5.49-1.78-.35-.33-3.89-6.41-6.45-8.82-1-1-.56.81-1.07.56-.14-2.74-2.39-6.12-2.53-8.86-.23-1.13.73-1.88.5-3-.3-1.3-.67-2.35-1-3.66-.11-1.15.78-2.29.67-3.44.21-2.35 2.43-2.7 2.64-5.05.48-1.3 3-3.6 3.46-4.89 1.36-.93 1-1.86 3.07-1.87 3.69 0 6.8-2 6.7-1.72a9.47 9.47 0 0 0 4-.88z"/>
        <use class="cls-44" transform="translate(386.89 139)" xlink:href="#image"/>
        <path class="cls-45" d="M403.74 148.37c-1.11 0-.83 3.58-3.56 1.73-.05-3.35-1.55-6.23-.05-7.73 1-1 1-1 2.66-1.21.44 0 .87 0 .87.46.05 2.67.1 5.38.08 6.75z"/>
        <g id="code_right">
          <path id="one-2" data-name="one" class="cls-28 path1" d="M418.3 139.11l61.75 5.9"/>
          <path id="two-2" data-name="two" class="cls-28 path2" d="M418.64 150.98l61.75 5.9"/>
          <path id="three-2" data-name="three" class="cls-28 path3" d="M418.1 162.28l61.75 5.9"/>
        </g>
        <path class="cls-3" d="M299.24 110.82a18.42 18.42 0 0 1-.85 2.57c-.22.54-.47 1.06-.73 1.57-.7 1.33-.51 2.55-1.47 3.65s-.81 1-2.3.93a22.33 22.33 0 0 1-4.59-.58c-3.81-1.26-6.4 2.52-10.94 1.37-10.11-2.57-11-8.7-8.47-18.81s7.66-16.22 17.77-13.65c3.65.93 6.79 1.83 9.17 4.4 1.54 1.65 1.73 4.6 2.59 6.67.5 1.21-.15 2.47.09 3.77s1.42 4.71 1.38 6.06-1.3.67-1.65 2.05z"/>
        <path class="cls-3" d="M288.4 118.39c-.49 1.94-.31 9.6-.8 11.54-6.51.18-15.11-2-20.63-5.67.34-1.51 3.79-9.83 4.13-11.33 4.98 4.93 8.9 5.51 17.3 5.46z"/>
        <path class="cls-46" d="M517.24 206.7l-15.11 26.93c-.11 0-211.84.3-211.84.3s-.07 8.6-.09 12.74-.11 8.5-.16 12.75v.65l.28.15v111.24h7.95S299.15 243 299.61 243h4.05v105.51h7.95V243h187.84v128.46h7.95V235.65l2.43-5.88v118.74h7.5z"/>
        <path class="cls-27" d="M247.78 225.61c-14 26.56 2.16 43 8 67.2 5.25 21.51-1.51 40.22-5.41 61.53 10.59 1.92 13.4 2.17 24.19 1.73 9.15-43.9 5.91-81.26 1.59-125.44zM385.05 274.09l36.6 2.59c0 6.69-8.71 13.81-9.69 21-.24 1.73.6 28-.09 40.33-.66 11.74-9.21 13-26 7.77l-4-44.33h-1.31a35.88 35.88 0 0 1-18.44-5.51l-4.86-3.06 17.39 45.2a6.5 6.5 0 0 1-5.27 8L357.66 348a9.63 9.63 0 0 1-10.6-6.24C341 324.8 323.49 270 327.3 262.13c6.99-14.48 46.12 8.47 57.75 11.96z"/>
        <use class="cls-19" transform="translate(368.89 289)" xlink:href="#image-2"/>
        <path class="cls-47" d="M394.25 303.64l-1.71 30.87s-1.17 12.73-1.45 13.06-3.47 1.09-5.29 1.09c0 0-6-1-7.77-1.87-1.1-.54-.87-.17-.87-1.72l-.06-41.43a6 6 0 0 1 6-5.95h5.24a6 6 0 0 1 5.91 5.95z"/>
        <path class="cls-48" d="M271 122.67l-6.47 4.91-6.41 11.91-3 11.79-3.22 23.77-3.56 22.12-.16 1.21c-1.41 11.11-1.16 21.2-5.29 31.65-.83 2.12-2.76 8.67-2.76 8.67l3.62.26a117 117 0 0 0 20-.57l7.77-.88 18.48-3.17-1.08-35.21 1.3-16.36 8.19-14.77a9.33 9.33 0 0 0 .75-7.31l-4.25-9.44-6.37-24.7z"/>
        <path class="cls-49" d="M283.17 137.06l3.33 1.22c4 20.32.75 41.38-2.39 61.69 9.8 10.68 15.39 23.86 23.93 35.54l-10.25-2c-9.15-11-21.42-14.49-32.33-23.23a4.54 4.54 0 0 1-1.69-3.77c1.11-21.08 2.1-26.15 5.51-48.17l6.08-20.15a8.36 8.36 0 0 1 7.81-1.13z"/>
        <use class="cls-15" transform="translate(280.89 216)" xlink:href="#image-3"/>
        <path class="cls-3" d="M302.11 223.11c5.6 4.17 6.91 5.18 10.09 8.42-1.08 12.23-8 14.86-18.49 8.64.21-7.27 3.38-11.43 8.4-17.06z"/>
        <path d="M287.3 132.71l3.26 1.21c3.89 20.3.62 41.36-2.52 61.67 9.59 10.65 15 23.8 23.4 35.45l-14.05 5c-9.45-11.54-18.36-21.77-29.46-31.62 1.21-23 4.65-45.18 8.18-68l3.51-2.62a8.12 8.12 0 0 1 7.68-1.09z" fill="url(#linear-gradient-28)"/>
        <path class="cls-51" d="M297.55 91c-1.15-.5-6.46-4.55-7.6-4.49-7.28.41-8.63-3-20.18 6.07-1.79 1.4-2 4-2.19 6.14-.61 6.15-2.57 10.73-3.81 18.48-.08 2.62-4.53 17.22-10.9 30.9-4.72 10.14-6.89 16.43-1.33 19.46 1.82 1 4.08-1.28 6-1.9 3.94-1.26 8.21-2.35 8.51-2.6 1.37-1.13 3.82-10.13 6.12-19.39 2.42-9.74 3.67-19.76 4.33-21.23 1.88-4.21 5.07-7.59 8.3-10.93 1.82-1.89 3.65-3.76 5.27-5.77-1.43-2.69-3.73-5.45 1.39-7.53.43-.18.65-1.05.73-1.61.46-2.92 4.97-2.74 5.36-5.6z"/>
        <path class="cls-52" d="M438.36 197.62c-2.47-3.37-12.85-16.14-12.85-16.14s-2.28-2-10.23-4.09c-4.75-1.27-9.75-3.21-12.47-2.41-8.62 2.54-10.67 3-21.8-1-8.62 1.24-14.42 1.62-21.26 7.4-7.26 6.14-17.78 16.81-24.51 23.51.9 4.24 13.61 12.75 17.33 14.55 4.07-3.61 5.71-4.7 8.57-8.82v23.73c0 1 0 2.06-.1 3.09l-2.9 42.2 64.09-1 2-17.43a160.75 160.75 0 0 0 .43-33.33l-2-17.51c2.56 3.18 4.56 8.19 8.07 10.59 2-3 15.52-13.42 13.56-15.57a89.46 89.46 0 0 1-5.93-7.77z"/>
        <path class="cls-53" d="M419.32 203.1c-18.12 6.46-52.17.45-58.83-.84-3.47-.67-8.92-2-9.57 1.49-2.8 14.83.12 30.68 1.21 38.86.3 2.24 2 9.6 4.31 21.1.15.75 3.06 8.49 2.8 9.15 23.44 4.6 44.21 8.21 68.4 3.79-.33-1.57 1.64-10.21 2-11.83 1.47-7 2.16-13.06 2.36-14.39 2-13.23 2.06-37.26-4.75-47.88-1.74-2.69-4.91-.55-7.93.55z"/>
        <path class="cls-54" d="M434 273.71c.48-1.81 1.58-7.75 2-9.64a83.49 83.49 0 0 0 1.76-12.82c2.34-15.49 2.8-41.77-5.16-54.19-2-3.16-5.35-3.51-9.64-2.36-21.75 5.85-58.8 2.85-68.83-1-3.86-1.48-8.6.8-9 4.92-4 39 2.35 52.54 5 66 .17.87.6 3.41 1 5 1 4 2.17 5.51 1 6-5.49 2.3-12.06 2.53-12.29 6.35v.65h96.67a21.54 21.54 0 0 0-1.27-3c-1.05-2.08-2-2.96-1.24-5.91zm-2-23.28c-.2 1.33-.89 7.42-2.36 14.39-.34 1.62-2.31 10.26-2 11.83-24.19 4.42-45 .81-68.4-3.79.26-.66-2.65-8.4-2.8-9.15-2.29-11.5-4-18.86-4.31-21.1-1.09-8.18-4-24-1.21-38.86.65-3.47 6.1-2.16 9.57-1.49 6.66 1.29 40.71 7.3 58.83.84 3-1.07 6.19-3.24 7.91-.55C434 213.17 434 237.2 432 250.43z"/>
        <path class="cls-55" d="M436 264.07a83.49 83.49 0 0 0 1.76-12.82c2.34-15.49 2.8-41.77-5.16-54.19-2-3.16-5.35-3.51-9.64-2.36-21.75 5.85-58.8 2.85-68.83-1-3.86-1.48-8.6.8-9 4.92-4 39 2.35 52.54 5 66 .17.87.6 3.41 1 5 1 4 2.17 5.51 1 6-5.49 2.3-12.06 2.53-12.29 6.35v.65c.06 10.76 17 24.53 53 23.72 30.38-.68 43.1-5.37 43.74-16.22.13-2.31 1.13-3.82-.08-7.5a21.54 21.54 0 0 0-1.27-3c-1.05-2.12-2-3-1.22-6 .49-1.72 1.59-7.62 1.99-9.55zm-83.86-21.46c-1.09-8.18-4-24-1.21-38.86.65-3.47 6.1-2.16 9.57-1.49 6.66 1.29 40.71 7.3 58.83.84 3-1.07 6.19-3.24 7.91-.55C434 213.17 434 237.2 432 250.43c-.2 1.33-.89 7.42-2.36 14.39-.34 1.62-2.31 10.26-2 11.83-24.19 4.42-45 .81-68.4-3.79.26-.66-2.65-8.4-2.8-9.15-2.29-11.5-4.01-18.86-4.31-21.1z"/>
      </g>
    </g>
  </g>
</svg>
