<svg xmlns="http://www.w3.org/2000/svg" xmlns:xlink="http://www.w3.org/1999/xlink" viewBox="0 0 283.97 309.2">
  <defs>
    <style>
      .cls-2{fill:#ffd9ce}.cls-3{fill:#14076e}.cls-6{opacity:.2}.cls-14,.cls-6,.cls-8{mix-blend-mode:multiply}.cls-8{opacity:.35}.cls-9{fill:#2f243a}.cls-13{fill:#171718}.cls-14{opacity:.25}.cls-15{fill:#f5dbad}.cls-16{fill:#1b737c}.cls-17{fill:#1b7f89}.cls-21{fill:none;stroke:#ede580;stroke-miterlimit:10;stroke-width:3px}.cls-22{fill:#faedd6}.cls-24{fill:#4534b1}.arm-down{ -webkit-animation: armove 5s infinite; animation: armove 5s infinite; animation-direction: alternate; animation-delay: -3s;}@keyframes armove {from {rotate(-10deg); transform-origin: 0% 0%;} to {transform: rotate(10deg); transform-origin: -35% -20%;}}
      .path1{stroke-dasharray: 70;stroke-dashoffset: 70;animation: dash 1.8s linear forwards;animation-delay: 0s}@keyframes dash{to{stroke-dashoffset: 0;}}.path2{stroke-dasharray: 70;stroke-dashoffset: 70;animation: dash 1.8s linear forwards;animation-delay: 1.7s}@keyframes dash{to{stroke-dashoffset: 0;}}.path3{stroke-dasharray: 68;stroke-dashoffset: 68;animation: dash 1.8s linear forwards infinite;animation-delay: 3.4s}@keyframes dash{to{stroke-dashoffset: 0;}}
    </style>
    <linearGradient id="linear-gradient" x1="177.48" y1="341.7" x2="118.15" y2="149.36" gradientUnits="userSpaceOnUse">
      <stop offset="0" stop-color="#bccbc6"/>
      <stop offset=".26" stop-color="#b3c6c1"/>
      <stop offset=".51" stop-color="#a5bfb9"/>
      <stop offset=".68" stop-color="#9db6b0"/>
      <stop offset=".95" stop-color="#899e99"/>
      <stop offset="1" stop-color="#849994"/>
    </linearGradient>
    <linearGradient id="linear-gradient-2" x1="231.73" y1="-15.76" x2="167.73" y2="141.24" gradientUnits="userSpaceOnUse">
      <stop offset=".01" stop-color="#f0f0f1"/>
      <stop offset=".27" stop-color="#dfe4e3"/>
      <stop offset=".72" stop-color="#c5d2ce"/>
      <stop offset="1" stop-color="#bccbc6"/>
    </linearGradient>
    <linearGradient id="linear-gradient-3" x1="209.39" y1="112.77" x2="222.38" y2="112.77" gradientUnits="userSpaceOnUse">
      <stop offset="0" stop-color="#bccbc6"/>
      <stop offset=".51" stop-color="#b3c6c1"/>
      <stop offset="1" stop-color="#a5bfb9"/>
    </linearGradient>
    <linearGradient id="linear-gradient-4" x1="165.1" y1="68.99" x2="271.92" y2="68.99" xlink:href="#linear-gradient-2"/>
    <linearGradient id="linear-gradient-5" x1="56.97" y1="202.6" x2="283.97" y2="202.6" gradientUnits="userSpaceOnUse">
      <stop offset="0" stop-color="#849994"/>
      <stop offset=".19" stop-color="#bccbc6"/>
      <stop offset=".57" stop-color="#b3c6c1"/>
      <stop offset=".94" stop-color="#a5bfb9"/>
    </linearGradient>
    <linearGradient id="linear-gradient-6" x1="143.94" y1="236.65" x2="161.07" y2="236.65" xlink:href="#linear-gradient-2"/>
    <linearGradient id="linear-gradient-7" x1="7.12" y1="94.58" x2="66.53" y2="94.58" gradientUnits="userSpaceOnUse">
      <stop offset=".01" stop-color="#978ed3"/>
      <stop offset=".49" stop-color="#a39cd8"/>
      <stop offset="1" stop-color="#aca5dc"/>
    </linearGradient>
    <linearGradient id="linear-gradient-8" x1="-24.76" y1="122.83" x2="74.24" y2="92.83" gradientUnits="userSpaceOnUse">
      <stop offset="0" stop-color="#aca5dc"/>
      <stop offset=".41" stop-color="#a8a1da"/>
      <stop offset=".84" stop-color="#9d94d5"/>
      <stop offset=".99" stop-color="#978ed3"/>
    </linearGradient>
    <linearGradient id="linear-gradient-9" x1="181.26" y1="184.88" x2="101.26" y2="58.21" gradientUnits="userSpaceOnUse">
      <stop offset="0" stop-color="#849994"/>
      <stop offset=".49" stop-color="#a5bfb9"/>
      <stop offset=".74" stop-color="#b3c6c1"/>
      <stop offset="1" stop-color="#bccbc6"/>
    </linearGradient>
    <linearGradient id="linear-gradient-10" x1="150.88" y1="212.66" x2="156.36" y2="165.16" gradientUnits="userSpaceOnUse">
      <stop offset=".01" stop-color="#5e6663"/>
      <stop offset=".26" stop-color="#6a7673"/>
      <stop offset=".72" stop-color="#7d908b"/>
      <stop offset="1" stop-color="#849994"/>
    </linearGradient>
    <linearGradient id="linear-gradient-11" x1="146.4" y1="256.01" x2="153.58" y2="193.75" gradientUnits="userSpaceOnUse">
      <stop offset="0" stop-color="#bccbc6"/>
      <stop offset=".26" stop-color="#b3c6c1"/>
      <stop offset=".51" stop-color="#a5bfb9"/>
      <stop offset=".66" stop-color="#9fb9b3"/>
      <stop offset=".87" stop-color="#90a7a1"/>
      <stop offset="1" stop-color="#849994"/>
    </linearGradient>
  </defs>
  <g style="isolation:isolate">
    <g id="Layer_2" data-name="Layer 2">
      <g id="implementacion">
        <g id="arm" class="arm-down">
          <path d="M45 114.75a8.29 8.29 0 0 1-8.71-5.65c-6.15-17.9 1.85-52.89 10.61-62 3.77-3.94 7.69-3.41 9.82 0 2 3.21.86 3.23 1.4 8.82 1.37 14.1-3.44 32.2 1.26 36.51 3.15 2.89 9.6.59 20.77.47 4.5 0 3 1.7 3.92 3.67 1.64 3.51 9.16 7.39 8.4 7.58-8.11 1.85-36.6 9.35-47.47 10.6z" fill="#978ed3"/>
          <path class="cls-22" d="M81.42 95.53c4.59-4.14 6.79-7.23 4.89-13.16 8-3.33 6.9 0 5.83 6.94 9.52 3.28 11.42 13.77-.66 14.63-5.95.43-6.57-3.31-10.06-8.41z"/>
          <path class="cls-22" d="M89.54 88.59c6.1-.51 6.88-1.29 10.49 1.39 4.64 11-5.61 14-8.29 11.48-4.07-3.78-3.22-6.78-2.2-12.87z"/>
        </g>
        <path class="cls-2" d="M57.08 263.38c-1.69 6.2.36 11.34 5 15.74-6.06-1.53-11.15-2.45-17.21-4l3.45-11.21z"/>
        <path class="cls-3" d="M45.09 274.88c-1.34 2.73-1.43 5.4 2.07 6.34 8.6 2.31 17.3 4.29 26.3 5.93-2.33-4.07-6.13-6.62-9.88-9.22l-18.49-3.05"/>
        <path class="cls-2" d="M22.49 263.68a89.05 89.05 0 0 1-.89 15.87c1.63.17 4.42-.25 6 0 4.26.66 8.6.43 12.86 1.13-5.41-4.63-7.13-10.44-6-17.15"/>
        <path class="cls-3" d="M39.52 279.32c-4.28-.18-8.56-.39-12.85-.53-1.65-.05-3.3 0-5 .06l-.15.11c-.3.7-.95 1.35-.9 2.11.15 2.16 1 3.05 2.65 4.44 3.86 3.26 19.31 2.86 29.57 2.94l.27-.8z"/>
        <path fill="#301ea8" d="M56.97 146.99l1.08 62.93 4.08 25.78 1.2 32.96-.32-.02H44.89L32.25 192l-11.27-43.71 35.99-1.3z"/>
        <path d="M19 150.2c8.34 39.43 7 39 13.28 65.33 5.64 23.64-3.24 26.24-7.13 49.75 10.58 2.12 14.59 5.3 17.15-5.18 10.36-42.27 8.56-87.78 4.32-112.16z" fill="#1c08a0"/>
        <ellipse cx="152.74" cy="261.51" rx="41.22" ry="29.05" fill="url(#linear-gradient)"/>
        <path class="cls-9" d="M176.33 257.92l2-12.7c-13.66 2.44-6.75.29-17.06 8.73-3.07 2.52 1.77 2-1.78 3.74-7.71 9.72 23.67 12.61 16.84.23zM139.61 259.92c.67-4.23-.66-8.46 0-12.7-13.66 2.44-12.76.29-23.07 8.73-3.07 2.52-5.94 3.21-9.48 5-7.72 9.7 39.37 11.35 32.55-1.03z"/>
        <path fill="url(#linear-gradient-2)" d="M283.88 120.33l-213.84-.28-12.71 27.97 211.02.79 15.53-28.48z"/>
        <path d="M209.39 100.49h13v19a5.52 5.52 0 0 1-5.52 5.52h-1.95a5.52 5.52 0 0 1-5.52-5.52v-19z" fill="url(#linear-gradient-3)"/>
        <path d="M267.75 109.11L170.4 98.67c-2-.21-3.49-2.16-3.55-4.53l-1.75-60.51c-.08-2.79 1.86-5 4.16-4.76l97.36 10.44c1.95.21 3.48 2.16 3.55 4.52l1.75 60.52c.08 2.78-1.87 5.01-4.17 4.76z" fill="url(#linear-gradient-4)"/>
        <path class="cls-13" d="M264.98 102.87l-91.12-9.32-1.66-57.38 91.11 9.31 1.67 57.39z"/>
        <path class="cls-15" d="M218.87 147.21c-7.9.08-25.8.16-33.7.24q-1-6.06-2.11-12.12H200l.23-1-3.83-2.76 9.5-14.55 2.24 2.65 3.12 4 6.47 8.47c.54.81 1.05 1.64 1.63 2.42 3.64 6.64 4.31 8.52-.49 12.65z"/>
        <path class="cls-16" d="M36.55 173.64l-.65-.1.68-.55z"/>
        <path class="cls-15" d="M130.84 135q-1.34 6.15-2.68 12.28c-7-.08-24.1-.39-31.15-.23-5 .12-5.85-.22-6.38-2.84-.63-3-1.63-2 1.87-9.88a20.35 20.35 0 0 1 1.18-1.93 5.29 5.29 0 0 1 .46-.67q3.17-4.14 6.35-8.27l5.26-6.65h.12l9.63 14.68-3.88 2.64.27.87z"/>
        <path class="cls-17" d="M115.76 156.51v.64H115a3.4 3.4 0 0 1-.27-.54z"/>
        <path class="cls-15" d="M177.93 61.35c0-2.37-.45-7.63-1.27-9.7-1.31-3.3-.54-5.12-3.39-7.15s-10.63-4.38-14.58-4.38c-10.07 0-17.23 11.16-17.23 21.23 0 4 4 7.43 6.28 10.37 1.56 2 1.27 3.74 2.62 5.27-.28 2.94-1.11 12-1.08 13.19 6.05 2.17 18.6 2.11 24.65.4 1.07-.38 3.07-.38-.31-1.19s-2.38-9.33-2.59-10.83a12 12 0 0 0 4.6-3.47c.32-.38.62-2.77.91-3.17.8-1.12.48-3.33 1-4.62.27-.65.5-.31.69-1 .46-1.57-.3-3.23-.3-4.95z"/>
        <path class="cls-17" d="M150.84 34.84l-.52.1.19-.45z"/>
        <path class="cls-16" d="M115 157.16h.78c0 .23-.07.45-.1.68z"/>
        <path d="M145.44 85.39l-.12-.72z" fill="#accbcd"/>
        <path class="cls-13" d="M159.94 35.62c2.39.91 4.74 0 6.2.16 3.86.42 4.19 2.91 6.29 6.34.32 1.37 5.57 6.08 5 7 .5 2-5.43 1.09-4.5 4-.08 1.34-.43 2.65-.5 4 .57 2.1-.43 1.1.57 3.1 0 1-2 3-2 0 0 1.77-.2-5.85-1.89-5.55-3.11.55.89-.11-.11 1.55s-.74 1.19-1.17 5.13c-.25 2.33 1.6 5.78 1.52 8a54.33 54.33 0 0 0 .09 6.77c-4.09 3.18-9.44 2.11-14 2.88-1.29.22-4-.91-5.48-1.77-.35-.33-3.88-6.4-6.44-8.8-1-1-.56.8-1.07.55-.14-2.73-2.39-6.11-2.53-8.85-.23-1.13.73-1.87.5-3-.3-1.3-.67-2.35-1-3.65-.11-1.15.78-2.3.67-3.44.21-2.35 2.42-2.7 2.64-5 .48-1.3 3-3.6 3.45-4.89 1.36-.92 1-1.85 3.07-1.86 3.68 0 6.79-2 6.69-1.73a9.32 9.32 0 0 0 4-.94z"/>
        <path d="M170.54 62.09c-1.11 0-.83 3.58-3.56 1.73 0-3.35-1.55-6.22 0-7.72 1-1 1-1 2.67-1.21.43 0 .86 0 .86.46 0 2.65.05 5.41.03 6.74z" fill="#decbb7"/>
        <g id="code">
          <path class="cls-21 path1" d="M185.08 52.84l61.66 5.9"/>
          <path class="cls-21 path2" d="M185.42 64.69l61.67 5.9"/>
          <path class="cls-21 path3" d="M184.87 75.98l61.67 5.9"/>
        </g>
        <path class="cls-22" d="M66.19 24.59a19.84 19.84 0 0 1-.85 2.57c-.22.53-.47 1.06-.74 1.57-.69 1.32-.5 2.54-1.47 3.64s-.8 1-2.29.93a21.63 21.63 0 0 1-4.58-.58c-3.8-1.26-6.39 2.52-10.93 1.37-10.09-2.56-11-8.69-8.46-18.78S44.53-.89 54.62 1.67c3.65.93 6.78 1.83 9.16 4.4 1.53 1.64 1.73 4.59 2.59 6.66.5 1.21-.16 2.47.08 3.77s1.42 4.7 1.38 6.05-1.29.67-1.64 2.04z"/>
        <path class="cls-22" d="M55.36 32.15c-.49 1.94-.31 9.58-.8 11.52-6.5.18-15.08-1.94-20.6-5.66.34-1.5 3.79-9.81 4.13-11.31 4.97 4.92 8.91 5.5 17.27 5.45z"/>
        <path d="M283.88 120.33l-15.08 26.9-211.55.3s-.07 8.59-.09 12.72-.11 8.49-.16 12.75v.65l.28.14v111.07h7.94s.91-128.29 1.36-128.29h4V262h7.94V156.57H266.1v128.29h7.94V149.25l2.43-5.87V262H284z" fill="url(#linear-gradient-5)"/>
        <path class="cls-24" d="M14.79 139.22c-14 26.53 2.16 43 8 67.1 5.24 21.49-1.51 40.17-5.41 61.45 10.58 1.92 13.38 2.17 24.16 1.73 9.13-43.84 5.9-81.15 1.59-125.27zM151.88 187.63l36.54 2.59c0 6.68-8.69 13.79-9.67 21-.24 1.73.6 28-.09 40.27-.66 11.73-9.2 13-25.92 7.77l-4-44.28h-1.3a35.78 35.78 0 0 1-18.44-5.55l-4.85-3.05 17.36 45.13a6.49 6.49 0 0 1-5.27 8l-11.74 1.9a9.61 9.61 0 0 1-10.58-6.24c-6.08-16.89-23.54-71.58-19.73-79.47 7-14.46 46.07 8.45 57.69 11.93z"/>
        <path d="M161.07 217.14L159.36 248s-1.17 12.71-1.45 13-3.47 1.09-5.28 1.09c0 0-6-1-7.77-1.86-1.09-.55-.86-.18-.86-1.73l-.06-41.37a5.94 5.94 0 0 1 5.94-5.94h5.24a6 6 0 0 1 5.95 5.95z" fill="url(#linear-gradient-6)"/>
        
        <path d="M38 36.43l-6.46 4.9-6.4 11.89L22.09 65l-3.21 23.73-3.57 22.09-.15 1.18c-1.41 11.12-1.16 21.2-5.28 31.64-.84 2.11-2.76 8.66-2.76 8.66l3.61.26a118.81 118.81 0 0 0 20-.57l7.75-.88L57 147.94l-1.08-35.16 1.3-16.34 8.17-14.75a9.37 9.37 0 0 0 .75-7.29L61.86 65 55.5 40.3z" fill="url(#linear-gradient-7)"/>
        <path d="M50.14 50.79L53.46 52c4 20.3.75 41.33-2.39 61.61 9.79 10.67 15.37 23.82 23.9 35.48l-10.23-2c-9.14-11-21.39-14.47-32.28-23.19a4.55 4.55 0 0 1-1.7-3.77C31.87 99.06 32.86 94 36.27 72l6.07-20.1a8.34 8.34 0 0 1 7.8-1.11z" fill="#8378cb" opacity=".8"/>
        <path class="cls-22" d="M69.05 136.73c5.59 4.16 6.9 5.17 10.08 8.4-1.08 12.21-8 14.84-18.47 8.63.21-7.25 3.34-11.41 8.39-17.03z"/>
        <path d="M54.46 46.48l3.32 1.22c4 20.3.75 41.33-2.39 61.6 9.78 10.67 15.36 23.83 23.9 35.49L65 149.73c-9.64-11.56-18.73-21.8-30.05-31.67 1.16-23 4.61-45.12 8.13-67.87l3.56-2.61a8.36 8.36 0 0 1 7.82-1.1z" fill="url(#linear-gradient-8)"/>
        <path d="M64.5 4.77c-1.15-.5-6.45-4.55-7.59-4.48-7.27.4-8.62-3-20.16 6.06-1.79 1.4-2 4-2.18 6.13C34 18.62 32 23.2 30.77 30.93c-.08 2.62-4.53 17.2-10.89 30.86C15.17 71.92 13 78.2 18.55 81.23c1.82 1 4.07-1.28 6-1.9 3.93-1.26 8.19-2.35 8.49-2.6 1.36-1.13 3.81-10.12 6.11-19.37 2.42-9.72 3.67-19.72 4.33-21.2 1.88-4.2 5.06-7.57 8.28-10.91 1.82-1.88 3.65-3.75 5.27-5.76-1.43-2.69-3.73-5.44 1.38-7.52.44-.18.65-1 .74-1.61.45-2.88 4.96-2.7 5.35-5.59z" fill="#ab58d5"/>
        <path d="M205.12 111.27c-2.48-3.36-12.84-16.11-12.84-16.11s-2.28-2-10.21-4.09c-4.76-1.27-9.74-3.2-12.46-2.4-8.61 2.53-10.65 3-21.77-1-8.61 1.23-14.4 1.61-21.23 7.38-7.25 6.13-17.75 16.79-24.47 23.48.89 4.23 13.58 12.73 17.3 14.53 4.06-3.6 5.7-4.69 8.56-8.8V148c0 1 0 2.06-.11 3.08L125 193.2l64-1 2.05-17.41a160.27 160.27 0 0 0 .43-33.28l-2-17.48c2.56 3.17 4.56 8.17 8.07 10.56 2-3 15.49-13.39 13.53-15.54a86.1 86.1 0 0 1-5.96-7.78z" fill="#effffa"/>
        <path d="M186.1 116.74c-18.1 6.46-52.1.46-58.75-.83-3.46-.68-8.9-2-9.56 1.49-2.79 14.8.12 30.63 1.21 38.8.3 2.23 2 9.59 4.31 21.07.14.74 3 8.48 2.79 9.14 23.41 4.59 44.15 8.2 68.31 3.78-.33-1.57 1.63-10.19 2-11.81 1.47-7 2.16-13 2.36-14.37 2-13.21 2.06-37.21-4.74-47.81-1.75-2.69-4.92-.53-7.93.54z" opacity=".68" fill="url(#linear-gradient-9)"/>
        <path d="M200.78 187.26c.47-1.81 1.57-7.74 2-9.63a82.37 82.37 0 0 0 1.75-12.81c2.34-15.46 2.8-41.71-5.16-54.11-2-3.15-5.34-3.51-9.62-2.35C168 114.2 131 111.2 121 107.37c-3.86-1.47-8.59.81-9 4.92-4 38.91 2.35 52.47 5 65.91.17.87.6 3.4 1 5 1 4 2.17 5.51 1 6-5.48 2.3-12 2.52-12.27 6.35v.65h96.54a23.65 23.65 0 0 0-1.27-3c-1.06-2.12-2-3-1.22-5.94zm-2-23.25c-.2 1.33-.89 7.41-2.36 14.37-.34 1.62-2.3 10.24-2 11.81-24.16 4.42-44.9.81-68.31-3.78.26-.66-2.65-8.4-2.79-9.14-2.29-11.48-4-18.84-4.31-21.07-1.09-8.17-4-24-1.21-38.8.66-3.47 6.1-2.17 9.56-1.49 6.65 1.29 40.65 7.29 58.75.83 3-1.07 6.18-3.23 7.9-.54 6.79 10.6 6.72 34.6 4.73 47.8z" opacity=".7" fill="url(#linear-gradient-10)"/>
        <path d="M202.75 177.63a82.37 82.37 0 0 0 1.75-12.81c2.34-15.46 2.8-41.71-5.16-54.11-2-3.15-5.34-3.51-9.62-2.35C168 114.2 131 111.2 121 107.37c-3.86-1.47-8.59.81-9 4.92-4 38.91 2.35 52.47 5 65.91.17.87.6 3.4 1 5 1 4 2.17 5.51 1 6-5.48 2.3-12 2.52-12.27 6.35v.65c.06 10.74 17 24.49 52.94 23.68 30.33-.68 43-5.37 43.67-16.19.14-2.32 1.14-3.83-.07-7.49a23.65 23.65 0 0 0-1.27-3c-1.06-2.12-2-3-1.22-5.94.47-1.81 1.57-7.74 1.97-9.63zM119 156.2c-1.09-8.17-4-24-1.21-38.8.66-3.47 6.1-2.17 9.56-1.49 6.65 1.29 40.65 7.29 58.75.83 3-1.07 6.18-3.23 7.9-.54 6.8 10.6 6.73 34.6 4.74 47.81-.2 1.33-.89 7.41-2.36 14.37-.34 1.62-2.3 10.24-2 11.81-24.16 4.42-44.9.81-68.31-3.78.26-.66-2.65-8.4-2.79-9.14-2.28-11.48-3.98-18.84-4.28-21.07z" fill="url(#linear-gradient-11)"/>
      </g>
    </g>
  </g>
</svg>
