<svg id="Layer_1" xmlns="http://www.w3.org/2000/svg" viewBox="0 0 649.2 581.2">
  <style>
    .st2{fill:none;stroke:#b4a5d7;stroke-width:3;stroke-miterlimit:10}.st3{fill:#5308ab}.st6{fill:#f5dbad}.st7{fill:#1c08a0}.st9{fill:#be7dde}.st10{fill:#4534b1}.st12{fill:#b5d2cb}.st17{fill:#2f243a}.st18{fill:none;stroke:#ede580;stroke-width:3;stroke-miterlimit:10}.st19{fill:#accbcd}.st20{fill:#fefeff}.st22{fill:#171718}.st27{fill:#fde0c7}.st36{fill:#decbb7}.st40{fill:#e9ead6}.st48{opacity:.8;fill:#fefeff;enable-background:new}.st49{opacity:.45}.st50{opacity:.78}
    .path1{stroke-dasharray: 40;stroke-dashoffset: 40;animation: dash1 1.5s linear forwards;animation-delay: 0s}@keyframes dash1{to{stroke-dashoffset: 0;}}@-webkit-keyframes dash1{to{stroke-dashoffset: 0;}}
    
    .path2{stroke-dasharray: 40;stroke-dashoffset: 40;animation: dash1 1.5s linear forwards;animation-delay: 1.5s}@keyframes dash1{to{stroke-dashoffset: 0;}}@-webkit-keyframes dash1{to{stroke-dashoffset: 0;}}
    
    .path3{stroke-dasharray: 40;stroke-dashoffset: 40;animation: dash1 1.5s linear forwards infinite;animation-delay: 3s}@keyframes dash1{to{stroke-dashoffset: 0;}}@-webkit-keyframes dash1{to{stroke-dashoffset: 0;}} 
    
    .path4{stroke-dasharray: 44;stroke-dashoffset: -44;animation: dash2 1.6s linear forwards;animation-delay: 0s}@keyframes dash2{to{stroke-dashoffset: 0;}}@-webkit-keyframes dash2{to{stroke: 0;}}

    .path5{stroke-dasharray: 44;stroke-dashoffset: -44;animation: dash2 1.6s linear forwards;animation-delay: 1.5s}@keyframes dash2{to{stroke-dashoffset: 0;}}@-webkit-keyframes dash2{to{stroke-dashoffset: 0;}}

    .path6{stroke-dasharray: 44;stroke-dashoffset: -44;animation: dash2 1.6s linear forwards infinite;animation-delay: 3s}@keyframes dash2{to{stroke-dashoffset: 0;}}@-webkit-keyframes dash2{to{stroke-dashoffset: 0;}}


    .arm_down{animation: armove 4s infinite; -webkit-animation: armove 4s infinite; animation: armove 5s infinite; animation-direction: alternate;}@keyframes armove {from {transform: rotate(8deg); transform-origin: 5% 10%;} to{rotate(-2deg); transform-origin: 0% 5%;}}@-webkit-keyframes armove {from {transform: rotate(16deg); transform-origin: 5% 10%;} to{rotate(-2deg); transform-origin: 0% 5%;}}

    .smoke{animation: pulse 1.5s infinite; animation-direction: alternate;}@keyframes pulse{to {opacity:.1;}}@-webkit-keyframes pulse{to {opacity:.1;}}
  </style>
  <linearGradient id="SVGID_1_" gradientUnits="userSpaceOnUse" x1="663.86" y1="547.7072" x2="15.3001" y2="535.2771" gradientTransform="translate(0 -249.54)">
    <stop offset=".04" stop-color="#fff"/>
    <stop offset=".08" stop-color="#fff"/>
    <stop offset=".12" stop-color="#fffcf5"/>
    <stop offset=".17" stop-color="#fff5db"/>
    <stop offset=".25" stop-color="#ffe9b0"/>
    <stop offset=".33" stop-color="#ffd975"/>
    <stop offset=".43" stop-color="#ffc42a"/>
    <stop offset=".64" stop-color="#965278"/>
    <stop offset=".74" stop-color="#671e9c"/>
    <stop offset=".89" stop-color="#39119e"/>
    <stop offset="1" stop-color="#1c08a0"/>
  </linearGradient>
  <path d="M12.8 242.8c-1.4 33-7.4 180.7 78.9 256.7 77.6 68.4 240.6 75.9 381.7 68.7 112.2 2.2 142-47.3 172.4-90.1l3-418.4c-532-114.9-628 .1-636 183.1z" fill="url(#SVGID_1_)"/>
  <path d="M138 166h177.6c.8 0 1.5.7 1.5 1.5v109.4c0 .8-.7 1.5-1.5 1.5H138c-.8 0-1.5-.7-1.5-1.5V167.5c0-.8.7-1.5 1.5-1.5z" fill="#efffff"/>
  <path class="st2" d="M222.6 218h-21.3M172.4 197.2h18.3l-.2 15.4"/>
  <circle class="st3" cx="166.8" cy="197.2" r="8.1"/>
  <path class="st2" d="M249.5 218h-20.7M285.9 217.8h-22.3"/>
  <path class="st3" d="M248.9 211.1h20c1 0 1.9.9 1.9 1.9v9.4c0 1-.9 1.9-1.9 1.9h-20c-1 0-1.9-.9-1.9-1.9V213c0-1.1.8-1.9 1.9-1.9z"/>
  <circle class="st3" cx="291.9" cy="217.6" r="8.1"/>
  <path fill="none" stroke="#9792e3" stroke-width="3" stroke-miterlimit="10" d="M225.1 240.6v-22.3"/>
  <path class="st3" d="M216.8 215.8l6.6-6.6c1-1 2.7-1 3.8 0l6.6 6.6c1 1 1 2.7 0 3.8l-6.6 6.6c-1 1-2.7 1-3.8 0l-6.6-6.6c-1-1.1-1-2.8 0-3.8z"/>
  <circle class="st3" cx="225.2" cy="243.9" r="8.1"/>
  <path class="st3" d="M180.4 211.1h20c1 0 1.9.9 1.9 1.9v9.4c0 1-.9 1.9-1.9 1.9h-20c-1 0-1.9-.9-1.9-1.9V213c0-1.1.8-1.9 1.9-1.9z"/>
  <linearGradient id="SVGID_2_" gradientUnits="userSpaceOnUse" x1=".84" y1="734.79" x2="639.84" y2="734.79" gradientTransform="translate(0 -249.54)">
    <stop offset="0" stop-color="#ccc"/>
    <stop offset=".04" stop-color="#dadada"/>
    <stop offset=".12" stop-color="#ebebeb"/>
    <stop offset=".21" stop-color="#f6f6f6"/>
    <stop offset=".34" stop-color="#fdfdfd"/>
    <stop offset=".7" stop-color="#fff"/>
    <stop offset="1" stop-color="#fff"/>
  </linearGradient>
  <path fill="url(#SVGID_2_)" d="M6.8 394.8h633v181H.8z"/>
  <path class="st6" d="M121 448.4l-11.9.2.4 14.1c1.6.2 3.2.3 4.8.5 4.2.6 8.4 1.3 12.7 2-5.3-4.5-7.1-10.2-6-16.8zM130.3 453.6l21.5 4.7c-5.6-5-8.2-10.9-6.4-18.3l-13.4.3c-.6 4.5-1.1 8.9-1.7 13.3z"/>
  <path class="st7" d="M127 465.2c-4.2-.7-8.4-1.4-12.7-2-1.6-.2-3.3-.3-4.9-.5l-.2.1c-.4.7-1.1 1.2-1.1 2-.1 2.1.6 3.1 2.1 4.7 3.4 3.6 18.5 5 28.7 6.2.9.1 1-.3.8-.8-1-3.8-12.7-9.7-12.7-9.7z"/>
  <g id="arm" class="arm_down">
    <path class="st6" d="M192.8 234.1l6.6 4.4 4.3-4.5c.4.1 4-2 6.6-4 1-.6 5.2-3.1 4.3-3.9-.7-.6-2.7.8-2.7.2 0-.3 3.5-2 3.5-2v-.9c-.7-1.1-5.2 2-4.5 1.2 1.7-1.9 4.4-2.1 2.5-3.8-.2-.2-1 .1-1.1.2.1-.1-3.4 1.9-3.4 1.9-.1-.2 2.6-2 2.6-2 .7-.4.3-.8-.3-1.2-1.2-.8-6.9 3.4-7.3 3.5l-3 2-.4-6-1.1-.2-6.6 15.1z"/>
    <linearGradient id="SVGID_3_" gradientUnits="userSpaceOnUse" x1="132.7998" y1="495.2573" x2="200.58" y2="495.2573" gradientTransform="translate(0 -249.54)">
      <stop offset="0" stop-color="#c78fe3"/>
      <stop offset=".58" stop-color="#cb98e5"/>
      <stop offset=".99" stop-color="#d0a2e7"/>
    </linearGradient>
    <path d="M193.5 229.4c-4.9 3.2-8.7 6.5-13.6 9.6l-3.2 2-3.9 2.6-3.6 2.1c-2.7 2.3.1-.4-5.5 3.8-1 .7-2.2-1.8-3.8-3.3-3.3-2.9-6.3-6-9-9.5-4.4-3.8-6.3-14.9-11.1-15-1-.3-2.2-.2-3.1.3-2.4 1.4-3.9 4-3.9 6.9.1 1.3.3 2.7.6 4 .5 2 .8 4 1 6 .2 1.8.9 5.3 1.9 6.8.6 1 7.5 9.6 7.4 10.8 22.2 15.5 19 19 36.2 2.2 7.3-7.1 14.1-14.1 20.7-21.8-5.5-5.6-4.6-4.3-7.1-7.5z" fill="url(#SVGID_3_)"/>
  </g>
  <path class="st7" d="M130.4 453.7c-.1 0-.1 0-.2.1-1.7 3.1-1.9 6.1 2.1 7.5 9 3 18.2 5.6 27.6 7.9.7.2 1.3-.2 1.5-.9.1-.3 0-.7-.2-1-2.5-3.5-6-6.2-9.4-8.8h-.1l-21.3-4.8z"/>
  <path class="st9" d="M138.6 221.4l1.8 18.3c-.6 7.4-1.5 14.7-1.7 22.1-.3 9.7-.4 19.5.1 29.2.2 4.5-.3 10.4.8 14.9 1.3 5.1-2.4 20.6-1 25.7 2 1.1 6.9-1.1 10.2-1.1 4.4-1 8.3-3.9 8.9-5.6.2-.5-2.9-7.7-3.8-10-4.2-8.5-6.1-19.8-7.4-29.1-.9-6.4-.8-21.5-.3-25.3.2.1-1.3-22.6-.9-36.9-.7-.6-6.2-1.9-6.7-2.2z"/>
  <path class="st10" d="M144.8 316.1l-39.9 1.3-1.6 5.9-1 9.2c-.3 15.8.7 31.6 3.1 47.2 1.1 7.2 1.6 14.4 1.6 21.7-.1 17.2 1 34.4 1.1 51.6l18.3.3 1.5-14.7 2.4-18.8-.9 26.7 15.6.5.1-3.4c1.2-20.8 2.3-30.9 3.1-48.8.1-1.2.1-2.4.2-3.7 1-25.2 1.4-49.7-3.6-75z"/>
  <path class="st7" d="M134.9 341.8c-.4 10.4 4 29.9-6.2 88.2"/>
  <path d="M125.4 331.2c6.1-1.4 14.1-2.1 19.6-3.7 1.1-.3 1.7-1.4 1.5-2.5-1.2-5.1-1.9-12.5-3-16.9s-.8-12.6-1-17.2c-.4-9.7 1.3-28.4 1.6-38.1.2-7.6-3.3-7.6-4-16.3v-.2c-.6-6.1-1.2-8.8-1.7-14.9v-.6c-.1-.8-.8-1.4-1.6-1.3-.1 0-.2 0-.4.1-6.2 2-12.4-.4-17.9-2.2-.5-.2-1.1 0-1.5.4l-1 1c-.7.7-.7 1.9 0 2.6.2.2.5.4.7.4 3.2 1 6.3 2.4 7.1 4.6 1.7 4.8 1.7 10.1 2 15.3.1 1.8-1.5 3.6-1.4 5.4.1 3.5 1.3 7 1.3 10.4-.3 4.8-.8 9.7-1.6 14.5-.4 3.1-1.6 6.1-1.5 9.1.3 8.3.9 16.7 1.8 25 .3 3.1 2.1 6.1 2.8 9.2.4 1.9.4 3.8.2 5.7-.1 1.2-2.2 5.5-3.7 8.1-.4.7-.2 1.6.5 2 .4.2.8.3 1.2.1z" fill="#efe0f7"/>
  <path class="st7" d="M140.5 161.8h172.7c2.6 0 4.7 2.1 4.7 4.7v10.3h-182v-10.3c-.1-2.7 2-4.7 4.6-4.7z"/>
  <path class="st12" d="M159.7 344.6h12.6V461c0 .8-.7 1.5-1.5 1.5h-11.1V344.6z"/>
  <path d="M493.1 350.3c-.7.1-1.4.1-2.1.2v-1.2l2.1 1z" fill="#f3d8dc"/>
  <path class="st12" d="M488.4 316.6h11.7v144.9h-11.7z"/>
  <path fill="#cedfd9" d="M499.9 315.9l-340.6-.3-21.5 29.2 337.3.4z"/>
  <path class="st12" d="M499.9 328.4l-29 30.3 1.8-15 27.2-27.8z"/>
  <linearGradient id="SVGID_4_" gradientUnits="userSpaceOnUse" x1="256.63" y1="523.3491" x2="363.2193" y2="523.3491" gradientTransform="translate(0 -249.54)">
    <stop offset=".01" stop-color="#f0f0f1"/>
    <stop offset=".27" stop-color="#dfe4e3"/>
    <stop offset=".72" stop-color="#c5d2ce"/>
    <stop offset="1" stop-color="#bccbc6"/>
  </linearGradient>
  <path d="M256.6 307.2l87.9.4 18.6-64.2c.3-1.3-.4-2.7-1.8-3-.2-.1-.5-.1-.7-.1l-81.5-.4c-1.7-.1-3.3 1.1-3.9 2.7l-18.6 64.6z" fill="url(#SVGID_4_)"/>
  <linearGradient id="SVGID_5_" gradientUnits="userSpaceOnUse" x1="237.7" y1="562.745" x2="346.54" y2="562.745" gradientTransform="translate(0 -249.54)">
    <stop offset="0" stop-color="#849994"/>
    <stop offset=".49" stop-color="#a5bfb9"/>
    <stop offset=".74" stop-color="#b3c6c1"/>
    <stop offset="1" stop-color="#bccbc6"/>
  </linearGradient>
  <path d="M240.9 307.2h102.4c1.8 0 3.2 1.4 3.2 3.2v5.7c0 1.8-1.4 3.2-3.2 3.2H240.9c-1.8 0-3.2-1.4-3.2-3.2v-5.7c0-1.8 1.4-3.2 3.2-3.2z" fill="url(#SVGID_5_)"/>
  <path class="st17" d="M264 302l74.7.3 16.6-56.4-74.7-.3z"/>
  <g id="code_left">
    <path class="st18 path4" d="M336.7 256.4h-44.3"/>
    <path class="st18 path5" d="M333.3 265.7H289"/>
    <path class="st18 path6" d="M329.9 275h-44.4"/>
  </g>
  <path class="st19" d="M255.3 272.6c0-.3-.1-.5-.1-.8 0 .3 0 .5.1.8z"/>
  <path class="st20" d="M72.1 197.8C60.3 191 56.2 176 63 164.2c3-5.2 7.7-9.1 13.3-11-13.7-3.3-27.5 5.1-30.8 18.8s5.1 27.5 18.8 30.8c5.8 1.4 12 .7 17.3-1.9-3.3-.4-6.5-1.5-9.5-3.1z"/>
  <linearGradient id="SVGID_6_" gradientUnits="userSpaceOnUse" x1="501.5147" y1="711.1666" x2="586.9047" y2="711.1666" gradientTransform="translate(-2.5197 -247.4557) scale(.9961)">
    <stop offset="0" stop-color="#849994"/>
    <stop offset=".49" stop-color="#a5bfb9"/>
    <stop offset=".74" stop-color="#b3c6c1"/>
    <stop offset="1" stop-color="#bccbc6"/>
  </linearGradient>
  <path d="M500.3 455.4c1.7-15.4 22.1-25.8 45.6-23.2 23.5 2.6 41.2 17.1 39.5 32.5s-22.1 25.8-45.6 23.2c-23.5-2.5-41.2-17.1-39.5-32.5z" fill="url(#SVGID_6_)"/>
  <path class="st22" d="M492.3 468l2-12.5c-13.5 2.4-13.5 2.2-23.7 10.6-3 2.5-5.9 2.2-9.4 3.9-7.6 9.6 37.8 10.2 31.1-2z"/>
  <path class="st22" d="M521.4 449.5l-.8-12.6c-12.6 5.3-12.7 5.2-20.8 15.5-2.4 3.1-5.2 3.4-8.2 5.9-5.4 11.1 39.1 1.6 29.8-8.8z"/>
  <linearGradient id="SVGID_7_" gradientUnits="userSpaceOnUse" x1="371.9171" y1="530.1749" x2="467.14" y2="530.1749" gradientTransform="translate(0 -249.54)">
    <stop offset=".01" stop-color="#f0f0f1"/>
    <stop offset=".27" stop-color="#dfe4e3"/>
    <stop offset=".72" stop-color="#c5d2ce"/>
    <stop offset="1" stop-color="#bccbc6"/>
  </linearGradient>
  <path d="M467.1 312.7l-78.5.4-16.6-61.6c-.3-1.2.4-2.5 1.6-2.8.2-.1.4-.1.6-.1l72.8-.4c1.6 0 3 1.1 3.4 2.6l16.7 61.9z" fill="url(#SVGID_7_)"/>
  <linearGradient id="SVGID_8_" gradientUnits="userSpaceOnUse" x1="386.78" y1="567.9449" x2="484" y2="567.9449" gradientTransform="translate(0 -249.54)">
    <stop offset="0" stop-color="#849994"/>
    <stop offset=".49" stop-color="#a5bfb9"/>
    <stop offset=".74" stop-color="#b3c6c1"/>
    <stop offset="1" stop-color="#bccbc6"/>
  </linearGradient>
  <path d="M390 312.6h90.8c1.8 0 3.2 1.4 3.2 3.2v5.2c0 1.8-1.4 3.2-3.2 3.2H390c-1.8 0-3.2-1.4-3.2-3.2v-5.2c0-1.8 1.4-3.2 3.2-3.2z" fill="url(#SVGID_8_)"/>
  <path class="st22" d="M460.5 307.6l-66.7.4-14.8-54.1 66.7-.3z"/>
  <linearGradient id="SVGID_9_" gradientUnits="userSpaceOnUse" x1="534.32" y1="689.085" x2="551.52" y2="689.085" gradientTransform="translate(0 -249.54)">
    <stop offset=".01" stop-color="#f0f0f1"/>
    <stop offset=".27" stop-color="#dfe4e3"/>
    <stop offset=".72" stop-color="#c5d2ce"/>
    <stop offset="1" stop-color="#bccbc6"/>
  </linearGradient>
  <path d="M551.5 422.8v33.6c0 3.8-3.1 6.9-6.9 6.9h-3.4c-3.8 0-6.9-3.1-6.9-6.9v-33.6c0-3.8 3.1-6.9 6.9-6.9h3.4c3.8 0 6.8-.3 6.9 6.9z" fill="url(#SVGID_9_)"/>
  <path d="M513.6 376.5c2 16 3.4 32.1 5.9 48.1 3.8 24.2-.5 19.1-14.9 22.5-6.4-27.1-10.3-35.6-14.2-63.3-6.3-43.6 40.2-.5 23.2-7.3z" fill="#301ea8"/>
  <path class="st27" d="M484 312c-5.1-5-12.7-6.6-19.4-4.1-1.2.4-2.3 1-3.4 1.6l-1.8 1.2c-.4.3-.4.8-.1 1.2.2.2.5.4.8.3l3.4-.4c1.3-.2 2.6-.3 4-.3.9-.1 1.6.6 1.7 1.4 0 .3 0 .6-.2.8-.3.6-1.4 1.7-1.3 2.6s0 0 2 .7c6.9 2 9.8-.8 14.3-5z"/>
  <path d="M476.1 307.7c11.7-5.2 15.6-8.5 27-14.3 12-6.1 24.1-4 36.3-2.2 3 .5 4.1 0 7.2.2 5.4 9.1 8.6 23.5 11 33.4.8 3.1.9-2.7 1.9.4-8-3.2-8-2.6-15.8-6.2-16.3-7.5-31.6-11.4-49-7.2-7.3 1.8-7 1.2-14.5 4.3-1.6-4.5-3.2-6.2-4.1-8.4z" fill="#89d171"/>
  <path class="st27" d="M508.4 257.5c.3 6 3.5 11.4-.8 16.8-2.3 2.9-2.2 8.6 3.3 5.9s11.6-3.9 17.4-7c1.1-.6 4.3-1.2 3.5-2.2-4.3-5.1-6-10.2-8.5-15.3s-7.5-2.7-12.8-1.3c-1.3.5-2.2 1.7-2.1 3.1z"/>
  <linearGradient id="SVGID_10_" gradientUnits="userSpaceOnUse" x1="498.51" y1="568.9484" x2="578.0309" y2="568.9484" gradientTransform="translate(0 -249.54)">
    <stop offset=".01" stop-color="#b2ec9f"/>
    <stop offset=".2" stop-color="#a8e594"/>
    <stop offset=".7" stop-color="#91d77a"/>
    <stop offset="1" stop-color="#89d171"/>
  </linearGradient>
  <path d="M507.5 274.7c9.7-.2 20 3.8 23.1-5.6 10.5 1.8 21.7 14.7 29.8 38.2 6.3 18.2 3.4 6.9 13.6 43.5 4.9 17.7 11.8 18.7-24 19-17 .1-34.5-2.3-51.5-1.2 24.3-11.9-4.5-79.8 9-93.9z" fill="url(#SVGID_10_)"/>
  <path class="st27" d="M461.2 314.2c-2.2-2.1-2-5.3-4.6-5.3H454c-.6 0-3.1-.1-6 .1-2.5.1-4.9.5-7.2 1.3-.6.2-1.2.6-1.8 1-.3.3-.4.7-.1 1 .2.2.4.3.7.3 9.1.3 5.8 1.5 10.5 4.9 7 1.8 6.6.9 11.1-3.3z"/>
  <path d="M508.6 342.5v3.1c3.2.8 10.8-43.1 4.9-52.1-2.1-3.2-5.9-5.5-8.7-3.5-2.6 1.8-1.6 2.3-3.6 6.5-2.6 5.2 7.4 44.4 7.4 46z" opacity=".77" fill="#89d171"/>
  <path d="M492 348.2c3.6 2 8.2 1.1 10.9-2 12.7-14.9 17.4-52 11.9-64.4-2.4-5.3-5.5-8.4-8.9-5.9-3.2 2.3-3 4.8-5.6 9.9-6.5 13.1-8.2 32.6-14.5 34.9-4.2 1.5-9.9-3.3-21.2-7.9-4.5-1.9-3.6.4-5.3 2-2.9 2.7-12 3.5-11.2 4 7.3 5.2 33.4 23.8 43.9 29.4z" fill="#b2ec9f"/>
  <path class="st10" d="M577 399c3.8-15.2-2.2-21.1-1-31.5-10-.7-41.4 1-59.8-3.9-13.5-3.6-28.8-7-36.8-4-8.7 3.2-9.6 13.9-9.1 36.7.6 28 2.4 39.2 5.4 66.9 21.3 0 18.5.3 18.5-22.9V392c16 8.9 31.8 12.5 49.2 15 9.9 1 11.8 2 9.9 1-2.3-1.3 16.8-2 23.7-9z"/>
  <g id="code_right">
    <path class="st18 path1" d="M396.5 267.9h39.7"/>
    <path class="st18 path2" d="M399.6 276.8h39.6"/>
    <path class="st18 path3" d="M402.7 285.7h39.6"/>
  </g>
  <linearGradient id="SVGID_11_" gradientUnits="userSpaceOnUse" x1="574.6198" y1="632.8" x2="572.6597" y2="572.02" gradientTransform="translate(0 -249.54)">
    <stop offset="0" stop-color="#849994"/>
    <stop offset=".49" stop-color="#a5bfb9"/>
    <stop offset=".74" stop-color="#b3c6c1"/>
    <stop offset="1" stop-color="#bccbc6"/>
  </linearGradient>
  <path d="M593.8 320.3c-.7-.9-1.9-1.1-2.8-.6-13 9.3-21.7 4.8-39.1 3-2.4-.2-4.2 1-3.5 3.3 5.3 16.8 4.5 27.8 3 40.5-1.7 12.1-3.9 24.1-6.8 36 17.6.5 28.9-3.9 46-8.9 6.1-7.3 6.4-7.2 8.7-13.4 6.2-16.6 9.2-32.4-5.5-59.9z" opacity=".68" fill="url(#SVGID_11_)"/>
  <linearGradient id="SVGID_12_" gradientUnits="userSpaceOnUse" x1="573.1403" y1="632.8494" x2="571.1802" y2="572.0693" gradientTransform="translate(0 -249.54)">
    <stop offset="0" stop-color="#fff"/>
    <stop offset=".28" stop-color="#f6f6f6"/>
    <stop offset=".74" stop-color="#dcdcdc"/>
    <stop offset=".99" stop-color="#ccc"/>
  </linearGradient>
  <path d="M602.6 388.2c9.6-19.2 11.8-50.3-6.9-74.9-2.8-3.8-4.9.2-11.8 3-3.4 1.5-7.1 2.2-10.8 2-12.8 0-16.8-1.2-27.9-2.3-2.5-.2-4.7 1.6-5 4.1-.1.6 0 1.2.2 1.8 5.8 18.9 5.2 29 3.5 43.8-1.1 9.2-7 33.4-7.7 36.9h56.3c.8-.8 1.2-1.3 1.3-1.5 5.8-8 7.8-10.9 8.8-12.9zm-58 14.3c2.9-11.9 5.2-23.9 6.8-36 1.5-12.7 2.2-23.7-3-40.5-.7-2.3 1.1-3.5 3.5-3.3 17.4 1.8 26.1 6.4 39.1-3 1-.6 2.2-.3 2.8.6 14.7 27.5 11.7 43.3 5.4 59.9-2.3 6.1-2.6 6-8.7 13.4-17 5-28.4 9.4-45.9 8.9z" fill="url(#SVGID_12_)"/>
  <linearGradient id="SVGID_13_" gradientUnits="userSpaceOnUse" x1="478.76" y1="616.1833" x2="672.92" y2="616.1833" gradientTransform="translate(0 -249.54)">
    <stop offset="0" stop-color="#849994"/>
    <stop offset=".49" stop-color="#a5bfb9"/>
    <stop offset=".74" stop-color="#b3c6c1"/>
    <stop offset="1" stop-color="#bccbc6"/>
  </linearGradient>
  <path d="M595.7 313.3c-2.8-3.8-4.9.2-11.8 3-3.4 1.5-7.1 2.2-10.8 2-12.8 0-16.8-1.2-27.9-2.3-2.5-.2-4.7 1.6-5 4.1-.1.6 0 1.2.2 1.8 5.8 18.9 5.2 29 3.5 43.8-1.1 9.2-7 33.4-7.7 36.9 0 .1-.1.3-.1.4v.1c-11.6 2.8-21.5-4.9-32-10.4-4.5-2.4-10.1-.6-12.4 3.9-.5.9-.8 1.9-1 2.9-.3 2.3-.5 4.5-.5 6.8 0 .7 0 1.5.1 2.3.4 6.4 5.8 11.3 12.2 11.3 12 0 23.9 2.3 35.7 1.4 7.9-.6 16.6-1.2 24.3-2.5 15.3-2.5 26.3-12.4 30-16.3.8-.8 1.2-1.3 1.3-1.5 5.9-7.9 7.9-10.8 8.9-12.8 9.5-19.2 11.7-50.3-7-74.9zm3.5 66.9c-2.3 6.1-2.6 6-8.7 13.4-17.1 5-28.4 9.4-46 8.9 2.9-11.9 5.2-23.9 6.8-36 1.5-12.7 2.2-23.7-3-40.5-.7-2.3 1.1-3.5 3.5-3.3 17.4 1.8 26.1 6.4 39.1-3 1-.6 2.2-.3 2.8.6 14.8 27.5 11.8 43.3 5.5 59.9z" fill="url(#SVGID_13_)"/>
  <linearGradient id="SVGID_14_" gradientUnits="userSpaceOnUse" x1="290.4139" y1="796.3888" x2="226.2739" y2="588.4588" gradientTransform="translate(0 -249.54)">
    <stop offset="0" stop-color="#bccbc6"/>
    <stop offset=".26" stop-color="#b3c6c1"/>
    <stop offset=".51" stop-color="#a5bfb9"/>
    <stop offset="1" stop-color="#849994"/>
  </linearGradient>
  <ellipse cx="263.7" cy="460.1" rx="44.6" ry="31.4" fill="url(#SVGID_14_)"/>
  <path class="st17" d="M289.1 456.3l2.2-13.7c-14.8 2.6-7.3.3-18.4 9.4-3.3 2.7 1.9 2.1-1.9 4-8.4 10.5 25.5 13.6 18.1.3zM249.5 458.4c.7-4.6-.7-9.1 0-13.7-14.8 2.6-13.8.3-24.9 9.4-3.3 2.7-6.4 3.5-10.2 5.4-8.5 10.5 42.4 12.3 35.1-1.1z"/>
  <path class="st36" d="M335.1 336.6c-8.5.1-27.9.2-36.4.3l-2.3-13.1h18.3l.2-1-4.1-3 10.3-15.7 2.4 2.9 3.4 4.3 7 9.1c.6.9 1.1 1.8 1.8 2.6 3.9 7.1 4.6 9.1-.6 13.6zM240 323.4c-1 4.4-1.9 8.8-2.9 13.3-7.6-.1-26.1-.4-33.7-.2-5.4.1-6.3-.2-6.9-3.1-.7-3.3-1.8-2.2 2-10.7.4-.7.8-1.4 1.3-2.1.2-.3.3-.5.5-.7l6.9-8.9 5.7-7.2h.1l10.4 15.9-4.2 2.9.3 1 20.5-.2z"/>
  <path class="st10" d="M262.7 380.3l39.5 2.8c0 7.2-9.4 14.9-10.5 22.7-.3 1.9.6 30.3-.1 43.5-.7 12.7-9.9 14.1-28 8.4l-4.3-47.9H258c-7.1-.1-13.9-2.2-19.9-6l-5.2-3.3 18.8 48.8c1 3.7-1.3 7.6-5.1 8.5-.2 0-.4.1-.6.1l-12.7 2c-4.9.8-9.7-2-11.4-6.7-6.6-18.3-25.4-77.4-21.3-85.9 7.3-15.5 49.5 9.2 62.1 13z"/>
  <linearGradient id="SVGID_15_" gradientUnits="userSpaceOnUse" x1="254.14" y1="682.855" x2="272.66" y2="682.855" gradientTransform="translate(0 -249.54)">
    <stop offset=".01" stop-color="#f0f0f1"/>
    <stop offset=".27" stop-color="#dfe4e3"/>
    <stop offset=".72" stop-color="#c5d2ce"/>
    <stop offset="1" stop-color="#bccbc6"/>
  </linearGradient>
  <path d="M272.7 412.2l-1.9 33.3s-1.3 13.7-1.6 14.1-3.8 1.2-5.7 1.2c0 0-6.5-1.1-8.4-2-1.2-.6-.9-.2-.9-1.9l-.1-44.7c0-3.5 2.8-6.4 6.4-6.4h5.7c3.6 0 6.4 2.8 6.5 6.4z" fill="url(#SVGID_15_)"/>
  <linearGradient id="SVGID_16_" gradientUnits="userSpaceOnUse" x1="293.4769" y1="626.8619" x2="206.9969" y2="489.922" gradientTransform="translate(0 -249.54)">
    <stop offset="0" stop-color="#849994"/>
    <stop offset=".49" stop-color="#a5bfb9"/>
    <stop offset=".74" stop-color="#b3c6c1"/>
    <stop offset="1" stop-color="#bccbc6"/>
  </linearGradient>
  <path d="M298.7 303.6c-19.6 7-56.3.5-63.5-.9-3.8-.7-9.6-2.1-10.3 1.6-3 16 .1 33.1 1.3 41.9.3 2.4 2.2 10.4 4.6 22.8.2.8 3.3 9.2 3 9.9 25.3 5 47.7 8.9 73.8 4.1-.4-1.7 1.8-11 2.1-12.8 1.6-7.5 2.3-14.1 2.5-15.5 2.2-14.3 2.2-40.2-5.1-51.7-1.7-2.9-5.1-.5-8.4.6z" opacity=".68" fill="url(#SVGID_16_)"/>
  <linearGradient id="SVGID_17_" gradientUnits="userSpaceOnUse" x1="260.646" y1="656.8895" x2="266.576" y2="605.5396" gradientTransform="translate(0 -249.54)">
    <stop offset=".01" stop-color="#5e6663"/>
    <stop offset=".26" stop-color="#6a7673"/>
    <stop offset=".72" stop-color="#7d908b"/>
    <stop offset="1" stop-color="#849994"/>
  </linearGradient>
  <path d="M314.6 379.9c.5-2 1.7-8.4 2.1-10.4 1-4.6 1.6-9.2 1.9-13.9 2.5-16.7 3-45.1-5.6-58.5-2.2-3.4-5.8-3.8-10.4-2.5-23.5 6.3-63.5 3.1-74.3-1.1-4.2-1.6-9.3.9-9.8 5.3-4.3 42.1 2.5 56.7 5.4 71.3.2.9.6 3.7 1.1 5.4 1.1 4.3 2.3 6 1.1 6.5-5.9 2.5-13 2.7-13.3 6.9v.7h104.4c-.4-1.1-.8-2.2-1.4-3.2-1-2.4-2-3.3-1.2-6.5zm-2.2-25.1c-.2 1.4-1 8-2.5 15.5-.4 1.7-2.5 11.1-2.1 12.8-26.1 4.8-48.5.9-73.9-4.1.3-.7-2.9-9.1-3-9.9-2.5-12.4-4.3-20.4-4.6-22.8-1.2-8.8-4.3-25.9-1.3-41.9.7-3.8 6.6-2.3 10.3-1.6 7.2 1.4 43.9 7.9 63.5.9 3.2-1.2 6.7-3.5 8.5-.6 7.3 11.4 7.2 37.4 5.1 51.7z" opacity=".7" fill="url(#SVGID_17_)"/>
  <path class="st40" d="M391.1 338.2h-14c-3 0-5.4-2.4-5.4-5.4v-23.4c0-3 2.1-4 5.4-5.4h13.1c2.7.7 6.2 2.4 6.2 5.4v23.4c0 3-2.3 5.4-5.3 5.4z"/>
  <g id="coffee">
    <path class="st40" d="M392.6 313.5c-.1-.6.2-1.1.8-1.3 2-.6 5 0 6.2 1.2 6 6 3.2 13-4 16.4-.6.3-1.3 0-1.6-.5-.1-.2-.1-.3-.1-.5v-2.2c0-.5.4-1 .9-1.1 2.4-.6 3.9-3.1 3.3-5.5-.3-1.1-.9-2-1.8-2.6-.2-.1-.4-.2-.7-.2h-1.5c-.6 0-1.1-.4-1.2-1l-.3-2.7z"/>
    <linearGradient id="SVGID_18_" gradientUnits="userSpaceOnUse" x1="377.0904" y1="541.16" x2="390.9181" y2="541.16" gradientTransform="translate(0 -249.54)">
      <stop offset="0" stop-color="#fff"/>
      <stop offset="1" stop-color="#2a2627"/>
      <stop offset="1"/>
    </linearGradient>
    <path d="M378.9 301.9c-8-9.6 13.7-10.2 4.3-20.6 14.2 3.3 4.1 12.8 6.4 20.6h-10.7z" class="smoke" opacity=".3" fill="#F6F9F8"/>
    <ellipse cx="384.1" cy="308.1" rx="11.8" ry="4.7" fill="#161601"/>
  </g>
  <path class="st12" d="M479.7 343.9h2c-3.8-.1-343.9.9-343.9.9v141c0 .7.5 1.3 1.2 1.3h10.1c.7 0 1.3-.6 1.3-1.3v-131c.7-.4 1.4-.6 2.2-.6 35.6 0 188.8-1 188.9-1H467v132.9h13.3V343.9h-.6z"/>
  <path d="M320.3 297.7c-2.7-3.6-13.9-17.4-13.9-17.4s-2.5-2.1-11-4.4c-5.1-1.4-10.5-3.5-13.5-2.6-9.3 2.7-11.5 3.2-23.5-1.1-9.3 1.3-15.6 1.7-23 8-7.8 6.6-19.2 18.1-26.5 25.4 1 4.6 14.7 13.8 18.7 15.7 4.4-3.9 6.2-5.1 9.2-9.5v25.6c0 1.1 0 2.2-.1 3.3l-3.1 45.6 69.2-1.1 2.2-18.8c1.4-12 1.6-24 .5-36l-2.2-18.9c2.8 3.4 4.9 8.8 8.7 11.4 2.1-3.3 16.8-14.5 14.6-16.8-2.2-2.6-4.3-5.4-6.3-8.4z" fill="#effffa"/>
  <linearGradient id="SVGID_19_" gradientUnits="userSpaceOnUse" x1="256.7951" y1="703.7495" x2="264.5651" y2="636.4395" gradientTransform="translate(0 -249.54)">
    <stop offset="0" stop-color="#bccbc6"/>
    <stop offset=".26" stop-color="#b3c6c1"/>
    <stop offset=".51" stop-color="#a5bfb9"/>
    <stop offset="1" stop-color="#849994"/>
  </linearGradient>
  <path d="M317.7 369.5c1-4.6 1.6-9.2 1.9-13.9 2.5-16.7 3-45.1-5.6-58.5-2.2-3.4-5.8-3.8-10.4-2.5-23.5 6.3-63.5 3.1-74.3-1.1-4.2-1.6-9.3.9-9.8 5.3-4.3 42.1 2.5 56.7 5.4 71.3.2.9.6 3.7 1.1 5.4 1.1 4.3 2.3 6 1.1 6.5-5.9 2.5-13 2.7-13.3 6.9v.7c.1 11.6 18.4 26.5 57.2 25.6 32.8-.7 46.5-5.8 47.2-17.5.1-2.5 1.2-4.1-.1-8.1-.4-1.1-.8-2.2-1.4-3.2-1.1-2.3-2.2-3.2-1.3-6.4.7-2.1 1.9-8.5 2.3-10.5zm-90.5-23.2c-1.2-8.8-4.3-25.9-1.3-41.9.7-3.8 6.6-2.3 10.3-1.6 7.2 1.4 43.9 7.9 63.5.9 3.2-1.2 6.7-3.5 8.5-.6 7.4 11.5 7.3 37.4 5.1 51.7-.2 1.4-1 8-2.5 15.5-.4 1.7-2.5 11.1-2.1 12.8-26.1 4.8-48.5.9-73.9-4.1.3-.7-2.9-9.1-3-9.9-2.4-12.4-4.3-20.4-4.6-22.8z" fill="url(#SVGID_19_)"/>
  <path class="st6" d="M81.8 339.7c-.1-.3-.2-.6-.5-.6-2.9-.8-5-1.6-7.8-2.4-.3-.1-.7.1-.8.5v.1c-.1 2.2-.6 3.6-.8 6.5h-.1v9.5c0 .8.3 1.6.8 2.3l1.2 3.2c.1.1.9-.5 1-.5l.2-1.3.7 1.8c0 .1.9-.5 1-.5v-2.1l1 2.6c0 .1.9-.5 1-.5V356c.4 2 .8 3.5 1.2 3.4l1.2-.9c.3-.1.5-.5.3-.8l-1-5.7s0-.1-.1-.8l.3-5s3.7 2.5 4.1 2.7c1.3.1-.8-4.1-2.9-9.2z"/>
  <path d="M118.3 224.5c4.8-6.3 5.7-14.5 5.7-22.1-7.3 10.8-17.6 16.2-21.6 26-1.5 3.7-.5 9.5-.6 14.3 5.5-6.1 11-12.2 16.5-18.2z" fill="#e59d1f"/>
  <path class="st6" d="M125 184.1c-3.7 2.8-4.7 6-2.5 8.6.4.4 2 1.4 1.6 1.6-4.5 2.4-2.1 4.9-.6 7.4 0 2.7.6 5.4 0 8-.6 3.6-1.5 7.2-2.6 10.7 5.5.5 10.5 4.9 15.7.8-.3-2.6-1.7-5.9-2-8.4.2-.6-.4-1.2.9-1.8.8-.3 4.1-1.4 4.3-2.2.4-1.6.3-4.6-.6-9.5-.2-.9.7-1.8.3-2.6-.4-1.1-3.2-3.1-4.1-3.7-.7-.5-.2-1.9-3.4-5.1-1.8-1.8-4.1-2.7-6.2-4.1-.5-.3-.2.6-.8.3z"/>
  <path d="M126.3 183.9c-1.2-.4-2.5-1.3-3.7-1.2-7.4 1-13.7 2.8-19.2 7.9-1.7 1.6-1.7 4.4-1.8 6.6-.1 6.4.4 12.7.7 19 .2 4.7-.8 11.5-.5 16.2 1-.5 3.4-6.9 4.2-7.7 2.7-2.6 4.6-.9 5.7-4 2.5-7 8.4-12.2 12.6-18.2-1.7-2.6-5.3-5.3-.3-7.9.4-.2-.1-1.2-.4-1.7-2.3-3.8-.1-5.9 2.7-9z" fill="#e9ae47"/>
  <linearGradient id="SVGID_20_" gradientUnits="userSpaceOnUse" x1="71.1963" y1="529.7482" x2="135.4327" y2="529.7482" gradientTransform="translate(0 -249.54)">
    <stop offset="0" stop-color="#c78fe3"/>
    <stop offset=".58" stop-color="#cb98e5"/>
    <stop offset=".99" stop-color="#d0a2e7"/>
  </linearGradient>
  <path d="M131.4 315.9c-.8-2.8-1.4-5.7-1.8-8.5-1-8.6-.8-32.4-.3-35.6l.1-.6c-3.3-15.7 3.4-35.1-5.2-48.5-2.2-1.1-4.5-3-5.6-2.2-3.2 2.4-10 4.4-15.5 8.9-2.9 2.3-11.1 13.3-15.4 23.1-4 9-4.6 10.2-6.9 17.2-7.2 20.5-8.5 41.7-9.3 62.9-.1 1.6-.5 3.3-.2 5 3.5.9 10 1.9 13.6 2.8 1-6 1.2-9.2 2.4-15.1 2-9.7 2.9-22.3 5-32 1.6-4 9.3-20.1 11.6-23.9-.3.6 1 17.7.8 26.2l-2.1 17.2-3 23.5 7.8 1.4c1.5.3 3.1.4 4.6.3 7.9-.5 17.4-.1 23.4-6.1.4-2.4-3.5-14.1-4-16z" fill="url(#SVGID_20_)"/>
  <path class="st9" d="M116.5 252.5c-4 7.8-6.5 7.9-13.1 18.6 5.4-9.6 5.8-14.3 13.1-20.5.4.5.4 1.3 0 1.9zM126.3 258.9c-.6-3.7-.8-6.2-1.2-10-.2-1.9-1.7-8.3-1.8-10.2-.5-5.5-1.2-8.6-1.7-13.2-.6-5.8-.7-3.4 6.6-3.3.2 0 .6 1.8.6 2.1.4 11.9 2 24.5 1 46.2-1.4-4.6-2.7-6.6-3.5-11.6z"/>
  <circle class="st48" cx="82.5" cy="105.4" r="2.4"/>
  <circle class="st20" cx="96.5" cy="120.9" r="2.4"/>
  <circle class="st48" cx="119.1" cy="133.7" r="2.6"/>
  <circle class="st20" cx="94.9" cy="141.8" r="1.8"/>
  <circle class="st48" cx="174.1" cy="136.9" r="2.8"/>
  <g class="st49">
    <circle class="st48" cx="98.6" cy="71.4" r="2.4"/>
    <circle class="st20" cx="112.6" cy="86.8" r="2.4"/>
    <circle class="st48" cx="135" cy="99.6" r="2.6"/>
    <circle class="st20" cx="111" cy="107.7" r="1.8"/>
  </g>
  <g class="st50">
    <circle class="st48" cx="64" cy="89" r="2.4"/>
  </g>
  <g class="st49">
    <circle class="st20" cx="49" cy="133.4" r="2.4"/>
    <circle class="st20" cx="50.7" cy="111.9" r="1.9"/>
  </g>
  <circle cx="343.1" cy="79.6" r="2.6" opacity=".73" fill="#fefeff"/>
  <circle class="st20" cx="315.1" cy="85.1" r="2.6"/>
  <circle class="st20" cx="302.5" cy="67.7" r="2"/>
  <circle class="st48" cx="226.9" cy="77.8" r="2.4"/>
  <circle class="st20" cx="221.1" cy="57.7" r="2.4"/>
  <circle class="st48" cx="206.4" cy="36.4" r="2.6"/>
  <circle class="st20" cx="231.7" cy="39.6" r="1.8"/>
  <circle cx="298" cy="135.4" r="3.1" opacity=".68" fill="#fefeff"/>
  <circle class="st20" cx="239.5" cy="126" r="2"/>
  <g class="st49">
    <circle class="st48" cx="197.5" cy="101.3" r="2.4"/>
    <circle class="st20" cx="191.7" cy="81.3" r="2.4"/>
    <circle class="st48" cx="177.1" cy="60" r="2.6"/>
    <circle class="st20" cx="202.3" cy="63.3" r="1.8"/>
  </g>
  <g class="st50">
    <circle class="st48" cx="236.3" cy="100.7" r="2.4"/>
    <circle class="st20" cx="255.5" cy="109.7" r="2.4"/>
    <circle class="st48" cx="281.6" cy="112.9" r="2.7"/>
  </g>
  <g class="st49">
    <circle class="st48" cx="263.2" cy="46.6" r="2.4"/>
    <circle class="st20" cx="269.2" cy="67.2" r="2.4"/>
    <circle class="st48" cx="284.3" cy="89.2" r="2.7"/>
    <circle class="st20" cx="258.3" cy="85.8" r="1.9"/>
  </g>
  <circle class="st48" cx="113.8" cy="55.8" r="2.6"/>
  <circle class="st48" cx="147.6" cy="99.3" r="2.8"/>
  <g class="st49">
    <circle class="st48" cx="149.9" cy="45.3" r="2.6"/>
  </g>
  <g class="st49">
    <circle class="st48" cx="285" cy="15.6" r="2.6"/>
    <circle class="st20" cx="261" cy="23.7" r="1.8"/>
  </g>
  <path d="M620.3 478.6c-10.5 93.3-240.7 80.6-301.5 71.8s-131.6-24.8-185.2-55.5c-20.9-12-43-28.4-59.4-46-12.9-13.8-30.5-37.1-44.4-51.7C85.2 531 252 558.7 381.9 565.4c61.1 3.2 134.2 4.9 191.3-20.4 16.3-7.2 30.9-16.8 41.5-28.7 9.8-11.1 15.9-24.6 15.6-39.5-.5-26.2-6.7-64.8-22.1-80.7 9.2 28 12.1 53.2 12.1 82.5z" fill="#eaeaea"/>
  <ellipse transform="rotate(-45 574.5352299 84.4723078)" cx="574.5" cy="84.5" rx="52.8" ry="52.8" fill="#e9f27e" opacity=".84"/>
  <path d="M0 581.2L1 0h648.2v581.2H0zM614.7 60.6s-12.4-6.7-19.9-8.3c-17.6-3.8-35.2-7.5-52.8-11.1-9.8-2-19.7-3.9-29.5-5.7-8.7-1.6-17.5-3.2-26.3-4.7-7.2-1.2-14.4-2.4-21.7-3.4-7.3-1.1-14.6-2-22-3-6.6-.9-13.2-2-19.8-2.7-8-.9-16.1-1.7-24.2-2.5-7.8-.8-15.6-1.7-23.5-2.3-6.9-.6-13.8-1-20.7-1.4s-13.7-.7-20.5-1c-8.1-.2-16.1-.4-24.2-.5-6.5 0-13.1.3-19.6.4l-20.1.5h-.7c-5.5.5-11.1.9-16.6 1.4-4.4.4-8.7.5-13.1 1-8.4 1-16.8 1.9-25 3.4-10.6 1.9-21.2 4-31.8 6.5-17 4-33.7 9.6-49.7 16.6-11.4 5-22.4 10.9-32.8 17.6-14.2 9-27 20-37.9 32.7-4.8 5.7-9.6 11.5-13.8 17.7-8.6 12.2-15.5 25.5-20.8 39.5-5.3 13.9-9.4 28.3-12.2 42.9-1.6 8-.7 16.1-2 24.2-.9 5.5.3 11-.3 16.5-.6 5.9-.1 11.9-.5 17.8-.5 7.5-.2 14.9-.4 22.4-.4 11.7-.1 23.3.9 34.9.7 6.9 1 13.8 2.1 20.6 1.9 12.8 3.7 25.5 7.3 38 .4 11.2 7.1 33.7 16 49.3 8.1 14.3 17.8 27.6 29 39.7 8.7 9.7 18.3 18.6 28.5 26.6 13.9 10.6 28.7 19.9 44.4 27.7 11.9 6 24.1 11.3 36.6 16 17.5 6.7 35.4 12.3 53.6 17 10.9 2.8 22 5.3 33 7.7 8.5 1.8 17.2 3.4 25.8 4.8 7.6 1.3 15.2 2.3 22.9 3.4 7.1 1 14.2 2 21.3 2.8 5.8.7 11.6 1 17.4 1.5 7 .6 14.1 1.3 21.1 1.8 6 .4 12.1.7 18.1 1 5.4.2 10.9.5 16.3.5 14.5-.1 28.9-.2 43.4-.5 4.3 0 8.6-.2 12.9-.5 7.5-.4 15-.8 22.4-1.5 8.1-.8 16.3-1.6 24.4-2.9 10.8-1.8 21.5-3.7 32.1-6.1 14.1-3.2 27.8-7.9 40.9-14.1 10.5-5 25.4-10.9 33.3-19.6 5.6-6.1 24-41.8 23.5-50.1-16.5-295.1-5-119.3-24.8-412v-.5z" fill="#fff"/>
  <g id="Layer_19">
    <path class="st36" d="M287.4 244c0-2.5-.5-7.9-1.3-10.1-1.4-3.4-.6-5.3-3.5-7.5s-11.1-4.6-15.2-4.6c-10.5 0-17.9 11.6-17.9 22.1 0 4.1 4.1 7.7 6.5 10.8 1.6 2.1 1.3 3.9 2.7 5.5-.3 3.1-1.2 12.5-1.1 13.7 6.3 2.2 20.3 1.7 25.7.4 1.1-.4.6-.7-.3-1.2-3.1-1.7-2.5-9.7-2.7-11.3 1.9-.8 3.5-2 4.8-3.6.3-.4.6-2.9 1-3.3.8-1.2.5-3.5 1-4.8.2-2 .3-4 .3-6.1z"/>
    <path class="st19" d="M252.5 269l-.1-.7.1.7z"/>
    <path class="st22" d="M267.6 217.2c2.5 1 4.9 0 6.5.2 4 .4 4.4 3 6.5 6.6.3 1.4 5.8 6.3 5.2 7.3.5 2.1-.6.1.3 3.2-.1 1.4-.5 2.8-.5 4.2.6 2.2-.4 1.1.6 3.2 0 1-4.1 4.1-4.1 1 0 1.8-1.9-2.9-2.3 1.2-.3 2.4-1.3 6-1.4 8.3-.1 3.1-2.1 5.7-1.9 7-4.3 3.3-8.8 2.2-13.5 3-1.4.2-4.2-1-5.7-1.9-.4-.3-4-6.7-6.7-9.2-1.1-1-.6.8-1.1.6-.1-2.9-2.5-6.4-2.6-9.2-.2-1.2.8-1.9.5-3.1-.3-1.4-.7-2.4-1-3.8-.1-1.2.8-2.4.7-3.6.2-2.4 2.5-2.8 2.8-5.2.5-1.4 3.1-3.8 3.6-5.1 1.4-1 1-1.9 3.2-1.9 3.8 0 7.1-2.1 7-1.8 1.3-.1 2.7-.4 3.9-1z"/>
    <path class="st36" d="M283.4 244.6c-1.1 0-.8 3.6-3.5 1.7 0-3.4-1.5-6.2 0-7.7 1-1 1-1 2.7-1.2.4-.1.9 0 .9.4-.2 2.8-.1 5.5-.1 6.8z"/>
  </g>
  <path class="st27" d="M527.6 243.4c2.9 8.2-1.4 17.2-9.6 20.2-2.8 1-6.6 2.1-9.2 1.6-1.5-.3-3-.8-4.3-1.5-1.4-.7-1.4-1.4-2.8-3.7-.5-.9-1.4-2.5-2-3.4-.8-1.1-2.4-1.4-2.9-2.7-.3-.8.4-1.5.4-2.3 0-4.1-.6-4.5-1-6.1-.2-2.4-.2-4.7 0-7.1 1.1-5.2 5.7-7.9 11.2-9.6 12.3-3.8 17.2 6.4 20.2 14.6z"/>
  <path class="st22" d="M505 242.1c.3.1.6.8.8 1.7.3 1.1.5 2.7.8 4.2.1.7.2 1.5.3 2.2.3 1.9.5 3.4.9 3.5 6.5.9 8.7-.2 11.1-.4.5 0 9.3-1.9 9.8-1.7 1.2-1.9 1.8-10.8 3-12.7 2-3-.8-4.6-2.2-6.6-.8-1-2.2-1.9-2.3-3-.5-3.3-2.9-4.2-5.4-5.3-4.8-.6-9.3-3.7-13.2-.3-1 .9-3.6.9-5.5.8-4.4-.3-5 2.5-7.5 5.6 0 .3-1.6 2.2-1.1 3.3.5 1.7.7 3.5.5 5.2-.1 1.6.5.9 1.2.2 1-1 1.4-2.5 2-2 .2.2.8 8.7 1 8.9 1.1 1 1 0 2 0s1 0-.2-2.5c-.6-1.5 1.3-2.5 2.4-1.8"/>
</svg>
