<svg xmlns="http://www.w3.org/2000/svg" viewBox="0 0 1306.73 667.76">
  <defs>
    <style>
      .cls-5{fill:#12680b;opacity:.78}.cls-10,.cls-11,.cls-15,.cls-16,.cls-17,.cls-19,.cls-31,.cls-34,.cls-36,.cls-38,.cls-41,.cls-48,.cls-5{isolation:isolate}.cls-6{fill:#5fc17d}.cls-10,.cls-11,.cls-8{fill:#fefeff}.cls-10{opacity:.68}.cls-11,.cls-17{opacity:.8}.cls-34{opacity:.6}.cls-15,.cls-17,.cls-19,.cls-24,.cls-48{fill:#cedfd9}.cls-15{opacity:.95}.cls-16,.cls-22,.cls-34,.cls-38,.cls-41{fill:#f0f0f1}.cls-16{opacity:.89}.cls-19{opacity:.96}.cls-48{opacity:.92}.cls-30,.cls-41{opacity:.93}.cls-31{opacity:.05}.cls-38{opacity:.9}.cls-36{opacity:.17}
    </style>
    <linearGradient id="linear-gradient" x1="645.43" y1="398.61" x2="660.88" y2="698.47" gradientTransform="matrix(1 0 0 -1 0 670)" gradientUnits="userSpaceOnUse">
      <stop offset=".08" stop-color="#1c08a0"/>
      <stop offset=".32" stop-color="#1c08a0"/>
      <stop offset=".61" stop-color="#5308ab"/>
      <stop offset="1" stop-color="#93c"/>
    </linearGradient>
    <linearGradient id="linear-gradient-2" x1="3266.11" y1="-1007.87" x2="3266.11" y2="-1192.53" gradientTransform="translate(-2613 1387.5)" gradientUnits="userSpaceOnUse">
      <stop offset="0" stop-color="#fff"/>
      <stop offset=".09" stop-color="#fff"/>
      <stop offset=".29" stop-color="#ffc42a"/>
      <stop offset=".37" stop-color="#d78b6a"/>
      <stop offset=".44" stop-color="#b55b9f"/>
      <stop offset=".5" stop-color="#a13ec0"/>
      <stop offset=".53" stop-color="#93c"/>
      <stop offset=".68" stop-color="#5308ab"/>
      <stop offset=".81" stop-color="#1c08a0"/>
      <stop offset=".92" stop-color="#1c08a0"/>
    </linearGradient>
    <linearGradient id="linear-gradient-3" x1="1070.84" y1="257.78" x2="1089.34" y2="649.27" gradientTransform="matrix(1 0 0 -1 0 670)" gradientUnits="userSpaceOnUse">
      <stop offset="0" stop-color="#fff"/>
      <stop offset=".09" stop-color="#fff"/>
      <stop offset=".28" stop-color="#ffc42a"/>
    </linearGradient>
    <linearGradient id="linear-gradient-4" x1="-1.28" y1="233.22" x2="1313.7" y2="233.22" gradientTransform="matrix(1 0 0 -1 0 670)" gradientUnits="userSpaceOnUse">
      <stop offset=".04" stop-color="#1593ff"/>
      <stop offset=".05" stop-color="#167ef1"/>
      <stop offset=".06" stop-color="#185fdb"/>
      <stop offset=".08" stop-color="#1943c9"/>
      <stop offset=".1" stop-color="#1a2dba"/>
      <stop offset=".13" stop-color="#1b1cae"/>
      <stop offset=".16" stop-color="#1c11a6"/>
      <stop offset=".2" stop-color="#1c0aa1"/>
      <stop offset=".32" stop-color="#1c08a0"/>
      <stop offset=".47" stop-color="#5308ab"/>
      <stop offset=".5" stop-color="#580bae"/>
      <stop offset=".54" stop-color="#6815b5"/>
      <stop offset=".59" stop-color="#8124c1"/>
      <stop offset=".62" stop-color="#93c"/>
      <stop offset=".65" stop-color="#ab4cb0"/>
      <stop offset=".71" stop-color="#cf7f77"/>
      <stop offset=".77" stop-color="#e9a54d"/>
      <stop offset=".81" stop-color="#f9bc33"/>
      <stop offset=".83" stop-color="#ffc42a"/>
      <stop offset=".85" stop-color="#ffc52f"/>
      <stop offset=".88" stop-color="#ffca3e"/>
      <stop offset=".9" stop-color="#ffd056"/>
      <stop offset=".93" stop-color="#ffda79"/>
      <stop offset=".95" stop-color="#ffe6a4"/>
      <stop offset=".98" stop-color="#fff5d9"/>
      <stop offset="1" stop-color="#fff"/>
    </linearGradient>
    <linearGradient id="linear-gradient-5" x1="533.77" y1="325.74" x2="555.98" y2="325.74" gradientTransform="matrix(1 0 0 -1 0 670)" gradientUnits="userSpaceOnUse">
      <stop offset=".06" stop-color="#daff00"/>
      <stop offset=".15" stop-color="#cedb24"/>
      <stop offset=".29" stop-color="#bea857"/>
      <stop offset=".42" stop-color="#b17e81"/>
      <stop offset=".55" stop-color="#a75da2"/>
      <stop offset=".68" stop-color="#9f46b9"/>
      <stop offset=".8" stop-color="#9b38c7"/>
      <stop offset=".9" stop-color="#93c"/>
      <stop offset=".92" stop-color="#9732cb"/>
      <stop offset=".93" stop-color="#9030c9"/>
      <stop offset=".94" stop-color="#852cc5"/>
      <stop offset=".95" stop-color="#7426bf"/>
      <stop offset=".95" stop-color="#5e1fb7"/>
      <stop offset=".95" stop-color="#4215ae"/>
      <stop offset=".96" stop-color="#230aa2"/>
      <stop offset=".96" stop-color="#1c08a0"/>
      <stop offset="1" stop-color="#5308ab"/>
    </linearGradient>
    <linearGradient id="linear-gradient-6" x1="654.27" y1="21.58" x2="650.44" y2="140.02" gradientTransform="matrix(1 0 0 -1 0 670)" gradientUnits="userSpaceOnUse">
      <stop offset="0" stop-color="#fff"/>
      <stop offset=".28" stop-color="#f6f6f6"/>
      <stop offset=".74" stop-color="#dcdcdc"/>
      <stop offset=".99" stop-color="#ccc"/>
    </linearGradient>
    <linearGradient id="linear-gradient-7" x1="653.11" y1="116.42" x2="653.11" y2="134.42" gradientTransform="matrix(1 0 0 -1 0 670)" gradientUnits="userSpaceOnUse">
      <stop offset=".01" stop-color="#ccc"/>
      <stop offset=".26" stop-color="#dcdcdc"/>
      <stop offset=".72" stop-color="#f6f6f6"/>
      <stop offset="1" stop-color="#fff"/>
    </linearGradient>
  </defs>
  <g id="Layer_2" data-name="Layer 2">
    <g id="Layer_1-2" data-name="Layer 1">
      <g id="Layer_2-2" data-name="Layer 2">
        <g id="Layer_10" data-name="Layer 10">
          <path d="M.5 0v215.72l54-14.09c124-32.31 274.57-27.3 398.41 5.12l54.71 14.33 38.19 11.31c118 35 392.82 51.36 520.27 24.76L1306.73 225V0z" fill="url(#linear-gradient)"/>
          <path d="M1077.57 246.15c-127.68 26.3-412.57 12.25-530.8-22.31l-38.27-11.19-54.8-14.17c-124.07-32.06-274.94-32.13-399.13-.17L.5 212.55v137l1305.23 10.77v-164z" fill="url(#linear-gradient-2)"/>
          <circle cx="1074.45" cy="335.92" r="44.89" fill="url(#linear-gradient-3)"/>
          <path fill="url(#linear-gradient-4)" d="M4.84 343.81v185.94H1305.5V354.47L4.84 343.81z"/>
          <path class="cls-5" d="M661.27 516.58c21.46-26.73 18.73-56.82 67.45-34.58 51.46 23.53 47.93 21.87 88.66 47.71h31.12c-48.13-34.27-94.84-68.21-153.08-74.86-50.69-5.79-26.88 26.35-47.57 50.37-12.06 14-64.07 21.88-80.48 23.64-3.33.36-6.72.64-10.15.85h45.28c25.43-1.42 51.93-4.6 58.77-13.13z"/>
          <path class="cls-5" d="M863.24 386.8C825 393.18 815.3 384 775 377.54c-25.19-4-49.46-11.67-76-7.77-22.33 3.28-43.74 13.28-67.74 8.84-20.63-3.82-36.91-12.13-58.24-5.75-25 7.49-34.93 10.2-64.27 8.92-50-2.19-102.16 11.21-150.49 24.17-12.8 5.49-76.38 24.4-79 53.47-.93 10.56 43.67 49.31 53.47 55.93 18 12.18 52.91 12.85 81.5 12.7 8.74 0 16.89-.17 23.79-.07 5.12.07 73.85 2.95 79.21 3.22l95.69-3.58c-15.2-.89-93.78-2.45-110.89-2.68-20.08-.27-81.38-2.69-102-3.58-8.1-.35-15.93-2.44-23.59-4.24-23.8-5.6-60.47-25.27-71.73-51.94-9.7-23 39.64-28.19 54.06-28.64 29.68-.9 178.33-5.88 210.18 22.51a5.36 5.36 0 0 1 .34 7.56 5.52 5.52 0 0 1-1.49 1.14l-.32.25a5.38 5.38 0 0 0-2.27 7.26 5.28 5.28 0 0 0 1.52 1.8c16.35 12.3 39.16 2.15 23-19.18-16.66-22-38.46-21.47-68-25-49.93-6.05-98.06-4.5-146.19-8.78 46.57-11.65 104.65-21.61 152.87-19.65 28.27 1.15 37.8-1.29 61.94-8 20.55-5.73 36.24 1.73 56.12 5.16 23.13 4 43.76-5 65.28-7.94 25.58-3.5 49 3.37 73.24 7 32.08 4.77 73.68 5.45 109.33 2 6.68-.64 7.39-10.11.88-11.78-12.3-3.17-41.36-4.83-53.32-8.5 2.36 1.24 15.73 3.76 18.78 5.37-1.16.16 3.68-1.14 2.58-.96z"/>
          <path class="cls-6" d="M661.27 516.58c-6.84 8.53-33.34 11.71-58.73 13.17h214.84c-40.73-25.84-37.2-24.18-88.66-47.71-48.72-22.28-45.99 7.81-67.45 34.54z"/>
          <path d="M714 470.39c-48.7-20.77-39.51 19.62-61 44.55-9.47 11-50.43 14.2-77.18 15.89 29.77-.91 76-2.56 85.4-14.25C682.7 489.85 680 459.76 728.69 482c52 23.78 47.85 21.83 89.95 48.53h4.43C783.6 500 766.4 492.73 714 470.39z" style="isolation:isolate" fill="#0e8e07" opacity=".78"/>
          <circle class="cls-8" cx="34.27" cy="152.66" r="3.64"/>
          <circle cx="62.69" cy="173.78" r="3.64" style="isolation:isolate" opacity=".73" fill="#fefeff"/>
          <circle class="cls-10" cx="26.87" cy="188.11" r="4.45"/>
          <circle class="cls-8" cx="94.97" cy="149.4" r="3.64"/>
          <circle class="cls-8" cx="121.86" cy="163.72" r="2.83"/>
          <circle class="cls-11" cx="157.5" cy="148.3" r="3.64"/>
          <circle class="cls-8" cx="178.98" cy="172.08" r="3.64"/>
          <circle class="cls-11" cx="213.56" cy="191.79" r="4.04"/>
          <circle class="cls-8" cx="176.46" cy="204.25" r="2.83"/>
          <circle class="cls-11" cx="247.72" cy="148.09" r="2.83"/>
          <circle class="cls-8" cx="47.43" cy="72.87" r="3.64"/>
          <circle class="cls-10" cx="54.02" cy="108.32" r="4.45"/>
          <circle class="cls-8" cx="108.13" cy="69.61" r="3.64"/>
          <circle class="cls-8" cx="135.02" cy="83.93" r="2.83"/>
          <g opacity=".45">
            <circle class="cls-11" cx="170.66" cy="68.51" r="3.64"/>
            <circle class="cls-8" cx="192.14" cy="92.29" r="3.64"/>
            <circle class="cls-11" cx="226.72" cy="112" r="4.04"/>
            <circle class="cls-8" cx="189.62" cy="124.47" r="2.83"/>
          </g>
          <g opacity=".78">
            <circle class="cls-11" cx="154.35" cy="110.75" r="3.64"/>
            <circle class="cls-8" cx="122.31" cy="111.08" r="3.64"/>
            <circle class="cls-11" cx="84.63" cy="123.93" r="4.04"/>
          </g>
          <path d="M817.92 265.24h-26.36c-2 0-3.68 1.15-3.68 2.56v34.66h-31.7c-1.57 0-2.85.88-2.85 2v6h-2.17v-21.77c0-1.56-2.24-2.64-4.34-2.08-12.47 3.29-25.34 9-28.63 18.1a5.14 5.14 0 0 0-.88-.08h-8.57a5.23 5.23 0 0 0-2.3.52v-5.8c0-1.45-1.68-2.62-3.76-2.62H669.9c-2.08 0-3.76 1.17-3.76 2.62v11.12h-35.37v-.93c0-.5-.58-.9-1.29-.9h-13.87c-.72 0-1.3.4-1.3.9v-7.08h-38.66v7c0-1-1.2-1.87-2.69-1.87h-15.18c-1.48 0-2.69.84-2.69 1.87v1H523.3V300.3c0-1-1.19-1.85-2.66-1.85h-21.29c-1.47 0-2.66.83-2.66 1.85v2.16h-9.87V293c0-1.44-1.68-2.61-3.75-2.61h-32.81c-2.07 0-3.75 1.17-3.75 2.61v21.44h-18.92v-12h-31.26v16.8c0-.81-.93-1.46-2.09-1.46h-11.07v-39c0-.86-1-1.56-2.24-1.56h-23.26v-18.57c0-1.1-1.28-2-2.87-2h-28c-1.59 0-2.87.9-2.87 2v7.16h-42.85c-1.31 0-2.37.74-2.37 1.66v50.33h-8.21v-11.47c0-.56-.65-1-1.46-1h-17.66c-.81 0-1.46.45-1.46 1v17.88h-7.63a2.91 2.91 0 0 0-1.42.36v-28.82c0-.72-.84-1.31-1.88-1.31H222v-6.68c0-1.69-2-3.05-4.38-3.05h-48c-2.42 0-4.38 1.36-4.38 3.05v46.18h-6.58v-3.47c0-.93-1.08-1.68-2.41-1.68h-11.62v-2.86h-31.26v32.72H821.6V267.8c0-1.41-1.6-2.56-3.68-2.56z" style="isolation:isolate" opacity=".6" fill="#b5d2cb"/>
          <path class="cls-6" d="M857.5 383.76c-19-10-18.19-9.76-41.33-23.76-30.7-18.54-45.22-20.61-82.26-23-63.11-4.12-108.75 5.42-171.92-.82-47.21-4.67-91.63-20.57-139.83-20.57-57.31 0-112.74 3.9-168.76 6.58-29.29 1.4-58.74 2.47-88.71 2.47-59.17 0-107.86 2.54-164.5 3.16v201.76H1.8q63.87.15 126.85.72h324.06c-5.36-.26-10.63-.46-15.75-.53-6.89-.1-15 0-23.78.07-28.6.15-63.49-.53-81.5-12.7-9.81-6.62-54.41-45.37-53.47-55.93 2.58-29.07 66.16-48 79-53.47 48.33-13 98.23-20.92 148.26-18.73 29.34 1.28 42.93-.9 66.5-9.89 22.22-8.49 32.1 0 59.15 2.3 24.32 2 44.49-6.58 66.83-9.86 26.54-3.9 50.8 3.75 76 7.77 40.29 6.42 44.53 13.81 88.22 9.26a1.17 1.17 0 0 0 .35-2.19z"/>
          <rect class="cls-15" x="634.95" y="291.86" width="16.45" height="65.15" rx="1.57" ry="1.57"/>
          <rect class="cls-16" x="392.29" y="300.91" width="16.45" height="65.15" rx="2.55" ry="2.55"/>
          <rect class="cls-17" x="435.89" y="294.49" width="16.45" height="71.56" rx="2.14" ry="2.14"/>
          <rect x="588.06" y="311.77" width="19.74" height="48.53" rx=".02" ry=".02" style="isolation:isolate" opacity=".66" fill="#cedfd9"/>
          <path class="cls-19" d="M560.92 269.81h11.52v88.84h-11.52z"/>
          <path class="cls-22" d="M433.94 369.35H411.5a2.77 2.77 0 0 1-2.77-2.77v-54.66a1 1 0 0 1 1-1h24.21a2.77 2.77 0 0 1 2.77 2.77v52.87a2.77 2.77 0 0 1-2.75 2.79z" opacity=".94"/>
          <path class="cls-24" d="M231.89 414.59l-49 7.76a3.59 3.59 0 0 1-4.06-3.05 4 4 0 0 1 0-.69L178 263.39c0-2.37 1.24-2.53 4-4.84l47.12-6.37a3.6 3.6 0 0 1 4.06 3.07 3.76 3.76 0 0 1 0 .67l.8 147c.02 2.36.16 11.36-2.09 11.67z"/>
          <rect x="336.36" y="217.17" width="33.73" height="166.16" rx="3.49" ry="3.49" style="isolation:isolate" opacity=".87" fill="#b5d2cb"/>
          <path class="cls-22" d="M501.69 367.7l-40.31-6.22a1.49 1.49 0 0 1-1.06-1.29l.54-99.37c0-.54.48-.84 1.06-.67l39.58 11.6a1.47 1.47 0 0 1 1 1.25l-.83 94.66c.02.58.61.21.02.04z" opacity=".92"/>
          <path class="cls-15" d="M393.06 375.76l-29.56 1.81c-2.25-10.53-1.18-125.64-1.18-125.64a3.87 3.87 0 0 1 2.06-3.33l27.3-12.35c1.15-.52 2.1.12 2.11 1.44l1.33 134.74a3.89 3.89 0 0 1-2.06 3.33z"/>
          <path d="M251.5 393l-35.5 5.36a2 2 0 0 1-2-1.95V263.88a2 2 0 0 1 2-2h34.62a2 2 0 0 1 2 2l.9 127.09a2 2 0 0 1-2.02 2.03z" style="isolation:isolate" opacity=".67" fill="#cedfd9"/>
          <path class="cls-19" d="M508.28 277.22h26.62v88.01h-26.62z"/>
          <path style="isolation:isolate" opacity=".84" fill="#cedfd9" d="M823.1 380.04h-29.46V224.36l29.46-13.92v169.6z"/>
          <path class="cls-16" d="M170.23 361.12l-18.23.68a1.61 1.61 0 0 1-1.61-1.61l.89-68.2a1.61 1.61 0 0 1 1.61-1.61h17.34a1.62 1.62 0 0 1 1.62 1.61v67.52a1.62 1.62 0 0 1-1.62 1.61z"/>
          <g class="cls-30">
            <path class="cls-22" d="M635.87 357.83l-15 .82c-.4 0-.73-1.15-.73-1.55v-57.7a2.61 2.61 0 0 1 2.61-2.61H634a2.61 2.61 0 0 1 2.61 2.61v57.7a.73.73 0 0 1-.74.73z"/>
          </g>
          <path class="cls-22" d="M651.4 282.9h16.45v77.32H651.4z"/>
          <path style="isolation:isolate" opacity=".7" fill="#f0f0f1" d="M659.63 286.1h18.92v69.26h-18.92z"/>
          <path class="cls-24" d="M732.84 305.18c2-25.58 12.72-36.7 32.9-48.53q-.32 35.72-.68 71.42c0 5.37.11 2.21-.14 30.58 0 4.22-17.59 1.65-22.52 1.65-2.27 0-6.4-16.63-8.6-24.66a26.78 26.78 0 0 1-1-7.12z"/>
          <rect x="764.84" y="282.15" width="39.48" height="93.77" rx="3.46" ry="3.46" style="isolation:isolate" opacity=".96" fill="#f0f0f1"/>
          <path class="cls-22" d="M554.34 357.83h-27.15v-55.94l27.15-7.4v63.34z"/>
          <path class="cls-34" d="M291.39 370.17l-12.06-1.79a2.2 2.2 0 0 1-2.2-2.19v-59a2.2 2.2 0 0 1 2.2-2.19h12.06a2.2 2.2 0 0 1 2.2 2.19V368a2.21 2.21 0 0 1-2.2 2.17z"/>
          <g class="cls-30">
            <path class="cls-22" d="M345.29 389.91l-51.59 7.15a2.57 2.57 0 0 1-2.58-2.56V232.92a2.59 2.59 0 0 1 2.57-2.59h51.6a2.59 2.59 0 0 1 2.58 2.58v154.4a2.59 2.59 0 0 1-2.57 2.59z"/>
          </g>
          <path class="cls-22" d="M741.88 298.19c1-12.79 6.37-18.35 16.46-24.26q-.17 17.85-.34 35.71c0 2.68-1.18 32.36-1.31 46.54 0 2.12-10.7 0-13.16 0-1.14 0-.55-31.35-1.65-35.37-.31-1.16 0-9.75 0-10.95z" opacity=".9"/>
          <path class="cls-34" d="M740.24 321.47h9.87v38.83h-9.87z"/>
          <rect x="754.22" y="310.94" width="21.39" height="65.81" rx=".81" ry=".81" style="isolation:isolate" opacity=".79" fill="#cedfd9"/>
          <path class="cls-38" d="M247.82 339.43c-3.32-11.74-7.66-24 2.82-33.24 7.62-6.75 19.87-7.62 19-20.67 11.42 4.4 11.49 22.48-.51 30.53-9.76 6.57-16.57 11.39-21.31 23.38z"/>
          <path class="cls-24" d="M247.27 314.76c-3.27-11.76-5.27-21.23 5.19-30.5 7.62-6.75 17.58-7.67 16.75-20.73 11.43 4.41 9.5 23.15 1.78 30.58-8.64 8.33-18.99 8.66-23.72 20.65z"/>
          <path class="cls-22" d="M245.67 293.84c-3.32-11.74-3.68-21.9 6.79-31.17 7.62-6.75 17.54-7.67 16.75-20.67 11.43 4.4 7 22.67 1.78 30.58-6.76 10.19-20.58 9.27-25.32 21.26z"/>
          <path class="cls-24" d="M245.8 271.12c-3.32-11.74-1.2-18.41 9.27-27.68 7.62-6.75 9.2-37.05 9.2-37.05s1.77-12.59 3.55 23.38a40.81 40.81 0 0 0 1.78 10.8c1.2 4.4 5 3.28 4 7.19-2.95 11.95-22.91 15.62-27.8 23.36zM249.64 362.44c-3.32-11.74-7.65-24 2.82-33.25 7.62-6.74 23.92-15.4 23.92-26.57 0 14.59 6.62 26.74 1.41 34.64-6.79 10.25-23.41 13.19-28.15 25.18z"/>
          <path class="cls-38" d="M278.24 361.92l-35.02 4.71v-26.44h35.6l-.58 21.73z"/>
          <rect x="572.15" y="296.14" width="18.1" height="64.16" rx=".89" ry=".89" style="isolation:isolate" fill="#f0f0f1" opacity=".95"/>
          <rect class="cls-24" x="718.49" y="287.09" width="28.26" height="86.37" rx="1.42" ry="1.42" opacity=".84"/>
          <path class="cls-15" d="M679.05 355.36h18.33c.4 0 .73-.69.73-1.54V265c0-.85-.33-1.54-.73-1.54l-10.88-6.66c-.4 0-8.13-5.82-8.13-5v102c-.05.87.27 1.56.68 1.56z"/>
          <path class="cls-41" d="M717.29 373.46H680a1.5 1.5 0 0 1-1.5-1.46v-76a1.49 1.49 0 0 1 1.48-1.49l28.95-13.16c.82 0 9.87-4.11 9.87-3.29V372a1.49 1.49 0 0 1-1.51 1.46z"/>
          <path class="cls-24" d="M604.52 316.7h19.74v45.24h-19.74z"/>
          <path class="cls-24" d="M475.9 366.05h-25.73a2.75 2.75 0 0 1-2.76-2.74v-57.14a1 1 0 0 1 1-1h27.49a2.77 2.77 0 0 1 2.76 2.77v55.34a2.77 2.77 0 0 1-2.75 2.77z" opacity=".96"/>
          <path class="cls-24" d="M260.7 441.18c16.82-24.74 63.88-40.88 92.11-49.63 31.3-9.69 65-12.92 97.06-14.8 42-2.47 95.42 0 104.47-18.92a9.82 9.82 0 0 0 1.64-5.76c-.06-2.81.8-2.66 0-3.29s.83-2.47-4.93.82c-29.61 17.28-72.39 10.7-105.29 12.34-44.34 2.22-93.12 7.53-134.9 23-29.44 11-94.36 34.8-104.47 69.95-3.57 12.44.39 53.95 8.71 74.86H315c-25-16.37-78.17-53.47-54.3-88.57z"/>
          <path d="M136.11 529.82h53a1 1 0 0 0 1-1V407.44a1 1 0 0 0-1-1h-53.3c-.31 46.99-.39 90.32.3 123.38z" style="isolation:isolate" opacity=".93" fill="#cedfd9"/>
          <path class="cls-24" d="M555.41 351.54c3.48 5 32.08 7 54.86 7.11 12.9.07 26.35-1.58 26.33-.82-.05 1.64-2.32 9.54-12 7.93-10.73-1.79-30.4-.9-48.86.29-13.56.88-22.02-8.05-20.33-14.51z"/>
          <path style="isolation:isolate" opacity=".86" fill="url(#linear-gradient-5)" d="M533.77 336.44h22.21v15.63h-22.21z"/>
          <path class="cls-22" d="M756.69 357.9h29.77v19.74h-29.77z" opacity=".91"/>
          <path class="cls-48" d="M786.3 356.18h24.3v24.68h-24.3zM728.72 351.25h27.97v23.03h-27.97z"/>
          <path style="isolation:isolate" opacity=".91" fill="#f0f0f1" d="M810.6 361.19H828v20.56h-17.4z"/>
          <path d="M387.21 413.55c48.33-12.08 66.63-15.63 116.81-18.1 29.33-1.44 46.34-.36 71.39-7.34 21.32-5.94 36.2-3.88 56.83-.32 24 4.14 45.41-5.17 67.75-8.23 26.54-3.64 50.81 3.49 76 7.24 37.83 5.62 57.59 12 92 7.71a3.15 3.15 0 0 0 .94-6c-2.74-1.26-5.08-2.28-7.17-3.17-38.24 6.38-47.94-2.84-88.22-9.26-25.19-4-49.46-11.67-76-7.77-22.34 3.28-43.74 12.38-67.74 7.94-20.63-3.82-35.35-6.84-55.26 1.12-13.42 5.37-38.61 7.53-68 8.05-50.08.9-91.18 3.14-139.51 16.1C354.24 407 285.67 423 277.81 458c-6.1 27.2 42.49 53.61 52.57 59.81 11.62 7.16 29.51 13.42 64.39 13.42 14.45 0 33 .23 49.18 0 63.49-.9 125.12.08 140.4 0-15.51-.51-97.43-.32-161.86-4.47-27.72-1.79-42-3.58-42-3.58-22.61-1.74-33.23-8.1-37.66-10.89-9.41-5.93-49.09-26.67-51.77-52.6-2.99-28.62 83.35-41.02 96.15-46.14z" fill="#0e8e07"/>
          <path class="cls-41" d="M76.66 237.19c-86 58.88-67.47 186-54.59 291.32l113.36-.38 2.51-316h-.12c-.82-9.26-55.82 21.73-60.91 25.05"/>
          <path class="cls-17" d="M55.43 218.03h45.41v310.49H55.43z"/>
          <path stroke="#fff" stroke-miterlimit="10" fill="url(#linear-gradient-6)" d="M.5 525.84h1304.18v141.42H.5z"/>
          <path fill="url(#linear-gradient-7)" d="M.5 529.49h1305.23v23.28H.5z"/>
          <g class="cls-30">
            <path class="cls-22" d="M1306.5 530.36l-1305.18-.5-.82-6.48h1298.74l7.26 6.98z"/>
          </g>
        </g>
      </g>
    </g>
  </g>
</svg>
