<?xml version="1.0" encoding="utf-8"?>
<!-- Generator: Adobe Illustrator 22.1.0, SVG Export Plug-In . SVG Version: 6.00 Build 0)  -->
<svg version="1.1" id="Layer_1" xmlns="http://www.w3.org/2000/svg" xmlns:xlink="http://www.w3.org/1999/xlink" x="0px" y="0px"
	 viewBox="0 0 779.3 805.1" style="enable-background:new 0 0 779.3 805.1;" xml:space="preserve">
<style type="text/css">
	.st0{fill:#1C08A0;}
	.st1{fill:#9933CC;}
	.st2{fill:#EDE580;}
	.st3{fill:#7BBC66;}
	.st4{fill:#89D171;}
	.st5{fill:#96E57C;}
	.st6{fill:#CEDFD9;}
	.st7{fill:none;}
	.st8{opacity:0.85;fill:#B5D2CB;enable-background:new    ;}
	.st9{opacity:0.95;fill:#CEDFD9;enable-background:new    ;}
	.st10{opacity:0.8;fill:#CEDFD9;enable-background:new    ;}
	.st11{opacity:0.96;fill:#CEDFD9;enable-background:new    ;}
	.st12{opacity:0.66;fill:#CEDFD9;enable-background:new    ;}
	.st13{fill:#F0F0F1;}
	.st14{opacity:0.87;fill:#B5D2CB;enable-background:new    ;}
	.st15{opacity:0.94;fill:url(#SVGID_1_);enable-background:new    ;}
	.st16{opacity:0.93;}
	.st17{opacity:0.96;fill:url(#SVGID_2_);enable-background:new    ;}
	.st18{fill:url(#SVGID_3_);}
	.st19{fill:url(#SVGID_4_);}
	.st20{opacity:0.6;fill:#F0F0F1;enable-background:new    ;}
	.st21{fill:url(#SVGID_5_);}
	.st22{opacity:0.99;fill:#F0F0F1;enable-background:new    ;}
	.st23{opacity:0.95;fill:#F0F0F1;enable-background:new    ;}
	.st24{fill:url(#SVGID_6_);}
	.st25{opacity:0.98;fill:#F0F0F1;enable-background:new    ;}
	.st26{fill:url(#SVGID_7_);}
	.st27{opacity:0.81;fill:url(#SVGID_8_);enable-background:new    ;}
	.st28{fill:url(#SVGID_9_);}
	.st29{opacity:0.92;fill:#CEDFD9;enable-background:new    ;}
	.st30{fill:url(#SVGID_10_);}
	.st31{opacity:0.93;fill:#F0F0F1;enable-background:new    ;}
	.st32{opacity:0.93;fill:#CEDFD9;enable-background:new    ;}
	.st33{fill:url(#SVGID_11_);}
	.st34{fill:url(#SVGID_12_);}
	.st35{opacity:0.8;fill:#FEFEFF;enable-background:new    ;}
	.st36{fill:#FEFEFF;}
	.st37{opacity:0.45;}
	.st38{opacity:0.78;}
	.st39{opacity:0.68;fill:#FEFEFF;enable-background:new    ;}
	.st40{opacity:0.73;fill:#FEFEFF;enable-background:new    ;}
	.st41{fill:#D8D8D8;}
	.st42{fill:#FFFFFF;}
</style>
<title>ptycity_mobil</title>
<linearGradient id="sky_top_gradient" x1="0%" y1="0%" x2="0%" y2="100%">
  <stop offset="30%" style="stop-color:hsl(280, 60%, 50%);stop-opacity:.8"/>
  <stop offset="70%" style="stop-color:hsl(248, 90%, 33%);stop-opacity:1" />
</linearGradient>
<path id="skytop" d="M0,0v315.2c168.1-39,141.7-36.7,311.2,9.5c148.9,40.6,212.2,54.9,363.8,21.2
	c46.2-10.2,104.2-46.5,104.2-46.5V0H0z" fill="url(#sky_top_gradient)" />
<linearGradient id="sky_bottom_gradient" x1="0%" y1="0%" x2="0%" y2="100%">
  <stop offset="18%" style="stop-color:hsl(248, 90%, 33%);stop-opacity:1" />
  <stop offset="50%" style="stop-color:hsl(280, 60%, 50%);stop-opacity:.9"/>
  <stop offset="98%" style="stop-color:hsl(38, 79%, 51%);stop-opacity:.9"/>
  <stop offset="100%" style="stop-color:hsl(0, 0%, 100%);stop-opacity:.9"/>
</linearGradient>
<path id="skybottom" d="M779.3,495.1V296.4c0,0-40.3,25.2-119.7,47.5c-93.3,29-185.2,23.8-340.1-22.1
	c-154.8-45.4-195.8-47-319.5-9.5v182.8" fill="url(#sky_bottom_gradient)"/>
<circle id="sun" class="st2" cx="713.3" cy="483.8" r="41.1"/>
<linearGradient id="ocean_gradient" x1="100%" y1="0%" x2="0%" y2="0%">
	<stop offset="4%" style="stop-color:hsl(38, 79%, 51%);stop-opacity:1"/>
	<stop offset="30%" style="stop-color:hsl(248, 90%, 33%);stop-opacity:.9"/>
	<stop offset="100%" style="stop-color:hsl(248, 90%, 33%);stop-opacity:.6"/>
</linearGradient>
<path id="ocean" d="M0.8,491.9h778.5v170H0.8V491.9z" fill="url(#ocean_gradient)"/>
<g id="land">
	<path class="st3" d="M671.8,516.3c-23-3.7-45.3-10.7-69.5-7.1c-20.4,3-40,12.2-61.9,8c-18.8-3.5-33.8-11.1-53.2-5.3
		c-22.9,6.9-31.9,9.3-58.8,8.1c-45.7-2-93.5,10.2-137.6,22.1c-11.7,5-69.9,22.3-72.3,48.9c-0.8,9.7,40,45.1,48.9,51.1
		c16.5,11.2,48.4,11.7,74.5,11.6c8,0,15.5-0.2,21.8-0.1c4.7,0.1,67.5,2.7,72.4,2.9l87.5-3.3c-13.9-0.8-85.8-2.3-101.4-2.5
		c-18.4-0.3-74.5-2.5-93.3-3.3c-7.4-0.3-14.5-2.2-21.6-3.8c-21.8-5.1-57.2-21.3-67.4-45.6c-8.9-21,38-27.6,51.3-28
		c27.2-0.8,163.1-5.4,192.2,20.6c2,1.8,2.1,4.9,0.3,6.9c0,0,0,0,0,0l0,0c-0.4,0.5-0.8,0.8-1.4,1L482,599c-2.4,1.3-3.3,4.3-2.1,6.7
		c0.4,0.6,0.8,1.2,1.4,1.7c14.9,11.2,35.9,1.9,21-17.6c-15.3-20.1-35.2-19.6-62.2-22.8c-45.6-5.5-89.7-4.1-133.7-8
		c42.6-10.6,92-20.7,136.2-18.8c25.9,1,34.6-1.2,56.6-7.3c18.7-5.2,29.4-2.1,47.6,1.1c21.1,3.7,43.7-7.3,63.4-10
		c23.4-3.2,48.5,4.9,70.6,8.2c29.4,4.4,49.1,8.7,81.7,5.5c6.1-0.5,8-11.2,2-12.7c-11.4-4-29.7-12.3-40.2-16.5
		C726.5,509.4,708.6,522.2,671.8,516.3L671.8,516.3z"/>
	<path class="st4" d="M755.8,523.6c-1.4-0.6-19.4-8-20.3-8.4c-35.9,3.1-30.1,6.6-67,0.6c-10.3-1.6-20.4-3.6-30.6-4.9
		c-12.6-1.6-25.4-2.3-38.9-0.4c-3.1,0.5-6.2,0.9-9.3,1.5c-17.1,2.7-32.2,6.5-50.8,3c-18.8-3.5-33.2-8-51.5-0.8
		c-12.3,4.9-36.2,7.8-63.1,8.2c-45.8,0.8-83.4,2.8-127.6,14.7c-11.7,5-74.4,19.7-81.6,51.7c-5.6,24.9,38.9,49,48.1,54.7
		c7.6,4.7,18.1,9,35,11c7.9,0.9,15.9,1.4,23.9,1.3c13.3,0,30.2,0.2,45,0c58.1-0.8,114.4,0.1,128.4,0c-14.2-0.5-89.1-0.3-148.1-4.1
		c-25.3-1.6-38.4-3.3-38.4-3.3c-20.7-1.5-30.4-7.4-34.5-10c-8.6-5.4-44.9-24.4-47.4-48.1c-2.8-26.2,76.3-40.2,88-44.9
		c44.2-11.1,60.9-11.5,106.8-13.8c30.1,0.3,43.5-0.6,65.3-6.7c19.5-5.4,33.2-4.1,52-0.3c31.4,6.4,41.5-4.8,62-7.5
		c24.2-3.3,46.5,3.2,69.5,6.6c34.6,5.1,52.7,11,84.2,7c1.5-0.2,3.7-1.7,3.5-3.2c-0.2-1.2-0.8-2.3-1.7-3L755.8,523.6L755.8,523.6z"/>
	<path class="st5" d="M218.1,588.1c1.6-30.6,65-43.7,79.7-47.9c44.2-11.9,81.8-16.7,127.6-17.5c26.9-0.5,46.1-0.9,62.2-6.4
		c16.5-5.5,33.5-2.7,52.4,0.8c18.6,3.5,33.7-2.1,50.8-4.8c3.8-0.8,7.7-1.6,11.5-2.2c12.6-1.8,24.7-0.8,36.7,1.1
		c10.2,1.4,20.4,3.3,30.6,4.9c36.9,5.8,39,12.8,75,10.7c2.5-0.1,5.5-0.4,5.2-2.8c-0.1-1-1.7-1.9-2.7-2.5c-16.2-8.6-16-9.6-36.7-22
		c-28.1-16.9-41.3-18.8-75.3-21c-57.7-3.8-99.5,4.9-157.2-0.7c-43.3-4.6-478-1.5-478-1.5v174.3l299.4,0.3c-16.9-2-27.4-2.7-35-7.3
		C255.1,638,212.5,613,218.1,588.1z"/>
	<path class="st3" d="M567.8,643.5c19.7-24.4,17.2-52,61.7-31.5c47.1,21.5,43.8,20,81.1,43.6H739c-46.2-29.4-79.1-55-134.5-68.5
		c-30.6-7.9-30.1,24.2-49,46.1c-11.1,12.8-58.6,20-73.6,21.6c-3,0.4-6.1,0.5-9.3,0.7H514C537.2,654.2,561.5,651.3,567.8,643.5z"/>
	<path class="st5" d="M567.8,643.5c-6.2,7.8-30.5,6.1-53.7,7.5h196.5c-37.2-23.6-34-17.6-81.1-39C584.9,591.6,587.4,619,567.8,643.5
		z"/>
	<path class="st4" d="M616.9,599.5c-37.2-13.5-31.6,10.9-56.7,42.5c-8.7,10.1-46.1,13-70.6,14.5c27.3-0.8,69.5-1.5,78.1-12.1
		c19.7-24.4,17.2-52,61.7-31.6c47.6,21.8,42.8,19.9,81.4,44.4l8.6-0.9c-36.1-28-51-35.6-98.9-56L616.9,599.5L616.9,599.5z"/>
</g>
<path class="st6" d="M201.4,574.6c15.4-22.6,58.5-37.4,84.2-45.4c28.6-8.9,59.5-11.8,88.8-13.5c38.4-2.3,87.3,0,95.6-17.3
	c1-1.6,1.5-3.4,1.5-5.3c-0.1-2.6,0.7-2.5,0-3s0.7-2.3-4.5,0.7c-27.1,15.8-66.2,9.8-96.3,11.2c-40.5,2-85.1,6.9-123.4,21
	c-26.9,10.1-86.3,31.8-95.6,64c-3.3,11.3,0.4,49.4,7.9,68.5h91.4C228.2,640.6,179.5,606.6,201.4,574.6L201.4,574.6z"/>
<path class="st6" d="M470.9,492.5c3.2,4.6,21.1,4.8,42.9,5.6c11.8,0.5,31.4-0.5,31.4,0.2c0,1.5-2.1,8.7-11,7.2
	c-9.8-1.6-29.6-1.7-46.6-0.6C475.3,505.7,469.4,498.5,470.9,492.5z"/>
<g id="buildings">
	<path class="st7" d="M603.1,510.9c-3.9,0.5-7.8,1.4-11.5,2.2c3.1-0.5,6.2-1,9.3-1.5c13.5-1.9,26.2-1.3,38.9,0.4
		C627.9,510,615.8,509,603.1,510.9z"/>
	<path class="st8" d="M711,413.6h-28.7c-1.8,0-3.4,1-3.4,2.4v31.7h-24.4c-1.5,0-2.6,0.8-2.6,1.8v5.5h-2v-19.9c0-1.5-2-2.4-3.9-1.9
		c-11.4,3-23.1,8.2-26.2,16.5c-0.3-0.1-0.6-0.1-0.8-0.1h-7.9c-0.7,0-1.4,0.2-2.1,0.5v-5.3c0-1.4-1.5-2.4-3.5-2.4h-30
		c-1.9,0-3.5,1.1-3.5,2.4v10.1h-32.4v-0.8c0-0.5-0.5-0.8-1.2-0.8h-12.7c-0.6,0-1.2,0.4-1.2,0.8v-6.5h-35.4v6.4
		c0-0.9-1.1-1.7-2.5-1.7h-13.9c-1.4,0-2.5,0.7-2.5,1.7v0.9h-29.1v-9.3c0-0.9-1.1-1.7-2.5-1.7h-19.5c-1.4,0-2.5,0.7-2.5,1.7v2h-9.1
		V439c0-1.3-1.5-2.4-3.5-2.4h-30c-1.9,0-3.5,1.1-3.5,2.4v19.6h-17.3v-11H325V463c0-0.7-0.8-1.4-1.9-1.4h-10.2v-35.7
		c0-0.8-0.9-1.5-2-1.5h-21.3v-17c0-1-1.2-1.8-2.6-1.8h-25.6c-1.5,0-2.6,0.8-2.6,1.8v6.6h-39.2c-1.2,0-2.2,0.6-2.2,1.6v46h-6.9v-10.5
		c0-0.5-0.6-0.9-1.4-0.9h-16.2c-0.7,0-1.4,0.5-1.4,0.9v16.4h-7c-0.5,0-0.9,0.1-1.3,0.4v-26.3c0-0.6-0.7-1.2-1.7-1.2h-15.5v-6.1
		c0-1.6-1.8-2.8-4-2.8H118c-2.2,0-4,1.3-4,2.8v42.2l0.2,22.6h600.1v-83.1C714.4,414.7,713,413.6,711,413.6z"/>
	<path class="st9" d="M545.1,438h12.2c0.8,0,1.5,0.6,1.5,1.4v56.8c0,0.8-0.6,1.4-1.4,1.5c0,0,0,0,0,0h-12.2c-0.8,0-1.4-0.6-1.5-1.4
		c0,0,0,0,0,0v-56.7C543.7,438.7,544.3,438.1,545.1,438z"/>
	<path class="st10" d="M324,446.2h10.4c1.3,0,2.3,1,2.3,2.2c0,0,0,0,0,0v55c0,1.3-1,2.3-2.2,2.3c0,0,0,0,0,0H324
		c-1.2,0-2.3-1-2.3-2.2v-55C321.8,447.3,322.8,446.3,324,446.2z"/>
	<path class="st11" d="M361.6,442.5h15.1v63.4h-15.1V442.5z"/>
	<path class="st12" d="M500.9,456.2h18v44.4h-18L500.9,456.2z"/>
	<path class="st11" d="M476,417.8h10.5V499H476V417.8z"/>
	<path class="st13" d="M336.6,455.4H364c0.5,0,0.9,0.3,0.9,0.8c0,0,0,0,0,0v51.7c0,0.5-0.3,0.9-0.8,0.9c0,0,0,0,0,0h-26.6
		c-0.5,0-0.9-0.3-0.9-0.8V455.4z"/>
	<path class="st14" d="M272.7,369.7h28c0.4,0,0.7,0.3,0.7,0.7v149.1c0,1.2-1,2.2-2.2,2.2h-26.5c-1.2,0-2.2-1-2.2-2.2V371.9
		C270.5,370.7,271.5,369.7,272.7,369.7C272.7,369.7,272.7,369.7,272.7,369.7L272.7,369.7z"/>
	<path class="st13" d="M421.8,507.4l-36.8-5.7c-0.5-0.2-0.9-0.6-1-1.2l0.5-90.9c0-0.5,0.5-0.7,1-0.6l36.2,10.6
		c0.5,0.2,0.8,0.6,0.9,1.1L421.8,507.4C421.8,507.8,422.4,507.5,421.8,507.4z"/>
	<path class="st9" d="M322.5,514.8l-27.1,1.7c-2-9.6-1.1-114.9-1.1-114.9c0-1.3,0.8-2.5,1.9-3l25-11.3c0.6-0.4,1.4-0.2,1.8,0.4
		c0.1,0.3,0.2,0.5,0.2,0.8l1.2,123.2C324.3,512.9,323.6,514.1,322.5,514.8L322.5,514.8z"/>
	<path class="st11" d="M427.9,424.6h24.3v80.5h-24.3V424.6z"/>
	<path class="st6" d="M714.9,518.6h-27V376.3l27-12.8V518.6z"/>
	
		<linearGradient id="SVGID_1_" gradientUnits="userSpaceOnUse" x1="98.68" y1="738.3601" x2="119.81" y2="738.3601" gradientTransform="matrix(1 0 0 1 0 -250.77)">
		<stop  offset="1.000000e-02" style="stop-color:#F0F0F1"/>
		<stop  offset="0.27" style="stop-color:#DFE4E3"/>
		<stop  offset="0.72" style="stop-color:#C5D2CE"/>
		<stop  offset="1" style="stop-color:#BCCBC6"/>
	</linearGradient>
	<path class="st15" d="M118.3,519.6l-17.9,0.6c-0.8,0-1.5-0.6-1.6-1.5l0.9-62.4c0-0.8,0.7-1.5,1.6-1.5h17.1c0.8,0,1.5,0.6,1.6,1.5
		v61.7C119.8,519,119.1,519.6,118.3,519.6z"/>
	<g class="st16">
		<path class="st13" d="M544.6,498.3l-13.7,0.7c-0.4,0-0.6-1-0.6-1.4v-52.8c0-1.3,1.1-2.4,2.4-2.4h10.2c1.3,0,2.4,1.1,2.4,2.4v52.8
			C545.2,498,545,498.3,544.6,498.3C544.6,498.3,544.6,498.3,544.6,498.3L544.6,498.3z"/>
	</g>
	
		<linearGradient id="SVGID_2_" gradientUnits="userSpaceOnUse" x1="565.1426" y1="736.9601" x2="571.8525" y2="614.4001" gradientTransform="matrix(1 0 0 1 0 -250.77)">
		<stop  offset="0" style="stop-color:#BCCBC6"/>
		<stop  offset="1.000000e-02" style="stop-color:#BDCCC7"/>
		<stop  offset="0.21" style="stop-color:#D3DCD9"/>
		<stop  offset="0.42" style="stop-color:#E3E7E7"/>
		<stop  offset="0.67" style="stop-color:#EDEEEF"/>
		<stop  offset="0.99" style="stop-color:#F0F0F1"/>
	</linearGradient>
	<path class="st17" d="M558.8,429.8h15.1v70.7h-15.1V429.8z"/>
	
		<linearGradient id="SVGID_3_" gradientUnits="userSpaceOnUse" x1="678.5894" y1="768.0787" x2="683.4694" y2="652.2287" gradientTransform="matrix(1 0 0 1 0 -250.77)">
		<stop  offset="0" style="stop-color:#BCCBC6"/>
		<stop  offset="0.28" style="stop-color:#C5D2CE"/>
		<stop  offset="0.73" style="stop-color:#DFE4E3"/>
		<stop  offset="0.99" style="stop-color:#F0F0F1"/>
	</linearGradient>
	<path class="st18" d="M663,429h35c0.3,0,0.5,0.3,0.5,0.5v84.7c0,0.3-0.3,0.5-0.5,0.5h-35c-0.3,0-0.5-0.3-0.5-0.5v-84.7
		C662.5,429.3,662.7,429.1,663,429z"/>
	<path class="st6" d="M633.2,450.2c1.8-23.4,11.6-33.6,30.1-44.4c-0.2,21.8-0.4,43.5-0.6,65.3c0,4.9,0.1,2-0.1,28
		c0,3.9-16.1,1.5-20.6,1.5c-2.1,0-5.8-15.2-7.9-22.6c-0.6-2.1-0.9-4.3-0.9-6.5V450.2z"/>
	<path class="st13" d="M469.9,498.3h-24.8v-51.1l24.8-6.8V498.3z M278.2,527.7l-47.2,6.5c-1.3,0-2.4-1-2.4-2.3c0,0,0,0,0,0V383.6
		c0-1,0.8-1.9,1.8-1.9c0,0,0,0,0,0h48.2c1,0,1.9,0.8,1.9,1.8c0,0,0,0,0,0v141.8C280.5,526.6,279.5,527.6,278.2,527.7z"/>
	
		<linearGradient id="SVGID_4_" gradientUnits="userSpaceOnUse" x1="641.38" y1="710.3417" x2="656.56" y2="710.3417" gradientTransform="matrix(1 0 0 1 0 -250.77)">
		<stop  offset="0" style="stop-color:#D9E4E1"/>
		<stop  offset="0.33" style="stop-color:#D6E2DF"/>
		<stop  offset="0.57" style="stop-color:#CCDBD7"/>
		<stop  offset="0.79" style="stop-color:#BCD0CB"/>
		<stop  offset="0.99" style="stop-color:#A6C0BA"/>
		<stop  offset="1" style="stop-color:#A5BFB9"/>
	</linearGradient>
	<path class="st19" d="M641.5,443.8c0.9-11.7,5.9-16.8,15.1-22.2l-0.3,32.7c0,2.5-1.1,29.6-1.2,42.5c0,1.9-9.8,0-12.1,0
		c-1,0-0.5-28.7-1.6-32.4c-0.3-1.1,0-9,0-10.1V443.8z"/>
	<path class="st20" d="M640,465.1h9v35.5h-9V465.1z"/>
	
		<linearGradient id="SVGID_5_" gradientUnits="userSpaceOnUse" x1="651.22" y1="733.51" x2="668.6799" y2="733.51" gradientTransform="matrix(1 0 0 1 0 -250.77)">
		<stop  offset="0" style="stop-color:#BCCBC6"/>
		<stop  offset="7.000000e-02" style="stop-color:#C5D2CE"/>
		<stop  offset="0.2" style="stop-color:#CED8D5"/>
		<stop  offset="0.47" style="stop-color:#DBE1E0"/>
		<stop  offset="0.73" style="stop-color:#DFE4E3"/>
		<stop  offset="0.99" style="stop-color:#F0F0F1"/>
	</linearGradient>
	<path class="st21" d="M652,452.6h16c0.4,0,0.7,0.3,0.7,0.7v58.7c0,0.4-0.3,0.7-0.7,0.7h-16c-0.4,0-0.7-0.3-0.7-0.7v-58.7
		C651.3,453,651.6,452.7,652,452.6z"/>
	<path class="st6" d="M191.2,502.5c-3-10.7-5.8-20.8,2.6-30.4s25.3-12.5,22.9-22.3c2.7,11,5,22.5,0.3,29.7
		C210.8,488.9,195.6,491.6,191.2,502.5z"/>
	<path class="st22" d="M189.6,479.6c-3-10.7-5.2-20.1,4.4-28.5c6.9-6.2,18.2-7,17.4-18.9c10.4,4,9.6,22.4-1.4,29.7
		c-8.9,6-14.2,8.6-18.6,19.6L189.6,479.6L189.6,479.6z"/>
	<path class="st6" d="M190.1,459c-3-10.7-4.9-20.3,4.8-28.8c7-6.2,24.7-14.2,20.1-23.3c3.4,6.8,7.3,25.6-3.2,33.3
		C202.9,446.5,194.4,448,190.1,459z M189.6,414.5c-3-10,2.5-17.3,6.7-21c1.5-1.3,3.7-3.5,3.7-3.5l4.7-22.5l3.2,17.1
		c0,0,0.4,1.9,1,4.3c0.2,0.6,0.4,1.4,0.6,2.2c1.1,3.8,4.6,2.7,3.7,6.1C210.4,407.3,194.1,407.8,189.6,414.5L189.6,414.5z"/>
	<path class="st22" d="M219.1,502l-33.7,4.3v-24.1h34.3L219.1,502z"/>
	<path class="st23" d="M487.3,441.9h17.9c0.5,0,0.8,0.4,0.8,0.8l0,0v57.1c0,0.5-0.4,0.8-0.8,0.8h-17.9c-0.5,0-0.8-0.4-0.8-0.8l0,0
		v-57.1C486.5,442.2,486.9,441.9,487.3,441.9z"/>
	
		<linearGradient id="SVGID_6_" gradientUnits="userSpaceOnUse" x1="632.6909" y1="765.84" x2="633.9108" y2="587.19" gradientTransform="matrix(1 0 0 1 0 -250.77)">
		<stop  offset="0" style="stop-color:#CEDFD9"/>
		<stop  offset="7.000000e-02" style="stop-color:#D4E2DD"/>
		<stop  offset="0.32" style="stop-color:#E4EAE8"/>
		<stop  offset="0.6" style="stop-color:#EDEFEF"/>
		<stop  offset="0.99" style="stop-color:#F0F0F1"/>
	</linearGradient>
	<path class="st24" d="M620.8,428.1h24.5c0.3,0,0.6,0.3,0.6,0.6c0,0,0,0,0,0v77.7c0,0.3-0.3,0.6-0.6,0.6c0,0,0,0,0,0h-24.6
		c-0.3,0-0.6-0.3-0.6-0.6c0,0,0,0,0,0v-77.7C620.1,428.4,620.4,428.2,620.8,428.1C620.7,428.1,620.7,428.1,620.8,428.1L620.8,428.1z
		"/>
	<path class="st9" d="M580.3,496.1h16.7c0.4,0,0.6-0.5,0.6-1.3v-75.7c0-0.7-0.3-1.3-0.6-1.3l-10-5.7c-0.4,0-7.4-4.9-7.4-4.2v87
		C579.7,495.5,580,496.1,580.3,496.1z"/>
	<path class="st6" d="M515.8,460.7h18V502h-18V460.7z"/>
	<path class="st25" d="M620.8,509h-34.1c-0.7,0-1.3-0.6-1.4-1.4v-69.5c0-0.8,0.6-1.4,1.4-1.4l26.5-12.1c0.7,0,9.1-3.8,9.1-3v86
		C622.2,508.4,621.6,509,620.8,509L620.8,509z"/>
	
		<linearGradient id="SVGID_7_" gradientUnits="userSpaceOnUse" x1="375.82" y1="726.375" x2="404.45" y2="726.375" gradientTransform="matrix(1 0 0 1 0 -250.77)">
		<stop  offset="0" style="stop-color:#BCCBC6"/>
		<stop  offset="0.28" style="stop-color:#C5D2CE"/>
		<stop  offset="0.73" style="stop-color:#DFE4E3"/>
		<stop  offset="0.99" style="stop-color:#F0F0F1"/>
	</linearGradient>
	<path class="st26" d="M376.7,447.1h25.1c1.4,0,2.6,1.1,2.6,2.6v52c0,1.4-1.1,2.6-2.6,2.6h-23.5c-1.4,0-2.6-1.1-2.6-2.6V448
		C375.8,447.5,376.2,447,376.7,447.1L376.7,447.1z"/>
	
		<linearGradient id="SVGID_8_" gradientUnits="userSpaceOnUse" x1="451.16" y1="737.535" x2="471.46" y2="737.535" gradientTransform="matrix(1 0 0 1 0 -250.77)">
		<stop  offset="6.000000e-02" style="stop-color:#DAFF00"/>
		<stop  offset="0.15" style="stop-color:#CEDB24"/>
		<stop  offset="0.29" style="stop-color:#BEA857"/>
		<stop  offset="0.42" style="stop-color:#B17E81"/>
		<stop  offset="0.55" style="stop-color:#A75DA2"/>
		<stop  offset="0.68" style="stop-color:#9F46B9"/>
		<stop  offset="0.8" style="stop-color:#9B38C7"/>
		<stop  offset="0.9" style="stop-color:#9933CC"/>
	</linearGradient>
	<path class="st27" d="M451.2,479.6h20.3v14.3h-20.3V479.6z"/>
	
		<linearGradient id="SVGID_9_" gradientUnits="userSpaceOnUse" x1="653.96" y1="758.15" x2="681.4" y2="758.15" gradientTransform="matrix(1 0 0 1 0 -250.77)">
		<stop  offset="0" style="stop-color:#CEDFD9"/>
		<stop  offset="7.000000e-02" style="stop-color:#D4E2DD"/>
		<stop  offset="0.32" style="stop-color:#E4EAE8"/>
		<stop  offset="0.6" style="stop-color:#EDEFEF"/>
		<stop  offset="0.99" style="stop-color:#F0F0F1"/>
	</linearGradient>
	<path class="st28" d="M654,498.4h27.4v18H654V498.4z"/>
	<path class="st29" d="M681.4,496.8h23v22.6h-23V496.8z"/>
	<path class="st6" d="M629.5,491.3h25.4v21h-25.4V491.3z"/>
	
		<linearGradient id="SVGID_10_" gradientUnits="userSpaceOnUse" x1="704.36" y1="761.59" x2="720.27" y2="761.59" gradientTransform="matrix(1 0 0 1 0 -250.77)">
		<stop  offset="0" style="stop-color:#CEDFD9"/>
		<stop  offset="7.000000e-02" style="stop-color:#D4E2DD"/>
		<stop  offset="0.32" style="stop-color:#E4EAE8"/>
		<stop  offset="0.6" style="stop-color:#EDEFEF"/>
		<stop  offset="0.99" style="stop-color:#F0F0F1"/>
	</linearGradient>
	<path class="st30" d="M704.4,501.4h15.9v18.8h-15.9V501.4z"/>
	<path class="st31" d="M89.2,365L89.2,365c-0.8-8.5-51.1,19.9-55.8,22.9l-0.3,0.1c-13.1,8.9-24.3,20.3-33,33.5v232.8l86.8-0.3
		L89.2,365z"/>
	<path class="st6" d="M13.6,370.4h41.5v284H13.6V370.4z"/>
	<path class="st23" d="M193,530.5l-32.5,4.9c-1,0-1.8-0.7-1.8-1.7c0,0,0,0,0,0V412.4c0-1,0.8-1.8,1.8-1.8h31.7c1,0,1.8,0.8,1.8,1.8
		c0,0,0,0,0,0l0.7,116.3C194.8,529.7,194,530.5,193,530.5z"/>
	<path class="st6" d="M175.1,550.2l-44.8,7.1c-1.8,0.3-3.5-1-3.8-2.8V554l-0.7-142c0-2.2,1.1-2.3,3.8-4.4l43.1-5.9
		c1.8-0.3,3.5,1,3.8,2.8v0.7l0.7,134.5C177,541.7,177.1,550,175.1,550.2z"/>
	<path class="st32" d="M87.4,648.3h48.5c0.5,0,0.9-0.3,0.9-0.8c0,0,0,0,0,0V536.3c0-0.5-0.3-0.9-0.8-0.9H87.2
		C86.9,578.4,86.8,618.1,87.4,648.3z"/>
	<path class="st22" d="M189.6,436.6c-3-10.7-3.9-19.8,2.6-24.9c7.3-5.8,25.5-15,18.3-18c10.3,4.3,7.8,21.5-3.2,28.8
		C198.4,428.6,194.8,427.9,189.6,436.6L189.6,436.6z"/>
</g>
<g id="floor">
	
		<linearGradient id="SVGID_11_" gradientUnits="userSpaceOnUse" x1="391.0014" y1="1034.87" x2="387.7814" y2="935.16" gradientTransform="matrix(1 0 0 1 0 -250.77)">
		<stop  offset="0" style="stop-color:#FFFFFF"/>
		<stop  offset="0.28" style="stop-color:#F6F6F6"/>
		<stop  offset="0.74" style="stop-color:#DCDCDC"/>
		<stop  offset="0.99" style="stop-color:#CCCCCC"/>
	</linearGradient>
	<path class="st33" d="M0,675.7h779.2v129.3H0V675.7z"/>
	<path class="st13" d="M779.3,656.2L0,655.7v-6h779.3V656.2z"/>
	
		<linearGradient id="SVGID_12_" gradientUnits="userSpaceOnUse" x1="389.635" y1="928.12" x2="389.635" y2="911.66" gradientTransform="matrix(1 0 0 1 0 -250.77)">
		<stop  offset="1.000000e-02" style="stop-color:#CCCCCC"/>
		<stop  offset="0.26" style="stop-color:#DCDCDC"/>
		<stop  offset="0.72" style="stop-color:#F6F6F6"/>
		<stop  offset="1" style="stop-color:#FFFFFF"/>
	</linearGradient>
	<path class="st34" d="M0,655.3h779.3v21.3H0V655.3z"/>
</g>
<g id="stars">
	<circle class="st35" cx="53.3" cy="129.6" r="2.2"/>
	<circle class="st36" cx="65.7" cy="115.1" r="2.2"/>
	<circle class="st35" cx="85.9" cy="102.8" r="2.4"/>
	<circle class="st36" cx="63.7" cy="96.1" r="1.7"/>
	<circle class="st35" cx="133.2" cy="113.4" r="2.6"/>
	<circle class="st36" cx="24.5" cy="165" r="1.8"/>
	<g class="st37">
		<circle class="st35" cx="68.9" cy="160.3" r="2.2"/>
		<circle class="st36" cx="81.3" cy="145.9" r="2.2"/>
		<circle class="st35" cx="101.4" cy="133.6" r="2.4"/>
		<circle class="st36" cx="79.2" cy="126.8" r="1.6"/>
	</g>
	<g class="st38">
		<circle class="st35" cx="36.8" cy="145.1" r="2.2"/>
		<circle class="st36" cx="17.4" cy="145.5" r="2.2"/>
	</g>
	<g class="st37">
		<circle class="st36" cx="22" cy="104.8" r="2.2"/>
		<circle class="st36" cx="24.1" cy="124.5" r="1.7"/>
	</g>
	<circle class="st35" cx="185.9" cy="151.2" r="2.2"/>
	<circle class="st36" cx="181.1" cy="169.6" r="2.2"/>
	<circle class="st35" cx="168.2" cy="189.6" r="2.4"/>
	<circle class="st36" cx="191.3" cy="186" r="1.6"/>
	<circle class="st35" cx="125.1" cy="215.6" r="2.6"/>
	<circle class="st39" cx="77.3" cy="55.7" r="2.8"/>
	<circle class="st36" cx="23.9" cy="65.8" r="1.8"/>
	<g class="st37">
		<circle class="st35" cx="158.6" cy="130.5" r="2.2"/>
		<circle class="st36" cx="153.8" cy="148.9" r="2.2"/>
		<circle class="st35" cx="140.9" cy="168.7" r="2.4"/>
		<circle class="st36" cx="163.8" cy="165.1" r="1.6"/>
	</g>
	<g class="st38">
		<circle class="st35" cx="194" cy="130" r="2.2"/>
		<circle class="st36" cx="39" cy="80.2" r="2.2"/>
		<circle class="st35" cx="62.8" cy="76.7" r="2.5"/>
	</g>
	<g class="st37">
		<circle class="st35" cx="220" cy="178.8" r="2.2"/>
		<circle class="st36" cx="225" cy="159.8" r="2.2"/>
		<circle class="st35" cx="238.2" cy="139.3" r="2.5"/>
		<circle class="st36" cx="214.5" cy="143" r="1.7"/>
	</g>
	<circle class="st36" cx="14.9" cy="236.6" r="1.8"/>
	<circle class="st35" cx="81.7" cy="216.4" r="2.2"/>
	<circle class="st36" cx="79" cy="197.6" r="2.2"/>
	<circle class="st35" cx="83.1" cy="174.2" r="2.4"/>
	<circle class="st36" cx="63.3" cy="186.5" r="1.6"/>
	<circle class="st35" cx="113" cy="133.6" r="2.6"/>
	<g class="st37">
		<circle class="st35" cx="115" cy="224.9" r="2.2"/>
		<circle class="st36" cx="112.2" cy="206.1" r="2.2"/>
		<circle class="st35" cx="116.4" cy="182.9" r="2.4"/>
		<circle class="st36" cx="96.7" cy="195.1" r="1.6"/>
	</g>
	<g class="st38">
		<circle class="st35" cx="82.4" cy="239.1" r="2.2"/>
	</g>
	<g class="st37">
		<circle class="st35" cx="39.5" cy="204.1" r="2.2"/>
		<circle class="st36" cx="42.4" cy="223.6" r="2.2"/>
		<circle class="st35" cx="38.1" cy="247.6" r="2.5"/>
		<circle class="st36" cx="58.5" cy="235" r="1.7"/>
	</g>
	<g class="st37">
		<circle class="st35" cx="208.2" cy="233.2" r="2.2"/>
		<circle class="st36" cx="220.6" cy="218.9" r="2.2"/>
		<circle class="st35" cx="240.7" cy="206.6" r="2.4"/>
		<circle class="st36" cx="218.5" cy="199.8" r="1.6"/>
	</g>
	<g class="st37">
		<circle class="st36" cx="16.3" cy="197.4" r="2.2"/>
		<circle class="st36" cx="18.4" cy="217.1" r="1.7"/>
	</g>
	<circle class="st40" cx="147.8" cy="214.6" r="2.4"/>
	<circle class="st36" cx="169" cy="229.8" r="2.4"/>
	<circle class="st36" cx="186.1" cy="220.1" r="1.8"/>
	<circle class="st36" cx="300.7" cy="253.1" r="1.6"/>
	<g class="st37">
		<circle class="st35" cx="271.6" cy="247.5" r="2.2"/>
	</g>
	<g class="st37">
		<circle class="st35" cx="286.5" cy="301.1" r="2.2"/>
		<circle class="st36" cx="273.4" cy="287.4" r="2.2"/>
		<circle class="st35" cx="252.6" cy="276.4" r="2.4"/>
		<circle class="st36" cx="274.3" cy="268.4" r="1.6"/>
	</g>
	<circle class="st36" cx="325.4" cy="295.5" r="2.4"/>
	<circle class="st36" cx="307.7" cy="286.8" r="1.8"/>
	<circle class="st35" cx="178.2" cy="256" r="2.4"/>
	<circle class="st36" cx="201.3" cy="252.4" r="1.6"/>
	<g class="st37">
		<circle class="st35" cx="230.5" cy="264.1" r="2.2"/>
	</g>
	<circle class="st36" cx="88.9" cy="263.9" r="2.2"/>
	<circle class="st36" cx="73.2" cy="252.8" r="1.6"/>
	<g class="st37">
		<circle class="st36" cx="122.2" cy="272.5" r="2.2"/>
		<circle class="st35" cx="126.3" cy="249.2" r="2.4"/>
		<circle class="st36" cx="106.7" cy="261.4" r="1.6"/>
	</g>
	<g class="st37">
		<circle class="st35" cx="49.5" cy="270.6" r="2.2"/>
	</g>
	<g class="st37">
		<circle class="st35" cx="249.6" cy="235.2" r="2.4"/>
		<circle class="st36" cx="227.8" cy="243.2" r="1.6"/>
	</g>
	<g class="st37">
		<circle class="st36" cx="26.3" cy="263.8" r="2.2"/>
		<circle class="st36" cx="28.3" cy="283.4" r="1.7"/>
	</g>
</g>
<g id="windows">
	<path class="st13" d="M44.2,385.7h-19V382h19V385.7z M44.2,393.9h-19v-3.8h19V393.9z M44.2,402.3h-19v-3.8h19V402.3z M44.2,410.5
		h-19v-3.8h19V410.5z M44.2,418.8h-19v-3.8h19V418.8z M44.2,427h-19v-3.8h19V427z M44.2,435.4h-19v-3.8h19V435.4z M44.2,443.6h-19
		v-3.8h19V443.6z M44.2,451.9h-19v-3.8h19V451.9z M44.2,460.2h-19v-3.8h19V460.2z M44.2,468.5h-19v-3.8h19V468.5z M44.2,476.8h-19
		V473h19V476.8z M44.2,485h-19v-3.8h19V485z M44.2,493.4h-19v-3.8h19V493.4z M44.2,501.6h-19v-3.8h19V501.6z M44.2,509.9h-19v-3.8
		h19V509.9z M44.2,518.1h-19v-3.8h19V518.1z M44.2,526.5h-19v-3.8h19V526.5z M44.2,535.7h-19V532h19V535.7z M44.2,543.9h-19v-3.8h19
		V543.9z M44.2,552.3h-19v-3.8h19V552.3z M44.2,560.5h-19v-3.8h19V560.5z M44.2,568.8h-19v-3.8h19V568.8z M44.2,577h-19v-3.8h19V577
		z M44.2,585.4h-19v-3.8h19V585.4z M44.2,593.6h-19v-3.8h19V593.6z M44.2,601.9h-19v-3.8h19V601.9z M44.2,610.2h-19v-3.8h19V610.2z
		 M44.2,618.5h-19v-3.8h19V618.5z M44.2,626.8h-19V623h19V626.8z M44.2,635h-19v-3.8h19V635z M44.2,643.4h-19v-3.8h19V643.4z
		 M79.9,386.6h-19v-3.8h19V386.6z M79.9,394.8h-19v-3.7h19V394.8z M79.9,403.2h-19v-3.8h19V403.2z M79.9,411.4h-19v-3.8h19V411.4z
		 M79.9,419.7h-19V416h19V419.7z M79.9,428h-19v-3.8h19V428z M79.9,436.3h-19v-3.8h19V436.3z M79.9,444.5h-19v-3.8h19V444.5z
		 M79.9,452.8h-19v-3.8h19V452.8z M79.9,461.2h-19v-3.8h19V461.2z M79.9,469.4h-19v-3.8h19V469.4z M79.9,477.7h-19v-3.8h19V477.7z
		 M79.9,485.9h-19v-3.8h19V485.9z M79.9,494.3h-19v-3.8h19V494.3z M79.9,502.5h-19v-3.8h19V502.5z M79.9,510.8h-19V507h19V510.8z
		 M79.9,519.1h-19v-3.8h19V519.1z M79.9,527.4h-19v-3.8h19V527.4z M79.9,536.6h-19v-3.8h19V536.6z M79.9,544.9h-19v-3.8h19V544.9z
		 M79.9,553.2h-19v-3.8h19V553.2z M79.9,561.4h-19v-3.8h19V561.4z M79.9,569.7h-19V566h19V569.7z M79.9,578h-19v-3.8h19V578z
		 M79.9,586.3h-19v-3.8h19V586.3z M79.9,594.5h-19v-3.8h19V594.5z M79.9,602.8h-19v-3.8h19V602.8z M79.9,611.2h-19v-3.8h19V611.2z
		 M79.9,619.4h-19v-3.8h19V619.4z M79.9,627.7h-19v-3.8h19V627.7z M79.9,635.9h-19v-3.8h19V635.9z M79.9,644.3h-19v-3.8h19V644.3z"
		/>
	<path class="st41" d="M244.2,409.4h-9.4v-3.3h9.4V409.4z M244.2,416.5h-9.4v-3.3h9.4V416.5z M244.2,423.6h-9.4v-3.2h9.4V423.6z
		 M244.2,430.7h-9.4v-3.2h9.4V430.7z M244.2,437.7h-9.4v-3.2h9.4V437.7z M244.2,444.8h-9.4v-3.2h9.4V444.8z M244.2,452h-9.4v-3.3
		h9.4V452z M244.2,459.1h-9.4v-3.3h9.4V459.1z M244.2,466.2h-9.4V463h9.4V466.2z M244.2,473.3h-9.4v-3.2h9.4V473.3z M244.2,480.4
		h-9.4v-3.3h9.4V480.4z M244.2,487.4h-9.4v-3.2h9.4V487.4z M244.2,494.6h-9.4v-3.3h9.4V494.6z M244.2,501.6h-9.4v-3.2h9.4V501.6z
		 M244.2,508.7h-9.4v-3.2h9.4V508.7z M244.2,515.9h-9.4v-3.3h9.4V515.9z M259.4,409.3h-9.5v-3.2h9.5V409.3L259.4,409.3z
		 M259.4,416.4h-9.5v-3.3h9.5V416.4z M259.4,423.5h-9.5v-3.2h9.5V423.5z M259.4,430.6h-9.5v-3.2h9.5V430.6z M259.4,437.6h-9.5v-3.2
		h9.5V437.6z M259.4,444.8h-9.5v-3.2h9.5V444.8z M259.4,451.9h-9.5v-3.3h9.5V451.9z M259.4,459h-9.5v-3.3h9.5V459z M259.4,466.1
		h-9.5V463h9.5V466.1z M259.4,473.2h-9.5V470h9.5V473.2z M259.4,480.3h-9.5V477h9.5V480.3z M259.4,487.3h-9.5v-3.2h9.5V487.3z
		 M259.4,494.5h-9.5v-3.3h9.5V494.5z M259.4,501.5h-9.5v-3.2h9.5V501.5z M259.4,508.7h-9.5v-3.2h9.5V508.7z M259.4,515.8h-9.5v-3.3
		h9.5V515.8z M274.4,409.2H265v-3.1h9.4L274.4,409.2z M274.4,416.4H265v-3.3h9.4L274.4,416.4z M274.4,423.4H265v-3.2h9.4
		L274.4,423.4z M274.4,430.5H265v-3.2h9.4L274.4,430.5z M274.4,437.5H265v-3.2h9.4L274.4,437.5z M274.4,444.7H265v-3.2h9.4
		L274.4,444.7z M274.4,451.8H265v-3.3h9.4L274.4,451.8z M274.4,458.9H265v-3.3h9.4L274.4,458.9z M274.4,466H265v-3h9.4L274.4,466z
		 M274.4,473.1H265v-3.2h9.4L274.4,473.1L274.4,473.1z M274.4,480.3H265V477h9.4L274.4,480.3z M274.4,487.3H265v-3.2h9.4
		L274.4,487.3z M274.4,494.4H265v-3.3h9.4L274.4,494.4z M274.4,501.4H265v-3.2h9.4L274.4,501.4L274.4,501.4z M274.4,508.6H265v-3.2
		h9.4L274.4,508.6z M274.4,515.7H265v-3.3h9.4L274.4,515.7z"/>
	<path class="st42" d="M710.6,416.7h-6.7v-2.6h6.7V416.7z M710.6,422.3h-6.7v-2.6h6.7V422.3z M710.6,428h-6.7v-2.6h6.7V428z
		 M710.6,433.5h-6.7V431h6.7V433.5z M710.6,439.1h-6.7v-2.5h6.7V439.1z M710.6,444.8h-6.7v-2.6h6.7V444.8z M710.6,450.4h-6.7v-2.6
		h6.7V450.4z M710.6,456h-6.7v-2.6h6.7V456z M710.6,461.6h-6.7V459h6.7V461.6z M710.6,467.3h-6.7v-2.6h6.7V467.3z M710.6,472.9h-6.7
		v-2.6h6.7V472.9z M710.6,478.5h-6.7V476h6.7V478.5z M710.6,484.1h-6.7v-2.6h6.7V484.1z M710.6,489.8h-6.7v-2.6h6.7V489.8z
		 M710.6,495.4h-6.7v-2.6h6.7V495.4z M710.6,377.5h-6.7v-2.6h6.7V377.5z M710.6,383.1h-6.7v-2.6h6.7V383.1z M710.6,388.7h-6.7v-2.6
		h6.7V388.7z M710.6,394.4h-6.7v-2.6h6.7V394.4z M710.6,400h-6.7v-2.6h6.7V400z M710.6,405.6h-6.7v-2.6h6.7V405.6z M710.6,411.2
		h-6.7v-2.6h6.7V411.2z M698.7,416.7H692v-2.6h6.7L698.7,416.7z M698.7,422.3H692v-2.6h6.7L698.7,422.3z M698.7,428H692v-2.6h6.7
		L698.7,428z M698.7,383.1H692v-2.6h6.7L698.7,383.1z M698.7,388.7H692v-2.6h6.7L698.7,388.7z M698.7,394.4H692v-2.6h6.7
		L698.7,394.4z M698.7,400H692v-2.6h6.7L698.7,400z M698.7,405.6H692v-2.6h6.7L698.7,405.6z M698.7,411.2H692v-2.6h6.7L698.7,411.2z
		"/>
	<path class="st41" d="M617.4,456.3h-27.7v-2.7h27.7L617.4,456.3z M617.4,462.2h-27.7v-2.7h27.7L617.4,462.2z M617.4,468.2h-27.7
		v-2.7h27.7L617.4,468.2z M617.4,474.2h-27.7v-2.7h27.7L617.4,474.2z M617.4,480.2h-27.7v-2.7h27.7L617.4,480.2z M617.4,486.2h-27.7
		v-2.6h27.7L617.4,486.2z M617.4,492.2h-27.7v-2.7h27.7L617.4,492.2z M617.4,498.2h-27.7v-2.7h27.7L617.4,498.2z M617.4,437.8h-13.1
		v-2.8h13.1V437.8z M617.4,443.8h-27.7v-2.7h27.7L617.4,443.8z M617.4,450h-27.7v-2.8h27.7L617.4,450L617.4,450z M417.8,427h-12.9
		v-2.6h12.9V427z M417.8,432.6h-12.9v-2.6h12.9V432.6z M417.8,438.3h-12.9v-2.6h12.9V438.3z M417.8,444h-12.9v-2.6h12.9V444z
		 M417.8,449.7h-12.9v-2.6h12.9V449.7z M417.8,455.3h-12.9v-2.6h12.9V455.3z M417.8,461h-12.9v-2.4h12.9V461z M417.8,466.7h-12.9
		v-2.6h12.9V466.7z M417.8,472.3h-12.9v-2.6h12.9V472.3z M417.8,478h-12.9v-2.6h12.9V478z M417.8,483.7h-12.9v-2.6h12.9V483.7z
		 M417.8,489.4h-12.9V487h12.9V489.4z M417.8,495.1h-12.9v-2.6h12.9V495.1z M417.8,500.8h-12.9v-2.6h12.9V500.8z M274.4,388.4H265
		v-3.3h9.4L274.4,388.4z M274.4,395.5H265v-3.3h9.4L274.4,395.5z M274.4,402.5H265v-3.2h9.4L274.4,402.5z M258.8,388.3h-9.4V385h9.4
		V388.3z M258.8,395.5h-9.4v-3.3h9.4V395.5z M258.8,402.5h-9.4v-3.2h9.4V402.5z M244.2,388.3h-9.4V385h9.4V388.3z M244.2,395.4h-9.4
		v-3.3h9.4V395.4z M244.2,402.4h-9.4v-3.2h9.4V402.4z M401.3,421.3h-12.9v-2.4h12.9v2.6V421.3z M401.3,427h-12.9v-2.6h12.9V427z
		 M401.3,432.7h-12.9v-2.6h12.9V432.7z M401.3,438.4h-12.9v-2.6h12.9V438.4z M401.3,444h-12.9v-2.6h12.9V444z"/>
	<g class="st16">
		<path class="st13" d="M140.9,418.2h-9.4v-3.8h9.4V418.2z M140.9,426.5h-9.4v-3.8h9.4V426.5z M140.9,434.8h-9.4v-3.8h9.4V434.8z
			 M140.9,443.1h-9.4v-3.8h9.4V443.1z M140.9,451.5h-9.4v-3.8h9.4V451.5z M140.9,459.8h-9.4V456h9.4V459.8z M140.9,468.1h-9.4v-3.8
			h9.4V468.1z M140.9,476.4h-9.4v-3.8h9.4V476.4z M140.9,484.8h-9.4V481h9.4V484.8z M140.9,493.1h-9.4v-3.8h9.4V493.1z M140.9,501.4
			h-9.4v-3.8h9.4V501.4z M140.9,509.8h-9.4V506h9.4V509.8z M140.9,518.1h-9.4v-3.8h9.4V518.1z M140.9,526.4h-9.4v-3.8h9.4V526.4z
			 M140.9,534.7h-9.4v-3.8h9.4V534.7z M140.9,543.1h-9.4v-3.8h9.4V543.1z"/>
	</g>
	<g class="st16">
		<path class="st13" d="M156,418.2h-9.5v-3.8h9.5V418.2z M156,426.5h-9.5v-3.8h9.5V426.5z M156,434.8h-9.5v-3.8h9.5V434.8z
			 M156,443.1h-9.5v-3.8h9.5V443.1z M156,451.5h-9.5v-3.8h9.5V451.5z M156,459.8h-9.5V456h9.5V459.8z M156,468.1h-9.5v-3.8h9.5
			V468.1z M156,476.4h-9.5v-3.8h9.5V476.4z M156,484.8h-9.5V481h9.5V484.8z M156,493.1h-9.5v-3.8h9.5V493.1z M156,501.4h-9.5v-3.8
			h9.5V501.4z M156,509.8h-9.5V506h9.5V509.8z M156,518.1h-9.5v-3.8h9.5V518.1z M156,526.4h-9.5v-3.8h9.5V526.4z M156,534.7h-9.5
			v-3.8h9.5V534.7z M156,543.1h-9.5v-3.8h9.5V543.1z"/>
	</g>
	<g class="st16">
		<path class="st13" d="M171,418.2h-9.4v-3.8h9.4V418.2z M171,426.5h-9.4v-3.8h9.4V426.5z M171,434.8h-9.4v-3.8h9.4V434.8z
			 M171,443.1h-9.4v-3.8h9.4V443.1z M171,451.5h-9.4v-3.8h9.4V451.5z M171,459.8h-9.4V456h9.4V459.8z M171,468.1h-9.4v-3.8h9.4
			V468.1z M171,476.4h-9.4v-3.8h9.4V476.4z M171,484.8h-9.4V481h9.4V484.8z M171,493.1h-9.4v-3.8h9.4V493.1z M171,501.4h-9.4v-3.8
			h9.4V501.4z M171,509.8h-9.4V506h9.4V509.8z M171,518.1h-9.4v-3.8h9.4V518.1z M171,526.4h-9.4v-3.8h9.4V526.4z M171,534.7h-9.4
			v-3.8h9.4V534.7z M171,543.1h-9.4v-3.8h9.4V543.1z"/>
	</g>
	<path class="st13" d="M317.8,404.2h-19v-3.3h19V404.2z M317.8,411.3h-19v-3.2h19V411.3z M317.8,418.5h-19v-3.3h19V418.5z
		 M317.8,425.7h-19v-3.2h19V425.7z M317.8,432.9h-19v-3.3h19V432.9z M317.8,440h-19v-3.3h19V440z M317.8,447.3h-19V444h19V447.3z
		 M317.8,454.4h-19v-3.3h19V454.4z M317.8,461.6h-19v-3.3h19V461.6z M317.8,468.8h-19v-3.2h19V468.8z M317.8,476h-19v-3.3h19V476z
		 M317.8,483.1h-19v-3.3h19V483.1z M317.8,490.3h-19V487h19V490.3z M317.8,497.5h-19v-3.3h19V497.5z M317.8,504.7h-19v-3.3h19V504.7
		z"/>
	<path class="st41" d="M502.7,447.1h-12.9v-2.2h12.9L502.7,447.1z M502.7,451.9h-12.9v-2.2h12.9L502.7,451.9z M502.7,456.8h-12.9
		v-2.2h12.9L502.7,456.8L502.7,456.8z M502.7,461.6h-12.9v-2.2h12.9L502.7,461.6z M502.7,466.5h-12.9v-2.2h12.9L502.7,466.5z
		 M502.7,471.3h-12.9v-2.2h12.9L502.7,471.3z M502.7,476.2h-12.9v-2.3h12.9L502.7,476.2z M502.7,481h-12.9v-2.2h12.9L502.7,481z
		 M502.7,485.9h-12.9v-2.2h12.9L502.7,485.9z M502.7,490.7h-12.9v-2.3h12.9L502.7,490.7L502.7,490.7z M502.7,495.6h-12.9v-2.2h12.9
		L502.7,495.6z"/>
</g>
</svg>
