<svg xmlns="http://www.w3.org/2000/svg" viewBox="0 0 38.97 37.64"><defs><style>.cls-1{fill:#5308ab;}</style></defs><title>star_icon</title><g id="Layer_2" data-name="Layer 2"><g id="Layer_4" data-name="Layer 4"><path class="cls-1" d="M29.2,37.49,18.78,32.37,8,36.66a1.39,1.39,0,0,1-1.81-.78,1.46,1.46,0,0,1-.09-.71h0L7.74,23.66.32,14.71a1.39,1.39,0,0,1,.18-2,1.43,1.43,0,0,1,.65-.3h0l11.46-2L18.83.64A1.4,1.4,0,0,1,20.75.22a1.47,1.47,0,0,1,.52.59L26.66,11,37.92,13.9a1.39,1.39,0,0,1,1,1.69,1.35,1.35,0,0,1-.37.66l-8.08,8.31.74,11.6a1.4,1.4,0,0,1-1.3,1.48,1.42,1.42,0,0,1-.71-.15"/></g></g></svg>