<svg xmlns="http://www.w3.org/2000/svg" viewBox="0 0 34.03 34.68"><defs><style>.cls-1{fill:#5308ab;}</style></defs><title>update</title><g id="Layer_2" data-name="Layer 2"><g id="Layer_4" data-name="Layer 4"><path class="cls-1" d="M21.1,27.3l-.12,0c-5.13,1.42-8.41,1-13.07-2.66a.75.75,0,0,1-.1-1.08l.61-.75a.75.75,0,0,0-.6-1.21h-7a.75.75,0,0,0-.76.76c0,2.39.3,4.95.38,7.35,0,.67.64,1.47,1.31.47a4.59,4.59,0,0,1,.36-.41.76.76,0,0,1,1.09-.07c6.8,6.11,18.47,6.81,25.53.72A15.12,15.12,0,0,0,34,18.94c0-.08,0-.15,0-.23H27.36C27,23,25.17,25.63,21.1,27.3Z"/><path class="cls-1" d="M12.94,7.38l.1,0c5.15-1.43,8.44-1,13.12,2.69a.72.72,0,0,1,.09,1c-.27.31-.5.6-.7.87a.7.7,0,0,0,.57,1.12h7.19a.7.7,0,0,0,.71-.71c0-2.44-.3-5.07-.39-7.51a.7.7,0,0,0-1.22-.45c-.16.17-.32.35-.47.54a.71.71,0,0,1-1,.06c-6.8-6.13-18.5-6.85-25.57-.75A15.12,15.12,0,0,0,0,15.74c0,.35,0,.67,0,1H6.61C6.83,12,8.63,9.14,12.94,7.38Z"/></g></g></svg>