<svg xmlns="http://www.w3.org/2000/svg" xmlns:xlink="http://www.w3.org/1999/xlink" viewBox="0 0 578 512">
  <defs>
    <style>
      .cls-2{fill:#fefefe}.cls-6{opacity:.16;mix-blend-mode:multiply}.cls-13{font-size:57px;font-family:AvenirNext-Bold,Avenir Next;font-weight:700;fill:#1c08a0}.cls-16,.cls-20{fill:none;stroke:#1c08a0;stroke-width:1.5px;stroke-miterlimit:10}.cls-20{fill:#bccbc6;stroke:#cedfd9;stroke-width:3px;opacity:.6}

      .touch-up{ -webkit-animation: tuchup 5s infinite; animation: armove 5s infinite; animation-direction: alternate;}@keyframes tuchup {to {transform: translateY(-20px); transform: translateX(-20px)}}@-webkit-keyframes tuchup {to {transform: translateY(0px); transform: translateX(0px)}}

      .touch-left{ -webkit-animation: tuchleft 6s infinite; animation: tuchleft 6s infinite; animation-direction: alternate-reverse;}@keyframes tuchleft {to {transform: translateX(-50px); to: translateY(-40px)}}@-webkit-keyframes tuchleft {to {transform: translateX(0px); transform: translateY(0px)}}

      .fade-in{animation: fadeIn ease 5s;-webkit-animation: fadeIn ease 5s;-moz-animation: fadeIn ease 5s;-o-animation: fadeIn ease 5s;-ms-animation: fadeIn ease 5s;}@keyframes fadeIn{0% {opacity:0;}100% {opacity:1;}}@-webkit-keyframes fadeIn {0% {opacity:0;}100% {opacity:1;}}@-o-keyframes fadeIn {0% {opacity:0;}100% {opacity:1;}}@-ms-keyframes fadeIn {0% {opacity:0;}100% {opacity:1;}}

      .fade{animation: pulse 10s infinite; animation-direction: alternate; animation-delay: 5s;}@keyframes pulse{to {opacity:1;}}
    </style>
    <linearGradient id="linear-gradient" x1="55.76" y1="342.38" x2="450.17" y2="342.38" gradientUnits="userSpaceOnUse">
      <stop offset="0" stop-color="#bccbc6"/>
      <stop offset=".51" stop-color="#b3c6c1"/>
      <stop offset=".99" stop-color="#a5bfb9"/>
    </linearGradient>
    <linearGradient id="linear-gradient-2" x1="45.79" y1="157.32" x2="287.9" y2="157.32" gradientUnits="userSpaceOnUse">
      <stop offset=".01" stop-color="#f0f0f1"/>
      <stop offset=".27" stop-color="#dfe4e3"/>
      <stop offset=".72" stop-color="#c5d2ce"/>
      <stop offset="1" stop-color="#bccbc6"/>
    </linearGradient>
    <linearGradient id="linear-gradient-3" x1="49.18" y1="166.3" x2="296.83" y2="153.32" gradientUnits="userSpaceOnUse">
      <stop offset=".01" stop-color="#a5bfb9"/>
      <stop offset=".49" stop-color="#b3c6c1"/>
      <stop offset="1" stop-color="#bccbc6"/>
    </linearGradient>
    <linearGradient id="linear-gradient-4" x1="237.92" y1="311.08" x2="358.68" y2="311.08" xlink:href="#linear-gradient"/>
    <linearGradient id="linear-gradient-5" x1="276.14" y1="446.2" x2="566.4" y2="446.2" xlink:href="#linear-gradient"/>
    <linearGradient id="linear-gradient-6" x1="277.3" y1="403.61" x2="566.68" y2="403.61" xlink:href="#linear-gradient-2"/>
    <linearGradient id="linear-gradient-7" x1="341.59" y1="448.49" x2="354.88" y2="448.49" xlink:href="#linear-gradient-3"/>
    <linearGradient id="linear-gradient-8" x1="473.99" y1="356.62" x2="509.74" y2="356.62" xlink:href="#linear-gradient-3"/>
    <linearGradient id="linear-gradient-9" x1="451.71" y1="322.16" x2="527.67" y2="322.16" gradientUnits="userSpaceOnUse">
      <stop offset="0" stop-color="#1c08a0"/>
      <stop offset=".28" stop-color="#1a0897"/>
      <stop offset=".76" stop-color="#16077d"/>
      <stop offset=".99" stop-color="#14076e"/>
    </linearGradient>
    <linearGradient id="linear-gradient-10" x1="57.98" y1="292.02" x2="449.99" y2="292.02" xlink:href="#linear-gradient-2"/>
    <linearGradient id="linear-gradient-11" x1="85.24" y1="273.25" x2="366.21" y2="273.25" xlink:href="#linear-gradient"/>
    <linearGradient id="linear-gradient-12" x1="18.04" y1="439.59" x2="237.07" y2="439.59" gradientUnits="userSpaceOnUse">
      <stop offset="0" stop-color="#bccbc6"/>
      <stop offset=".28" stop-color="#c5d2ce"/>
      <stop offset=".73" stop-color="#dfe4e3"/>
      <stop offset=".99" stop-color="#f0f0f1"/>
    </linearGradient>
    <linearGradient id="linear-gradient-13" x1="17.63" y1="464.39" x2="237" y2="464.39" xlink:href="#linear-gradient-3"/>
    <linearGradient id="linear-gradient-14" x1="50.89" y1="399" x2="77.35" y2="399" xlink:href="#linear-gradient"/>
    <linearGradient id="linear-gradient-15" x1="185.33" y1="473.09" x2="198.62" y2="473.09" xlink:href="#linear-gradient"/>
  </defs>
  <g style="isolation:isolate">
    <g id="Layer_2" data-name="Layer 2">
      <g id="paginas_web_copy" data-name="paginas_web copy">
        <path class="cls-2" d="M41.03 425.74l102.45 57.17L206 445.03l-101.45-57.17-63.52 37.88z"/>
        <path d="M450 273.12c-2.21-1.07-4 1.21-5.61 2.15-3.41 2-56.89 31.89-70.17 39.34Q334 337.2 293.65 359.54c-13.32 7.42-26.58 14.92-39.91 22.3q-10.1 5.58-20.2 11.12l-9.15 5c-3.23 1.77-6.26 3.14-10 1.93-3.26-1.07-6.36-3.31-9.34-4.95L194 388.88q-10.31-5.7-20.58-11.45c-13.3-7.44-26.66-14.78-40-22.23s-26.68-15-40.06-22.46c-6.54-3.64-13.11-7.23-19.67-10.85-3.19-1.76-16.64-11.35-16.86-10.28-1.11 5.35-1.11 7-1.11 8.56 0 2.52 1.87 3.68 4 5.47a17.66 17.66 0 0 0 2.75 1.55c1.5.86 2.7 1.82 4.31 2.6 6.43 3.12 12.66 6.91 19 10.39 13.84 7.63 27.58 15.43 41.4 23.09 26.43 14.67 52.28 29.39 78.6 44.12 2.67 1.49 5.24 3.23 8.21 4.12 3.51 1.05 6.9-.1 10.14-1.62 7.05-3.31 13.69-7.62 20.46-11.44q20.16-11.35 40.41-22.56 41.22-22.83 82.37-45.77c13.24-7.41 26.42-14.89 39.67-22.28 7-3.9 14-7.78 20.92-11.75 6.06-3.47 12.65-6.37 18.53-10.08 4.3-2.73 3.75-12.78 3.51-12.89z" fill="url(#linear-gradient)"/>
        <path d="M56.87 312.61c0-16.6.81-167 0-173.12a1.82 1.82 0 0 1 0-.57c.59-2.74 3-4.44 5.42-5.85 9.93-5.71 20-11.17 30-16.7 8.44-4.65 46.86-26.11 57.66-32.1 8.91-5 18-9.65 26.87-14.6 16.21-9 32.34-18.14 48.54-27.17 8.1-4.52 16.29-8.89 24.4-13.38Q268 19.07 286 8.92c.33-.19 1.17-.92 1.32-1 1.1-.59.38-2-.41-2.94l-1.84-2.23a2.1 2.1 0 0 0-2.6-.49L46.83 131.33a2 2 0 0 0-1 1.71v174.9a2 2 0 0 0 1.46 1.89s9.58 3.09 9.58 2.78z" fill="url(#linear-gradient-2)"/>
        <path d="M62.42 298c-.39-1.62-1.12-3.23-1.12-4.84q-.07-74.53 0-149.06a7.8 7.8 0 0 1 .3-1.38l3.86-2.33C66.05 138.75 225.28 51.75 285.8 18a4.08 4.08 0 0 1 .71.37 1 1 0 0 1 .34.45 9.43 9.43 0 0 1 .21 1.66V174.4c-1.5 1-220.36 122.84-222.31 123.6z" fill="#fff"/>
        <path d="M288 7a19.13 19.13 0 0 1 1.44 5.29c0 57 1 114 1 171-.37.36-1.73.71-2.1 1.07-6.32 3.58-12.6 7.2-18.95 10.72-6.19 3.45-12.48 6.73-18.66 10.19-12.5 7-24.93 14.18-37.45 21.17-10.94 6.11-22 12-33 18.11-13.48 7.5-26.89 15.14-40.36 22.66-8.41 4.69-16.92 9.22-25.33 13.91q-20 11.13-39.87 22.41c-4.55 2.59-9 5.38-13.45 8.08-1.55.35-2.45.63-4.43 1.07-.17-1.64.14-2.93 0-4.27 0-55.61-1.11-111.22-1.11-166.82-.74-4.35 2.31-6.64 5.45-8.45 9.92-5.71 20-11.17 30-16.7 8.45-4.66 16.94-9.23 25.36-13.92 10.79-6 21.5-12.19 32.31-18.19 8.91-4.94 18-9.64 26.86-14.59 16.21-9 32.35-18.14 48.54-27.17 8.1-4.52 16.29-8.89 24.41-13.38Q266.86 19.14 284.92 9A30 30 0 0 1 288 7zm-8.55 170.54V31.87a8.45 8.45 0 0 0-.21-1.58.87.87 0 0 0-.32-.42 4.45 4.45 0 0 0-.67-.35C221 61.46 70.28 143.79 69.71 145.34l-3.65 2.21a7.6 7.6 0 0 0-.29 1.3v141.07c0 1.52.22 5.08.22 5.08s0 1 2 0c.54-.27 1.33-.63 1.86-.91 14.22-7.63 208.23-115.59 209.6-116.55z" fill="url(#linear-gradient-3)"/>
        <path d="M237.92 320.88c1.58-1.51 2.46-2.78 3.7-3.46 6.2-3.43 12.51-6.66 18.74-10 9.09-4.91 18.14-9.89 27.2-14.84l23.66-13a7.77 7.77 0 0 1 7.76-.16c4.59 2.39 9.28 4.62 13.83 7.07 7.08 3.81 14.1 7.72 21.1 11.65 1.47.82 2.77 1.89 4.77 3.28-1.61 1.42-2.65 2.74-4 3.5-12.72 7-25.53 13.92-38.28 20.91-10.72 5.89-21.4 11.86-31.9 17.69-3.7.61-6.5-.54-9.5-2.27-8.59-5-17.47-9.51-26.22-14.26-3.51-1.88-6.91-3.87-10.86-6.11z" fill="url(#linear-gradient-4)"/>
        <path d="M354.88 467.74c9.52 5.36 22.59 12.54 31.95 17.62 4.77 2.59 12.55 2.57 17.28-.07 11.44-6.39 22.81-12.9 34.2-19.36 12.64-7.16 25.23-14.38 37.91-21.48 12.84-7.18 25.78-14.19 38.62-21.38 10-5.58 19.86-11.34 29.8-17 6.79-3.86 19.55-8.93 21.76-16.41l-1.11 15c0 1.56-3 3.46-4.43 4.28C558.33 410.41 447.52 475 409 497.1c-2.28 1.3-4.3 2.45-6 3.41a16.07 16.07 0 0 1-6 2.19c-3 .3-7.91-1.7-8-1.7-1.1-.53-109.81-57.51-112-62s.36-19.38.36-19.38l2.21 6.42 17.72 10.69s55.38 29.77 57.59 31.01z" fill="url(#linear-gradient-5)"/>
        <path class="cls-2" d="M293.27 406.44L417.03 476l136.39-75.74-125.64-70.97-134.51 77.15z"/>
        <path d="M561.82 380.87l-109.17-61.09a10.89 10.89 0 0 0-10.61.1L282.38 411c-6.67 3.81-6.79 13.89-.21 17.57l106.17 58.09C395 489 397 490 404 486.5l157.6-89.13c6.68-3.81 6.8-12.82.22-16.5zm-143.54 86.5l-112.7-60.79L428 337l111.38 62z" fill="url(#linear-gradient-6)"/>
        <ellipse cx="348.23" cy="448.49" rx="6.64" ry="6.42" fill="url(#linear-gradient-7)"/>
        <path d="M509.71 365.85l-.1.36a1.09 1.09 0 0 1-1.57.63l-33.52-18.66a1 1 0 0 1-.47-1.25 1.09 1.09 0 0 1 1.51-.55c4.72 2.45 9.47 4.85 14.14 7.4 5.5 3 11.84 6.61 19.5 10.91a1 1 0 0 1 .51 1.16z" fill="url(#linear-gradient-8)"/>
        <text class="cls-13" transform="rotate(-28.4 465.5833333 -185.5833333)">
          &lt;
        </text>
        <text class="cls-13" transform="rotate(-28.62 447.8864201 -257.9453152)">
          /
        </text>
        <text class="cls-13" transform="rotate(-28.62 436.062935 -304.3226042)">
          &gt;
        </text>
        <g id="bootstrap" class="fade-in">
          <path d="M149.29 436.6l-23.14 14c-7.48 4-17.86 3.31-24.42-.37l-20.27-11.41c-6.56-3.68-5.8-9.92 1.69-13.94l24.13-14c7.49-4 18.87-3.3 25.42.37l20.3 11.41c6 3.34 3.77 9.91-3.71 13.94z" fill="#1c08a0"/>
          <path class="cls-2" d="M124.26 426.24a14.71 14.71 0 0 1 11.55.59c3.48 1.78 4.16 4 1.82 6.46a16.33 16.33 0 0 1-3.91 3c-4.91 2.76-10 5.42-15.13 8.17l-25.75-14.41c.3-.19.58-.39.91-.56 4.61-2.48 9.15-5 13.86-7.41a28.76 28.76 0 0 1 5.71-2.14 12.58 12.58 0 0 1 8.66.63c2.67 1.25 3.75 2.85 2.61 4.95-.12.21-.25.43-.36.64-.01.02.02.05.03.08zm-4.16 13.26c3.49-1.88 7-3.64 10.21-5.53 2.43-1.42 2.23-3.18-.1-4.37a8.65 8.65 0 0 0-8 .21c-3.14 1.62-6.19 3.3-9.27 4.95a4.34 4.34 0 0 0-.54.42zm-11.38-6.39c3.35-1.8 6.76-3.48 9.82-5.33 1.83-1.11 1.29-2.73-.68-3.64a7.22 7.22 0 0 0-6.68.19c-1.73.86-3.37 1.79-5.05 2.69l-4.23 2.27z" id="zYgBU1"/>
        </g>
        <g id="torus" class="fade" opacity="0">
          <ellipse id="top" class="cls-16" cx="444.51" cy="389.48" rx="4.78" ry="10.58" transform="rotate(-69.85 444.5160854 389.4779858)"/>
          <ellipse id="top-middle" class="cls-16" cx="438.93" cy="392.83" rx="3.38" ry="6.84" transform="rotate(-72.76 438.9379388 392.8268022)"/>
          <ellipse id="center" class="cls-16" cx="429.7" cy="398.38" rx="7.11" ry="3.73" transform="rotate(-15.67 429.711602 398.3799266)"/>
          <ellipse id="bottom-middle" class="cls-16" cx="420.57" cy="403.86" rx="3.38" ry="6.84" transform="rotate(-72.76 420.5772414 403.86362)"/>
          <ellipse id="bottom" class="cls-16" cx="415.37" cy="406.99" rx="4.78" ry="10.58" transform="rotate(-69.85 415.3699391 406.994173)"/>
          <ellipse id="outer-bottom" class="cls-16" cx="416.05" cy="406.58" rx="8.1" ry="20.38" transform="rotate(-67.06 416.0101153 406.5670739)"/>        
          <ellipse id="outer-middle-bottom" class="cls-16" cx="424.85" cy="401.29" rx="10.25" ry="25.8" transform="rotate(-67.06 424.799817 401.2829365)"/>        
         <ellipse id="outer-middle-top" class="cls-16" cx="434.62" cy="395.42" rx="10.25" ry="25.8" transform="rotate(-67.06 434.5745262 395.4136019)"/>
          <ellipse id="outer-top" class="cls-16" cx="443.77" cy="389.92" rx="8.1" ry="20.38" transform="rotate(-67 443.9682396 390.3593763)"/>        
        </g>
        <path class="touch-up touch-left" d="M464.49 383.51c-3.18 3.57-6.9 6.65-9.6 10.66a1.63 1.63 0 0 1-2.22.61 1.59 1.59 0 0 1-.87-2 163.71 163.71 0 0 0 3.87-16.5c.11-.61 59.33-122.27 60.61-124.78a3 3 0 0 1 2-1.84c2.73-.65 5.57-.49 7.78 1.9a5.39 5.39 0 0 1 1.09 1.53c.86 1.92.45 2.65.27 3-.42.91-61.8 126.14-62.93 127.42z" fill="url(#linear-gradient-9)" id="pen"/>
        <path d="M450 273.1l-158.44-90.3a2.11 2.11 0 0 0-2.05 0L58.66 310.92c-.32.18-.68.46-.68.69a8.48 8.48 0 0 0 1.09 2.93 1.94 1.94 0 0 0 .56.65c1.91 1.28 3.76 2.63 5.76 3.75 8.25 4.63 16.57 9.14 24.84 13.73q12.87 7.15 25.7 14.38c6.51 3.64 13 7.32 19.51 10.95q15.24 8.49 30.56 17c6.36 3.54 12.69 7.11 19.06 10.64q13.13 7.28 26.28 14.51a9.72 9.72 0 0 0 10 .06l9.1-5c8.28-4.56 16.58-9.1 24.85-13.69 8.59-4.77 17.13-9.6 25.7-14.39q12.15-6.78 24.31-13.55c8.24-4.63 16.45-9.32 24.71-13.92s16.6-9.09 24.87-13.68c8.74-4.86 17.44-9.78 26.17-14.66q11.91-6.64 23.83-13.28 12.87-7.17 25.71-14.37l.15-.09L450 273.13v-.03zm-96.9 31.53l-70.4 38.51a2.12 2.12 0 0 1-2 0l-35.33-19.85a1.93 1.93 0 0 1 0-3.39l65.35-37.68a2.11 2.11 0 0 1 1.94-.08l40.37 19a1.94 1.94 0 0 1 .07 3.49zm10.53-71.17a2 2 0 0 1-1.05 1.72L146.06 350.5a2.12 2.12 0 0 1-2 0l-54.23-29.87a2 2 0 0 1-1-1.38l-.71-4.14a2 2 0 0 1 1-2L303.9 195.62a2.1 2.1 0 0 1 2.06 0l56.69 33a2 2 0 0 1 1 1.69z" fill="url(#linear-gradient-10)"/>
        <path d="M87.2 312.28c72.28-40.28 141.54-77.89 214.2-118.43 2.07 1.25 13.84 7.57 15.72 8.69C331.89 211.3 342.3 216.11 357 225c2.49 1.5 11.07 5.34 8.86 9.62-1.69 1.22-169.67 91.45-178.3 96.24-9.46 5.25-18.9 10.18-28.35 15.46-3.15 1.75-6.33 3.45-9.46 5.24s-5.67 1.24-8.21-.24c-5.65-3.28-11.33-6.52-17-9.81-6.23-3.63-12.44-7.3-18.66-10.95q-7.12-4.17-14.25-8.32a21.13 21.13 0 0 1-5.49-4.17 3.81 3.81 0 0 1 1.06-5.79z" fill="url(#linear-gradient-11)"/>
        <path class="cls-20" d="M144.91 338.71l203.18-111.42M125.91 329.71l202.18-111.42M107.91 319.71l202.18-111.42"/>
        <path fill="none" d="M41.03 425.74l102.45 57.17L206 445.03l-101.45-56.17-63.52 36.88z"/>
        <path d="M232.29 453c-2.08-1.09-4.09-2.35-6.15-3.5l-19.53-10.89q-12.15-6.78-24.31-13.53c-8.27-4.58-16.58-9.11-24.83-13.72-8.09-4.52-16.13-9.12-24.21-13.67-8.86-5-17.83-9.83-26.6-15-11.38-6.69-22.84-8.28-34.76-1.39-4.56 2.64-9.18 5.18-13.78 7.76-11.25 6.32-22.58 12.51-33.7 19-3.74 2.19-6.71 5.3-6.35 10.05V420.67c.7.17 25.92 14.36 32.29 17.88Q63.3 445.72 76.14 453q12.36 6.94 24.72 13.92c8.09 4.53 41.48 23.08 50 28 16.76 9.27 19 10.27 33.67 1.16C209 481 219.63 474.46 237 462a8.85 8.85 0 0 0-4.71-9zm-88.81 29.91L41 425.74l63.52-36.88L206 445z" fill="url(#linear-gradient-12)"/>
        <path d="M18.13 421.71a5.49 5.49 0 0 1 0 .58 14.4 14.4 0 0 0-.09 2.25c0-.39 0-.78.09-1.18a11.31 11.31 0 0 0 0-1.65z" fill="#cedfd9"/>
        <path d="M184.15 494c-14.7 9.11-16.91 8.11-33.67-1.16-8.52-4.88-17.12-9.61-25.7-14.4q-12.14-6.8-24.3-13.56-12.37-6.95-24.72-13.88-12.84-7.2-25.71-14.37c-6.37-3.57-21.42-12.63-30.25-17.37a10.35 10.35 0 0 0-2-.56v-1 2a11.3 11.3 0 0 1 0 1.65c0 .4-.07.79-.08 1.18-.19 4.77 1.95 8.29 6.6 10.6 2.77 1.38 5.4 3 8.09 4.51 8.56 4.78 66.35 37.18 74.6 41.77s16.55 9.09 24.83 13.64c7.64 4.19 15.2 8.55 23 12.53 3.14 1.61 6.41 3 9.8 4.4 3.86 1.6 10.26 1.45 14-.42 3.15-1.58 47.46-28.84 56.92-36.13a4.1 4.1 0 0 0 1.59-3.25v-10.64C219.63 472 208.63 479 184.15 494z" fill="url(#linear-gradient-13)"/>
        <path d="M76 391.05l1.4 1.26L51.93 407l-1-1.14c3.51-2.15 7-4.36 10.55-6.45 3.98-2.41 8.73-5.08 14.52-8.36z" fill="url(#linear-gradient-14)"/>
        <ellipse cx="191.98" cy="473.09" rx="6.64" ry="6.42" fill="url(#linear-gradient-15)"/>
      </g>
    </g>
  </g>
</svg>
